<svg xmlns="http://www.w3.org/2000/svg" xmlns:xlink="http://www.w3.org/1999/xlink" version="1.1" width="1000" height="500" viewBox="0 0 1000 500">
<rect x="0" y="0" width="1000" height="500" fill="#ffffff">
</rect>
<g>
<rect x="0" y="0" rx="5" ry="5" width="1000.0" height="500.0" fill="#ffffff" opacity="0">
</rect>
<rect x="0" y="0" rx="5" ry="5" width="1000.0" height="500.0" fill="#ffffff" opacity="0">
</rect>
<rect x="0" y="0" rx="5" ry="5" width="1000.0" height="500.0" fill="#ffffff" opacity="0">
</rect>
<rect x="0" y="0" rx="5" ry="5" width="1000.0" height="500.0" fill="#ffffff" opacity="0">
</rect>
<g transform=" translate(16.0 -16.0)">
<defs>
<clipPath id="ClipPath0">
<rect x="22" y="46" width="949" height="366">
</rect>
</clipPath>
</defs>
<g clip-path="url(#ClipPath0)">
<defs>
<clipPath id="ClipPath1">
<rect x="22" y="48" width="947" height="364">
</rect>
</clipPath>
</defs>
<g clip-path="url(#ClipPath1)">
<g transform="">
<polyline id="Polyline_178" points="28.0,249.42  33.56,252.47  39.12,256.02  44.68,260.6  50.24,263.14  55.8,252.97  61.36,243.32  66.92,241.28  72.48,241.28  78.04,242.81  83.6,246.37  89.15,249.42  94.71,252.47  100.27,255.01  105.83,257.55  111.39,260.09  116.95,262.12  122.51,262.12  128.07,261.11  133.63,259.58  139.19,259.58  144.75,260.09  150.31,261.61  155.87,263.65  161.43,265.17  166.99,266.7  172.55,267.21  178.11,269.24  183.67,269.75  189.23,268.22  194.79,261.61  200.35,259.58  205.9,258.56  211.46,258.56  217.02,261.11  222.58,265.17  228.14,269.75  233.7,273.3  239.26,275.34  244.82,276.86  250.38,277.37  255.94,274.32  261.5,265.17  267.06,257.55  272.62,251.45  278.18,253.48  283.74,259.58  289.3,266.19  294.86,272.29  300.42,277.37  305.98,282.45  311.54,288.04  317.1,289.57  322.65,273.3  328.21,257.55  333.77,246.37  339.33,239.76  344.89,243.82  350.45,251.96  356.01,261.11  361.57,269.75  367.13,277.88  372.69,285.5  378.25,292.11  383.81,294.65  389.37,275.85  394.93,257.55  400.49,245.35  406.05,239.25  411.61,242.3  417.17,250.43  422.73,259.58  428.29,268.22  433.85,274.32  439.4,280.42  444.96,286.01  450.52,288.04  456.08,270.76  461.64,252.97  467.2,240.77  472.76,233.66  478.32,236.2  483.88,243.82  489.44,252.97  495.0,262.12  500.56,269.75  506.12,276.35  511.68,282.96  517.24,283.98  522.8,264.66  528.36,246.37  533.92,234.17  539.48,227.05  545.04,229.59  550.6,237.72  556.15,246.37  561.71,255.01  567.27,262.63  572.83,269.24  578.39,275.85  583.95,275.85  589.51,254.5  595.07,236.71  600.63,224.0  606.19,217.9  611.75,219.94  617.31,226.54  622.87,235.18  628.43,243.82  633.99,250.43  639.55,256.02  645.11,260.6  650.67,260.6  656.23,240.77  661.79,224.51  667.35,213.33  672.9,208.24  678.46,211.29  684.02,218.41  689.58,226.54  695.14,235.18  700.7,242.81  706.26,250.94  711.82,258.56  717.38,259.58  722.94,238.23  728.5,221.46  734.06,211.29  739.62,204.69  745.18,207.23  750.74,214.34  756.3,220.95  761.86,228.07  767.42,234.68  772.98,241.28  778.54,248.4  784.1,250.43  789.65,232.13  795.21,177.24  800.77,166.06  806.33,216.89  811.89,243.32  817.45,262.63  823.01,272.8  828.57,280.93  834.13,287.54  839.69,292.62  845.25,291.6  850.81,257.55  856.37,216.89  861.93,211.8  867.49,220.95  873.05,234.68  878.61,253.48  884.17,263.14  889.73,267.71  895.29,272.29  900.85,268.73  906.4,267.21  911.96,267.21  917.52,263.65  923.08,262.12  928.64,254.5  934.2,252.97  939.76,259.07  945.32,270.25  950.88,278.39 " fill="none" stroke="#287fc7" stroke-width="3.0">
</polyline>
</g>
<g transform="">
<polyline id="Polyline_513" points="28.0,227.56  33.56,229.34  39.12,231.88  44.68,234.68  50.24,263.14  55.8,252.97  61.36,243.32  66.92,241.28  72.48,241.28  78.04,242.81  83.6,246.37  89.15,249.42  94.71,252.47  100.27,255.01  105.83,257.55  111.39,260.09  116.95,262.12  122.51,262.12  128.07,261.11  133.63,259.58  139.19,259.58  144.75,260.09  150.31,261.61  155.87,263.65  161.43,265.17  166.99,266.7  172.55,267.21  178.11,269.24  183.67,269.75  189.23,268.22  194.79,261.61  200.35,259.58  205.9,258.56  211.46,258.56  217.02,261.11  222.58,265.17  228.14,269.75  233.7,273.3  239.26,275.34  244.82,276.86  250.38,277.37  255.94,274.32  261.5,265.17  267.06,257.55  272.62,251.45  278.18,253.48  283.74,259.58  289.3,266.19  294.86,272.29  300.42,277.37  305.98,282.45  311.54,288.04  317.1,289.57  322.65,273.3  328.21,257.55  333.77,246.37  339.33,239.76  344.89,243.82  350.45,251.96  356.01,261.11  361.57,269.75  367.13,277.88  372.69,285.5  378.25,292.11  383.81,294.65  389.37,275.85  394.93,257.55  400.49,245.35  406.05,239.25  411.61,242.3  417.17,250.43  422.73,259.58  428.29,268.22  433.85,274.32  439.4,280.42  444.96,286.01  450.52,288.04  456.08,270.76  461.64,252.97  467.2,240.77  472.76,233.66  478.32,236.2  483.88,243.82  489.44,252.97  495.0,262.12  500.56,269.75  506.12,276.35  511.68,282.96  517.24,241.54  522.8,230.61  528.36,218.16  533.92,206.21  539.48,200.11  545.04,201.38  550.6,205.7  556.15,210.79  561.71,216.38  567.27,221.97  572.83,226.8  578.39,232.13  583.95,233.15  589.51,220.44  595.07,206.21  600.63,197.06  606.19,193.0  611.75,193.76  617.31,197.32  622.87,202.4  628.43,207.74  633.99,212.31  639.55,216.12  645.11,219.68  650.67,219.43  656.23,207.99  661.79,195.03  667.35,187.91  672.9,184.86  678.46,186.39  684.02,189.95  689.58,195.03  695.14,200.62  700.7,205.7  706.26,210.79  711.82,217.39  717.38,218.41  722.94,206.47  728.5,194.27  734.06,185.88  739.62,182.58  745.18,184.1  750.74,188.17  756.3,192.23  761.86,196.81  767.42,201.38  772.98,205.96  778.54,211.04  784.1,212.82  789.65,202.65  795.21,171.65  800.77,164.28  806.33,189.69  811.89,202.4  817.45,212.06  823.01,217.39  828.57,222.73  834.13,226.8  839.69,230.61  845.25,231.37  850.81,215.11  856.37,193.25  861.93,185.88  867.49,189.18  873.05,196.55  878.61,205.96  884.17,211.55  889.73,214.6  895.29,217.14  900.85,216.63  906.4,216.89  911.96,217.65  917.52,216.63  923.08,216.38  928.64,212.82  934.2,212.06  939.76,214.85  945.32,219.94  950.88,224.76 " fill="none" stroke="#c79f27" stroke-width="3.0">
</polyline>
</g>
<g transform="">
<polygon points="28.0,289.38  33.56,294.75  39.12,300.17  44.68,307.99  517.24,361.58  522.8,326.93  528.36,297.94  533.92,285.28  539.48,276.31  545.04,281.17  550.6,296.27  556.15,311.42  561.71,325.64  567.27,336.98  572.83,346.84  578.39,355.77  583.95,353.91  589.51,316.76  595.07,292.47  600.63,273.26  606.19,263.44  611.75,267.8  617.31,279.98  622.87,295.13  628.43,309.81  633.99,320.13  639.55,328.98  645.11,335.41  650.67,335.88  656.23,300.72  661.79,278.41  667.35,259.8  672.9,250.99  678.46,256.83  684.02,270.45  689.58,284.16  695.14,298.38  700.7,310.65  706.26,324.36  711.82,333.84  717.38,334.86  722.94,296.32  728.5,271.18  734.06,257.76  739.62,245.11  745.18,249.51  750.74,262.21  756.3,273.46  761.86,285.22  767.42,295.55  772.98,305.87  778.54,316.71  784.1,319.2  789.65,286.04  795.21,187.46  800.77,169.31  806.33,266.61  811.89,318.13  817.45,355.1  823.01,374.1  828.57,387.34  834.13,398.59  839.69,406.0  845.25,401.73  850.81,335.15  856.37,260.1  861.93,259.2  867.49,279.04  873.05,304.38  878.61,340.38  884.17,357.47  889.73,364.83  895.29,373.12  900.85,363.99  906.4,359.21  911.96,357.82  917.52,349.61  923.08,345.76  928.64,330.7  934.2,327.79  939.76,339.93  945.32,362.26  950.88,376.43  950.88,73.09  945.32,77.61  939.76,89.78  934.2,96.33  928.64,94.93  923.08,86.99  917.52,83.65  911.96,77.48  906.4,74.56  900.85,69.27  895.29,61.16  889.73,64.37  884.17,65.63  878.61,71.54  873.05,88.73  867.49,99.33  861.93,112.56  856.37,126.4  850.81,95.06  845.25,61.01  839.69,55.22  834.13,55.0  828.57,58.12  823.01,60.69  817.45,69.01  811.89,86.67  806.33,112.78  800.77,159.25  795.21,155.83  789.65,119.27  784.1,106.43  778.54,105.37  772.98,106.04  767.42,107.22  761.86,108.39  756.3,111.01  750.74,114.13  745.18,118.69  739.62,120.04  734.06,114.0  728.5,117.35  722.94,116.61  717.38,101.96  711.82,100.95  706.26,97.21  700.7,100.76  695.14,102.86  689.58,105.9  684.02,109.44  678.46,115.94  672.9,118.73  667.35,116.03  661.79,111.65  656.23,115.26  650.67,102.98  645.11,103.95  639.55,103.27  633.99,104.49  628.43,105.66  622.87,109.67  617.31,114.65  611.75,119.72  606.19,122.55  600.63,120.87  595.07,119.95  589.51,124.12  583.95,112.39  578.39,108.5  572.83,106.75  567.27,106.96  561.71,107.12  556.15,110.15  550.6,115.13  545.04,121.59  539.48,123.92  533.92,127.14  528.36,138.37  522.8,134.29  517.24,121.49  44.68,161.36  39.12,163.59  33.56,163.93  28.0,165.74 " fill="#9471ff" fill-opacity="0.5">
</polygon>
</g>
</g>
<path d="M22.0 405.97L969.0 405.97" stroke="#2a3037" stroke-dasharray="1,2" fill="none" opacity="0.4">
</path>
<path d="M22.0 304.31L969.0 304.31" stroke="#2a3037" stroke-dasharray="1,2" fill="none" opacity="0.4">
</path>
<path d="M22.0 202.65L969.0 202.65" stroke="#2a3037" stroke-dasharray="1,2" fill="none" opacity="0.4">
</path>
<path d="M22.0 101.0L969.0 101.0" stroke="#2a3037" stroke-dasharray="1,2" fill="none" opacity="0.4">
</path>
<path d="M28.0 412.0L28.0 48.0" stroke="#2a3037" stroke-dasharray="1,2" fill="none" opacity="0.4">
</path>
<path d="M161.43 412.0L161.43 48.0" stroke="#2a3037" stroke-dasharray="1,2" fill="none" opacity="0.4">
</path>
<path d="M294.86 412.0L294.86 48.0" stroke="#2a3037" stroke-dasharray="1,2" fill="none" opacity="0.4">
</path>
<path d="M428.29 412.0L428.29 48.0" stroke="#2a3037" stroke-dasharray="1,2" fill="none" opacity="0.4">
</path>
<path d="M561.71 412.0L561.71 48.0" stroke="#2a3037" stroke-dasharray="1,2" fill="none" opacity="0.4">
</path>
<path d="M695.14 412.0L695.14 48.0" stroke="#2a3037" stroke-dasharray="1,2" fill="none" opacity="0.4">
</path>
<path d="M828.57 412.0L828.57 48.0" stroke="#2a3037" stroke-dasharray="1,2" fill="none" opacity="0.4">
</path>
<path d="M962.0 412.0L962.0 48.0" stroke="#2a3037" stroke-dasharray="1,2" fill="none" opacity="0.4">
</path>
</g>
<defs>
<clipPath id="ClipPath2">
<rect x="0" y="49" width="22" height="363">
</rect>
</clipPath>
</defs>
<g clip-path="url(#ClipPath2)">
<g fill="#626f80" stroke="#626f80" transform="translate(-0.76 409.27) scale(0.012 -0.012)">
<defs>
<path id="g45/TT0" d="M272.0 214.0 L48.0 214.0 L48.0 271.0 L272.0 271.0 L272.0 214.0Z">
</path>
</defs>
<use x="0" y="0" xlink:href="#g45/TT0"/>
<defs>
<path id="g50/TT0" d="M51.0 0 L51.0 75.0 L341.0 368.0Q 380.0,408.0  403.0,447.0 T 426.0,530.0 Q 426.0,590.0  385.5,627.5 T 286.0,665.0 Q 230.0,665.0  191.0,630.0 T 140.0,539.0  L69.0 553.0Q 84.0,629.0  144.0,677.5 T 286.0,726.0 Q 344.0,726.0  392.5,703.5 T 470.0,637.0 T 499.0,531.0 Q 499.0,469.0  470.0,421.5 T 384.0,317.0  L129.0 64.0 L504.0 64.0 L504.0 0 L51.0 0Z">
</path>
</defs>
<use x="320.0" y="0" xlink:href="#g50/TT0"/>
<defs>
<path id="g48/TT0" d="M522.0 353.0Q 522.0,195.0  467.0,88.5 T 290.0,-18.0 Q 167.0,-18.0  112.5,88.5 T 58.0,353.0 Q 58.0,512.0  112.5,619.0 T 290.0,726.0 Q 412.0,726.0  467.0,618.5 T 522.0,353.0 Z M131.0 353.0Q 131.0,226.0  167.5,135.0 T 290.0,44.0 Q 375.0,44.0  412.0,135.5 T 449.0,353.0 Q 449.0,480.0  412.0,572.5 T 290.0,665.0 Q 204.0,665.0  167.5,573.0 T 131.0,353.0 Z">
</path>
</defs>
<use x="900.0" y="0" xlink:href="#g48/TT0"/>
</g>
<text id="Text_1183" x="17.0" y="409.27" font-size="9.0pt" font-family="Avenir Next for SAS" fill="#626f80" text-anchor="end" opacity="0">
-20</text>
<g fill="#626f80" stroke="#626f80" transform="translate(10.04 308.61) scale(0.012 -0.012)">
<use x="0" y="0" xlink:href="#g48/TT0"/>
</g>
<text id="Text_1184" x="17.0" y="308.61" font-size="9.0pt" font-family="Avenir Next for SAS" fill="#626f80" text-anchor="end" opacity="0">
0</text>
<g fill="#626f80" stroke="#626f80" transform="translate(3.08 206.96) scale(0.012 -0.012)">
<use x="0" y="0" xlink:href="#g50/TT0"/>
<use x="580.0" y="0" xlink:href="#g48/TT0"/>
</g>
<text id="Text_1185" x="17.0" y="206.96" font-size="9.0pt" font-family="Avenir Next for SAS" fill="#626f80" text-anchor="end" opacity="0">
20</text>
<g fill="#626f80" stroke="#626f80" transform="translate(3.08 105.3) scale(0.012 -0.012)">
<defs>
<path id="g52/TT0" d="M436.0 234.0 L540.0 234.0 L540.0 171.0 L436.0 171.0 L436.0 0 L366.0 0 L366.0 171.0 L42.0 171.0 L42.0 241.0 L342.0 708.0 L436.0 708.0 L436.0 234.0Z M366.0 627.0 L364.0 627.0 L117.0 234.0 L366.0 234.0 L366.0 627.0Z">
</path>
</defs>
<use x="0" y="0" xlink:href="#g52/TT0"/>
<use x="580.0" y="0" xlink:href="#g48/TT0"/>
</g>
<text id="Text_1186" x="17.0" y="105.3" font-size="9.0pt" font-family="Avenir Next for SAS" fill="#626f80" text-anchor="end" opacity="0">
40</text>
</g>
<g fill="#2a3037" stroke="#2a3037" transform="translate(0 45.59) scale(0.014 -0.014)">
<defs>
<path id="g84/TT1" d="M221.0 598.0 L4.0 598.0 L4.0 708.0 L564.0 708.0 L564.0 598.0 L347.0 598.0 L347.0 0 L221.0 0 L221.0 598.0Z">
</path>
</defs>
<use x="0" y="0" xlink:href="#g84/TT1"/>
<defs>
<path id="g101/TT1" d="M529.0 202.0 L164.0 202.0Q 168.0,152.0  208.0,118.0 T 301.0,84.0 Q 384.0,84.0  428.0,146.0  L508.0 82.0Q 437.0,-14.0  302.0,-14.0 Q 228.0,-14.0  169.5,16.5 T 77.5,104.0 T 44.0,237.0 Q 44.0,313.0  77.0,371.5 T 168.0,462.0 T 298.0,494.0 Q 402.0,494.0  466.0,427.0 T 530.0,234.0 Q 530.0,213.0  529.0,202.0 Z M297.0 404.0Q 244.0,404.0  206.0,371.0 T 164.0,288.0  L410.0 288.0Q 410.0,338.0  381.0,371.0 T 297.0,404.0 Z">
</path>
</defs>
<use x="568.0" y="0" xlink:href="#g101/TT1"/>
<defs>
<path id="g109/TT1" d="M822.0 300.0 L822.0 0 L702.0 0 L702.0 266.0Q 702.0,394.0  612.0,394.0 Q 560.0,394.0  533.0,354.5 T 506.0,262.0  L506.0 0 L386.0 0 L386.0 290.0Q 386.0,337.0  363.5,365.5 T 297.0,394.0 Q 246.0,394.0  219.0,355.5 T 192.0,264.0  L192.0 0 L72.0 0 L72.0 480.0 L186.0 480.0 L186.0 403.0 L188.0 403.0Q 205.0,442.0  244.0,468.0 T 337.0,494.0 Q 390.0,494.0  428.0,470.0 T 487.0,403.0 Q 511.0,447.0  551.5,470.5 T 645.0,494.0 Q 733.0,494.0  777.5,437.5 T 822.0,300.0 Z">
</path>
</defs>
<use x="1142.0" y="0" xlink:href="#g109/TT1"/>
<defs>
<path id="g112/TT1" d="M187.0 413.0 L190.0 413.0Q 211.0,446.0  253.5,470.0 T 356.0,494.0 Q 423.0,494.0  476.0,461.0 T 559.0,370.0 T 589.0,242.0 Q 589.0,172.0  560.0,113.5 T 477.5,20.5 T 353.0,-14.0 Q 303.0,-14.0  260.0,7.0 T 194.0,64.0  L192.0 64.0 L192.0 -240.0 L72.0 -240.0 L72.0 480.0 L187.0 480.0 L187.0 413.0Z M329.0 396.0Q 287.0,396.0  255.0,373.5 T 205.5,314.5 T 188.0,240.0 Q 188.0,202.0  205.5,166.5 T 255.0,108.5 T 329.0,86.0 Q 373.0,86.0  404.5,108.5 T 451.5,167.0 T 467.0,242.0 Q 467.0,281.0  451.5,316.5 T 404.5,374.0 T 373.0,396.0 Z">
</path>
</defs>
<use x="2032.0" y="0" xlink:href="#g112/TT1"/>
<use x="2665.0" y="0" xlink:href="#g101/TT1"/>
<defs>
<path id="g114/TT1" d="M187.0 480.0 L187.0 400.0 L189.0 400.0Q 209.0,443.0  246.0,468.5 T 329.0,494.0 Q 346.0,494.0  358.0,491.0  L358.0 381.0Q 338.0,386.0  321.0,386.0 Q 272.0,386.0  243.0,363.0 T 203.0,310.5 T 192.0,257.0  L192.0 0 L72.0 0 L72.0 480.0 L187.0 480.0Z">
</path>
</defs>
<use x="3239.0" y="0" xlink:href="#g114/TT1"/>
<defs>
<path id="g97/TT1" d="M367.0 61.0Q 349.0,29.0  308.5,8.5 T 218.0,-12.0 Q 175.0,-12.0  134.0,3.0 T 65.5,51.5 T 38.0,137.0 Q 38.0,233.0  131.0,266.5 T 368.0,300.0  L368.0 312.0Q 368.0,354.0  337.0,377.0 T 258.0,400.0 Q 221.0,400.0  186.0,384.5 T 127.0,345.0  L65.0 418.0Q 105.0,455.0  158.5,474.5 T 268.0,494.0 Q 385.0,494.0  433.5,436.0 T 482.0,292.0  L482.0 0 L370.0 0 L370.0 61.0 L367.0 61.0Z M341.0 219.0Q 158.0,219.0  158.0,139.0 Q 158.0,107.0  182.5,93.0 T 242.0,79.0 Q 303.0,79.0  335.5,111.5 T 368.0,202.0  L368.0 219.0 L341.0 219.0Z">
</path>
</defs>
<use x="3603.0" y="0" xlink:href="#g97/TT1"/>
<defs>
<path id="g116/TT1" d="M3.0 480.0 L87.0 480.0 L87.0 619.0 L205.0 619.0 L205.0 480.0 L325.0 480.0 L325.0 384.0 L205.0 384.0 L205.0 161.0Q 205.0,125.0  218.0,106.0 T 268.0,87.0 Q 299.0,87.0  319.0,97.0  L323.0 3.0Q 289.0,-10.0  243.0,-10.0 Q 155.0,-10.0  121.0,35.5 T 87.0,160.0  L87.0 384.0 L3.0 384.0 L3.0 480.0Z">
</path>
</defs>
<use x="4153.0" y="0" xlink:href="#g116/TT1"/>
<defs>
<path id="g117/TT1" d="M396.0 0 L396.0 77.0 L394.0 77.0Q 377.0,39.0  336.5,12.5 T 245.0,-14.0 Q 157.0,-14.0  112.5,42.5 T 68.0,180.0  L68.0 480.0 L188.0 480.0 L188.0 214.0Q 188.0,86.0  278.0,86.0 Q 332.0,86.0  361.0,124.5 T 390.0,216.0  L390.0 480.0 L510.0 480.0 L510.0 0 L396.0 0Z">
</path>
</defs>
<use x="4493.0" y="0" xlink:href="#g117/TT1"/>
<use x="5075.0" y="0" xlink:href="#g114/TT1"/>
<use x="5439.0" y="0" xlink:href="#g101/TT1"/>
<defs>
<path id="g105/TT1" d="M133.0 715.0Q 166.0,715.0  188.5,694.5 T 211.0,643.0 Q 211.0,612.0  188.5,591.5 T 133.0,571.0 Q 101.0,571.0  79.0,592.5 T 57.0,643.0 Q 57.0,672.0  79.0,693.5 T 133.0,715.0 Z M74.0 480.0 L194.0 480.0 L194.0 0 L74.0 0 L74.0 480.0Z">
</path>
</defs>
<use x="6263.0" y="0" xlink:href="#g105/TT1"/>
<defs>
<path id="g110/TT1" d="M186.0 480.0 L186.0 403.0 L188.0 403.0Q 205.0,441.0  245.5,467.5 T 337.0,494.0 Q 425.0,494.0  469.5,437.5 T 514.0,300.0  L514.0 0 L394.0 0 L394.0 266.0Q 394.0,394.0  304.0,394.0 Q 250.0,394.0  221.0,355.5 T 192.0,264.0  L192.0 0 L72.0 0 L72.0 480.0 L186.0 480.0Z">
</path>
</defs>
<use x="6531.0" y="0" xlink:href="#g110/TT1"/>
<defs>
<path id="g115/TT1" d="M230.0 404.0Q 198.0,404.0  175.5,391.0 T 153.0,352.0 Q 153.0,327.0  176.0,315.0 T 257.0,289.0 Q 325.0,273.0  368.5,241.0 T 412.0,146.0 Q 412.0,64.0  355.5,25.0 T 212.0,-14.0 Q 155.0,-14.0  102.0,7.0 T 15.0,65.0  L94.0 139.0Q 114.0,112.0  146.5,95.5 T 217.0,79.0 Q 248.0,79.0  271.0,93.0 T 294.0,136.0 Q 294.0,164.0  269.5,177.5 T 184.0,205.0 Q 119.0,221.0  80.5,250.5 T 42.0,341.0 Q 42.0,416.0  98.0,455.0 T 233.0,494.0 Q 287.0,494.0  336.0,475.0 T 413.0,421.0  L335.0 352.0Q 318.0,374.0  290.0,389.0 T 230.0,404.0 Z">
</path>
</defs>
<use x="7113.0" y="0" xlink:href="#g115/TT1"/>
<use x="7557.0" y="0" xlink:href="#g105/TT1"/>
<defs>
<path id="g100/TT1" d="M446.0 0 L446.0 72.0 L444.0 72.0Q 420.0,31.0  375.0,8.5 T 279.0,-14.0 Q 208.0,-14.0  154.5,20.5 T 72.0,113.5 T 43.0,242.0 Q 43.0,312.0  73.0,370.0 T 156.0,461.0 T 276.0,494.0 Q 377.0,494.0  437.0,419.0  L440.0 419.0 L440.0 756.0 L560.0 756.0 L560.0 0 L446.0 0Z M303.0 86.0Q 345.0,86.0  377.0,108.5 T 426.5,166.5 T 444.0,240.0 Q 444.0,278.0  426.5,314.5 T 377.0,373.5 T 303.0,396.0 Q 259.0,396.0  227.5,374.0 T 180.5,316.5 T 165.0,242.0 Q 165.0,203.0  180.5,167.0 T 227.5,108.5 T 259.0,86.0 Z">
</path>
</defs>
<use x="7825.0" y="0" xlink:href="#g100/TT1"/>
<use x="8459.0" y="0" xlink:href="#g101/TT1"/>
</g>
<g fill="#2a3037" stroke="#2a3037" transform="translate(129.96 45.59) scale(0.0068 -0.0068)">
<defs>
<path id="g128/TT2" d="M2013.0 465.0Q 1949.0,218.0  1789.5,96.5 T 1407.0,-25.0 Q 1048.0,-25.0  883.5,200.5 T 719.0,743.0 Q 719.0,1094.0  912.5,1292.5 T 1409.0,1491.0 Q 1624.0,1491.0  1776.0,1382.0 T 1989.0,1063.0  L1798.0 1018.0Q 1703.0,1325.0  1407.0,1325.0 Q 1167.0,1325.0  1043.5,1167.5 T 920.0,745.0 Q 920.0,439.0  1050.0,290.0 T 1391.0,141.0 Q 1735.0,141.0  1821.0,514.0 Z M367.0 1485.0Q 481.0,1485.0  562.0,1403.5 T 643.0,1208.0 Q 643.0,1093.0  561.5,1011.5 T 367.0,930.0 Q 253.0,930.0  171.5,1011.5 T 90.0,1208.0 Q 90.0,1323.0  171.0,1404.0 T 367.0,1485.0 Z M367.0 1038.0Q 436.0,1038.0  485.5,1088.0 T 535.0,1208.0 Q 535.0,1278.0  485.5,1327.0 T 367.0,1376.0 Q 297.0,1376.0  248.0,1327.0 T 199.0,1208.0 Q 199.0,1138.0  248.0,1088.0 T 367.0,1038.0 Z">
</path>
</defs>
<use x="0" y="0" xlink:href="#g128/TT2"/>
</g>
<text id="Text_1187" x="0" y="45.59" font-size="10.5pt" font-family="Avenir Next for SAS" font-weight="bold" fill="#2a3037" text-anchor="start" opacity="0">
Temperature inside ℃</text>
<defs>
<clipPath id="ClipPath3">
<rect x="22" y="412" width="946" height="57">
</rect>
</clipPath>
</defs>
<g clip-path="url(#ClipPath3)">
<g fill="#626f80" stroke="#626f80" transform="translate(25.0 426.65) scale(0.012 -0.012)">
<use x="0" y="0" xlink:href="#g50/TT0"/>
<defs>
<path id="g54/TT0" d="M203.0 397.0Q 218.0,409.0  247.0,416.0 T 304.0,423.0 Q 365.0,423.0  414.5,395.5 T 492.0,318.0 T 520.0,205.0 Q 520.0,140.0  490.5,89.5 T 408.5,10.5 T 290.0,-18.0 Q 224.0,-18.0  171.5,10.5 T 89.5,89.5 T 60.0,205.0 Q 60.0,255.0  77.0,301.5 T 124.0,397.0  L317.0 708.0 L400.0 708.0 L201.0 399.0 L203.0 397.0Z M290.0 43.0Q 336.0,43.0  372.0,64.0 T 428.0,122.0 T 448.0,205.0 Q 448.0,275.0  405.0,320.0 T 290.0,365.0 Q 218.0,365.0  175.0,320.0 T 132.0,205.0 Q 132.0,159.0  152.0,122.0 T 208.0,64.0 T 244.0,43.0 Z">
</path>
</defs>
<use x="580.0" y="0" xlink:href="#g54/TT0"/>
<defs>
<path id="g70/TT0" d="M166.0 0 L94.0 0 L94.0 708.0 L521.0 708.0 L521.0 644.0 L166.0 644.0 L166.0 398.0 L496.0 398.0 L496.0 335.0 L166.0 335.0 L166.0 0Z">
</path>
</defs>
<use x="1160.0" y="0" xlink:href="#g70/TT0"/>
<defs>
<path id="g101/TT0" d="M515.0 216.0 L127.0 216.0Q 128.0,169.0  150.5,130.5 T 212.0,69.0 T 298.0,46.0 Q 347.0,46.0  387.0,69.5 T 448.0,127.0  L499.0 87.0Q 421.0,-12.0  298.0,-12.0 Q 229.0,-12.0  174.0,20.0 T 87.5,108.0 T 56.0,234.0 Q 56.0,303.0  87.0,359.5 T 172.0,448.0 T 292.0,480.0 Q 363.0,480.0  413.5,449.5 T 490.0,366.0 T 516.0,248.0 Q 516.0,228.0  515.0,216.0 Z M292.0 423.0Q 248.0,423.0  211.5,402.0 T 153.0,345.5 T 128.0,270.0  L447.0 270.0Q 444.0,338.0  403.5,380.5 T 292.0,423.0 Z">
</path>
</defs>
<use x="1722.0" y="0" xlink:href="#g101/TT0"/>
<defs>
<path id="g98/TT0" d="M160.0 0 L92.0 0 L92.0 756.0 L160.0 756.0 L160.0 387.0 L162.0 387.0Q 191.0,431.0  239.0,455.5 T 339.0,480.0 Q 410.0,480.0  465.5,447.5 T 551.0,359.0 T 581.0,234.0 Q 581.0,165.0  551.0,109.0 T 465.5,20.5 T 339.0,-12.0 Q 287.0,-12.0  239.0,12.0 T 162.0,79.0  L160.0 79.0 L160.0 0Z M332.0 423.0Q 280.0,423.0  239.0,398.0 T 175.0,330.0 T 152.0,234.0 Q 152.0,181.0  175.0,138.0 T 239.0,70.5 T 332.0,46.0 Q 387.0,46.0  427.0,71.0 T 488.0,138.5 T 509.0,234.0 Q 509.0,287.0  488.0,330.0 T 427.0,398.0 T 387.0,423.0 Z">
</path>
</defs>
<use x="2294.0" y="0" xlink:href="#g98/TT0"/>
</g>
<text x="42.0" y="426.65" font-size="9.0pt" font-family="Avenir Next for SAS" fill="#626f80" text-anchor="middle" opacity="0">
26Feb</text>
<g fill="#626f80" stroke="#626f80" transform="translate(29.0 441.35) scale(0.012 -0.012)">
<use x="0" y="0" xlink:href="#g50/TT0"/>
<use x="580.0" y="0" xlink:href="#g48/TT0"/>
<use x="1160.0" y="0" xlink:href="#g50/TT0"/>
<defs>
<path id="g53/TT0" d="M180.0 644.0 L175.0 425.0Q 219.0,441.0  273.0,441.0 Q 339.0,441.0  391.5,413.0 T 473.5,334.5 T 503.0,219.0 Q 503.0,151.0  473.5,97.0 T 390.5,12.5 T 268.0,-18.0 Q 194.0,-18.0  140.0,16.0 T 56.0,111.0  L121.0 140.0Q 140.0,96.0  179.0,70.0 T 264.0,44.0 Q 311.0,44.0  349.0,66.0 T 408.5,126.5 T 430.0,212.0 Q 430.0,289.0  380.5,335.5 T 254.0,382.0 Q 180.0,382.0  107.0,343.0  L114.0 708.0 L475.0 708.0 L475.0 644.0 L180.0 644.0Z">
</path>
</defs>
<use x="1740.0" y="0" xlink:href="#g53/TT0"/>
</g>
<text x="42.0" y="441.35" font-size="9.0pt" font-family="Avenir Next for SAS" fill="#626f80" text-anchor="middle" opacity="0">
2025</text>
<g fill="#626f80" stroke="#626f80" transform="translate(144.43 426.65) scale(0.012 -0.012)">
<use x="0" y="0" xlink:href="#g50/TT0"/>
<defs>
<path id="g56/TT0" d="M517.0 186.0Q 517.0,126.0  486.0,79.5 T 403.0,7.5 T 290.0,-18.0 Q 229.0,-18.0  177.0,7.5 T 94.0,79.5 T 63.0,186.0 Q 63.0,256.0  100.5,306.5 T 197.0,375.0  L197.0 377.0Q 150.0,393.0  120.0,437.5 T 90.0,537.0 Q 90.0,593.0  117.0,636.0 T 190.0,702.5 T 290.0,726.0 Q 344.0,726.0  390.0,702.5 T 463.0,636.0 T 490.0,537.0 Q 490.0,482.0  460.0,437.5 T 383.0,377.0  L383.0 375.0Q 442.0,358.0  479.5,307.0 T 517.0,186.0 Z M290.0 406.0Q 345.0,406.0  382.5,442.0 T 420.0,533.0 Q 420.0,590.0  383.0,627.5 T 290.0,665.0 Q 234.0,665.0  197.0,627.5 T 160.0,533.0 Q 160.0,478.0  197.5,442.0 T 290.0,406.0 Z M290.0 43.0Q 359.0,43.0  402.0,86.0 T 445.0,194.0 Q 445.0,258.0  402.0,300.0 T 290.0,342.0 Q 221.0,342.0  178.0,300.0 T 135.0,194.0 Q 135.0,129.0  178.0,86.0 T 290.0,43.0 Z">
</path>
</defs>
<use x="580.0" y="0" xlink:href="#g56/TT0"/>
<use x="1160.0" y="0" xlink:href="#g70/TT0"/>
<use x="1722.0" y="0" xlink:href="#g101/TT0"/>
<use x="2294.0" y="0" xlink:href="#g98/TT0"/>
</g>
<text x="161.43" y="426.65" font-size="9.0pt" font-family="Avenir Next for SAS" fill="#626f80" text-anchor="middle" opacity="0">
28Feb</text>
<g fill="#626f80" stroke="#626f80" transform="translate(277.86 426.65) scale(0.012 -0.012)">
<use x="0" y="0" xlink:href="#g48/TT0"/>
<use x="580.0" y="0" xlink:href="#g50/TT0"/>
<defs>
<path id="g77/TT0" d="M444.0 122.0 L445.0 122.0 L682.0 708.0 L792.0 708.0 L792.0 0 L720.0 0 L720.0 615.0 L718.0 615.0 L462.0 0 L424.0 0 L168.0 615.0 L166.0 615.0 L166.0 0 L94.0 0 L94.0 708.0 L204.0 708.0 L444.0 122.0Z">
</path>
</defs>
<use x="1160.0" y="0" xlink:href="#g77/TT0"/>
<defs>
<path id="g97/TT0" d="M260.0 423.0Q 220.0,423.0  183.0,408.0 T 121.0,368.0  L83.0 413.0Q 113.0,443.0  161.0,461.5 T 267.0,480.0 Q 347.0,480.0  398.0,436.0 T 449.0,310.0  L449.0 105.0Q 449.0,42.0  457.0,0  L396.0 0Q 389.0,40.0  389.0,76.0  L387.0 76.0Q 355.0,30.0  314.5,9.0 T 217.0,-12.0 Q 178.0,-12.0  141.0,2.5 T 79.5,49.0 T 55.0,130.0 Q 55.0,198.0  99.0,232.0 T 212.5,276.5 T 385.0,287.0  L385.0 302.0Q 385.0,362.0  353.0,392.5 T 260.0,423.0 Z M125.0 133.0Q 125.0,87.0  157.0,65.5 T 235.0,44.0 Q 304.0,44.0  344.5,89.0 T 385.0,199.0  L385.0 234.0 L365.0 234.0Q 259.0,234.0  192.0,213.5 T 125.0,133.0 Z">
</path>
</defs>
<use x="2046.0" y="0" xlink:href="#g97/TT0"/>
<defs>
<path id="g114/TT0" d="M86.0 468.0 L151.0 468.0Q 155.0,418.0  155.0,388.0  L157.0 388.0Q 177.0,429.0  217.5,454.5 T 307.0,480.0 Q 334.0,480.0  352.0,475.0  L343.0 411.0Q 337.0,413.0  322.5,415.0 T 295.0,417.0 Q 236.0,417.0  197.0,372.5 T 158.0,240.0  L158.0 0 L90.0 0 L90.0 365.0Q 90.0,425.0  86.0,468.0 Z">
</path>
</defs>
<use x="2580.0" y="0" xlink:href="#g114/TT0"/>
</g>
<text x="294.86" y="426.65" font-size="9.0pt" font-family="Avenir Next for SAS" fill="#626f80" text-anchor="middle" opacity="0">
02Mar</text>
<g fill="#626f80" stroke="#626f80" transform="translate(411.29 426.65) scale(0.012 -0.012)">
<use x="0" y="0" xlink:href="#g48/TT0"/>
<use x="580.0" y="0" xlink:href="#g52/TT0"/>
<use x="1160.0" y="0" xlink:href="#g77/TT0"/>
<use x="2046.0" y="0" xlink:href="#g97/TT0"/>
<use x="2580.0" y="0" xlink:href="#g114/TT0"/>
</g>
<text x="428.29" y="426.65" font-size="9.0pt" font-family="Avenir Next for SAS" fill="#626f80" text-anchor="middle" opacity="0">
04Mar</text>
<g fill="#626f80" stroke="#626f80" transform="translate(544.71 426.65) scale(0.012 -0.012)">
<use x="0" y="0" xlink:href="#g48/TT0"/>
<use x="580.0" y="0" xlink:href="#g54/TT0"/>
<use x="1160.0" y="0" xlink:href="#g77/TT0"/>
<use x="2046.0" y="0" xlink:href="#g97/TT0"/>
<use x="2580.0" y="0" xlink:href="#g114/TT0"/>
</g>
<text x="561.71" y="426.65" font-size="9.0pt" font-family="Avenir Next for SAS" fill="#626f80" text-anchor="middle" opacity="0">
06Mar</text>
<g fill="#626f80" stroke="#626f80" transform="translate(678.14 426.65) scale(0.012 -0.012)">
<use x="0" y="0" xlink:href="#g48/TT0"/>
<use x="580.0" y="0" xlink:href="#g56/TT0"/>
<use x="1160.0" y="0" xlink:href="#g77/TT0"/>
<use x="2046.0" y="0" xlink:href="#g97/TT0"/>
<use x="2580.0" y="0" xlink:href="#g114/TT0"/>
</g>
<text x="695.14" y="426.65" font-size="9.0pt" font-family="Avenir Next for SAS" fill="#626f80" text-anchor="middle" opacity="0">
08Mar</text>
<g fill="#626f80" stroke="#626f80" transform="translate(811.57 426.65) scale(0.012 -0.012)">
<defs>
<path id="g49/TT0" d="M358.0 0 L286.0 0 L286.0 619.0 L158.0 510.0 L114.0 560.0 L294.0 708.0 L358.0 708.0 L358.0 0Z">
</path>
</defs>
<use x="0" y="0" xlink:href="#g49/TT0"/>
<use x="580.0" y="0" xlink:href="#g48/TT0"/>
<use x="1160.0" y="0" xlink:href="#g77/TT0"/>
<use x="2046.0" y="0" xlink:href="#g97/TT0"/>
<use x="2580.0" y="0" xlink:href="#g114/TT0"/>
</g>
<text x="828.57" y="426.65" font-size="9.0pt" font-family="Avenir Next for SAS" fill="#626f80" text-anchor="middle" opacity="0">
10Mar</text>
<g fill="#626f80" stroke="#626f80" transform="translate(931.0 426.65) scale(0.012 -0.012)">
<use x="0" y="0" xlink:href="#g49/TT0"/>
<use x="580.0" y="0" xlink:href="#g50/TT0"/>
<use x="1160.0" y="0" xlink:href="#g77/TT0"/>
<use x="2046.0" y="0" xlink:href="#g97/TT0"/>
<use x="2580.0" y="0" xlink:href="#g114/TT0"/>
</g>
<text x="948.0" y="426.65" font-size="9.0pt" font-family="Avenir Next for SAS" fill="#626f80" text-anchor="middle" opacity="0">
12Mar</text>
</g>
<g fill="#2a3037" stroke="#2a3037" transform="translate(464.0 465.44) scale(0.014 -0.014)">
<defs>
<path id="g68/TT1" d="M329.0 708.0Q 430.0,708.0  518.5,673.0 T 663.5,558.5 T 720.0,354.0 Q 720.0,237.0  663.0,157.0 T 516.5,38.5 T 329.0,0  L78.0 0 L78.0 708.0 L329.0 708.0Z M585.0 354.0Q 585.0,492.0  506.0,546.0 T 309.0,600.0  L204.0 600.0 L204.0 110.0 L309.0 110.0Q 424.0,110.0  504.5,166.5 T 585.0,354.0 Z">
</path>
</defs>
<use x="0" y="0" xlink:href="#g68/TT1"/>
<use x="764.0" y="0" xlink:href="#g97/TT1"/>
<use x="1314.0" y="0" xlink:href="#g116/TT1"/>
<use x="1654.0" y="0" xlink:href="#g101/TT1"/>
<use x="2478.0" y="0" xlink:href="#g116/TT1"/>
<use x="2818.0" y="0" xlink:href="#g105/TT1"/>
<use x="3086.0" y="0" xlink:href="#g109/TT1"/>
<use x="3976.0" y="0" xlink:href="#g101/TT1"/>
</g>
<text id="Text_1189" x="495.0" y="465.44" font-size="10.5pt" font-family="Avenir Next for SAS" font-weight="bold" fill="#2a3037" text-anchor="middle" opacity="0">
Date time</text>
</g>
<g transform=" translate(16.0 -16.0)">
</g>
<g transform=" translate(16.0 -16.0)">
</g>
<g transform=" translate(16.0 -16.0)">
<rect x="268.0" y="473.3" rx="5" ry="5" width="431.44" height="26.7" fill="#ffffff">
</rect>
<path d="M274.0 486.65L324.0 486.65Z" stroke="#287fc7" stroke-width="3.0" fill="none">
</path>
<g fill="#626f80" stroke="#626f80" transform="translate(328.0 490.95) scale(0.012 -0.012)">
<defs>
<path id="g84/TT0" d="M321.0 0 L249.0 0 L249.0 644.0 L12.0 644.0 L12.0 708.0 L558.0 708.0 L558.0 644.0 L321.0 644.0 L321.0 0Z">
</path>
</defs>
<use x="0" y="0" xlink:href="#g84/TT0"/>
<use x="570.0" y="0" xlink:href="#g101/TT0"/>
<defs>
<path id="g109/TT0" d="M311.0 480.0Q 356.0,480.0  395.0,458.0 T 455.0,381.0 Q 479.0,429.0  521.0,454.5 T 619.0,480.0 Q 706.0,480.0  751.5,428.0 T 797.0,287.0  L797.0 0 L729.0 0 L729.0 259.0Q 729.0,423.0  608.0,423.0 Q 540.0,423.0  507.5,372.5 T 475.0,249.0  L475.0 0 L407.0 0 L407.0 273.0Q 407.0,347.0  382.5,385.0 T 294.0,423.0 Q 260.0,423.0  228.5,402.5 T 177.5,340.5 T 158.0,240.0  L158.0 0 L90.0 0 L90.0 365.0Q 90.0,425.0  86.0,468.0  L151.0 468.0Q 155.0,418.0  155.0,388.0  L157.0 388.0Q 178.0,429.0  219.5,454.5 T 311.0,480.0 Z">
</path>
</defs>
<use x="1142.0" y="0" xlink:href="#g109/TT0"/>
<defs>
<path id="g112/TT0" d="M90.0 -240.0 L90.0 468.0 L158.0 468.0 L158.0 387.0 L161.0 387.0Q 189.0,431.0  237.0,455.5 T 337.0,480.0 Q 408.0,480.0  463.5,447.5 T 549.0,359.0 T 579.0,234.0 Q 579.0,165.0  549.0,109.0 T 463.5,20.5 T 337.0,-12.0 Q 286.0,-12.0  238.0,12.0 T 161.0,79.0  L158.0 79.0 L158.0 -240.0 L90.0 -240.0Z M330.0 423.0Q 278.0,423.0  237.0,398.0 T 173.0,330.0 T 150.0,234.0 Q 150.0,181.0  173.0,138.0 T 237.0,70.5 T 330.0,46.0 Q 385.0,46.0  425.0,71.0 T 486.0,138.5 T 507.0,234.0 Q 507.0,287.0  486.0,330.0 T 425.0,398.0 T 385.0,423.0 Z">
</path>
</defs>
<use x="2025.0" y="0" xlink:href="#g112/TT0"/>
<use x="2660.0" y="0" xlink:href="#g101/TT0"/>
<use x="3232.0" y="0" xlink:href="#g114/TT0"/>
<use x="3592.0" y="0" xlink:href="#g97/TT0"/>
<defs>
<path id="g116/TT0" d="M169.0 411.0 L169.0 138.0Q 169.0,89.0  187.0,70.5 T 239.0,52.0 Q 268.0,52.0  298.0,67.0  L301.0 8.0Q 264.0,-6.0  221.0,-6.0 Q 173.0,-6.0  137.0,22.0 T 101.0,119.0  L101.0 411.0 L4.0 411.0 L4.0 468.0 L101.0 468.0 L101.0 600.0 L169.0 600.0 L169.0 468.0 L301.0 468.0 L301.0 411.0 L169.0 411.0Z">
</path>
</defs>
<use x="4126.0" y="0" xlink:href="#g116/TT0"/>
<defs>
<path id="g117/TT0" d="M426.0 80.0 L424.0 80.0Q 405.0,40.0  359.5,14.0 T 264.0,-12.0 Q 177.0,-12.0  131.5,40.0 T 86.0,181.0  L86.0 468.0 L154.0 468.0 L154.0 209.0Q 154.0,130.0  182.5,87.5 T 281.0,45.0 Q 319.0,45.0  351.0,65.5 T 403.0,127.0 T 423.0,228.0  L423.0 468.0 L491.0 468.0 L491.0 103.0Q 491.0,43.0  495.0,0  L430.0 0Q 426.0,50.0  426.0,80.0 Z">
</path>
</defs>
<use x="4443.0" y="0" xlink:href="#g117/TT0"/>
<use x="5024.0" y="0" xlink:href="#g114/TT0"/>
<use x="5384.0" y="0" xlink:href="#g101/TT0"/>
<defs>
<path id="g105/TT0" d="M125.0 600.0Q 106.0,600.0  91.5,614.0 T 77.0,648.0 Q 77.0,668.0  91.5,682.0 T 125.0,696.0 Q 144.0,696.0  158.5,682.0 T 173.0,648.0 Q 173.0,628.0  158.5,614.0 T 125.0,600.0 Z M159.0 0 L91.0 0 L91.0 468.0 L159.0 468.0 L159.0 0Z">
</path>
</defs>
<use x="6206.0" y="0" xlink:href="#g105/TT0"/>
<defs>
<path id="g110/TT0" d="M155.0 388.0 L157.0 388.0Q 176.0,428.0  221.5,454.0 T 317.0,480.0 Q 404.0,480.0  449.5,428.0 T 495.0,287.0  L495.0 0 L427.0 0 L427.0 259.0Q 427.0,338.0  398.5,380.5 T 300.0,423.0 Q 262.0,423.0  230.0,402.5 T 178.0,341.0 T 158.0,240.0  L158.0 0 L90.0 0 L90.0 365.0Q 90.0,425.0  86.0,468.0  L151.0 468.0Q 155.0,418.0  155.0,388.0 Z">
</path>
</defs>
<use x="6456.0" y="0" xlink:href="#g110/TT0"/>
<defs>
<path id="g115/TT0" d="M224.0 423.0Q 183.0,423.0  154.0,404.5 T 125.0,350.0 Q 125.0,318.0  151.0,300.0 T 237.0,270.0 Q 320.0,253.0  359.5,220.0 T 399.0,133.0 Q 399.0,59.0  347.5,23.5 T 223.0,-12.0 Q 167.0,-12.0  118.0,11.0 T 38.0,79.0  L92.0 119.0Q 111.0,87.0  146.5,66.5 T 222.0,46.0 Q 270.0,46.0  301.0,65.5 T 332.0,128.0 Q 332.0,163.0  299.5,182.0 T 194.0,218.0 Q 136.0,232.0  98.0,258.5 T 60.0,344.0 Q 60.0,411.0  108.5,445.5 T 227.0,480.0 Q 277.0,480.0  323.0,457.5 T 391.0,396.0  L339.0 357.0Q 324.0,387.0  293.0,405.0 T 224.0,423.0 Z">
</path>
</defs>
<use x="7037.0" y="0" xlink:href="#g115/TT0"/>
<use x="7481.0" y="0" xlink:href="#g105/TT0"/>
<defs>
<path id="g100/TT0" d="M298.0 -12.0Q 227.0,-12.0  171.5,20.5 T 86.0,109.0 T 56.0,234.0 Q 56.0,303.0  86.0,359.0 T 171.5,447.5 T 298.0,480.0 Q 350.0,480.0  398.0,455.5 T 475.0,387.0  L477.0 387.0 L477.0 756.0 L545.0 756.0 L545.0 0 L477.0 0 L477.0 79.0 L475.0 79.0Q 446.0,36.0  398.0,12.0 T 298.0,-12.0 Z M305.0 46.0Q 357.0,46.0  398.0,70.5 T 462.0,138.0 T 485.0,234.0 Q 485.0,287.0  462.0,330.0 T 398.0,398.0 T 305.0,423.0 Q 250.0,423.0  210.0,398.0 T 149.0,330.0 T 128.0,234.0 Q 128.0,181.0  149.0,138.5 T 210.0,71.0 T 250.0,46.0 Z">
</path>
</defs>
<use x="7731.0" y="0" xlink:href="#g100/TT0"/>
<use x="8368.0" y="0" xlink:href="#g101/TT0"/>
</g>
<g fill="#626f80" stroke="#626f80" transform="translate(438.28 490.95) scale(0.0059 -0.0059)">
<use x="0" y="0" xlink:href="#g128/TT2"/>
</g>
<text x="328.0" y="490.95" font-size="9.0pt" font-family="Avenir Next for SAS" fill="#626f80" text-anchor="start" opacity="0">
Temperature inside ℃</text>
<path d="M458.54 486.65L508.54 486.65Z" stroke="#c79f27" stroke-width="3.0" fill="none">
</path>
<g fill="#626f80" stroke="#626f80" transform="translate(512.54 490.95) scale(0.012 -0.012)">
<defs>
<path id="g65/TT0" d="M89.0 0 L10.0 0 L316.0 708.0 L386.0 708.0 L690.0 0 L610.0 0 L532.0 186.0 L166.0 186.0 L89.0 0Z M193.0 252.0 L505.0 252.0 L349.0 628.0 L193.0 252.0Z">
</path>
</defs>
<use x="0" y="0" xlink:href="#g65/TT0"/>
<defs>
<path id="g86/TT0" d="M311.0 93.0 L313.0 93.0 L543.0 708.0 L620.0 708.0 L349.0 0 L273.0 0 L3.0 708.0 L81.0 708.0 L311.0 93.0Z">
</path>
</defs>
<use x="700.0" y="0" xlink:href="#g86/TT0"/>
<defs>
<path id="g71/TT0" d="M426.0 663.0Q 338.0,663.0  271.0,621.0 T 168.0,508.0 T 132.0,354.0 Q 132.0,271.0  168.0,200.5 T 271.0,88.0 T 426.0,46.0 Q 484.0,46.0  534.5,58.5 T 617.0,92.0  L617.0 307.0 L452.0 307.0 L452.0 370.0 L689.0 370.0 L689.0 51.0Q 574.0,-18.0  425.0,-18.0 Q 319.0,-18.0  235.0,30.0 T 103.5,163.0 T 56.0,354.0 Q 56.0,460.0  104.0,545.0 T 236.5,678.0 T 425.0,726.0 Q 584.0,726.0  681.0,631.0  L631.0 581.0Q 554.0,663.0  426.0,663.0 Z">
</path>
</defs>
<use x="1323.0" y="0" xlink:href="#g71/TT0"/>
<defs>
<path id="g95/TT0" d="M0 -75.0 L500.0 -75.0 L500.0 -125.0 L0 -125.0 L0 -75.0Z">
</path>
</defs>
<use x="2102.0" y="0" xlink:href="#g95/TT0"/>
<use x="2602.0" y="0" xlink:href="#g84/TT0"/>
<defs>
<path id="g69/TT0" d="M166.0 64.0 L545.0 64.0 L545.0 0 L94.0 0 L94.0 708.0 L533.0 708.0 L533.0 644.0 L166.0 644.0 L166.0 400.0 L509.0 400.0 L509.0 337.0 L166.0 337.0 L166.0 64.0Z">
</path>
</defs>
<use x="3172.0" y="0" xlink:href="#g69/TT0"/>
<use x="3764.0" y="0" xlink:href="#g77/TT0"/>
<defs>
<path id="g80/TT0" d="M294.0 708.0Q 405.0,708.0  469.0,660.0 T 533.0,519.0 Q 533.0,426.0  468.0,377.5 T 292.0,329.0  L166.0 329.0 L166.0 0 L94.0 0 L94.0 708.0 L294.0 708.0Z M288.0 390.0Q 372.0,390.0  416.5,423.0 T 461.0,519.0 Q 461.0,583.0  416.5,614.5 T 288.0,646.0  L166.0 646.0 L166.0 390.0 L288.0 390.0Z">
</path>
</defs>
<use x="4650.0" y="0" xlink:href="#g80/TT0"/>
<use x="5230.0" y="0" xlink:href="#g95/TT0"/>
<defs>
<path id="g73/TT0" d="M166.0 0 L94.0 0 L94.0 708.0 L166.0 708.0 L166.0 0Z">
</path>
</defs>
<use x="5730.0" y="0" xlink:href="#g73/TT0"/>
<defs>
<path id="g78/TT0" d="M596.0 105.0 L598.0 105.0 L598.0 708.0 L670.0 708.0 L670.0 0 L580.0 0 L168.0 609.0 L166.0 609.0 L166.0 0 L94.0 0 L94.0 708.0 L184.0 708.0 L596.0 105.0Z">
</path>
</defs>
<use x="5990.0" y="0" xlink:href="#g78/TT0"/>
<defs>
<path id="g83/TT0" d="M291.0 665.0Q 254.0,665.0  219.5,650.0 T 162.5,605.0 T 140.0,532.0 Q 140.0,490.0  160.5,464.0 T 210.5,424.5 T 294.0,393.0 Q 365.0,370.0  405.0,350.5 T 474.5,291.5 T 504.0,186.0 Q 504.0,119.0  471.0,73.0 T 385.0,4.5 T 273.0,-18.0 Q 206.0,-18.0  146.5,9.0 T 50.0,87.0  L112.0 133.0Q 137.0,93.0  179.0,68.5 T 274.0,44.0 Q 312.0,44.0  348.5,60.0 T 408.0,107.0 T 431.0,181.0 Q 431.0,227.0  408.0,255.5 T 351.5,299.0 T 258.0,333.0 Q 201.0,351.0  160.5,372.5 T 94.0,432.5 T 68.0,531.0 Q 68.0,596.0  101.5,640.0 T 186.5,705.0 T 294.0,726.0 Q 361.0,726.0  414.0,701.5 T 494.0,640.0  L437.0 594.0Q 414.0,627.0  377.0,646.0 T 291.0,665.0 Z">
</path>
</defs>
<use x="6754.0" y="0" xlink:href="#g83/TT0"/>
<use x="7318.0" y="0" xlink:href="#g73/TT0"/>
<defs>
<path id="g68/TT0" d="M329.0 708.0Q 421.0,708.0  507.0,667.5 T 647.0,546.5 T 701.0,354.0 Q 701.0,242.0  647.0,161.5 T 507.0,40.5 T 329.0,0  L94.0 0 L94.0 708.0 L329.0 708.0Z M309.0 64.0Q 411.0,64.0  482.5,105.0 T 589.5,212.0 T 625.0,354.0 Q 625.0,430.0  589.5,496.0 T 482.5,603.0 T 309.0,644.0  L166.0 644.0 L166.0 64.0 L309.0 64.0Z">
</path>
</defs>
<use x="7578.0" y="0" xlink:href="#g68/TT0"/>
<use x="8335.0" y="0" xlink:href="#g69/TT0"/>
</g>
<text x="512.54" y="490.95" font-size="9.0pt" font-family="Avenir Next for SAS" fill="#626f80" text-anchor="start" opacity="0">
AVG_TEMP_INSIDE</text>
<rect x="627.67" y="482.15" width="9.0" height="9.0" fill="#9471ff" opacity="0.5">
</rect>
<g fill="#626f80" stroke="#626f80" transform="translate(640.67 490.95) scale(0.012 -0.012)">
<defs>
<path id="g66/TT0" d="M305.0 708.0Q 401.0,708.0  467.0,666.0 T 533.0,527.0 Q 533.0,471.0  498.5,429.5 T 408.0,375.0  L408.0 373.0Q 479.0,365.0  523.5,318.0 T 568.0,196.0 Q 568.0,137.0  536.0,93.0 T 444.0,24.5 T 304.0,0  L94.0 0 L94.0 708.0 L305.0 708.0Z M311.0 398.0Q 372.0,398.0  416.5,428.0 T 461.0,522.0 Q 461.0,586.0  414.0,616.0 T 291.0,646.0  L166.0 646.0 L166.0 398.0 L311.0 398.0Z M300.0 62.0Q 385.0,62.0  440.0,96.0 T 495.0,200.0 Q 495.0,269.0  448.0,304.0 T 313.0,339.0  L166.0 339.0 L166.0 62.0 L300.0 62.0Z">
</path>
</defs>
<use x="0" y="0" xlink:href="#g66/TT0"/>
<use x="636.0" y="0" xlink:href="#g97/TT0"/>
<use x="1170.0" y="0" xlink:href="#g110/TT0"/>
<use x="1751.0" y="0" xlink:href="#g100/TT0"/>
<use x="2638.0" y="0" xlink:href="#g80/TT0"/>
<defs>
<path id="g108/TT0" d="M160.0 0 L92.0 0 L92.0 756.0 L160.0 756.0 L160.0 0Z">
</path>
</defs>
<use x="3218.0" y="0" xlink:href="#g108/TT0"/>
<defs>
<path id="g111/TT0" d="M305.0 -12.0Q 234.0,-12.0  177.0,20.0 T 88.0,108.0 T 56.0,234.0 Q 56.0,304.0  88.0,360.0 T 177.0,448.0 T 305.0,480.0 Q 377.0,480.0  434.0,448.0 T 523.0,360.0 T 555.0,234.0 Q 555.0,164.0  523.0,108.0 T 434.0,20.0 T 377.0,-12.0 Z M305.0 423.0Q 252.0,423.0  212.0,398.0 T 150.0,330.0 T 128.0,234.0 Q 128.0,181.0  150.0,138.5 T 212.0,71.0 T 305.0,46.0 Q 358.0,46.0  398.5,71.0 T 461.0,138.5 T 483.0,234.0 Q 483.0,287.0  461.0,330.0 T 398.5,398.0 T 358.0,423.0 Z">
</path>
</defs>
<use x="3470.0" y="0" xlink:href="#g111/TT0"/>
<use x="4081.0" y="0" xlink:href="#g116/TT0"/>
</g>
<text x="640.67" y="490.95" font-size="9.0pt" font-family="Avenir Next for SAS" fill="#626f80" text-anchor="start" opacity="0">
Band Plot</text>
</g>
</g>
</svg>
