<svg xmlns="http://www.w3.org/2000/svg" xmlns:xlink="http://www.w3.org/1999/xlink" version="1.1" width="1000" height="500" viewBox="0 0 1000 500">
<rect x="0" y="0" width="1000" height="500" fill="#ffffff">
</rect>
<g>
<rect x="0" y="0" rx="5" ry="5" width="1000.0" height="500.0" fill="#ffffff" opacity="0">
</rect>
<rect x="0" y="0" rx="5" ry="5" width="1000.0" height="500.0" fill="#ffffff" opacity="0">
</rect>
<rect x="0" y="0" rx="5" ry="5" width="1000.0" height="500.0" fill="#ffffff" opacity="0">
</rect>
<rect x="0" y="0" rx="5" ry="5" width="1000.0" height="500.0" fill="#ffffff" opacity="0">
</rect>
<g transform=" translate(16.0 -16.0)">
<defs>
<clipPath id="ClipPath0">
<rect x="22" y="46" width="949" height="366">
</rect>
</clipPath>
</defs>
<g clip-path="url(#ClipPath0)">
<defs>
<clipPath id="ClipPath1">
<rect x="22" y="48" width="947" height="364">
</rect>
</clipPath>
</defs>
<g clip-path="url(#ClipPath1)">
<g transform="">
<polyline id="Polyline_102" points="28.0,175.83  38.38,179.34  48.76,182.34  59.13,186.34  69.51,188.34  79.89,184.34  90.27,173.83  100.64,168.33  111.02,166.33  121.4,165.83  131.78,166.33  142.16,167.83  152.53,169.83  162.91,172.33  173.29,174.33  183.67,176.83  194.04,176.33  204.42,173.33  214.8,163.82  225.18,160.82  235.56,159.82  245.93,159.82  256.31,159.82  266.69,161.82  277.07,164.33  287.44,166.83  297.82,168.83  308.2,174.33  318.58,175.33  328.96,172.83  339.33,165.33  349.71,158.82  360.09,158.82  370.47,159.32  380.84,160.32  391.22,161.82  401.6,163.82  411.98,166.33  422.36,168.83  432.73,171.83  443.11,173.33  453.49,171.33  463.87,164.33  474.24,160.82  484.62,160.82  495.0,159.82  505.38,159.82  515.76,160.32  526.13,162.82  536.51,164.33  546.89,166.83  557.27,169.33  567.64,170.83  578.02,167.83  588.4,158.32  598.78,155.82  609.16,156.82  619.53,156.82  629.91,158.32  640.29,159.82  650.67,160.32  661.04,162.82  671.42,164.83  681.8,166.33  692.18,167.83  702.56,168.83  712.93,169.33  723.31,169.33  733.69,168.83  744.07,167.83  754.44,169.33  764.82,169.83  775.2,172.83  785.58,174.83  795.96,175.83  806.33,176.83  816.71,176.83  827.09,175.83  837.47,175.33  847.84,174.33  858.22,174.33  868.6,174.33  878.98,175.83  889.36,177.33  899.73,178.84  910.11,180.34  920.49,181.84  930.87,182.84  941.24,181.34  951.62,179.84  962.0,177.83 " fill="none" stroke="#287fc7" stroke-width="3.0">
</polyline>
</g>
<g transform="">
<polyline id="Polyline_285" points="28.0,213.86  38.38,219.36  48.76,224.12  59.13,229.37  69.51,230.37  79.89,217.86  90.27,203.85  100.64,194.85  111.02,190.84  121.4,191.59  131.78,195.1  142.16,200.1  152.53,205.35  162.91,209.86  173.29,213.61  183.67,217.11  194.04,216.86  204.42,205.6  214.8,192.84  225.18,185.84  235.56,182.84  245.93,184.34  256.31,187.84  266.69,192.84  277.07,198.35  287.44,203.35  297.82,208.36  308.2,214.86  318.58,215.86  328.96,204.1  339.33,192.09  349.71,183.84  360.09,180.59  370.47,182.09  380.84,186.09  391.22,190.09  401.6,194.6  411.98,199.1  422.36,203.6  432.73,208.61  443.11,210.36  453.49,200.35  463.87,169.83  474.24,162.57  484.62,187.59  495.0,200.1  505.38,209.61  515.76,214.86  526.13,220.11  536.51,224.12  546.89,227.87  557.27,228.62  567.64,212.61  578.02,191.09  588.4,183.84  598.78,187.09  609.16,194.35  619.53,203.6  629.91,209.11  640.29,212.11  650.67,214.61  661.04,214.11  671.42,214.36  681.8,215.11  692.18,214.11  702.56,213.86  712.93,210.36  723.31,209.61  733.69,212.36  744.07,217.36  754.44,222.12  764.82,224.62  775.2,225.12  785.58,224.12  795.96,224.37  806.33,225.62  816.71,220.61  827.09,215.11  837.47,212.11  847.84,210.11  858.22,214.86  868.6,223.62  878.98,230.12  889.36,235.88  899.73,235.88  910.11,232.37  920.49,237.38  930.87,241.13  941.24,227.12  951.62,220.61  962.0,216.86 " fill="none" stroke="#b7b7b7" stroke-width="3.0" stroke-dasharray="4,4" opacity="0.75">
</polyline>
</g>
<g transform="">
<polygon points="28.0,321.42  38.38,332.58  48.76,342.29  59.13,351.08  69.51,349.25  79.89,312.68  90.27,288.76  100.64,269.85  111.02,260.19  121.4,264.48  131.78,276.47  142.16,291.38  152.53,305.83  162.91,316.0  173.29,324.7  183.67,331.04  194.04,331.49  204.42,296.88  214.8,274.93  225.18,256.6  235.56,247.94  245.93,253.68  256.31,267.09  266.69,280.59  277.07,294.58  287.44,306.66  297.82,320.16  308.2,329.49  318.58,330.49  328.96,292.55  339.33,267.81  349.71,254.6  360.09,242.15  370.47,246.48  380.84,258.97  391.22,270.05  401.6,281.63  411.98,291.8  422.36,301.96  432.73,312.62  443.11,315.08  453.49,282.43  463.87,185.4  474.24,167.53  484.62,263.3  495.0,314.02  505.38,350.42  515.76,369.12  526.13,382.15  536.51,393.23  546.89,400.52  557.27,396.32  567.64,330.78  578.02,256.9  588.4,256.01  598.78,275.54  609.16,300.49  619.53,335.92  629.91,352.75  640.29,360.0  650.67,368.16  661.04,359.17  671.42,354.47  681.8,353.09  692.18,345.02  702.56,341.23  712.93,326.4  723.31,323.53  733.69,335.48  744.07,357.47  754.44,371.42  764.82,379.58  775.2,373.01  785.58,363.51  795.96,361.64  806.33,363.6  816.71,344.44  827.09,326.2  837.47,316.13  847.84,311.29  858.22,329.49  868.6,363.01  878.98,383.67  889.36,401.45  899.73,397.21  910.11,379.55  920.49,394.46  930.87,406.0  941.24,356.61  951.62,335.95  962.0,327.25  962.0,106.48  951.62,105.28  941.24,97.63  930.87,76.26  920.49,80.29  910.11,85.19  899.73,74.54  889.36,70.3  878.98,76.57  868.6,84.22  858.22,100.23  847.84,108.92  837.47,108.09  827.09,104.02  816.71,96.78  806.33,87.64  795.96,87.09  785.58,84.72  775.2,77.23  764.82,69.65  754.44,72.81  744.07,77.26  733.69,89.24  723.31,95.68  712.93,94.31  702.56,86.49  692.18,83.2  681.8,77.13  671.42,74.25  661.04,69.05  650.67,61.06  640.29,64.22  629.91,65.46  619.53,71.28  609.16,88.21  598.78,98.64  588.4,111.66  578.02,125.29  567.64,94.44  557.27,60.92  546.89,55.21  536.51,55.0  526.13,58.07  515.76,60.6  505.38,68.79  495.0,86.18  484.62,111.88  474.24,157.62  463.87,154.26  453.49,118.27  443.11,105.63  432.73,104.59  422.36,105.25  411.98,106.4  401.6,107.56  391.22,110.13  380.84,113.21  370.47,117.7  360.09,119.03  349.71,113.08  339.33,116.38  328.96,115.65  318.58,101.23  308.2,100.23  297.82,96.55  287.44,100.04  277.07,102.11  266.69,105.1  256.31,108.59  245.93,114.99  235.56,117.74  225.18,115.08  214.8,110.76  204.42,114.32  194.04,102.23  183.67,103.19  173.29,102.52  162.91,103.72  152.53,104.87  142.16,108.82  131.78,113.72  121.4,118.71  111.02,121.5  100.64,119.84  90.27,118.94  79.89,123.04  69.51,111.49  59.13,107.66  48.76,105.95  38.38,106.15  28.0,106.3 " fill="#d1d1d1" fill-opacity="0.6">
</polygon>
</g>
</g>
<path d="M22.0 400.49L969.0 400.49" stroke="#2a3037" stroke-dasharray="1,2" fill="none" opacity="0.4">
</path>
<path d="M22.0 300.42L969.0 300.42" stroke="#2a3037" stroke-dasharray="1,2" fill="none" opacity="0.4">
</path>
<path d="M22.0 200.35L969.0 200.35" stroke="#2a3037" stroke-dasharray="1,2" fill="none" opacity="0.4">
</path>
<path d="M22.0 100.28L969.0 100.28" stroke="#2a3037" stroke-dasharray="1,2" fill="none" opacity="0.4">
</path>
<path d="M28.0 412.0L28.0 48.0" stroke="#2a3037" stroke-dasharray="1,2" fill="none" opacity="0.4">
</path>
<path d="M152.53 412.0L152.53 48.0" stroke="#2a3037" stroke-dasharray="1,2" fill="none" opacity="0.4">
</path>
<path d="M277.07 412.0L277.07 48.0" stroke="#2a3037" stroke-dasharray="1,2" fill="none" opacity="0.4">
</path>
<path d="M401.6 412.0L401.6 48.0" stroke="#2a3037" stroke-dasharray="1,2" fill="none" opacity="0.4">
</path>
<path d="M526.13 412.0L526.13 48.0" stroke="#2a3037" stroke-dasharray="1,2" fill="none" opacity="0.4">
</path>
<path d="M650.67 412.0L650.67 48.0" stroke="#2a3037" stroke-dasharray="1,2" fill="none" opacity="0.4">
</path>
<path d="M775.2 412.0L775.2 48.0" stroke="#2a3037" stroke-dasharray="1,2" fill="none" opacity="0.4">
</path>
<path d="M899.73 412.0L899.73 48.0" stroke="#2a3037" stroke-dasharray="1,2" fill="none" opacity="0.4">
</path>
</g>
<defs>
<clipPath id="ClipPath2">
<rect x="0" y="49" width="22" height="363">
</rect>
</clipPath>
</defs>
<g clip-path="url(#ClipPath2)">
<g fill="#626f80" stroke="#626f80" transform="translate(-0.76 404.79) scale(0.012 -0.012)">
<defs>
<path id="g45/TT0" d="M272.0 214.0 L48.0 214.0 L48.0 271.0 L272.0 271.0 L272.0 214.0Z">
</path>
</defs>
<use x="0" y="0" xlink:href="#g45/TT0"/>
<defs>
<path id="g50/TT0" d="M51.0 0 L51.0 75.0 L341.0 368.0Q 380.0,408.0  403.0,447.0 T 426.0,530.0 Q 426.0,590.0  385.5,627.5 T 286.0,665.0 Q 230.0,665.0  191.0,630.0 T 140.0,539.0  L69.0 553.0Q 84.0,629.0  144.0,677.5 T 286.0,726.0 Q 344.0,726.0  392.5,703.5 T 470.0,637.0 T 499.0,531.0 Q 499.0,469.0  470.0,421.5 T 384.0,317.0  L129.0 64.0 L504.0 64.0 L504.0 0 L51.0 0Z">
</path>
</defs>
<use x="320.0" y="0" xlink:href="#g50/TT0"/>
<defs>
<path id="g48/TT0" d="M522.0 353.0Q 522.0,195.0  467.0,88.5 T 290.0,-18.0 Q 167.0,-18.0  112.5,88.5 T 58.0,353.0 Q 58.0,512.0  112.5,619.0 T 290.0,726.0 Q 412.0,726.0  467.0,618.5 T 522.0,353.0 Z M131.0 353.0Q 131.0,226.0  167.5,135.0 T 290.0,44.0 Q 375.0,44.0  412.0,135.5 T 449.0,353.0 Q 449.0,480.0  412.0,572.5 T 290.0,665.0 Q 204.0,665.0  167.5,573.0 T 131.0,353.0 Z">
</path>
</defs>
<use x="900.0" y="0" xlink:href="#g48/TT0"/>
</g>
<text id="Text_651" x="17.0" y="404.79" font-size="9.0pt" font-family="Avenir Next for SAS" fill="#626f80" text-anchor="end" opacity="0">
-20</text>
<g fill="#626f80" stroke="#626f80" transform="translate(10.04 304.72) scale(0.012 -0.012)">
<use x="0" y="0" xlink:href="#g48/TT0"/>
</g>
<text id="Text_652" x="17.0" y="304.72" font-size="9.0pt" font-family="Avenir Next for SAS" fill="#626f80" text-anchor="end" opacity="0">
0</text>
<g fill="#626f80" stroke="#626f80" transform="translate(3.08 204.65) scale(0.012 -0.012)">
<use x="0" y="0" xlink:href="#g50/TT0"/>
<use x="580.0" y="0" xlink:href="#g48/TT0"/>
</g>
<text id="Text_653" x="17.0" y="204.65" font-size="9.0pt" font-family="Avenir Next for SAS" fill="#626f80" text-anchor="end" opacity="0">
20</text>
<g fill="#626f80" stroke="#626f80" transform="translate(3.08 104.58) scale(0.012 -0.012)">
<defs>
<path id="g52/TT0" d="M436.0 234.0 L540.0 234.0 L540.0 171.0 L436.0 171.0 L436.0 0 L366.0 0 L366.0 171.0 L42.0 171.0 L42.0 241.0 L342.0 708.0 L436.0 708.0 L436.0 234.0Z M366.0 627.0 L364.0 627.0 L117.0 234.0 L366.0 234.0 L366.0 627.0Z">
</path>
</defs>
<use x="0" y="0" xlink:href="#g52/TT0"/>
<use x="580.0" y="0" xlink:href="#g48/TT0"/>
</g>
<text id="Text_654" x="17.0" y="104.58" font-size="9.0pt" font-family="Avenir Next for SAS" fill="#626f80" text-anchor="end" opacity="0">
40</text>
</g>
<g fill="#2a3037" stroke="#2a3037" transform="translate(0 45.59) scale(0.014 -0.014)">
<defs>
<path id="g84/TT1" d="M221.0 598.0 L4.0 598.0 L4.0 708.0 L564.0 708.0 L564.0 598.0 L347.0 598.0 L347.0 0 L221.0 0 L221.0 598.0Z">
</path>
</defs>
<use x="0" y="0" xlink:href="#g84/TT1"/>
<defs>
<path id="g101/TT1" d="M529.0 202.0 L164.0 202.0Q 168.0,152.0  208.0,118.0 T 301.0,84.0 Q 384.0,84.0  428.0,146.0  L508.0 82.0Q 437.0,-14.0  302.0,-14.0 Q 228.0,-14.0  169.5,16.5 T 77.5,104.0 T 44.0,237.0 Q 44.0,313.0  77.0,371.5 T 168.0,462.0 T 298.0,494.0 Q 402.0,494.0  466.0,427.0 T 530.0,234.0 Q 530.0,213.0  529.0,202.0 Z M297.0 404.0Q 244.0,404.0  206.0,371.0 T 164.0,288.0  L410.0 288.0Q 410.0,338.0  381.0,371.0 T 297.0,404.0 Z">
</path>
</defs>
<use x="568.0" y="0" xlink:href="#g101/TT1"/>
<defs>
<path id="g109/TT1" d="M822.0 300.0 L822.0 0 L702.0 0 L702.0 266.0Q 702.0,394.0  612.0,394.0 Q 560.0,394.0  533.0,354.5 T 506.0,262.0  L506.0 0 L386.0 0 L386.0 290.0Q 386.0,337.0  363.5,365.5 T 297.0,394.0 Q 246.0,394.0  219.0,355.5 T 192.0,264.0  L192.0 0 L72.0 0 L72.0 480.0 L186.0 480.0 L186.0 403.0 L188.0 403.0Q 205.0,442.0  244.0,468.0 T 337.0,494.0 Q 390.0,494.0  428.0,470.0 T 487.0,403.0 Q 511.0,447.0  551.5,470.5 T 645.0,494.0 Q 733.0,494.0  777.5,437.5 T 822.0,300.0 Z">
</path>
</defs>
<use x="1142.0" y="0" xlink:href="#g109/TT1"/>
<defs>
<path id="g112/TT1" d="M187.0 413.0 L190.0 413.0Q 211.0,446.0  253.5,470.0 T 356.0,494.0 Q 423.0,494.0  476.0,461.0 T 559.0,370.0 T 589.0,242.0 Q 589.0,172.0  560.0,113.5 T 477.5,20.5 T 353.0,-14.0 Q 303.0,-14.0  260.0,7.0 T 194.0,64.0  L192.0 64.0 L192.0 -240.0 L72.0 -240.0 L72.0 480.0 L187.0 480.0 L187.0 413.0Z M329.0 396.0Q 287.0,396.0  255.0,373.5 T 205.5,314.5 T 188.0,240.0 Q 188.0,202.0  205.5,166.5 T 255.0,108.5 T 329.0,86.0 Q 373.0,86.0  404.5,108.5 T 451.5,167.0 T 467.0,242.0 Q 467.0,281.0  451.5,316.5 T 404.5,374.0 T 373.0,396.0 Z">
</path>
</defs>
<use x="2032.0" y="0" xlink:href="#g112/TT1"/>
<use x="2665.0" y="0" xlink:href="#g101/TT1"/>
<defs>
<path id="g114/TT1" d="M187.0 480.0 L187.0 400.0 L189.0 400.0Q 209.0,443.0  246.0,468.5 T 329.0,494.0 Q 346.0,494.0  358.0,491.0  L358.0 381.0Q 338.0,386.0  321.0,386.0 Q 272.0,386.0  243.0,363.0 T 203.0,310.5 T 192.0,257.0  L192.0 0 L72.0 0 L72.0 480.0 L187.0 480.0Z">
</path>
</defs>
<use x="3239.0" y="0" xlink:href="#g114/TT1"/>
<defs>
<path id="g97/TT1" d="M367.0 61.0Q 349.0,29.0  308.5,8.5 T 218.0,-12.0 Q 175.0,-12.0  134.0,3.0 T 65.5,51.5 T 38.0,137.0 Q 38.0,233.0  131.0,266.5 T 368.0,300.0  L368.0 312.0Q 368.0,354.0  337.0,377.0 T 258.0,400.0 Q 221.0,400.0  186.0,384.5 T 127.0,345.0  L65.0 418.0Q 105.0,455.0  158.5,474.5 T 268.0,494.0 Q 385.0,494.0  433.5,436.0 T 482.0,292.0  L482.0 0 L370.0 0 L370.0 61.0 L367.0 61.0Z M341.0 219.0Q 158.0,219.0  158.0,139.0 Q 158.0,107.0  182.5,93.0 T 242.0,79.0 Q 303.0,79.0  335.5,111.5 T 368.0,202.0  L368.0 219.0 L341.0 219.0Z">
</path>
</defs>
<use x="3603.0" y="0" xlink:href="#g97/TT1"/>
<defs>
<path id="g116/TT1" d="M3.0 480.0 L87.0 480.0 L87.0 619.0 L205.0 619.0 L205.0 480.0 L325.0 480.0 L325.0 384.0 L205.0 384.0 L205.0 161.0Q 205.0,125.0  218.0,106.0 T 268.0,87.0 Q 299.0,87.0  319.0,97.0  L323.0 3.0Q 289.0,-10.0  243.0,-10.0 Q 155.0,-10.0  121.0,35.5 T 87.0,160.0  L87.0 384.0 L3.0 384.0 L3.0 480.0Z">
</path>
</defs>
<use x="4153.0" y="0" xlink:href="#g116/TT1"/>
<defs>
<path id="g117/TT1" d="M396.0 0 L396.0 77.0 L394.0 77.0Q 377.0,39.0  336.5,12.5 T 245.0,-14.0 Q 157.0,-14.0  112.5,42.5 T 68.0,180.0  L68.0 480.0 L188.0 480.0 L188.0 214.0Q 188.0,86.0  278.0,86.0 Q 332.0,86.0  361.0,124.5 T 390.0,216.0  L390.0 480.0 L510.0 480.0 L510.0 0 L396.0 0Z">
</path>
</defs>
<use x="4493.0" y="0" xlink:href="#g117/TT1"/>
<use x="5075.0" y="0" xlink:href="#g114/TT1"/>
<use x="5439.0" y="0" xlink:href="#g101/TT1"/>
<defs>
<path id="g105/TT1" d="M133.0 715.0Q 166.0,715.0  188.5,694.5 T 211.0,643.0 Q 211.0,612.0  188.5,591.5 T 133.0,571.0 Q 101.0,571.0  79.0,592.5 T 57.0,643.0 Q 57.0,672.0  79.0,693.5 T 133.0,715.0 Z M74.0 480.0 L194.0 480.0 L194.0 0 L74.0 0 L74.0 480.0Z">
</path>
</defs>
<use x="6263.0" y="0" xlink:href="#g105/TT1"/>
<defs>
<path id="g110/TT1" d="M186.0 480.0 L186.0 403.0 L188.0 403.0Q 205.0,441.0  245.5,467.5 T 337.0,494.0 Q 425.0,494.0  469.5,437.5 T 514.0,300.0  L514.0 0 L394.0 0 L394.0 266.0Q 394.0,394.0  304.0,394.0 Q 250.0,394.0  221.0,355.5 T 192.0,264.0  L192.0 0 L72.0 0 L72.0 480.0 L186.0 480.0Z">
</path>
</defs>
<use x="6531.0" y="0" xlink:href="#g110/TT1"/>
<defs>
<path id="g115/TT1" d="M230.0 404.0Q 198.0,404.0  175.5,391.0 T 153.0,352.0 Q 153.0,327.0  176.0,315.0 T 257.0,289.0 Q 325.0,273.0  368.5,241.0 T 412.0,146.0 Q 412.0,64.0  355.5,25.0 T 212.0,-14.0 Q 155.0,-14.0  102.0,7.0 T 15.0,65.0  L94.0 139.0Q 114.0,112.0  146.5,95.5 T 217.0,79.0 Q 248.0,79.0  271.0,93.0 T 294.0,136.0 Q 294.0,164.0  269.5,177.5 T 184.0,205.0 Q 119.0,221.0  80.5,250.5 T 42.0,341.0 Q 42.0,416.0  98.0,455.0 T 233.0,494.0 Q 287.0,494.0  336.0,475.0 T 413.0,421.0  L335.0 352.0Q 318.0,374.0  290.0,389.0 T 230.0,404.0 Z">
</path>
</defs>
<use x="7113.0" y="0" xlink:href="#g115/TT1"/>
<use x="7557.0" y="0" xlink:href="#g105/TT1"/>
<defs>
<path id="g100/TT1" d="M446.0 0 L446.0 72.0 L444.0 72.0Q 420.0,31.0  375.0,8.5 T 279.0,-14.0 Q 208.0,-14.0  154.5,20.5 T 72.0,113.5 T 43.0,242.0 Q 43.0,312.0  73.0,370.0 T 156.0,461.0 T 276.0,494.0 Q 377.0,494.0  437.0,419.0  L440.0 419.0 L440.0 756.0 L560.0 756.0 L560.0 0 L446.0 0Z M303.0 86.0Q 345.0,86.0  377.0,108.5 T 426.5,166.5 T 444.0,240.0 Q 444.0,278.0  426.5,314.5 T 377.0,373.5 T 303.0,396.0 Q 259.0,396.0  227.5,374.0 T 180.5,316.5 T 165.0,242.0 Q 165.0,203.0  180.5,167.0 T 227.5,108.5 T 259.0,86.0 Z">
</path>
</defs>
<use x="7825.0" y="0" xlink:href="#g100/TT1"/>
<use x="8459.0" y="0" xlink:href="#g101/TT1"/>
</g>
<g fill="#2a3037" stroke="#2a3037" transform="translate(129.96 45.59) scale(0.0068 -0.0068)">
<defs>
<path id="g128/TT2" d="M2013.0 465.0Q 1949.0,218.0  1789.5,96.5 T 1407.0,-25.0 Q 1048.0,-25.0  883.5,200.5 T 719.0,743.0 Q 719.0,1094.0  912.5,1292.5 T 1409.0,1491.0 Q 1624.0,1491.0  1776.0,1382.0 T 1989.0,1063.0  L1798.0 1018.0Q 1703.0,1325.0  1407.0,1325.0 Q 1167.0,1325.0  1043.5,1167.5 T 920.0,745.0 Q 920.0,439.0  1050.0,290.0 T 1391.0,141.0 Q 1735.0,141.0  1821.0,514.0 Z M367.0 1485.0Q 481.0,1485.0  562.0,1403.5 T 643.0,1208.0 Q 643.0,1093.0  561.5,1011.5 T 367.0,930.0 Q 253.0,930.0  171.5,1011.5 T 90.0,1208.0 Q 90.0,1323.0  171.0,1404.0 T 367.0,1485.0 Z M367.0 1038.0Q 436.0,1038.0  485.5,1088.0 T 535.0,1208.0 Q 535.0,1278.0  485.5,1327.0 T 367.0,1376.0 Q 297.0,1376.0  248.0,1327.0 T 199.0,1208.0 Q 199.0,1138.0  248.0,1088.0 T 367.0,1038.0 Z">
</path>
</defs>
<use x="0" y="0" xlink:href="#g128/TT2"/>
</g>
<text id="Text_655" x="0" y="45.59" font-size="10.5pt" font-family="Avenir Next for SAS" font-weight="bold" fill="#2a3037" text-anchor="start" opacity="0">
Temperature inside ℃</text>
<defs>
<clipPath id="ClipPath3">
<rect x="22" y="412" width="946" height="57">
</rect>
</clipPath>
</defs>
<g clip-path="url(#ClipPath3)">
<g fill="#626f80" stroke="#626f80" transform="translate(25.0 426.65) scale(0.012 -0.012)">
<use x="0" y="0" xlink:href="#g48/TT0"/>
<defs>
<path id="g54/TT0" d="M203.0 397.0Q 218.0,409.0  247.0,416.0 T 304.0,423.0 Q 365.0,423.0  414.5,395.5 T 492.0,318.0 T 520.0,205.0 Q 520.0,140.0  490.5,89.5 T 408.5,10.5 T 290.0,-18.0 Q 224.0,-18.0  171.5,10.5 T 89.5,89.5 T 60.0,205.0 Q 60.0,255.0  77.0,301.5 T 124.0,397.0  L317.0 708.0 L400.0 708.0 L201.0 399.0 L203.0 397.0Z M290.0 43.0Q 336.0,43.0  372.0,64.0 T 428.0,122.0 T 448.0,205.0 Q 448.0,275.0  405.0,320.0 T 290.0,365.0 Q 218.0,365.0  175.0,320.0 T 132.0,205.0 Q 132.0,159.0  152.0,122.0 T 208.0,64.0 T 244.0,43.0 Z">
</path>
</defs>
<use x="580.0" y="0" xlink:href="#g54/TT0"/>
<defs>
<path id="g77/TT0" d="M444.0 122.0 L445.0 122.0 L682.0 708.0 L792.0 708.0 L792.0 0 L720.0 0 L720.0 615.0 L718.0 615.0 L462.0 0 L424.0 0 L168.0 615.0 L166.0 615.0 L166.0 0 L94.0 0 L94.0 708.0 L204.0 708.0 L444.0 122.0Z">
</path>
</defs>
<use x="1160.0" y="0" xlink:href="#g77/TT0"/>
<defs>
<path id="g97/TT0" d="M260.0 423.0Q 220.0,423.0  183.0,408.0 T 121.0,368.0  L83.0 413.0Q 113.0,443.0  161.0,461.5 T 267.0,480.0 Q 347.0,480.0  398.0,436.0 T 449.0,310.0  L449.0 105.0Q 449.0,42.0  457.0,0  L396.0 0Q 389.0,40.0  389.0,76.0  L387.0 76.0Q 355.0,30.0  314.5,9.0 T 217.0,-12.0 Q 178.0,-12.0  141.0,2.5 T 79.5,49.0 T 55.0,130.0 Q 55.0,198.0  99.0,232.0 T 212.5,276.5 T 385.0,287.0  L385.0 302.0Q 385.0,362.0  353.0,392.5 T 260.0,423.0 Z M125.0 133.0Q 125.0,87.0  157.0,65.5 T 235.0,44.0 Q 304.0,44.0  344.5,89.0 T 385.0,199.0  L385.0 234.0 L365.0 234.0Q 259.0,234.0  192.0,213.5 T 125.0,133.0 Z">
</path>
</defs>
<use x="2046.0" y="0" xlink:href="#g97/TT0"/>
<defs>
<path id="g114/TT0" d="M86.0 468.0 L151.0 468.0Q 155.0,418.0  155.0,388.0  L157.0 388.0Q 177.0,429.0  217.5,454.5 T 307.0,480.0 Q 334.0,480.0  352.0,475.0  L343.0 411.0Q 337.0,413.0  322.5,415.0 T 295.0,417.0 Q 236.0,417.0  197.0,372.5 T 158.0,240.0  L158.0 0 L90.0 0 L90.0 365.0Q 90.0,425.0  86.0,468.0 Z">
</path>
</defs>
<use x="2580.0" y="0" xlink:href="#g114/TT0"/>
</g>
<text x="42.0" y="426.65" font-size="9.0pt" font-family="Avenir Next for SAS" fill="#626f80" text-anchor="middle" opacity="0">
06Mar</text>
<g fill="#626f80" stroke="#626f80" transform="translate(29.0 441.35) scale(0.012 -0.012)">
<use x="0" y="0" xlink:href="#g50/TT0"/>
<use x="580.0" y="0" xlink:href="#g48/TT0"/>
<use x="1160.0" y="0" xlink:href="#g50/TT0"/>
<defs>
<path id="g53/TT0" d="M180.0 644.0 L175.0 425.0Q 219.0,441.0  273.0,441.0 Q 339.0,441.0  391.5,413.0 T 473.5,334.5 T 503.0,219.0 Q 503.0,151.0  473.5,97.0 T 390.5,12.5 T 268.0,-18.0 Q 194.0,-18.0  140.0,16.0 T 56.0,111.0  L121.0 140.0Q 140.0,96.0  179.0,70.0 T 264.0,44.0 Q 311.0,44.0  349.0,66.0 T 408.5,126.5 T 430.0,212.0 Q 430.0,289.0  380.5,335.5 T 254.0,382.0 Q 180.0,382.0  107.0,343.0  L114.0 708.0 L475.0 708.0 L475.0 644.0 L180.0 644.0Z">
</path>
</defs>
<use x="1740.0" y="0" xlink:href="#g53/TT0"/>
</g>
<text x="42.0" y="441.35" font-size="9.0pt" font-family="Avenir Next for SAS" fill="#626f80" text-anchor="middle" opacity="0">
2025</text>
<g fill="#626f80" stroke="#626f80" transform="translate(135.53 426.65) scale(0.012 -0.012)">
<use x="0" y="0" xlink:href="#g48/TT0"/>
<defs>
<path id="g55/TT0" d="M498.0 642.0 L213.0 0 L132.0 0 L425.0 644.0 L78.0 644.0 L78.0 708.0 L498.0 708.0 L498.0 642.0Z">
</path>
</defs>
<use x="580.0" y="0" xlink:href="#g55/TT0"/>
<use x="1160.0" y="0" xlink:href="#g77/TT0"/>
<use x="2046.0" y="0" xlink:href="#g97/TT0"/>
<use x="2580.0" y="0" xlink:href="#g114/TT0"/>
</g>
<text x="152.53" y="426.65" font-size="9.0pt" font-family="Avenir Next for SAS" fill="#626f80" text-anchor="middle" opacity="0">
07Mar</text>
<g fill="#626f80" stroke="#626f80" transform="translate(260.07 426.65) scale(0.012 -0.012)">
<use x="0" y="0" xlink:href="#g48/TT0"/>
<defs>
<path id="g56/TT0" d="M517.0 186.0Q 517.0,126.0  486.0,79.5 T 403.0,7.5 T 290.0,-18.0 Q 229.0,-18.0  177.0,7.5 T 94.0,79.5 T 63.0,186.0 Q 63.0,256.0  100.5,306.5 T 197.0,375.0  L197.0 377.0Q 150.0,393.0  120.0,437.5 T 90.0,537.0 Q 90.0,593.0  117.0,636.0 T 190.0,702.5 T 290.0,726.0 Q 344.0,726.0  390.0,702.5 T 463.0,636.0 T 490.0,537.0 Q 490.0,482.0  460.0,437.5 T 383.0,377.0  L383.0 375.0Q 442.0,358.0  479.5,307.0 T 517.0,186.0 Z M290.0 406.0Q 345.0,406.0  382.5,442.0 T 420.0,533.0 Q 420.0,590.0  383.0,627.5 T 290.0,665.0 Q 234.0,665.0  197.0,627.5 T 160.0,533.0 Q 160.0,478.0  197.5,442.0 T 290.0,406.0 Z M290.0 43.0Q 359.0,43.0  402.0,86.0 T 445.0,194.0 Q 445.0,258.0  402.0,300.0 T 290.0,342.0 Q 221.0,342.0  178.0,300.0 T 135.0,194.0 Q 135.0,129.0  178.0,86.0 T 290.0,43.0 Z">
</path>
</defs>
<use x="580.0" y="0" xlink:href="#g56/TT0"/>
<use x="1160.0" y="0" xlink:href="#g77/TT0"/>
<use x="2046.0" y="0" xlink:href="#g97/TT0"/>
<use x="2580.0" y="0" xlink:href="#g114/TT0"/>
</g>
<text x="277.07" y="426.65" font-size="9.0pt" font-family="Avenir Next for SAS" fill="#626f80" text-anchor="middle" opacity="0">
08Mar</text>
<g fill="#626f80" stroke="#626f80" transform="translate(384.6 426.65) scale(0.012 -0.012)">
<use x="0" y="0" xlink:href="#g48/TT0"/>
<defs>
<path id="g57/TT0" d="M379.0 311.0Q 364.0,299.0  335.0,292.0 T 278.0,285.0 Q 217.0,285.0  167.5,312.5 T 90.0,390.0 T 62.0,503.0 Q 62.0,568.0  91.5,618.5 T 173.5,697.5 T 292.0,726.0 Q 358.0,726.0  410.5,697.5 T 492.5,618.5 T 522.0,503.0 Q 522.0,453.0  505.0,406.5 T 458.0,311.0  L265.0 0 L182.0 0 L381.0 309.0 L379.0 311.0Z M292.0 665.0Q 246.0,665.0  210.0,644.0 T 154.0,586.0 T 134.0,503.0 Q 134.0,433.0  177.0,388.0 T 292.0,343.0 Q 364.0,343.0  407.0,388.0 T 450.0,503.0 Q 450.0,549.0  430.0,586.0 T 374.0,644.0 T 338.0,665.0 Z">
</path>
</defs>
<use x="580.0" y="0" xlink:href="#g57/TT0"/>
<use x="1160.0" y="0" xlink:href="#g77/TT0"/>
<use x="2046.0" y="0" xlink:href="#g97/TT0"/>
<use x="2580.0" y="0" xlink:href="#g114/TT0"/>
</g>
<text x="401.6" y="426.65" font-size="9.0pt" font-family="Avenir Next for SAS" fill="#626f80" text-anchor="middle" opacity="0">
09Mar</text>
<g fill="#626f80" stroke="#626f80" transform="translate(509.13 426.65) scale(0.012 -0.012)">
<defs>
<path id="g49/TT0" d="M358.0 0 L286.0 0 L286.0 619.0 L158.0 510.0 L114.0 560.0 L294.0 708.0 L358.0 708.0 L358.0 0Z">
</path>
</defs>
<use x="0" y="0" xlink:href="#g49/TT0"/>
<use x="580.0" y="0" xlink:href="#g48/TT0"/>
<use x="1160.0" y="0" xlink:href="#g77/TT0"/>
<use x="2046.0" y="0" xlink:href="#g97/TT0"/>
<use x="2580.0" y="0" xlink:href="#g114/TT0"/>
</g>
<text x="526.13" y="426.65" font-size="9.0pt" font-family="Avenir Next for SAS" fill="#626f80" text-anchor="middle" opacity="0">
10Mar</text>
<g fill="#626f80" stroke="#626f80" transform="translate(633.67 426.65) scale(0.012 -0.012)">
<use x="0" y="0" xlink:href="#g49/TT0"/>
<use x="580.0" y="0" xlink:href="#g49/TT0"/>
<use x="1160.0" y="0" xlink:href="#g77/TT0"/>
<use x="2046.0" y="0" xlink:href="#g97/TT0"/>
<use x="2580.0" y="0" xlink:href="#g114/TT0"/>
</g>
<text x="650.67" y="426.65" font-size="9.0pt" font-family="Avenir Next for SAS" fill="#626f80" text-anchor="middle" opacity="0">
11Mar</text>
<g fill="#626f80" stroke="#626f80" transform="translate(758.2 426.65) scale(0.012 -0.012)">
<use x="0" y="0" xlink:href="#g49/TT0"/>
<use x="580.0" y="0" xlink:href="#g50/TT0"/>
<use x="1160.0" y="0" xlink:href="#g77/TT0"/>
<use x="2046.0" y="0" xlink:href="#g97/TT0"/>
<use x="2580.0" y="0" xlink:href="#g114/TT0"/>
</g>
<text x="775.2" y="426.65" font-size="9.0pt" font-family="Avenir Next for SAS" fill="#626f80" text-anchor="middle" opacity="0">
12Mar</text>
<g fill="#626f80" stroke="#626f80" transform="translate(882.73 426.65) scale(0.012 -0.012)">
<use x="0" y="0" xlink:href="#g49/TT0"/>
<defs>
<path id="g51/TT0" d="M245.0 402.0Q 319.0,402.0  364.5,433.5 T 410.0,532.0 Q 410.0,590.0  369.0,627.5 T 270.0,665.0 Q 226.0,665.0  191.0,643.5 T 135.0,582.0  L74.0 614.0Q 106.0,670.0  157.0,698.0 T 274.0,726.0 Q 331.0,726.0  378.0,703.5 T 453.0,638.0 T 481.0,536.0 Q 481.0,475.0  446.5,432.0 T 358.0,374.0  L358.0 372.0Q 421.0,359.0  461.0,312.0 T 501.0,196.0 Q 501.0,131.0  470.0,82.5 T 387.0,8.0 T 273.0,-18.0 Q 196.0,-18.0  137.5,19.5 T 49.0,127.0  L117.0 152.0Q 135.0,102.0  177.0,73.0 T 273.0,44.0 Q 314.0,44.0  350.0,62.5 T 407.5,115.5 T 429.0,196.0 Q 429.0,271.0  376.0,305.5 T 245.0,340.0  L214.0 340.0 L214.0 402.0 L245.0 402.0Z">
</path>
</defs>
<use x="580.0" y="0" xlink:href="#g51/TT0"/>
<use x="1160.0" y="0" xlink:href="#g77/TT0"/>
<use x="2046.0" y="0" xlink:href="#g97/TT0"/>
<use x="2580.0" y="0" xlink:href="#g114/TT0"/>
</g>
<text x="899.73" y="426.65" font-size="9.0pt" font-family="Avenir Next for SAS" fill="#626f80" text-anchor="middle" opacity="0">
13Mar</text>
</g>
<g fill="#2a3037" stroke="#2a3037" transform="translate(464.0 465.44) scale(0.014 -0.014)">
<defs>
<path id="g68/TT1" d="M329.0 708.0Q 430.0,708.0  518.5,673.0 T 663.5,558.5 T 720.0,354.0 Q 720.0,237.0  663.0,157.0 T 516.5,38.5 T 329.0,0  L78.0 0 L78.0 708.0 L329.0 708.0Z M585.0 354.0Q 585.0,492.0  506.0,546.0 T 309.0,600.0  L204.0 600.0 L204.0 110.0 L309.0 110.0Q 424.0,110.0  504.5,166.5 T 585.0,354.0 Z">
</path>
</defs>
<use x="0" y="0" xlink:href="#g68/TT1"/>
<use x="764.0" y="0" xlink:href="#g97/TT1"/>
<use x="1314.0" y="0" xlink:href="#g116/TT1"/>
<use x="1654.0" y="0" xlink:href="#g101/TT1"/>
<use x="2478.0" y="0" xlink:href="#g116/TT1"/>
<use x="2818.0" y="0" xlink:href="#g105/TT1"/>
<use x="3086.0" y="0" xlink:href="#g109/TT1"/>
<use x="3976.0" y="0" xlink:href="#g101/TT1"/>
</g>
<text id="Text_657" x="495.0" y="465.44" font-size="10.5pt" font-family="Avenir Next for SAS" font-weight="bold" fill="#2a3037" text-anchor="middle" opacity="0">
Date time</text>
</g>
<g transform=" translate(16.0 -16.0)">
</g>
<g transform=" translate(16.0 -16.0)">
</g>
<g transform=" translate(16.0 -16.0)">
<rect x="235.0" y="473.3" rx="5" ry="5" width="496.16" height="26.7" fill="#ffffff">
</rect>
<path d="M241.0 486.65L291.0 486.65" stroke="#b7b7b7" stroke-dasharray="4,4" stroke-width="3.0" fill="none" opacity="0.75">
</path>
<g fill="#626f80" stroke="#626f80" transform="translate(295.0 490.95) scale(0.012 -0.012)">
<defs>
<path id="g65/TT0" d="M89.0 0 L10.0 0 L316.0 708.0 L386.0 708.0 L690.0 0 L610.0 0 L532.0 186.0 L166.0 186.0 L89.0 0Z M193.0 252.0 L505.0 252.0 L349.0 628.0 L193.0 252.0Z">
</path>
</defs>
<use x="0" y="0" xlink:href="#g65/TT0"/>
<defs>
<path id="g118/TT0" d="M282.0 0 L207.0 0 L16.0 468.0 L92.0 468.0 L244.0 72.0 L246.0 72.0 L399.0 468.0 L472.0 468.0 L282.0 0Z">
</path>
</defs>
<use x="700.0" y="0" xlink:href="#g118/TT0"/>
<defs>
<path id="g101/TT0" d="M515.0 216.0 L127.0 216.0Q 128.0,169.0  150.5,130.5 T 212.0,69.0 T 298.0,46.0 Q 347.0,46.0  387.0,69.5 T 448.0,127.0  L499.0 87.0Q 421.0,-12.0  298.0,-12.0 Q 229.0,-12.0  174.0,20.0 T 87.5,108.0 T 56.0,234.0 Q 56.0,303.0  87.0,359.5 T 172.0,448.0 T 292.0,480.0 Q 363.0,480.0  413.5,449.5 T 490.0,366.0 T 516.0,248.0 Q 516.0,228.0  515.0,216.0 Z M292.0 423.0Q 248.0,423.0  211.5,402.0 T 153.0,345.5 T 128.0,270.0  L447.0 270.0Q 444.0,338.0  403.5,380.5 T 292.0,423.0 Z">
</path>
</defs>
<use x="1188.0" y="0" xlink:href="#g101/TT0"/>
<use x="1760.0" y="0" xlink:href="#g114/TT0"/>
<use x="2120.0" y="0" xlink:href="#g97/TT0"/>
<defs>
<path id="g103/TT0" d="M294.0 -180.0Q 389.0,-180.0  433.0,-129.0 T 477.0,4.0  L477.0 92.0 L475.0 92.0Q 449.0,50.0  399.5,25.0 T 298.0,0 Q 226.0,0  171.0,30.5 T 86.0,115.5 T 56.0,238.0 Q 56.0,305.0  86.5,360.0 T 172.0,447.5 T 298.0,480.0 Q 351.0,480.0  399.5,455.5 T 475.0,387.0  L477.0 387.0 L477.0 468.0 L545.0 468.0 L545.0 4.0Q 545.0,-56.0  523.0,-110.5 T 444.0,-202.5 T 291.0,-240.0 Q 227.0,-240.0  167.5,-215.0 T 66.0,-146.0  L115.0 -94.0Q 144.0,-131.0  193.0,-155.5 T 294.0,-180.0 Z M305.0 58.0Q 357.0,58.0  398.0,81.0 T 462.0,145.5 T 485.0,240.0 Q 485.0,289.0  461.5,331.0 T 397.0,398.0 T 305.0,423.0 Q 250.0,423.0  210.0,398.0 T 149.0,331.5 T 128.0,240.0 Q 128.0,190.0  149.0,148.5 T 210.0,82.5 T 250.0,58.0 Z">
</path>
</defs>
<use x="2654.0" y="0" xlink:href="#g103/TT0"/>
<use x="3286.0" y="0" xlink:href="#g101/TT0"/>
<defs>
<path id="g84/TT0" d="M321.0 0 L249.0 0 L249.0 644.0 L12.0 644.0 L12.0 708.0 L558.0 708.0 L558.0 644.0 L321.0 644.0 L321.0 0Z">
</path>
</defs>
<use x="4108.0" y="0" xlink:href="#g84/TT0"/>
<use x="4678.0" y="0" xlink:href="#g101/TT0"/>
<defs>
<path id="g109/TT0" d="M311.0 480.0Q 356.0,480.0  395.0,458.0 T 455.0,381.0 Q 479.0,429.0  521.0,454.5 T 619.0,480.0 Q 706.0,480.0  751.5,428.0 T 797.0,287.0  L797.0 0 L729.0 0 L729.0 259.0Q 729.0,423.0  608.0,423.0 Q 540.0,423.0  507.5,372.5 T 475.0,249.0  L475.0 0 L407.0 0 L407.0 273.0Q 407.0,347.0  382.5,385.0 T 294.0,423.0 Q 260.0,423.0  228.5,402.5 T 177.5,340.5 T 158.0,240.0  L158.0 0 L90.0 0 L90.0 365.0Q 90.0,425.0  86.0,468.0  L151.0 468.0Q 155.0,418.0  155.0,388.0  L157.0 388.0Q 178.0,429.0  219.5,454.5 T 311.0,480.0 Z">
</path>
</defs>
<use x="5250.0" y="0" xlink:href="#g109/TT0"/>
<defs>
<path id="g112/TT0" d="M90.0 -240.0 L90.0 468.0 L158.0 468.0 L158.0 387.0 L161.0 387.0Q 189.0,431.0  237.0,455.5 T 337.0,480.0 Q 408.0,480.0  463.5,447.5 T 549.0,359.0 T 579.0,234.0 Q 579.0,165.0  549.0,109.0 T 463.5,20.5 T 337.0,-12.0 Q 286.0,-12.0  238.0,12.0 T 161.0,79.0  L158.0 79.0 L158.0 -240.0 L90.0 -240.0Z M330.0 423.0Q 278.0,423.0  237.0,398.0 T 173.0,330.0 T 150.0,234.0 Q 150.0,181.0  173.0,138.0 T 237.0,70.5 T 330.0,46.0 Q 385.0,46.0  425.0,71.0 T 486.0,138.5 T 507.0,234.0 Q 507.0,287.0  486.0,330.0 T 425.0,398.0 T 385.0,423.0 Z">
</path>
</defs>
<use x="6133.0" y="0" xlink:href="#g112/TT0"/>
<use x="6768.0" y="0" xlink:href="#g101/TT0"/>
<use x="7340.0" y="0" xlink:href="#g114/TT0"/>
<use x="7700.0" y="0" xlink:href="#g97/TT0"/>
<defs>
<path id="g116/TT0" d="M169.0 411.0 L169.0 138.0Q 169.0,89.0  187.0,70.5 T 239.0,52.0 Q 268.0,52.0  298.0,67.0  L301.0 8.0Q 264.0,-6.0  221.0,-6.0 Q 173.0,-6.0  137.0,22.0 T 101.0,119.0  L101.0 411.0 L4.0 411.0 L4.0 468.0 L101.0 468.0 L101.0 600.0 L169.0 600.0 L169.0 468.0 L301.0 468.0 L301.0 411.0 L169.0 411.0Z">
</path>
</defs>
<use x="8234.0" y="0" xlink:href="#g116/TT0"/>
<defs>
<path id="g117/TT0" d="M426.0 80.0 L424.0 80.0Q 405.0,40.0  359.5,14.0 T 264.0,-12.0 Q 177.0,-12.0  131.5,40.0 T 86.0,181.0  L86.0 468.0 L154.0 468.0 L154.0 209.0Q 154.0,130.0  182.5,87.5 T 281.0,45.0 Q 319.0,45.0  351.0,65.5 T 403.0,127.0 T 423.0,228.0  L423.0 468.0 L491.0 468.0 L491.0 103.0Q 491.0,43.0  495.0,0  L430.0 0Q 426.0,50.0  426.0,80.0 Z">
</path>
</defs>
<use x="8551.0" y="0" xlink:href="#g117/TT0"/>
<use x="9132.0" y="0" xlink:href="#g114/TT0"/>
<use x="9492.0" y="0" xlink:href="#g101/TT0"/>
<defs>
<path id="g105/TT0" d="M125.0 600.0Q 106.0,600.0  91.5,614.0 T 77.0,648.0 Q 77.0,668.0  91.5,682.0 T 125.0,696.0 Q 144.0,696.0  158.5,682.0 T 173.0,648.0 Q 173.0,628.0  158.5,614.0 T 125.0,600.0 Z M159.0 0 L91.0 0 L91.0 468.0 L159.0 468.0 L159.0 0Z">
</path>
</defs>
<use x="10314.0" y="0" xlink:href="#g105/TT0"/>
<defs>
<path id="g110/TT0" d="M155.0 388.0 L157.0 388.0Q 176.0,428.0  221.5,454.0 T 317.0,480.0 Q 404.0,480.0  449.5,428.0 T 495.0,287.0  L495.0 0 L427.0 0 L427.0 259.0Q 427.0,338.0  398.5,380.5 T 300.0,423.0 Q 262.0,423.0  230.0,402.5 T 178.0,341.0 T 158.0,240.0  L158.0 0 L90.0 0 L90.0 365.0Q 90.0,425.0  86.0,468.0  L151.0 468.0Q 155.0,418.0  155.0,388.0 Z">
</path>
</defs>
<use x="10564.0" y="0" xlink:href="#g110/TT0"/>
<defs>
<path id="g115/TT0" d="M224.0 423.0Q 183.0,423.0  154.0,404.5 T 125.0,350.0 Q 125.0,318.0  151.0,300.0 T 237.0,270.0 Q 320.0,253.0  359.5,220.0 T 399.0,133.0 Q 399.0,59.0  347.5,23.5 T 223.0,-12.0 Q 167.0,-12.0  118.0,11.0 T 38.0,79.0  L92.0 119.0Q 111.0,87.0  146.5,66.5 T 222.0,46.0 Q 270.0,46.0  301.0,65.5 T 332.0,128.0 Q 332.0,163.0  299.5,182.0 T 194.0,218.0 Q 136.0,232.0  98.0,258.5 T 60.0,344.0 Q 60.0,411.0  108.5,445.5 T 227.0,480.0 Q 277.0,480.0  323.0,457.5 T 391.0,396.0  L339.0 357.0Q 324.0,387.0  293.0,405.0 T 224.0,423.0 Z">
</path>
</defs>
<use x="11145.0" y="0" xlink:href="#g115/TT0"/>
<use x="11589.0" y="0" xlink:href="#g105/TT0"/>
<defs>
<path id="g100/TT0" d="M298.0 -12.0Q 227.0,-12.0  171.5,20.5 T 86.0,109.0 T 56.0,234.0 Q 56.0,303.0  86.0,359.0 T 171.5,447.5 T 298.0,480.0 Q 350.0,480.0  398.0,455.5 T 475.0,387.0  L477.0 387.0 L477.0 756.0 L545.0 756.0 L545.0 0 L477.0 0 L477.0 79.0 L475.0 79.0Q 446.0,36.0  398.0,12.0 T 298.0,-12.0 Z M305.0 46.0Q 357.0,46.0  398.0,70.5 T 462.0,138.0 T 485.0,234.0 Q 485.0,287.0  462.0,330.0 T 398.0,398.0 T 305.0,423.0 Q 250.0,423.0  210.0,398.0 T 149.0,330.0 T 128.0,234.0 Q 128.0,181.0  149.0,138.5 T 210.0,71.0 T 250.0,46.0 Z">
</path>
</defs>
<use x="11839.0" y="0" xlink:href="#g100/TT0"/>
<use x="12476.0" y="0" xlink:href="#g101/TT0"/>
</g>
<g fill="#626f80" stroke="#626f80" transform="translate(454.58 490.95) scale(0.0059 -0.0059)">
<use x="0" y="0" xlink:href="#g128/TT2"/>
</g>
<text x="295.0" y="490.95" font-size="9.0pt" font-family="Avenir Next for SAS" fill="#626f80" text-anchor="start" opacity="0">
Average Temperature inside ℃</text>
<path d="M474.84 486.65L524.84 486.65Z" stroke="#287fc7" stroke-width="3.0" fill="none">
</path>
<g fill="#626f80" stroke="#626f80" transform="translate(528.84 490.95) scale(0.012 -0.012)">
<use x="0" y="0" xlink:href="#g84/TT0"/>
<use x="570.0" y="0" xlink:href="#g101/TT0"/>
<use x="1142.0" y="0" xlink:href="#g109/TT0"/>
<use x="2025.0" y="0" xlink:href="#g112/TT0"/>
<use x="2660.0" y="0" xlink:href="#g101/TT0"/>
<use x="3232.0" y="0" xlink:href="#g114/TT0"/>
<use x="3592.0" y="0" xlink:href="#g97/TT0"/>
<use x="4126.0" y="0" xlink:href="#g116/TT0"/>
<use x="4443.0" y="0" xlink:href="#g117/TT0"/>
<use x="5024.0" y="0" xlink:href="#g114/TT0"/>
<use x="5384.0" y="0" xlink:href="#g101/TT0"/>
<use x="6206.0" y="0" xlink:href="#g105/TT0"/>
<use x="6456.0" y="0" xlink:href="#g110/TT0"/>
<use x="7037.0" y="0" xlink:href="#g115/TT0"/>
<use x="7481.0" y="0" xlink:href="#g105/TT0"/>
<use x="7731.0" y="0" xlink:href="#g100/TT0"/>
<use x="8368.0" y="0" xlink:href="#g101/TT0"/>
</g>
<g fill="#626f80" stroke="#626f80" transform="translate(639.12 490.95) scale(0.0059 -0.0059)">
<use x="0" y="0" xlink:href="#g128/TT2"/>
</g>
<text x="528.84" y="490.95" font-size="9.0pt" font-family="Avenir Next for SAS" fill="#626f80" text-anchor="start" opacity="0">
Temperature inside ℃</text>
<rect x="659.38" y="482.15" width="9.0" height="9.0" fill="#d1d1d1" opacity="0.6">
</rect>
<g fill="#626f80" stroke="#626f80" transform="translate(672.38 490.95) scale(0.012 -0.012)">
<defs>
<path id="g66/TT0" d="M305.0 708.0Q 401.0,708.0  467.0,666.0 T 533.0,527.0 Q 533.0,471.0  498.5,429.5 T 408.0,375.0  L408.0 373.0Q 479.0,365.0  523.5,318.0 T 568.0,196.0 Q 568.0,137.0  536.0,93.0 T 444.0,24.5 T 304.0,0  L94.0 0 L94.0 708.0 L305.0 708.0Z M311.0 398.0Q 372.0,398.0  416.5,428.0 T 461.0,522.0 Q 461.0,586.0  414.0,616.0 T 291.0,646.0  L166.0 646.0 L166.0 398.0 L311.0 398.0Z M300.0 62.0Q 385.0,62.0  440.0,96.0 T 495.0,200.0 Q 495.0,269.0  448.0,304.0 T 313.0,339.0  L166.0 339.0 L166.0 62.0 L300.0 62.0Z">
</path>
</defs>
<use x="0" y="0" xlink:href="#g66/TT0"/>
<use x="636.0" y="0" xlink:href="#g97/TT0"/>
<use x="1170.0" y="0" xlink:href="#g110/TT0"/>
<use x="1751.0" y="0" xlink:href="#g100/TT0"/>
<defs>
<path id="g80/TT0" d="M294.0 708.0Q 405.0,708.0  469.0,660.0 T 533.0,519.0 Q 533.0,426.0  468.0,377.5 T 292.0,329.0  L166.0 329.0 L166.0 0 L94.0 0 L94.0 708.0 L294.0 708.0Z M288.0 390.0Q 372.0,390.0  416.5,423.0 T 461.0,519.0 Q 461.0,583.0  416.5,614.5 T 288.0,646.0  L166.0 646.0 L166.0 390.0 L288.0 390.0Z">
</path>
</defs>
<use x="2638.0" y="0" xlink:href="#g80/TT0"/>
<defs>
<path id="g108/TT0" d="M160.0 0 L92.0 0 L92.0 756.0 L160.0 756.0 L160.0 0Z">
</path>
</defs>
<use x="3218.0" y="0" xlink:href="#g108/TT0"/>
<defs>
<path id="g111/TT0" d="M305.0 -12.0Q 234.0,-12.0  177.0,20.0 T 88.0,108.0 T 56.0,234.0 Q 56.0,304.0  88.0,360.0 T 177.0,448.0 T 305.0,480.0 Q 377.0,480.0  434.0,448.0 T 523.0,360.0 T 555.0,234.0 Q 555.0,164.0  523.0,108.0 T 434.0,20.0 T 377.0,-12.0 Z M305.0 423.0Q 252.0,423.0  212.0,398.0 T 150.0,330.0 T 128.0,234.0 Q 128.0,181.0  150.0,138.5 T 212.0,71.0 T 305.0,46.0 Q 358.0,46.0  398.5,71.0 T 461.0,138.5 T 483.0,234.0 Q 483.0,287.0  461.0,330.0 T 398.5,398.0 T 358.0,423.0 Z">
</path>
</defs>
<use x="3470.0" y="0" xlink:href="#g111/TT0"/>
<use x="4081.0" y="0" xlink:href="#g116/TT0"/>
</g>
<text x="672.38" y="490.95" font-size="9.0pt" font-family="Avenir Next for SAS" fill="#626f80" text-anchor="start" opacity="0">
Band Plot</text>
</g>
</g>
</svg>
