<svg xmlns="http://www.w3.org/2000/svg" xmlns:xlink="http://www.w3.org/1999/xlink" version="1.1" width="1000" height="500" viewBox="0 0 1000 500">
<rect x="0" y="0" width="1000" height="500" fill="#ffffff">
</rect>
<g>
<rect x="0" y="0" rx="5" ry="5" width="1000.0" height="500.0" fill="#ffffff" opacity="0">
</rect>
<rect x="0" y="0" rx="5" ry="5" width="1000.0" height="500.0" fill="#ffffff" opacity="0">
</rect>
<rect x="0" y="0" rx="5" ry="5" width="1000.0" height="500.0" fill="#ffffff" opacity="0">
</rect>
<rect x="0" y="0" rx="5" ry="5" width="1000.0" height="500.0" fill="#ffffff" opacity="0">
</rect>
<g transform=" translate(16.0 -16.0)">
<defs>
<clipPath id="ClipPath0">
<rect x="46" y="46" width="925" height="366">
</rect>
</clipPath>
</defs>
<g clip-path="url(#ClipPath0)">
<defs>
<clipPath id="ClipPath1">
<rect x="46" y="48" width="923" height="364">
</rect>
</clipPath>
</defs>
<g clip-path="url(#ClipPath1)">
<g transform="">
<polyline id="Polyline_96" points="52.0,114.05  62.83,118.45  73.67,113.43  84.5,106.77  95.33,97.39  106.17,102.99  117.0,116.56  127.83,123.05  138.67,124.08  149.5,119.34  160.33,115.75  171.17,117.72  182.0,122.22  192.83,130.55  203.67,132.61  214.5,139.31  225.33,139.79  236.17,153.01  247.0,181.29  257.83,207.41  268.67,215.06  279.5,215.87  290.33,216.64  301.17,225.83  312.0,238.54  322.83,250.38  333.67,258.87  344.5,262.4  355.33,264.0  366.17,277.31  377.0,299.72  387.83,318.79  398.67,325.8  409.5,328.53  420.33,326.52  431.17,327.98  442.0,340.8  452.83,353.06  463.67,357.92  474.5,347.76  485.33,340.44  496.17,338.54  507.0,344.53  517.83,342.54  528.67,334.02  539.5,315.37  550.33,308.78  561.17,304.37  572.0,301.11  582.83,308.94  593.67,308.08  604.5,302.34  615.33,297.65  626.17,294.32  637.0,304.59  647.83,315.49  658.67,315.27  669.5,317.88  680.33,323.82  691.17,330.76  702.0,345.53  712.83,361.01  723.67,368.0  734.5,368.4  745.33,369.08  756.17,370.72  767.0,375.73  777.83,377.27  788.67,377.72  799.5,374.72  810.33,379.28  821.17,384.11  832.0,389.11  842.83,399.22  853.67,399.77  864.5,391.23  875.33,382.12  886.17,377.22  897.0,372.3  907.83,361.94  918.67,345.99  929.5,323.07  940.33,306.15  951.17,300.75  962.0,293.72 " fill="none" stroke="#287fc7" stroke-width="3.0">
</polyline>
</g>
<g transform="">
<polyline id="Polyline_267" points="52.0,107.88  62.83,110.95  73.67,106.92  84.5,99.46  95.33,90.21  106.17,95.7  117.0,111.37  127.83,118.26  138.67,117.92  149.5,112.64  160.33,109.35  171.17,111.63  182.0,115.85  192.83,124.58  203.67,128.49  214.5,134.38  225.33,134.8  236.17,148.23  247.0,176.01  257.83,201.66  268.67,209.61  279.5,210.14  290.33,212.15  301.17,221.18  312.0,233.5  322.83,246.07  333.67,255.51  344.5,258.64  355.33,260.63  366.17,273.59  377.0,295.51  387.83,314.04  398.67,323.4  409.5,325.45  420.33,324.04  431.17,325.97  442.0,338.2  452.83,349.94  463.67,354.95  474.5,343.57  485.33,337.83  496.17,334.65  507.0,341.08  517.83,340.27  528.67,332.1  539.5,314.18  550.33,307.48  561.17,305.44  572.0,301.72  582.83,309.19  593.67,309.17  604.5,304.58  615.33,298.92  626.17,297.11  637.0,308.1  647.83,317.94  658.67,317.68  669.5,318.03  680.33,323.71  691.17,330.95  702.0,344.09  712.83,359.01  723.67,365.84  734.5,365.91  745.33,367.5  756.17,370.07  767.0,376.87  777.83,377.64  788.67,376.96  799.5,371.34  810.33,375.28  821.17,379.56  832.0,384.96  842.83,395.63  853.67,396.36  864.5,388.59  875.33,380.27  886.17,375.22  897.0,371.6  907.83,361.31  918.67,344.99  929.5,321.87  940.33,305.53  951.17,298.74  962.0,290.62 " fill="none" stroke="#b7b7b7" stroke-width="3.0" stroke-dasharray="4,4" opacity="0.75">
</polyline>
</g>
<g transform="">
<polygon points="52.0,125.34  62.83,132.15  73.67,125.33  84.5,120.13  95.33,110.53  106.17,116.32  117.0,126.04  127.83,131.81  138.67,135.33  149.5,131.58  160.33,127.44  171.17,128.87  182.0,133.87  192.83,141.48  203.67,140.15  214.5,148.32  225.33,148.91  236.17,161.75  247.0,190.94  257.83,217.91  268.67,225.03  279.5,226.36  290.33,224.85  301.17,234.34  312.0,247.75  322.83,258.28  333.67,265.0  344.5,269.28  355.33,270.17  366.17,284.1  377.0,307.41  387.83,327.47  398.67,330.18  409.5,334.16  420.33,331.05  431.17,331.65  442.0,345.56  452.83,358.78  463.67,363.35  474.5,355.42  485.33,345.22  496.17,345.65  507.0,350.84  517.83,346.68  528.67,337.54  539.5,317.56  550.33,311.17  561.17,308.48  572.0,303.47  582.83,309.92  593.67,312.25  604.5,310.92  615.33,302.49  626.17,304.97  637.0,318.03  647.83,324.86  658.67,324.51  669.5,318.44  680.33,324.03  691.17,331.48  702.0,348.15  712.83,364.69  723.67,371.96  734.5,372.95  745.33,371.99  756.17,371.89  767.0,380.1  777.83,378.69  788.67,379.12  799.5,380.89  810.33,386.6  821.17,392.43  832.0,396.69  842.83,405.78  853.67,406.0  864.5,396.07  875.33,385.49  886.17,380.88  897.0,373.57  907.83,363.1  918.67,347.83  929.5,325.26  940.33,307.3  951.17,304.42  962.0,299.39  962.0,281.86  951.17,293.05  940.33,303.75  929.5,318.47  918.67,342.14  907.83,359.51  897.0,369.63  886.17,369.56  875.33,375.05  864.5,381.11  853.67,386.72  842.83,385.48  832.0,373.23  821.17,366.69  810.33,363.97  799.5,361.8  788.67,374.8  777.83,376.6  767.0,373.64  756.17,368.25  745.33,363.0  734.5,358.87  723.67,359.72  712.83,353.32  702.0,340.04  691.17,330.41  680.33,323.4  669.5,317.61  658.67,310.86  647.83,311.02  637.0,298.17  626.17,289.24  615.33,295.35  604.5,298.25  593.67,306.08  582.83,308.46  572.0,299.98  561.17,302.41  550.33,303.79  539.5,310.81  528.67,326.66  517.83,333.86  507.0,331.32  496.17,323.65  485.33,330.45  474.5,331.72  463.67,346.55  452.83,341.1  442.0,330.85  431.17,320.29  420.33,317.02  409.5,316.73  398.67,316.63  387.83,300.62  377.0,283.61  366.17,263.08  355.33,251.08  344.5,248.01  333.67,246.01  322.83,233.85  312.0,219.24  301.17,208.02  290.33,199.45  279.5,193.92  268.67,194.19  257.83,185.42  247.0,161.08  236.17,134.7  225.33,120.69  214.5,120.44  203.67,116.83  192.83,107.67  182.0,97.83  171.17,94.39  160.33,91.26  149.5,93.7  138.67,100.51  127.83,104.71  117.0,96.7  106.17,75.09  95.33,69.88  84.5,78.8  73.67,88.52  62.83,89.75  52.0,90.42 " fill="#d1d1d1" fill-opacity="0.6">
</polygon>
</g>
</g>
<path d="M46.0 398.41L969.0 398.41" stroke="#2a3037" stroke-dasharray="1,2" fill="none" opacity="0.4">
</path>
<path d="M46.0 312.56L969.0 312.56" stroke="#2a3037" stroke-dasharray="1,2" fill="none" opacity="0.4">
</path>
<path d="M46.0 226.71L969.0 226.71" stroke="#2a3037" stroke-dasharray="1,2" fill="none" opacity="0.4">
</path>
<path d="M46.0 140.85L969.0 140.85" stroke="#2a3037" stroke-dasharray="1,2" fill="none" opacity="0.4">
</path>
<path d="M46.0 55.0L969.0 55.0" stroke="#2a3037" stroke-dasharray="1,2" fill="none" opacity="0.4">
</path>
<path d="M52.0 412.0L52.0 48.0" stroke="#2a3037" stroke-dasharray="1,2" fill="none" opacity="0.4">
</path>
<path d="M182.0 412.0L182.0 48.0" stroke="#2a3037" stroke-dasharray="1,2" fill="none" opacity="0.4">
</path>
<path d="M312.0 412.0L312.0 48.0" stroke="#2a3037" stroke-dasharray="1,2" fill="none" opacity="0.4">
</path>
<path d="M442.0 412.0L442.0 48.0" stroke="#2a3037" stroke-dasharray="1,2" fill="none" opacity="0.4">
</path>
<path d="M572.0 412.0L572.0 48.0" stroke="#2a3037" stroke-dasharray="1,2" fill="none" opacity="0.4">
</path>
<path d="M702.0 412.0L702.0 48.0" stroke="#2a3037" stroke-dasharray="1,2" fill="none" opacity="0.4">
</path>
<path d="M832.0 412.0L832.0 48.0" stroke="#2a3037" stroke-dasharray="1,2" fill="none" opacity="0.4">
</path>
<path d="M962.0 412.0L962.0 48.0" stroke="#2a3037" stroke-dasharray="1,2" fill="none" opacity="0.4">
</path>
</g>
<defs>
<clipPath id="ClipPath2">
<rect x="0" y="49" width="46" height="363">
</rect>
</clipPath>
</defs>
<g clip-path="url(#ClipPath2)">
<g fill="#626f80" stroke="#626f80" transform="translate(-0.76 402.71) scale(0.012 -0.012)">
<defs>
<path id="g49/TT0" d="M358.0 0 L286.0 0 L286.0 619.0 L158.0 510.0 L114.0 560.0 L294.0 708.0 L358.0 708.0 L358.0 0Z">
</path>
</defs>
<use x="0" y="0" xlink:href="#g49/TT0"/>
<defs>
<path id="g48/TT0" d="M522.0 353.0Q 522.0,195.0  467.0,88.5 T 290.0,-18.0 Q 167.0,-18.0  112.5,88.5 T 58.0,353.0 Q 58.0,512.0  112.5,619.0 T 290.0,726.0 Q 412.0,726.0  467.0,618.5 T 522.0,353.0 Z M131.0 353.0Q 131.0,226.0  167.5,135.0 T 290.0,44.0 Q 375.0,44.0  412.0,135.5 T 449.0,353.0 Q 449.0,480.0  412.0,572.5 T 290.0,665.0 Q 204.0,665.0  167.5,573.0 T 131.0,353.0 Z">
</path>
</defs>
<use x="580.0" y="0" xlink:href="#g48/TT0"/>
<use x="1160.0" y="0" xlink:href="#g48/TT0"/>
<use x="1740.0" y="0" xlink:href="#g48/TT0"/>
<use x="2320.0" y="0" xlink:href="#g48/TT0"/>
<use x="2900.0" y="0" xlink:href="#g48/TT0"/>
</g>
<text id="Text_609" x="41.0" y="402.71" font-size="9.0pt" font-family="Avenir Next for SAS" fill="#626f80" text-anchor="end" opacity="0">
100000</text>
<g fill="#626f80" stroke="#626f80" transform="translate(-0.76 316.86) scale(0.012 -0.012)">
<use x="0" y="0" xlink:href="#g49/TT0"/>
<use x="580.0" y="0" xlink:href="#g48/TT0"/>
<use x="1160.0" y="0" xlink:href="#g48/TT0"/>
<defs>
<path id="g53/TT0" d="M180.0 644.0 L175.0 425.0Q 219.0,441.0  273.0,441.0 Q 339.0,441.0  391.5,413.0 T 473.5,334.5 T 503.0,219.0 Q 503.0,151.0  473.5,97.0 T 390.5,12.5 T 268.0,-18.0 Q 194.0,-18.0  140.0,16.0 T 56.0,111.0  L121.0 140.0Q 140.0,96.0  179.0,70.0 T 264.0,44.0 Q 311.0,44.0  349.0,66.0 T 408.5,126.5 T 430.0,212.0 Q 430.0,289.0  380.5,335.5 T 254.0,382.0 Q 180.0,382.0  107.0,343.0  L114.0 708.0 L475.0 708.0 L475.0 644.0 L180.0 644.0Z">
</path>
</defs>
<use x="1740.0" y="0" xlink:href="#g53/TT0"/>
<use x="2320.0" y="0" xlink:href="#g48/TT0"/>
<use x="2900.0" y="0" xlink:href="#g48/TT0"/>
</g>
<text id="Text_610" x="41.0" y="316.86" font-size="9.0pt" font-family="Avenir Next for SAS" fill="#626f80" text-anchor="end" opacity="0">
100500</text>
<g fill="#626f80" stroke="#626f80" transform="translate(-0.76 231.01) scale(0.012 -0.012)">
<use x="0" y="0" xlink:href="#g49/TT0"/>
<use x="580.0" y="0" xlink:href="#g48/TT0"/>
<use x="1160.0" y="0" xlink:href="#g49/TT0"/>
<use x="1740.0" y="0" xlink:href="#g48/TT0"/>
<use x="2320.0" y="0" xlink:href="#g48/TT0"/>
<use x="2900.0" y="0" xlink:href="#g48/TT0"/>
</g>
<text id="Text_611" x="41.0" y="231.01" font-size="9.0pt" font-family="Avenir Next for SAS" fill="#626f80" text-anchor="end" opacity="0">
101000</text>
<g fill="#626f80" stroke="#626f80" transform="translate(-0.76 145.15) scale(0.012 -0.012)">
<use x="0" y="0" xlink:href="#g49/TT0"/>
<use x="580.0" y="0" xlink:href="#g48/TT0"/>
<use x="1160.0" y="0" xlink:href="#g49/TT0"/>
<use x="1740.0" y="0" xlink:href="#g53/TT0"/>
<use x="2320.0" y="0" xlink:href="#g48/TT0"/>
<use x="2900.0" y="0" xlink:href="#g48/TT0"/>
</g>
<text id="Text_612" x="41.0" y="145.15" font-size="9.0pt" font-family="Avenir Next for SAS" fill="#626f80" text-anchor="end" opacity="0">
101500</text>
<g fill="#626f80" stroke="#626f80" transform="translate(-0.76 60.3) scale(0.012 -0.012)">
<use x="0" y="0" xlink:href="#g49/TT0"/>
<use x="580.0" y="0" xlink:href="#g48/TT0"/>
<defs>
<path id="g50/TT0" d="M51.0 0 L51.0 75.0 L341.0 368.0Q 380.0,408.0  403.0,447.0 T 426.0,530.0 Q 426.0,590.0  385.5,627.5 T 286.0,665.0 Q 230.0,665.0  191.0,630.0 T 140.0,539.0  L69.0 553.0Q 84.0,629.0  144.0,677.5 T 286.0,726.0 Q 344.0,726.0  392.5,703.5 T 470.0,637.0 T 499.0,531.0 Q 499.0,469.0  470.0,421.5 T 384.0,317.0  L129.0 64.0 L504.0 64.0 L504.0 0 L51.0 0Z">
</path>
</defs>
<use x="1160.0" y="0" xlink:href="#g50/TT0"/>
<use x="1740.0" y="0" xlink:href="#g48/TT0"/>
<use x="2320.0" y="0" xlink:href="#g48/TT0"/>
<use x="2900.0" y="0" xlink:href="#g48/TT0"/>
</g>
<text id="Text_613" x="41.0" y="60.3" font-size="9.0pt" font-family="Avenir Next for SAS" fill="#626f80" text-anchor="end" opacity="0">
102000</text>
</g>
<g fill="#2a3037" stroke="#2a3037" transform="translate(0 45.59) scale(0.014 -0.014)">
<defs>
<path id="g65/TT1" d="M300.0 708.0 L409.0 708.0 L714.0 0 L570.0 0 L504.0 162.0 L197.0 162.0 L133.0 0 L-8.0 0 L300.0 708.0Z M460.0 270.0 L351.0 558.0 L240.0 270.0 L460.0 270.0Z">
</path>
</defs>
<use x="0" y="0" xlink:href="#g65/TT1"/>
<defs>
<path id="g105/TT1" d="M133.0 715.0Q 166.0,715.0  188.5,694.5 T 211.0,643.0 Q 211.0,612.0  188.5,591.5 T 133.0,571.0 Q 101.0,571.0  79.0,592.5 T 57.0,643.0 Q 57.0,672.0  79.0,693.5 T 133.0,715.0 Z M74.0 480.0 L194.0 480.0 L194.0 0 L74.0 0 L74.0 480.0Z">
</path>
</defs>
<use x="706.0" y="0" xlink:href="#g105/TT1"/>
<defs>
<path id="g114/TT1" d="M187.0 480.0 L187.0 400.0 L189.0 400.0Q 209.0,443.0  246.0,468.5 T 329.0,494.0 Q 346.0,494.0  358.0,491.0  L358.0 381.0Q 338.0,386.0  321.0,386.0 Q 272.0,386.0  243.0,363.0 T 203.0,310.5 T 192.0,257.0  L192.0 0 L72.0 0 L72.0 480.0 L187.0 480.0Z">
</path>
</defs>
<use x="974.0" y="0" xlink:href="#g114/TT1"/>
<defs>
<path id="g80/TT1" d="M309.0 708.0Q 576.0,708.0  576.0,503.0 Q 576.0,393.0  500.0,343.0 T 301.0,293.0  L204.0 293.0 L204.0 0 L78.0 0 L78.0 708.0 L309.0 708.0Z M449.0 503.0Q 449.0,560.0  407.5,581.0 T 296.0,602.0  L204.0 602.0 L204.0 399.0 L292.0 399.0Q 363.0,399.0  406.0,422.0 T 449.0,503.0 Z">
</path>
</defs>
<use x="1588.0" y="0" xlink:href="#g80/TT1"/>
<use x="2198.0" y="0" xlink:href="#g114/TT1"/>
<defs>
<path id="g101/TT1" d="M529.0 202.0 L164.0 202.0Q 168.0,152.0  208.0,118.0 T 301.0,84.0 Q 384.0,84.0  428.0,146.0  L508.0 82.0Q 437.0,-14.0  302.0,-14.0 Q 228.0,-14.0  169.5,16.5 T 77.5,104.0 T 44.0,237.0 Q 44.0,313.0  77.0,371.5 T 168.0,462.0 T 298.0,494.0 Q 402.0,494.0  466.0,427.0 T 530.0,234.0 Q 530.0,213.0  529.0,202.0 Z M297.0 404.0Q 244.0,404.0  206.0,371.0 T 164.0,288.0  L410.0 288.0Q 410.0,338.0  381.0,371.0 T 297.0,404.0 Z">
</path>
</defs>
<use x="2562.0" y="0" xlink:href="#g101/TT1"/>
<defs>
<path id="g115/TT1" d="M230.0 404.0Q 198.0,404.0  175.5,391.0 T 153.0,352.0 Q 153.0,327.0  176.0,315.0 T 257.0,289.0 Q 325.0,273.0  368.5,241.0 T 412.0,146.0 Q 412.0,64.0  355.5,25.0 T 212.0,-14.0 Q 155.0,-14.0  102.0,7.0 T 15.0,65.0  L94.0 139.0Q 114.0,112.0  146.5,95.5 T 217.0,79.0 Q 248.0,79.0  271.0,93.0 T 294.0,136.0 Q 294.0,164.0  269.5,177.5 T 184.0,205.0 Q 119.0,221.0  80.5,250.5 T 42.0,341.0 Q 42.0,416.0  98.0,455.0 T 233.0,494.0 Q 287.0,494.0  336.0,475.0 T 413.0,421.0  L335.0 352.0Q 318.0,374.0  290.0,389.0 T 230.0,404.0 Z">
</path>
</defs>
<use x="3136.0" y="0" xlink:href="#g115/TT1"/>
<use x="3580.0" y="0" xlink:href="#g115/TT1"/>
<defs>
<path id="g117/TT1" d="M396.0 0 L396.0 77.0 L394.0 77.0Q 377.0,39.0  336.5,12.5 T 245.0,-14.0 Q 157.0,-14.0  112.5,42.5 T 68.0,180.0  L68.0 480.0 L188.0 480.0 L188.0 214.0Q 188.0,86.0  278.0,86.0 Q 332.0,86.0  361.0,124.5 T 390.0,216.0  L390.0 480.0 L510.0 480.0 L510.0 0 L396.0 0Z">
</path>
</defs>
<use x="4024.0" y="0" xlink:href="#g117/TT1"/>
<use x="4606.0" y="0" xlink:href="#g114/TT1"/>
<use x="4970.0" y="0" xlink:href="#g101/TT1"/>
</g>
<text id="Text_614" x="0" y="45.59" font-size="10.5pt" font-family="Avenir Next for SAS" font-weight="bold" fill="#2a3037" text-anchor="start" opacity="0">
Air Pressure</text>
<defs>
<clipPath id="ClipPath3">
<rect x="46" y="412" width="922" height="57">
</rect>
</clipPath>
</defs>
<g clip-path="url(#ClipPath3)">
<g fill="#626f80" stroke="#626f80" transform="translate(49.0 426.65) scale(0.012 -0.012)">
<use x="0" y="0" xlink:href="#g48/TT0"/>
<defs>
<path id="g55/TT0" d="M498.0 642.0 L213.0 0 L132.0 0 L425.0 644.0 L78.0 644.0 L78.0 708.0 L498.0 708.0 L498.0 642.0Z">
</path>
</defs>
<use x="580.0" y="0" xlink:href="#g55/TT0"/>
<defs>
<path id="g77/TT0" d="M444.0 122.0 L445.0 122.0 L682.0 708.0 L792.0 708.0 L792.0 0 L720.0 0 L720.0 615.0 L718.0 615.0 L462.0 0 L424.0 0 L168.0 615.0 L166.0 615.0 L166.0 0 L94.0 0 L94.0 708.0 L204.0 708.0 L444.0 122.0Z">
</path>
</defs>
<use x="1160.0" y="0" xlink:href="#g77/TT0"/>
<defs>
<path id="g97/TT0" d="M260.0 423.0Q 220.0,423.0  183.0,408.0 T 121.0,368.0  L83.0 413.0Q 113.0,443.0  161.0,461.5 T 267.0,480.0 Q 347.0,480.0  398.0,436.0 T 449.0,310.0  L449.0 105.0Q 449.0,42.0  457.0,0  L396.0 0Q 389.0,40.0  389.0,76.0  L387.0 76.0Q 355.0,30.0  314.5,9.0 T 217.0,-12.0 Q 178.0,-12.0  141.0,2.5 T 79.5,49.0 T 55.0,130.0 Q 55.0,198.0  99.0,232.0 T 212.5,276.5 T 385.0,287.0  L385.0 302.0Q 385.0,362.0  353.0,392.5 T 260.0,423.0 Z M125.0 133.0Q 125.0,87.0  157.0,65.5 T 235.0,44.0 Q 304.0,44.0  344.5,89.0 T 385.0,199.0  L385.0 234.0 L365.0 234.0Q 259.0,234.0  192.0,213.5 T 125.0,133.0 Z">
</path>
</defs>
<use x="2046.0" y="0" xlink:href="#g97/TT0"/>
<defs>
<path id="g114/TT0" d="M86.0 468.0 L151.0 468.0Q 155.0,418.0  155.0,388.0  L157.0 388.0Q 177.0,429.0  217.5,454.5 T 307.0,480.0 Q 334.0,480.0  352.0,475.0  L343.0 411.0Q 337.0,413.0  322.5,415.0 T 295.0,417.0 Q 236.0,417.0  197.0,372.5 T 158.0,240.0  L158.0 0 L90.0 0 L90.0 365.0Q 90.0,425.0  86.0,468.0 Z">
</path>
</defs>
<use x="2580.0" y="0" xlink:href="#g114/TT0"/>
</g>
<text x="66.0" y="426.65" font-size="9.0pt" font-family="Avenir Next for SAS" fill="#626f80" text-anchor="middle" opacity="0">
07Mar</text>
<g fill="#626f80" stroke="#626f80" transform="translate(53.0 441.35) scale(0.012 -0.012)">
<use x="0" y="0" xlink:href="#g50/TT0"/>
<use x="580.0" y="0" xlink:href="#g48/TT0"/>
<use x="1160.0" y="0" xlink:href="#g50/TT0"/>
<use x="1740.0" y="0" xlink:href="#g53/TT0"/>
</g>
<text x="66.0" y="441.35" font-size="9.0pt" font-family="Avenir Next for SAS" fill="#626f80" text-anchor="middle" opacity="0">
2025</text>
<g fill="#626f80" stroke="#626f80" transform="translate(165.0 426.65) scale(0.012 -0.012)">
<use x="0" y="0" xlink:href="#g48/TT0"/>
<defs>
<path id="g56/TT0" d="M517.0 186.0Q 517.0,126.0  486.0,79.5 T 403.0,7.5 T 290.0,-18.0 Q 229.0,-18.0  177.0,7.5 T 94.0,79.5 T 63.0,186.0 Q 63.0,256.0  100.5,306.5 T 197.0,375.0  L197.0 377.0Q 150.0,393.0  120.0,437.5 T 90.0,537.0 Q 90.0,593.0  117.0,636.0 T 190.0,702.5 T 290.0,726.0 Q 344.0,726.0  390.0,702.5 T 463.0,636.0 T 490.0,537.0 Q 490.0,482.0  460.0,437.5 T 383.0,377.0  L383.0 375.0Q 442.0,358.0  479.5,307.0 T 517.0,186.0 Z M290.0 406.0Q 345.0,406.0  382.5,442.0 T 420.0,533.0 Q 420.0,590.0  383.0,627.5 T 290.0,665.0 Q 234.0,665.0  197.0,627.5 T 160.0,533.0 Q 160.0,478.0  197.5,442.0 T 290.0,406.0 Z M290.0 43.0Q 359.0,43.0  402.0,86.0 T 445.0,194.0 Q 445.0,258.0  402.0,300.0 T 290.0,342.0 Q 221.0,342.0  178.0,300.0 T 135.0,194.0 Q 135.0,129.0  178.0,86.0 T 290.0,43.0 Z">
</path>
</defs>
<use x="580.0" y="0" xlink:href="#g56/TT0"/>
<use x="1160.0" y="0" xlink:href="#g77/TT0"/>
<use x="2046.0" y="0" xlink:href="#g97/TT0"/>
<use x="2580.0" y="0" xlink:href="#g114/TT0"/>
</g>
<text x="182.0" y="426.65" font-size="9.0pt" font-family="Avenir Next for SAS" fill="#626f80" text-anchor="middle" opacity="0">
08Mar</text>
<g fill="#626f80" stroke="#626f80" transform="translate(295.0 426.65) scale(0.012 -0.012)">
<use x="0" y="0" xlink:href="#g48/TT0"/>
<defs>
<path id="g57/TT0" d="M379.0 311.0Q 364.0,299.0  335.0,292.0 T 278.0,285.0 Q 217.0,285.0  167.5,312.5 T 90.0,390.0 T 62.0,503.0 Q 62.0,568.0  91.5,618.5 T 173.5,697.5 T 292.0,726.0 Q 358.0,726.0  410.5,697.5 T 492.5,618.5 T 522.0,503.0 Q 522.0,453.0  505.0,406.5 T 458.0,311.0  L265.0 0 L182.0 0 L381.0 309.0 L379.0 311.0Z M292.0 665.0Q 246.0,665.0  210.0,644.0 T 154.0,586.0 T 134.0,503.0 Q 134.0,433.0  177.0,388.0 T 292.0,343.0 Q 364.0,343.0  407.0,388.0 T 450.0,503.0 Q 450.0,549.0  430.0,586.0 T 374.0,644.0 T 338.0,665.0 Z">
</path>
</defs>
<use x="580.0" y="0" xlink:href="#g57/TT0"/>
<use x="1160.0" y="0" xlink:href="#g77/TT0"/>
<use x="2046.0" y="0" xlink:href="#g97/TT0"/>
<use x="2580.0" y="0" xlink:href="#g114/TT0"/>
</g>
<text x="312.0" y="426.65" font-size="9.0pt" font-family="Avenir Next for SAS" fill="#626f80" text-anchor="middle" opacity="0">
09Mar</text>
<g fill="#626f80" stroke="#626f80" transform="translate(425.0 426.65) scale(0.012 -0.012)">
<use x="0" y="0" xlink:href="#g49/TT0"/>
<use x="580.0" y="0" xlink:href="#g48/TT0"/>
<use x="1160.0" y="0" xlink:href="#g77/TT0"/>
<use x="2046.0" y="0" xlink:href="#g97/TT0"/>
<use x="2580.0" y="0" xlink:href="#g114/TT0"/>
</g>
<text x="442.0" y="426.65" font-size="9.0pt" font-family="Avenir Next for SAS" fill="#626f80" text-anchor="middle" opacity="0">
10Mar</text>
<g fill="#626f80" stroke="#626f80" transform="translate(555.0 426.65) scale(0.012 -0.012)">
<use x="0" y="0" xlink:href="#g49/TT0"/>
<use x="580.0" y="0" xlink:href="#g49/TT0"/>
<use x="1160.0" y="0" xlink:href="#g77/TT0"/>
<use x="2046.0" y="0" xlink:href="#g97/TT0"/>
<use x="2580.0" y="0" xlink:href="#g114/TT0"/>
</g>
<text x="572.0" y="426.65" font-size="9.0pt" font-family="Avenir Next for SAS" fill="#626f80" text-anchor="middle" opacity="0">
11Mar</text>
<g fill="#626f80" stroke="#626f80" transform="translate(685.0 426.65) scale(0.012 -0.012)">
<use x="0" y="0" xlink:href="#g49/TT0"/>
<use x="580.0" y="0" xlink:href="#g50/TT0"/>
<use x="1160.0" y="0" xlink:href="#g77/TT0"/>
<use x="2046.0" y="0" xlink:href="#g97/TT0"/>
<use x="2580.0" y="0" xlink:href="#g114/TT0"/>
</g>
<text x="702.0" y="426.65" font-size="9.0pt" font-family="Avenir Next for SAS" fill="#626f80" text-anchor="middle" opacity="0">
12Mar</text>
<g fill="#626f80" stroke="#626f80" transform="translate(815.0 426.65) scale(0.012 -0.012)">
<use x="0" y="0" xlink:href="#g49/TT0"/>
<defs>
<path id="g51/TT0" d="M245.0 402.0Q 319.0,402.0  364.5,433.5 T 410.0,532.0 Q 410.0,590.0  369.0,627.5 T 270.0,665.0 Q 226.0,665.0  191.0,643.5 T 135.0,582.0  L74.0 614.0Q 106.0,670.0  157.0,698.0 T 274.0,726.0 Q 331.0,726.0  378.0,703.5 T 453.0,638.0 T 481.0,536.0 Q 481.0,475.0  446.5,432.0 T 358.0,374.0  L358.0 372.0Q 421.0,359.0  461.0,312.0 T 501.0,196.0 Q 501.0,131.0  470.0,82.5 T 387.0,8.0 T 273.0,-18.0 Q 196.0,-18.0  137.5,19.5 T 49.0,127.0  L117.0 152.0Q 135.0,102.0  177.0,73.0 T 273.0,44.0 Q 314.0,44.0  350.0,62.5 T 407.5,115.5 T 429.0,196.0 Q 429.0,271.0  376.0,305.5 T 245.0,340.0  L214.0 340.0 L214.0 402.0 L245.0 402.0Z">
</path>
</defs>
<use x="580.0" y="0" xlink:href="#g51/TT0"/>
<use x="1160.0" y="0" xlink:href="#g77/TT0"/>
<use x="2046.0" y="0" xlink:href="#g97/TT0"/>
<use x="2580.0" y="0" xlink:href="#g114/TT0"/>
</g>
<text x="832.0" y="426.65" font-size="9.0pt" font-family="Avenir Next for SAS" fill="#626f80" text-anchor="middle" opacity="0">
13Mar</text>
<g fill="#626f80" stroke="#626f80" transform="translate(931.0 426.65) scale(0.012 -0.012)">
<use x="0" y="0" xlink:href="#g49/TT0"/>
<defs>
<path id="g52/TT0" d="M436.0 234.0 L540.0 234.0 L540.0 171.0 L436.0 171.0 L436.0 0 L366.0 0 L366.0 171.0 L42.0 171.0 L42.0 241.0 L342.0 708.0 L436.0 708.0 L436.0 234.0Z M366.0 627.0 L364.0 627.0 L117.0 234.0 L366.0 234.0 L366.0 627.0Z">
</path>
</defs>
<use x="580.0" y="0" xlink:href="#g52/TT0"/>
<use x="1160.0" y="0" xlink:href="#g77/TT0"/>
<use x="2046.0" y="0" xlink:href="#g97/TT0"/>
<use x="2580.0" y="0" xlink:href="#g114/TT0"/>
</g>
<text x="948.0" y="426.65" font-size="9.0pt" font-family="Avenir Next for SAS" fill="#626f80" text-anchor="middle" opacity="0">
14Mar</text>
</g>
<g fill="#2a3037" stroke="#2a3037" transform="translate(476.0 465.44) scale(0.014 -0.014)">
<defs>
<path id="g68/TT1" d="M329.0 708.0Q 430.0,708.0  518.5,673.0 T 663.5,558.5 T 720.0,354.0 Q 720.0,237.0  663.0,157.0 T 516.5,38.5 T 329.0,0  L78.0 0 L78.0 708.0 L329.0 708.0Z M585.0 354.0Q 585.0,492.0  506.0,546.0 T 309.0,600.0  L204.0 600.0 L204.0 110.0 L309.0 110.0Q 424.0,110.0  504.5,166.5 T 585.0,354.0 Z">
</path>
</defs>
<use x="0" y="0" xlink:href="#g68/TT1"/>
<defs>
<path id="g97/TT1" d="M367.0 61.0Q 349.0,29.0  308.5,8.5 T 218.0,-12.0 Q 175.0,-12.0  134.0,3.0 T 65.5,51.5 T 38.0,137.0 Q 38.0,233.0  131.0,266.5 T 368.0,300.0  L368.0 312.0Q 368.0,354.0  337.0,377.0 T 258.0,400.0 Q 221.0,400.0  186.0,384.5 T 127.0,345.0  L65.0 418.0Q 105.0,455.0  158.5,474.5 T 268.0,494.0 Q 385.0,494.0  433.5,436.0 T 482.0,292.0  L482.0 0 L370.0 0 L370.0 61.0 L367.0 61.0Z M341.0 219.0Q 158.0,219.0  158.0,139.0 Q 158.0,107.0  182.5,93.0 T 242.0,79.0 Q 303.0,79.0  335.5,111.5 T 368.0,202.0  L368.0 219.0 L341.0 219.0Z">
</path>
</defs>
<use x="764.0" y="0" xlink:href="#g97/TT1"/>
<defs>
<path id="g116/TT1" d="M3.0 480.0 L87.0 480.0 L87.0 619.0 L205.0 619.0 L205.0 480.0 L325.0 480.0 L325.0 384.0 L205.0 384.0 L205.0 161.0Q 205.0,125.0  218.0,106.0 T 268.0,87.0 Q 299.0,87.0  319.0,97.0  L323.0 3.0Q 289.0,-10.0  243.0,-10.0 Q 155.0,-10.0  121.0,35.5 T 87.0,160.0  L87.0 384.0 L3.0 384.0 L3.0 480.0Z">
</path>
</defs>
<use x="1314.0" y="0" xlink:href="#g116/TT1"/>
<use x="1654.0" y="0" xlink:href="#g101/TT1"/>
<use x="2478.0" y="0" xlink:href="#g116/TT1"/>
<use x="2818.0" y="0" xlink:href="#g105/TT1"/>
<defs>
<path id="g109/TT1" d="M822.0 300.0 L822.0 0 L702.0 0 L702.0 266.0Q 702.0,394.0  612.0,394.0 Q 560.0,394.0  533.0,354.5 T 506.0,262.0  L506.0 0 L386.0 0 L386.0 290.0Q 386.0,337.0  363.5,365.5 T 297.0,394.0 Q 246.0,394.0  219.0,355.5 T 192.0,264.0  L192.0 0 L72.0 0 L72.0 480.0 L186.0 480.0 L186.0 403.0 L188.0 403.0Q 205.0,442.0  244.0,468.0 T 337.0,494.0 Q 390.0,494.0  428.0,470.0 T 487.0,403.0 Q 511.0,447.0  551.5,470.5 T 645.0,494.0 Q 733.0,494.0  777.5,437.5 T 822.0,300.0 Z">
</path>
</defs>
<use x="3086.0" y="0" xlink:href="#g109/TT1"/>
<use x="3976.0" y="0" xlink:href="#g101/TT1"/>
</g>
<text id="Text_616" x="507.0" y="465.44" font-size="10.5pt" font-family="Avenir Next for SAS" font-weight="bold" fill="#2a3037" text-anchor="middle" opacity="0">
Date time</text>
</g>
<g transform=" translate(16.0 -16.0)">
</g>
<g transform=" translate(16.0 -16.0)">
</g>
<g transform=" translate(16.0 -16.0)">
<rect x="292.0" y="473.3" rx="5" ry="5" width="382.42" height="26.7" fill="#ffffff">
</rect>
<path d="M298.0 486.65L348.0 486.65" stroke="#b7b7b7" stroke-dasharray="4,4" stroke-width="3.0" fill="none" opacity="0.75">
</path>
<g fill="#626f80" stroke="#626f80" transform="translate(352.0 490.95) scale(0.012 -0.012)">
<defs>
<path id="g65/TT0" d="M89.0 0 L10.0 0 L316.0 708.0 L386.0 708.0 L690.0 0 L610.0 0 L532.0 186.0 L166.0 186.0 L89.0 0Z M193.0 252.0 L505.0 252.0 L349.0 628.0 L193.0 252.0Z">
</path>
</defs>
<use x="0" y="0" xlink:href="#g65/TT0"/>
<defs>
<path id="g118/TT0" d="M282.0 0 L207.0 0 L16.0 468.0 L92.0 468.0 L244.0 72.0 L246.0 72.0 L399.0 468.0 L472.0 468.0 L282.0 0Z">
</path>
</defs>
<use x="700.0" y="0" xlink:href="#g118/TT0"/>
<defs>
<path id="g101/TT0" d="M515.0 216.0 L127.0 216.0Q 128.0,169.0  150.5,130.5 T 212.0,69.0 T 298.0,46.0 Q 347.0,46.0  387.0,69.5 T 448.0,127.0  L499.0 87.0Q 421.0,-12.0  298.0,-12.0 Q 229.0,-12.0  174.0,20.0 T 87.5,108.0 T 56.0,234.0 Q 56.0,303.0  87.0,359.5 T 172.0,448.0 T 292.0,480.0 Q 363.0,480.0  413.5,449.5 T 490.0,366.0 T 516.0,248.0 Q 516.0,228.0  515.0,216.0 Z M292.0 423.0Q 248.0,423.0  211.5,402.0 T 153.0,345.5 T 128.0,270.0  L447.0 270.0Q 444.0,338.0  403.5,380.5 T 292.0,423.0 Z">
</path>
</defs>
<use x="1188.0" y="0" xlink:href="#g101/TT0"/>
<use x="1760.0" y="0" xlink:href="#g114/TT0"/>
<use x="2120.0" y="0" xlink:href="#g97/TT0"/>
<defs>
<path id="g103/TT0" d="M294.0 -180.0Q 389.0,-180.0  433.0,-129.0 T 477.0,4.0  L477.0 92.0 L475.0 92.0Q 449.0,50.0  399.5,25.0 T 298.0,0 Q 226.0,0  171.0,30.5 T 86.0,115.5 T 56.0,238.0 Q 56.0,305.0  86.5,360.0 T 172.0,447.5 T 298.0,480.0 Q 351.0,480.0  399.5,455.5 T 475.0,387.0  L477.0 387.0 L477.0 468.0 L545.0 468.0 L545.0 4.0Q 545.0,-56.0  523.0,-110.5 T 444.0,-202.5 T 291.0,-240.0 Q 227.0,-240.0  167.5,-215.0 T 66.0,-146.0  L115.0 -94.0Q 144.0,-131.0  193.0,-155.5 T 294.0,-180.0 Z M305.0 58.0Q 357.0,58.0  398.0,81.0 T 462.0,145.5 T 485.0,240.0 Q 485.0,289.0  461.5,331.0 T 397.0,398.0 T 305.0,423.0 Q 250.0,423.0  210.0,398.0 T 149.0,331.5 T 128.0,240.0 Q 128.0,190.0  149.0,148.5 T 210.0,82.5 T 250.0,58.0 Z">
</path>
</defs>
<use x="2654.0" y="0" xlink:href="#g103/TT0"/>
<use x="3286.0" y="0" xlink:href="#g101/TT0"/>
<use x="4108.0" y="0" xlink:href="#g65/TT0"/>
<defs>
<path id="g105/TT0" d="M125.0 600.0Q 106.0,600.0  91.5,614.0 T 77.0,648.0 Q 77.0,668.0  91.5,682.0 T 125.0,696.0 Q 144.0,696.0  158.5,682.0 T 173.0,648.0 Q 173.0,628.0  158.5,614.0 T 125.0,600.0 Z M159.0 0 L91.0 0 L91.0 468.0 L159.0 468.0 L159.0 0Z">
</path>
</defs>
<use x="4808.0" y="0" xlink:href="#g105/TT0"/>
<use x="5058.0" y="0" xlink:href="#g114/TT0"/>
<defs>
<path id="g80/TT0" d="M294.0 708.0Q 405.0,708.0  469.0,660.0 T 533.0,519.0 Q 533.0,426.0  468.0,377.5 T 292.0,329.0  L166.0 329.0 L166.0 0 L94.0 0 L94.0 708.0 L294.0 708.0Z M288.0 390.0Q 372.0,390.0  416.5,423.0 T 461.0,519.0 Q 461.0,583.0  416.5,614.5 T 288.0,646.0  L166.0 646.0 L166.0 390.0 L288.0 390.0Z">
</path>
</defs>
<use x="5668.0" y="0" xlink:href="#g80/TT0"/>
<use x="6248.0" y="0" xlink:href="#g114/TT0"/>
<use x="6608.0" y="0" xlink:href="#g101/TT0"/>
<defs>
<path id="g115/TT0" d="M224.0 423.0Q 183.0,423.0  154.0,404.5 T 125.0,350.0 Q 125.0,318.0  151.0,300.0 T 237.0,270.0 Q 320.0,253.0  359.5,220.0 T 399.0,133.0 Q 399.0,59.0  347.5,23.5 T 223.0,-12.0 Q 167.0,-12.0  118.0,11.0 T 38.0,79.0  L92.0 119.0Q 111.0,87.0  146.5,66.5 T 222.0,46.0 Q 270.0,46.0  301.0,65.5 T 332.0,128.0 Q 332.0,163.0  299.5,182.0 T 194.0,218.0 Q 136.0,232.0  98.0,258.5 T 60.0,344.0 Q 60.0,411.0  108.5,445.5 T 227.0,480.0 Q 277.0,480.0  323.0,457.5 T 391.0,396.0  L339.0 357.0Q 324.0,387.0  293.0,405.0 T 224.0,423.0 Z">
</path>
</defs>
<use x="7180.0" y="0" xlink:href="#g115/TT0"/>
<use x="7624.0" y="0" xlink:href="#g115/TT0"/>
<defs>
<path id="g117/TT0" d="M426.0 80.0 L424.0 80.0Q 405.0,40.0  359.5,14.0 T 264.0,-12.0 Q 177.0,-12.0  131.5,40.0 T 86.0,181.0  L86.0 468.0 L154.0 468.0 L154.0 209.0Q 154.0,130.0  182.5,87.5 T 281.0,45.0 Q 319.0,45.0  351.0,65.5 T 403.0,127.0 T 423.0,228.0  L423.0 468.0 L491.0 468.0 L491.0 103.0Q 491.0,43.0  495.0,0  L430.0 0Q 426.0,50.0  426.0,80.0 Z">
</path>
</defs>
<use x="8068.0" y="0" xlink:href="#g117/TT0"/>
<use x="8649.0" y="0" xlink:href="#g114/TT0"/>
<use x="9009.0" y="0" xlink:href="#g101/TT0"/>
</g>
<text x="352.0" y="490.95" font-size="9.0pt" font-family="Avenir Next for SAS" fill="#626f80" text-anchor="start" opacity="0">
Average Air Pressure</text>
<path d="M474.97 486.65L524.97 486.65Z" stroke="#287fc7" stroke-width="3.0" fill="none">
</path>
<g fill="#626f80" stroke="#626f80" transform="translate(528.97 490.95) scale(0.012 -0.012)">
<use x="0" y="0" xlink:href="#g65/TT0"/>
<use x="700.0" y="0" xlink:href="#g105/TT0"/>
<use x="950.0" y="0" xlink:href="#g114/TT0"/>
<use x="1560.0" y="0" xlink:href="#g80/TT0"/>
<use x="2140.0" y="0" xlink:href="#g114/TT0"/>
<use x="2500.0" y="0" xlink:href="#g101/TT0"/>
<use x="3072.0" y="0" xlink:href="#g115/TT0"/>
<use x="3516.0" y="0" xlink:href="#g115/TT0"/>
<use x="3960.0" y="0" xlink:href="#g117/TT0"/>
<use x="4541.0" y="0" xlink:href="#g114/TT0"/>
<use x="4901.0" y="0" xlink:href="#g101/TT0"/>
</g>
<text x="528.97" y="490.95" font-size="9.0pt" font-family="Avenir Next for SAS" fill="#626f80" text-anchor="start" opacity="0">
Air Pressure</text>
<rect x="602.65" y="482.15" width="9.0" height="9.0" fill="#d1d1d1" opacity="0.6">
</rect>
<g fill="#626f80" stroke="#626f80" transform="translate(615.65 490.95) scale(0.012 -0.012)">
<defs>
<path id="g66/TT0" d="M305.0 708.0Q 401.0,708.0  467.0,666.0 T 533.0,527.0 Q 533.0,471.0  498.5,429.5 T 408.0,375.0  L408.0 373.0Q 479.0,365.0  523.5,318.0 T 568.0,196.0 Q 568.0,137.0  536.0,93.0 T 444.0,24.5 T 304.0,0  L94.0 0 L94.0 708.0 L305.0 708.0Z M311.0 398.0Q 372.0,398.0  416.5,428.0 T 461.0,522.0 Q 461.0,586.0  414.0,616.0 T 291.0,646.0  L166.0 646.0 L166.0 398.0 L311.0 398.0Z M300.0 62.0Q 385.0,62.0  440.0,96.0 T 495.0,200.0 Q 495.0,269.0  448.0,304.0 T 313.0,339.0  L166.0 339.0 L166.0 62.0 L300.0 62.0Z">
</path>
</defs>
<use x="0" y="0" xlink:href="#g66/TT0"/>
<use x="636.0" y="0" xlink:href="#g97/TT0"/>
<defs>
<path id="g110/TT0" d="M155.0 388.0 L157.0 388.0Q 176.0,428.0  221.5,454.0 T 317.0,480.0 Q 404.0,480.0  449.5,428.0 T 495.0,287.0  L495.0 0 L427.0 0 L427.0 259.0Q 427.0,338.0  398.5,380.5 T 300.0,423.0 Q 262.0,423.0  230.0,402.5 T 178.0,341.0 T 158.0,240.0  L158.0 0 L90.0 0 L90.0 365.0Q 90.0,425.0  86.0,468.0  L151.0 468.0Q 155.0,418.0  155.0,388.0 Z">
</path>
</defs>
<use x="1170.0" y="0" xlink:href="#g110/TT0"/>
<defs>
<path id="g100/TT0" d="M298.0 -12.0Q 227.0,-12.0  171.5,20.5 T 86.0,109.0 T 56.0,234.0 Q 56.0,303.0  86.0,359.0 T 171.5,447.5 T 298.0,480.0 Q 350.0,480.0  398.0,455.5 T 475.0,387.0  L477.0 387.0 L477.0 756.0 L545.0 756.0 L545.0 0 L477.0 0 L477.0 79.0 L475.0 79.0Q 446.0,36.0  398.0,12.0 T 298.0,-12.0 Z M305.0 46.0Q 357.0,46.0  398.0,70.5 T 462.0,138.0 T 485.0,234.0 Q 485.0,287.0  462.0,330.0 T 398.0,398.0 T 305.0,423.0 Q 250.0,423.0  210.0,398.0 T 149.0,330.0 T 128.0,234.0 Q 128.0,181.0  149.0,138.5 T 210.0,71.0 T 250.0,46.0 Z">
</path>
</defs>
<use x="1751.0" y="0" xlink:href="#g100/TT0"/>
<use x="2638.0" y="0" xlink:href="#g80/TT0"/>
<defs>
<path id="g108/TT0" d="M160.0 0 L92.0 0 L92.0 756.0 L160.0 756.0 L160.0 0Z">
</path>
</defs>
<use x="3218.0" y="0" xlink:href="#g108/TT0"/>
<defs>
<path id="g111/TT0" d="M305.0 -12.0Q 234.0,-12.0  177.0,20.0 T 88.0,108.0 T 56.0,234.0 Q 56.0,304.0  88.0,360.0 T 177.0,448.0 T 305.0,480.0 Q 377.0,480.0  434.0,448.0 T 523.0,360.0 T 555.0,234.0 Q 555.0,164.0  523.0,108.0 T 434.0,20.0 T 377.0,-12.0 Z M305.0 423.0Q 252.0,423.0  212.0,398.0 T 150.0,330.0 T 128.0,234.0 Q 128.0,181.0  150.0,138.5 T 212.0,71.0 T 305.0,46.0 Q 358.0,46.0  398.5,71.0 T 461.0,138.5 T 483.0,234.0 Q 483.0,287.0  461.0,330.0 T 398.5,398.0 T 358.0,423.0 Z">
</path>
</defs>
<use x="3470.0" y="0" xlink:href="#g111/TT0"/>
<defs>
<path id="g116/TT0" d="M169.0 411.0 L169.0 138.0Q 169.0,89.0  187.0,70.5 T 239.0,52.0 Q 268.0,52.0  298.0,67.0  L301.0 8.0Q 264.0,-6.0  221.0,-6.0 Q 173.0,-6.0  137.0,22.0 T 101.0,119.0  L101.0 411.0 L4.0 411.0 L4.0 468.0 L101.0 468.0 L101.0 600.0 L169.0 600.0 L169.0 468.0 L301.0 468.0 L301.0 411.0 L169.0 411.0Z">
</path>
</defs>
<use x="4081.0" y="0" xlink:href="#g116/TT0"/>
</g>
<text x="615.65" y="490.95" font-size="9.0pt" font-family="Avenir Next for SAS" fill="#626f80" text-anchor="start" opacity="0">
Band Plot</text>
</g>
</g>
</svg>
