<svg xmlns="http://www.w3.org/2000/svg" xmlns:xlink="http://www.w3.org/1999/xlink" version="1.1" width="1000" height="500" viewBox="0 0 1000 500">
<rect x="0" y="0" width="1000" height="500" fill="#ffffff">
</rect>
<g>
<rect x="0" y="0" rx="5" ry="5" width="1000.0" height="500.0" fill="#ffffff" opacity="0">
</rect>
<rect x="0" y="0" rx="5" ry="5" width="1000.0" height="500.0" fill="#ffffff" opacity="0">
</rect>
<rect x="0" y="0" rx="5" ry="5" width="1000.0" height="500.0" fill="#ffffff" opacity="0">
</rect>
<rect x="0" y="0" rx="5" ry="5" width="1000.0" height="500.0" fill="#ffffff" opacity="0">
</rect>
<g transform=" translate(16.0 -16.0)">
<rect x="0" y="67.0" width="19.0" height="353.0" fill="#ebedef">
</rect>
<polygon points="0,67.0  0,36.0  62.0,36.0  62.0,50.0  19.0,50.0  19.0,67.0 " fill="#ebedef">
</polygon>
<defs>
<clipPath id="ClipPath0">
<rect x="0" y="67" width="19" height="353">
</rect>
</clipPath>
</defs>
<g clip-path="url(#ClipPath0)">
<g transform="rotate(-90.0, 9.5, 155.5)">
<g fill="#626f80" stroke="#626f80" transform="translate(0.5 159.8) scale(0.012 -0.012)">
<defs>
<path id="g100/TT0" d="M298.0 -12.0Q 227.0,-12.0  171.5,20.5 T 86.0,109.0 T 56.0,234.0 Q 56.0,303.0  86.0,359.0 T 171.5,447.5 T 298.0,480.0 Q 350.0,480.0  398.0,455.5 T 475.0,387.0  L477.0 387.0 L477.0 756.0 L545.0 756.0 L545.0 0 L477.0 0 L477.0 79.0 L475.0 79.0Q 446.0,36.0  398.0,12.0 T 298.0,-12.0 Z M305.0 46.0Q 357.0,46.0  398.0,70.5 T 462.0,138.0 T 485.0,234.0 Q 485.0,287.0  462.0,330.0 T 398.0,398.0 T 305.0,423.0 Q 250.0,423.0  210.0,398.0 T 149.0,330.0 T 128.0,234.0 Q 128.0,181.0  149.0,138.5 T 210.0,71.0 T 250.0,46.0 Z">
</path>
</defs>
<use x="0" y="0" xlink:href="#g100/TT0"/>
<defs>
<path id="g97/TT0" d="M260.0 423.0Q 220.0,423.0  183.0,408.0 T 121.0,368.0  L83.0 413.0Q 113.0,443.0  161.0,461.5 T 267.0,480.0 Q 347.0,480.0  398.0,436.0 T 449.0,310.0  L449.0 105.0Q 449.0,42.0  457.0,0  L396.0 0Q 389.0,40.0  389.0,76.0  L387.0 76.0Q 355.0,30.0  314.5,9.0 T 217.0,-12.0 Q 178.0,-12.0  141.0,2.5 T 79.5,49.0 T 55.0,130.0 Q 55.0,198.0  99.0,232.0 T 212.5,276.5 T 385.0,287.0  L385.0 302.0Q 385.0,362.0  353.0,392.5 T 260.0,423.0 Z M125.0 133.0Q 125.0,87.0  157.0,65.5 T 235.0,44.0 Q 304.0,44.0  344.5,89.0 T 385.0,199.0  L385.0 234.0 L365.0 234.0Q 259.0,234.0  192.0,213.5 T 125.0,133.0 Z">
</path>
</defs>
<use x="637.0" y="0" xlink:href="#g97/TT0"/>
<defs>
<path id="g121/TT0" d="M253.0 73.0 L398.0 468.0 L472.0 468.0 L239.0 -121.0Q 216.0,-180.0  182.5,-210.0 T 92.0,-240.0 Q 61.0,-240.0  31.0,-234.0  L38.0 -172.0Q 62.0,-180.0  88.0,-180.0 Q 121.0,-180.0  141.5,-159.5 T 178.0,-97.0  L216.0 1.0 L16.0 468.0 L92.0 468.0 L251.0 73.0 L253.0 73.0Z">
</path>
</defs>
<use x="1171.0" y="0" xlink:href="#g121/TT0"/>
</g>
<text id="Text_15" x="9.5" y="159.8" font-size="9.0pt" font-family="Avenir Next for SAS" fill="#626f80" text-anchor="middle" opacity="0">
day</text>
</g>
<g transform="rotate(-90.0, 9.5, 332.0)">
<g fill="#626f80" stroke="#626f80" transform="translate(-4.5 336.3) scale(0.012 -0.012)">
<defs>
<path id="g110/TT0" d="M155.0 388.0 L157.0 388.0Q 176.0,428.0  221.5,454.0 T 317.0,480.0 Q 404.0,480.0  449.5,428.0 T 495.0,287.0  L495.0 0 L427.0 0 L427.0 259.0Q 427.0,338.0  398.5,380.5 T 300.0,423.0 Q 262.0,423.0  230.0,402.5 T 178.0,341.0 T 158.0,240.0  L158.0 0 L90.0 0 L90.0 365.0Q 90.0,425.0  86.0,468.0  L151.0 468.0Q 155.0,418.0  155.0,388.0 Z">
</path>
</defs>
<use x="0" y="0" xlink:href="#g110/TT0"/>
<defs>
<path id="g105/TT0" d="M125.0 600.0Q 106.0,600.0  91.5,614.0 T 77.0,648.0 Q 77.0,668.0  91.5,682.0 T 125.0,696.0 Q 144.0,696.0  158.5,682.0 T 173.0,648.0 Q 173.0,628.0  158.5,614.0 T 125.0,600.0 Z M159.0 0 L91.0 0 L91.0 468.0 L159.0 468.0 L159.0 0Z">
</path>
</defs>
<use x="581.0" y="0" xlink:href="#g105/TT0"/>
<defs>
<path id="g103/TT0" d="M294.0 -180.0Q 389.0,-180.0  433.0,-129.0 T 477.0,4.0  L477.0 92.0 L475.0 92.0Q 449.0,50.0  399.5,25.0 T 298.0,0 Q 226.0,0  171.0,30.5 T 86.0,115.5 T 56.0,238.0 Q 56.0,305.0  86.5,360.0 T 172.0,447.5 T 298.0,480.0 Q 351.0,480.0  399.5,455.5 T 475.0,387.0  L477.0 387.0 L477.0 468.0 L545.0 468.0 L545.0 4.0Q 545.0,-56.0  523.0,-110.5 T 444.0,-202.5 T 291.0,-240.0 Q 227.0,-240.0  167.5,-215.0 T 66.0,-146.0  L115.0 -94.0Q 144.0,-131.0  193.0,-155.5 T 294.0,-180.0 Z M305.0 58.0Q 357.0,58.0  398.0,81.0 T 462.0,145.5 T 485.0,240.0 Q 485.0,289.0  461.5,331.0 T 397.0,398.0 T 305.0,423.0 Q 250.0,423.0  210.0,398.0 T 149.0,331.5 T 128.0,240.0 Q 128.0,190.0  149.0,148.5 T 210.0,82.5 T 250.0,58.0 Z">
</path>
</defs>
<use x="831.0" y="0" xlink:href="#g103/TT0"/>
<defs>
<path id="g104/TT0" d="M319.0 480.0Q 406.0,480.0  451.5,428.0 T 497.0,287.0  L497.0 0 L429.0 0 L429.0 259.0Q 429.0,338.0  400.5,380.5 T 302.0,423.0 Q 264.0,423.0  232.0,402.5 T 180.0,341.0 T 160.0,240.0  L160.0 0 L92.0 0 L92.0 756.0 L160.0 756.0 L160.0 391.0 L162.0 391.0Q 180.0,431.0  224.5,455.5 T 319.0,480.0 Z">
</path>
</defs>
<use x="1463.0" y="0" xlink:href="#g104/TT0"/>
<defs>
<path id="g116/TT0" d="M169.0 411.0 L169.0 138.0Q 169.0,89.0  187.0,70.5 T 239.0,52.0 Q 268.0,52.0  298.0,67.0  L301.0 8.0Q 264.0,-6.0  221.0,-6.0 Q 173.0,-6.0  137.0,22.0 T 101.0,119.0  L101.0 411.0 L4.0 411.0 L4.0 468.0 L101.0 468.0 L101.0 600.0 L169.0 600.0 L169.0 468.0 L301.0 468.0 L301.0 411.0 L169.0 411.0Z">
</path>
</defs>
<use x="2046.0" y="0" xlink:href="#g116/TT0"/>
</g>
<text id="Text_16" x="9.5" y="336.3" font-size="9.0pt" font-family="Avenir Next for SAS" fill="#626f80" text-anchor="middle" opacity="0">
night</text>
</g>
</g>
<g fill="#626f80" stroke="#626f80" transform="translate(4.0 47.65) scale(0.012 -0.012)">
<use x="0" y="0" xlink:href="#g100/TT0"/>
<use x="637.0" y="0" xlink:href="#g97/TT0"/>
<use x="1171.0" y="0" xlink:href="#g121/TT0"/>
<defs>
<path id="g95/TT0" d="M0 -75.0 L500.0 -75.0 L500.0 -125.0 L0 -125.0 L0 -75.0Z">
</path>
</defs>
<use x="1659.0" y="0" xlink:href="#g95/TT0"/>
<use x="2159.0" y="0" xlink:href="#g110/TT0"/>
<use x="2740.0" y="0" xlink:href="#g105/TT0"/>
<use x="2990.0" y="0" xlink:href="#g103/TT0"/>
<use x="3622.0" y="0" xlink:href="#g104/TT0"/>
<use x="4205.0" y="0" xlink:href="#g116/TT0"/>
</g>
<text id="Text_17" x="4.0" y="47.65" font-size="9.0pt" font-family="Avenir Next for SAS" fill="#626f80" text-anchor="start" opacity="0">
day_night</text>
<defs>
<clipPath id="ClipPath1">
<rect x="37" y="64" width="934" height="356">
</rect>
</clipPath>
</defs>
<g clip-path="url(#ClipPath1)">
<defs>
<clipPath id="ClipPath2">
<rect x="37" y="66" width="932" height="178">
</rect>
</clipPath>
</defs>
<g clip-path="url(#ClipPath2)">
<rect id="Rect_20" x="860.35" y="199.78" width="98.92" height="44.22" fill="#33a3ff" stroke="#277fc6">
</rect>
<rect id="Rect_21" x="860.35" y="172.04" width="98.92" height="27.74" fill="#ffcc32" stroke="#c69f26">
</rect>
<rect id="Rect_22" x="860.35" y="159.27" width="98.92" height="12.77" fill="#9471ff" stroke="#7358c6">
</rect>
<rect id="Rect_23" x="860.35" y="140.99" width="98.92" height="18.28" fill="#ff8224" stroke="#c6651c">
</rect>
<rect id="Rect_24" x="860.35" y="129.38" width="98.92" height="11.6" fill="#2ad1d1" stroke="#1e9898">
</rect>
<rect id="Rect_25" x="860.35" y="121.68" width="98.92" height="7.7" fill="#dd5757" stroke="#a44040">
</rect>
<rect id="Rect_26" x="860.35" y="110.61" width="98.92" height="11.07" fill="#15b57b" stroke="#0e7c54">
</rect>
<rect id="Rect_27" x="860.35" y="99.3" width="98.92" height="11.31" fill="#ff6fbd" stroke="#c65693">
</rect>
<rect id="Rect_28" x="860.35" y="91.6" width="98.92" height="7.7" fill="#72e2ff" stroke="#58b0c6">
</rect>
<rect id="Rect_29" x="860.35" y="78.97" width="98.92" height="12.63" fill="#ffff71" stroke="#c6c658">
</rect>
<path d="M37.0 244.0L969.0 244.0Z" stroke="#2a3037" fill="none">
</path>
</g>
<path d="M37.0 244.0L969.0 244.0" stroke="#2a3037" stroke-dasharray="1,2" fill="none" opacity="0.4">
</path>
<path d="M37.0 205.0L969.0 205.0" stroke="#2a3037" stroke-dasharray="1,2" fill="none" opacity="0.4">
</path>
<path d="M37.0 166.0L969.0 166.0" stroke="#2a3037" stroke-dasharray="1,2" fill="none" opacity="0.4">
</path>
<path d="M37.0 126.99L969.0 126.99" stroke="#2a3037" stroke-dasharray="1,2" fill="none" opacity="0.4">
</path>
<path d="M37.0 87.99L969.0 87.99" stroke="#2a3037" stroke-dasharray="1,2" fill="none" opacity="0.4">
</path>
<defs>
<clipPath id="ClipPath3">
<rect x="37" y="243" width="932" height="177">
</rect>
</clipPath>
</defs>
<g clip-path="url(#ClipPath3)">
<rect id="Rect_33" x="45.73" y="377.2" width="98.92" height="42.8" fill="#33a3ff" stroke="#277fc6">
</rect>
<rect id="Rect_34" x="45.73" y="350.06" width="98.92" height="27.14" fill="#ffcc32" stroke="#c69f26">
</rect>
<rect id="Rect_35" x="45.73" y="338.62" width="98.92" height="11.44" fill="#9471ff" stroke="#7358c6">
</rect>
<rect id="Rect_36" x="45.73" y="323.16" width="98.92" height="15.46" fill="#ff8224" stroke="#c6651c">
</rect>
<rect id="Rect_37" x="45.73" y="309.05" width="98.92" height="14.1" fill="#2ad1d1" stroke="#1e9898">
</rect>
<rect id="Rect_38" x="45.73" y="299.7" width="98.92" height="9.35" fill="#dd5757" stroke="#a44040">
</rect>
<rect id="Rect_39" x="45.73" y="286.81" width="98.92" height="12.89" fill="#15b57b" stroke="#0e7c54">
</rect>
<rect id="Rect_40" x="45.73" y="271.88" width="98.92" height="14.93" fill="#ff6fbd" stroke="#c65693">
</rect>
<rect id="Rect_41" x="45.73" y="262.72" width="98.92" height="9.16" fill="#72e2ff" stroke="#58b0c6">
</rect>
<rect id="Rect_42" x="45.73" y="249.0" width="98.92" height="13.72" fill="#ffff71" stroke="#c6c658">
</rect>
<path d="M37.0 420.0L969.0 420.0Z" stroke="#2a3037" fill="none">
</path>
</g>
<path d="M37.0 420.0L969.0 420.0" stroke="#2a3037" stroke-dasharray="1,2" fill="none" opacity="0.4">
</path>
<path d="M37.0 381.22L969.0 381.22" stroke="#2a3037" stroke-dasharray="1,2" fill="none" opacity="0.4">
</path>
<path d="M37.0 342.45L969.0 342.45" stroke="#2a3037" stroke-dasharray="1,2" fill="none" opacity="0.4">
</path>
<path d="M37.0 303.67L969.0 303.67" stroke="#2a3037" stroke-dasharray="1,2" fill="none" opacity="0.4">
</path>
<path d="M37.0 264.9L969.0 264.9" stroke="#2a3037" stroke-dasharray="1,2" fill="none" opacity="0.4">
</path>
</g>
<defs>
<clipPath id="ClipPath4">
<rect x="19" y="67" width="18" height="177">
</rect>
</clipPath>
</defs>
<g clip-path="url(#ClipPath4)">
<g fill="#626f80" stroke="#626f80" transform="translate(25.04 241.3) scale(0.012 -0.012)">
<defs>
<path id="g48/TT0" d="M522.0 353.0Q 522.0,195.0  467.0,88.5 T 290.0,-18.0 Q 167.0,-18.0  112.5,88.5 T 58.0,353.0 Q 58.0,512.0  112.5,619.0 T 290.0,726.0 Q 412.0,726.0  467.0,618.5 T 522.0,353.0 Z M131.0 353.0Q 131.0,226.0  167.5,135.0 T 290.0,44.0 Q 375.0,44.0  412.0,135.5 T 449.0,353.0 Q 449.0,480.0  412.0,572.5 T 290.0,665.0 Q 204.0,665.0  167.5,573.0 T 131.0,353.0 Z">
</path>
</defs>
<use x="0" y="0" xlink:href="#g48/TT0"/>
</g>
<text id="Text_45" x="32.0" y="241.3" font-size="9.0pt" font-family="Avenir Next for SAS" fill="#626f80" text-anchor="end" opacity="0">
0</text>
<g fill="#626f80" stroke="#626f80" transform="translate(18.08 209.3) scale(0.012 -0.012)">
<defs>
<path id="g50/TT0" d="M51.0 0 L51.0 75.0 L341.0 368.0Q 380.0,408.0  403.0,447.0 T 426.0,530.0 Q 426.0,590.0  385.5,627.5 T 286.0,665.0 Q 230.0,665.0  191.0,630.0 T 140.0,539.0  L69.0 553.0Q 84.0,629.0  144.0,677.5 T 286.0,726.0 Q 344.0,726.0  392.5,703.5 T 470.0,637.0 T 499.0,531.0 Q 499.0,469.0  470.0,421.5 T 384.0,317.0  L129.0 64.0 L504.0 64.0 L504.0 0 L51.0 0Z">
</path>
</defs>
<use x="0" y="0" xlink:href="#g50/TT0"/>
<use x="580.0" y="0" xlink:href="#g48/TT0"/>
</g>
<text id="Text_46" x="32.0" y="209.3" font-size="9.0pt" font-family="Avenir Next for SAS" fill="#626f80" text-anchor="end" opacity="0">
20</text>
<g fill="#626f80" stroke="#626f80" transform="translate(18.08 170.3) scale(0.012 -0.012)">
<defs>
<path id="g52/TT0" d="M436.0 234.0 L540.0 234.0 L540.0 171.0 L436.0 171.0 L436.0 0 L366.0 0 L366.0 171.0 L42.0 171.0 L42.0 241.0 L342.0 708.0 L436.0 708.0 L436.0 234.0Z M366.0 627.0 L364.0 627.0 L117.0 234.0 L366.0 234.0 L366.0 627.0Z">
</path>
</defs>
<use x="0" y="0" xlink:href="#g52/TT0"/>
<use x="580.0" y="0" xlink:href="#g48/TT0"/>
</g>
<text id="Text_47" x="32.0" y="170.3" font-size="9.0pt" font-family="Avenir Next for SAS" fill="#626f80" text-anchor="end" opacity="0">
40</text>
<g fill="#626f80" stroke="#626f80" transform="translate(18.08 131.3) scale(0.012 -0.012)">
<defs>
<path id="g54/TT0" d="M203.0 397.0Q 218.0,409.0  247.0,416.0 T 304.0,423.0 Q 365.0,423.0  414.5,395.5 T 492.0,318.0 T 520.0,205.0 Q 520.0,140.0  490.5,89.5 T 408.5,10.5 T 290.0,-18.0 Q 224.0,-18.0  171.5,10.5 T 89.5,89.5 T 60.0,205.0 Q 60.0,255.0  77.0,301.5 T 124.0,397.0  L317.0 708.0 L400.0 708.0 L201.0 399.0 L203.0 397.0Z M290.0 43.0Q 336.0,43.0  372.0,64.0 T 428.0,122.0 T 448.0,205.0 Q 448.0,275.0  405.0,320.0 T 290.0,365.0 Q 218.0,365.0  175.0,320.0 T 132.0,205.0 Q 132.0,159.0  152.0,122.0 T 208.0,64.0 T 244.0,43.0 Z">
</path>
</defs>
<use x="0" y="0" xlink:href="#g54/TT0"/>
<use x="580.0" y="0" xlink:href="#g48/TT0"/>
</g>
<text id="Text_48" x="32.0" y="131.3" font-size="9.0pt" font-family="Avenir Next for SAS" fill="#626f80" text-anchor="end" opacity="0">
60</text>
<g fill="#626f80" stroke="#626f80" transform="translate(18.08 92.29) scale(0.012 -0.012)">
<defs>
<path id="g56/TT0" d="M517.0 186.0Q 517.0,126.0  486.0,79.5 T 403.0,7.5 T 290.0,-18.0 Q 229.0,-18.0  177.0,7.5 T 94.0,79.5 T 63.0,186.0 Q 63.0,256.0  100.5,306.5 T 197.0,375.0  L197.0 377.0Q 150.0,393.0  120.0,437.5 T 90.0,537.0 Q 90.0,593.0  117.0,636.0 T 190.0,702.5 T 290.0,726.0 Q 344.0,726.0  390.0,702.5 T 463.0,636.0 T 490.0,537.0 Q 490.0,482.0  460.0,437.5 T 383.0,377.0  L383.0 375.0Q 442.0,358.0  479.5,307.0 T 517.0,186.0 Z M290.0 406.0Q 345.0,406.0  382.5,442.0 T 420.0,533.0 Q 420.0,590.0  383.0,627.5 T 290.0,665.0 Q 234.0,665.0  197.0,627.5 T 160.0,533.0 Q 160.0,478.0  197.5,442.0 T 290.0,406.0 Z M290.0 43.0Q 359.0,43.0  402.0,86.0 T 445.0,194.0 Q 445.0,258.0  402.0,300.0 T 290.0,342.0 Q 221.0,342.0  178.0,300.0 T 135.0,194.0 Q 135.0,129.0  178.0,86.0 T 290.0,43.0 Z">
</path>
</defs>
<use x="0" y="0" xlink:href="#g56/TT0"/>
<use x="580.0" y="0" xlink:href="#g48/TT0"/>
</g>
<text id="Text_49" x="32.0" y="92.29" font-size="9.0pt" font-family="Avenir Next for SAS" fill="#626f80" text-anchor="end" opacity="0">
80</text>
</g>
<defs>
<clipPath id="ClipPath5">
<rect x="19" y="244" width="18" height="176">
</rect>
</clipPath>
</defs>
<g clip-path="url(#ClipPath5)">
<g fill="#626f80" stroke="#626f80" transform="translate(25.04 417.3) scale(0.012 -0.012)">
<use x="0" y="0" xlink:href="#g48/TT0"/>
</g>
<text id="Text_51" x="32.0" y="417.3" font-size="9.0pt" font-family="Avenir Next for SAS" fill="#626f80" text-anchor="end" opacity="0">
0</text>
<g fill="#626f80" stroke="#626f80" transform="translate(18.08 385.53) scale(0.012 -0.012)">
<use x="0" y="0" xlink:href="#g50/TT0"/>
<use x="580.0" y="0" xlink:href="#g48/TT0"/>
</g>
<text id="Text_52" x="32.0" y="385.53" font-size="9.0pt" font-family="Avenir Next for SAS" fill="#626f80" text-anchor="end" opacity="0">
20</text>
<g fill="#626f80" stroke="#626f80" transform="translate(18.08 346.75) scale(0.012 -0.012)">
<use x="0" y="0" xlink:href="#g52/TT0"/>
<use x="580.0" y="0" xlink:href="#g48/TT0"/>
</g>
<text id="Text_53" x="32.0" y="346.75" font-size="9.0pt" font-family="Avenir Next for SAS" fill="#626f80" text-anchor="end" opacity="0">
40</text>
<g fill="#626f80" stroke="#626f80" transform="translate(18.08 307.98) scale(0.012 -0.012)">
<use x="0" y="0" xlink:href="#g54/TT0"/>
<use x="580.0" y="0" xlink:href="#g48/TT0"/>
</g>
<text id="Text_54" x="32.0" y="307.98" font-size="9.0pt" font-family="Avenir Next for SAS" fill="#626f80" text-anchor="end" opacity="0">
60</text>
<g fill="#626f80" stroke="#626f80" transform="translate(18.08 269.2) scale(0.012 -0.012)">
<use x="0" y="0" xlink:href="#g56/TT0"/>
<use x="580.0" y="0" xlink:href="#g48/TT0"/>
</g>
<text id="Text_55" x="32.0" y="269.2" font-size="9.0pt" font-family="Avenir Next for SAS" fill="#626f80" text-anchor="end" opacity="0">
80</text>
</g>
<g fill="#2a3037" stroke="#2a3037" transform="translate(19.0 63.59) scale(0.014 -0.014)">
<defs>
<path id="g49/TT1" d="M279.0 562.0 L139.0 447.0 L69.0 530.0 L290.0 708.0 L399.0 708.0 L399.0 0 L279.0 0 L279.0 562.0Z">
</path>
</defs>
<use x="0" y="0" xlink:href="#g49/TT1"/>
<defs>
<path id="g48/TT1" d="M306.0 -18.0Q 186.0,-18.0  120.5,81.0 T 55.0,354.0 Q 55.0,528.0  120.5,627.0 T 306.0,726.0 Q 425.0,726.0  490.0,627.0 T 555.0,354.0 Q 555.0,180.0  490.0,81.0 T 306.0,-18.0 Z M306.0 626.0Q 234.0,626.0  206.0,541.0 T 178.0,354.0 Q 178.0,252.0  206.0,168.0 T 306.0,84.0 Q 377.0,84.0  404.5,167.5 T 432.0,354.0 Q 432.0,457.0  404.5,541.5 T 306.0,626.0 Z">
</path>
</defs>
<use x="610.0" y="0" xlink:href="#g48/TT1"/>
<use x="1220.0" y="0" xlink:href="#g48/TT1"/>
<defs>
<path id="g45/TT1" d="M280.0 195.0 L40.0 195.0 L40.0 297.0 L280.0 297.0 L280.0 195.0Z">
</path>
</defs>
<use x="1830.0" y="0" xlink:href="#g45/TT1"/>
<use x="2150.0" y="0" xlink:href="#g49/TT1"/>
<defs>
<path id="g53/TT1" d="M216.0 600.0 L209.0 447.0Q 242.0,456.0  292.0,456.0 Q 362.0,456.0  417.5,429.5 T 504.5,352.5 T 536.0,232.0 Q 536.0,156.0  501.5,99.0 T 408.0,12.0 T 278.0,-18.0 Q 191.0,-18.0  129.0,23.0 T 39.0,137.0  L148.0 177.0Q 163.0,135.0  198.5,109.5 T 281.0,84.0 Q 337.0,84.0  375.0,120.5 T 413.0,219.0 Q 413.0,294.0  367.5,327.0 T 255.0,360.0 Q 215.0,360.0  169.0,349.0 T 90.0,321.0  L102.0 708.0 L505.0 708.0 L505.0 600.0 L216.0 600.0Z">
</path>
</defs>
<use x="2760.0" y="0" xlink:href="#g53/TT1"/>
<use x="3370.0" y="0" xlink:href="#g48/TT1"/>
<defs>
<path id="g72/TT1" d="M78.0 708.0 L204.0 708.0 L204.0 422.0 L535.0 422.0 L535.0 708.0 L661.0 708.0 L661.0 0 L535.0 0 L535.0 314.0 L204.0 314.0 L204.0 0 L78.0 0 L78.0 708.0Z">
</path>
</defs>
<use x="4230.0" y="0" xlink:href="#g72/TT1"/>
<defs>
<path id="g122/TT1" d="M34.0 106.0 L293.0 384.0 L46.0 384.0 L46.0 480.0 L436.0 480.0 L436.0 374.0 L176.0 98.0 L448.0 98.0 L448.0 0 L34.0 0 L34.0 106.0Z">
</path>
</defs>
<use x="4969.0" y="0" xlink:href="#g122/TT1"/>
<defs>
<path id="g47/TT1" d="M74.0 -48.0 L-9.0 -18.0 L303.0 758.0 L386.0 726.0 L74.0 -48.0Z">
</path>
</defs>
<use x="5701.0" y="0" xlink:href="#g47/TT1"/>
<use x="6340.0" y="0" xlink:href="#g49/TT1"/>
<use x="6950.0" y="0" xlink:href="#g53/TT1"/>
<use x="7560.0" y="0" xlink:href="#g48/TT1"/>
<use x="8170.0" y="0" xlink:href="#g45/TT1"/>
<defs>
<path id="g50/TT1" d="M342.0 378.0Q 378.0,413.0  396.0,445.5 T 414.0,517.0 Q 414.0,566.0  382.0,596.0 T 301.0,626.0 Q 251.0,626.0  219.5,592.5 T 181.0,505.0  L64.0 523.0Q 71.0,581.0  103.0,627.5 T 187.0,700.0 T 303.0,726.0 Q 366.0,726.0  420.0,702.0 T 506.5,631.0 T 539.0,519.0 Q 539.0,456.0  509.5,406.5 T 425.0,305.0  L221.0 110.0 L540.0 110.0 L540.0 0 L69.0 0 L69.0 110.0 L342.0 378.0Z">
</path>
</defs>
<use x="8490.0" y="0" xlink:href="#g50/TT1"/>
<use x="9100.0" y="0" xlink:href="#g48/TT1"/>
<use x="9710.0" y="0" xlink:href="#g48/TT1"/>
<use x="10570.0" y="0" xlink:href="#g72/TT1"/>
<use x="11309.0" y="0" xlink:href="#g122/TT1"/>
<use x="12041.0" y="0" xlink:href="#g47/TT1"/>
<use x="12680.0" y="0" xlink:href="#g50/TT1"/>
<use x="13290.0" y="0" xlink:href="#g48/TT1"/>
<use x="13900.0" y="0" xlink:href="#g48/TT1"/>
<use x="14510.0" y="0" xlink:href="#g45/TT1"/>
<use x="14830.0" y="0" xlink:href="#g50/TT1"/>
<use x="15440.0" y="0" xlink:href="#g53/TT1"/>
<use x="16050.0" y="0" xlink:href="#g48/TT1"/>
<use x="16910.0" y="0" xlink:href="#g72/TT1"/>
<use x="17649.0" y="0" xlink:href="#g122/TT1"/>
<use x="18381.0" y="0" xlink:href="#g47/TT1"/>
<use x="19020.0" y="0" xlink:href="#g50/TT1"/>
<use x="19630.0" y="0" xlink:href="#g53/TT1"/>
<use x="20240.0" y="0" xlink:href="#g48/TT1"/>
<use x="20850.0" y="0" xlink:href="#g45/TT1"/>
<defs>
<path id="g51/TT1" d="M244.0 417.0Q 308.0,417.0  351.5,441.0 T 395.0,524.0 Q 395.0,570.0  362.5,598.0 T 283.0,626.0 Q 240.0,626.0  210.5,601.0 T 170.0,535.0  L57.0 564.0Q 76.0,636.0  140.0,681.0 T 288.0,726.0 Q 351.0,726.0  403.0,703.5 T 485.5,637.0 T 516.0,532.0 Q 516.0,475.0  481.0,430.5 T 389.0,372.0  L389.0 370.0Q 454.0,357.0  494.5,311.0 T 535.0,200.0 Q 535.0,130.0  499.5,80.5 T 407.5,6.5 T 288.0,-18.0 Q 194.0,-18.0  126.0,23.0 T 31.0,149.0  L143.0 184.0Q 156.0,140.0  193.0,112.0 T 284.0,84.0 Q 337.0,84.0  375.5,113.0 T 414.0,201.0 Q 414.0,264.0  362.0,292.5 T 242.0,321.0  L212.0 321.0 L212.0 417.0 L244.0 417.0Z">
</path>
</defs>
<use x="21170.0" y="0" xlink:href="#g51/TT1"/>
<use x="21780.0" y="0" xlink:href="#g48/TT1"/>
<use x="22390.0" y="0" xlink:href="#g48/TT1"/>
<use x="23250.0" y="0" xlink:href="#g72/TT1"/>
<use x="23989.0" y="0" xlink:href="#g122/TT1"/>
<use x="24721.0" y="0" xlink:href="#g47/TT1"/>
<use x="25360.0" y="0" xlink:href="#g51/TT1"/>
<use x="25970.0" y="0" xlink:href="#g48/TT1"/>
<use x="26580.0" y="0" xlink:href="#g48/TT1"/>
<use x="27190.0" y="0" xlink:href="#g45/TT1"/>
<use x="27510.0" y="0" xlink:href="#g51/TT1"/>
<use x="28120.0" y="0" xlink:href="#g53/TT1"/>
<use x="28730.0" y="0" xlink:href="#g48/TT1"/>
<use x="29590.0" y="0" xlink:href="#g72/TT1"/>
<use x="30329.0" y="0" xlink:href="#g122/TT1"/>
<use x="31061.0" y="0" xlink:href="#g47/TT1"/>
<use x="31700.0" y="0" xlink:href="#g51/TT1"/>
<use x="32310.0" y="0" xlink:href="#g53/TT1"/>
<use x="32920.0" y="0" xlink:href="#g48/TT1"/>
<use x="33530.0" y="0" xlink:href="#g45/TT1"/>
<defs>
<path id="g52/TT1" d="M348.0 147.0 L21.0 147.0 L21.0 253.0 L322.0 708.0 L466.0 708.0 L466.0 250.0 L565.0 250.0 L565.0 147.0 L466.0 147.0 L466.0 0 L348.0 0 L348.0 147.0Z M348.0 567.0 L346.0 567.0 L145.0 250.0 L348.0 250.0 L348.0 567.0Z">
</path>
</defs>
<use x="33850.0" y="0" xlink:href="#g52/TT1"/>
<use x="34460.0" y="0" xlink:href="#g48/TT1"/>
<use x="35070.0" y="0" xlink:href="#g48/TT1"/>
<use x="35930.0" y="0" xlink:href="#g72/TT1"/>
<use x="36669.0" y="0" xlink:href="#g122/TT1"/>
<use x="37401.0" y="0" xlink:href="#g47/TT1"/>
<use x="38040.0" y="0" xlink:href="#g52/TT1"/>
<use x="38650.0" y="0" xlink:href="#g48/TT1"/>
<use x="39260.0" y="0" xlink:href="#g48/TT1"/>
<use x="39870.0" y="0" xlink:href="#g45/TT1"/>
<use x="40190.0" y="0" xlink:href="#g52/TT1"/>
<use x="40800.0" y="0" xlink:href="#g53/TT1"/>
<use x="41410.0" y="0" xlink:href="#g48/TT1"/>
<use x="42270.0" y="0" xlink:href="#g72/TT1"/>
<use x="43009.0" y="0" xlink:href="#g122/TT1"/>
<use x="43741.0" y="0" xlink:href="#g47/TT1"/>
<use x="44380.0" y="0" xlink:href="#g52/TT1"/>
<use x="44990.0" y="0" xlink:href="#g53/TT1"/>
<use x="45600.0" y="0" xlink:href="#g48/TT1"/>
<use x="46210.0" y="0" xlink:href="#g45/TT1"/>
<use x="46530.0" y="0" xlink:href="#g53/TT1"/>
<use x="47140.0" y="0" xlink:href="#g48/TT1"/>
<use x="47750.0" y="0" xlink:href="#g48/TT1"/>
<use x="48610.0" y="0" xlink:href="#g72/TT1"/>
<use x="49349.0" y="0" xlink:href="#g122/TT1"/>
<use x="50081.0" y="0" xlink:href="#g47/TT1"/>
<use x="50720.0" y="0" xlink:href="#g53/TT1"/>
<use x="51330.0" y="0" xlink:href="#g48/TT1"/>
<use x="51940.0" y="0" xlink:href="#g48/TT1"/>
<use x="52550.0" y="0" xlink:href="#g45/TT1"/>
<use x="52870.0" y="0" xlink:href="#g53/TT1"/>
<use x="53480.0" y="0" xlink:href="#g53/TT1"/>
<use x="54090.0" y="0" xlink:href="#g48/TT1"/>
<use x="54950.0" y="0" xlink:href="#g72/TT1"/>
<use x="55689.0" y="0" xlink:href="#g122/TT1"/>
<use x="56421.0" y="0" xlink:href="#g47/TT1"/>
<use x="57060.0" y="0" xlink:href="#g53/TT1"/>
<use x="57670.0" y="0" xlink:href="#g53/TT1"/>
<use x="58280.0" y="0" xlink:href="#g48/TT1"/>
<use x="58890.0" y="0" xlink:href="#g45/TT1"/>
<defs>
<path id="g54/TT1" d="M260.0 446.0 L261.0 445.0Q 275.0,451.0  296.0,454.0 T 336.0,457.0 Q 398.0,457.0  449.5,427.0 T 531.5,345.0 T 562.0,230.0 Q 562.0,157.0  528.0,100.5 T 435.0,13.0 T 304.0,-18.0 Q 231.0,-18.0  172.0,14.0 T 79.0,101.5 T 45.0,225.0 Q 45.0,282.0  62.5,327.5 T 118.0,434.0  L295.0 708.0 L441.0 708.0 L260.0 446.0Z M303.0 84.0Q 364.0,84.0  401.5,122.5 T 439.0,224.0 Q 439.0,284.0  402.0,323.0 T 305.0,362.0 Q 244.0,362.0  205.5,323.0 T 167.0,222.0 Q 167.0,185.0  184.0,153.5 T 232.0,103.0 T 263.0,84.0 Z">
</path>
</defs>
<use x="59210.0" y="0" xlink:href="#g54/TT1"/>
<use x="59820.0" y="0" xlink:href="#g48/TT1"/>
<use x="60430.0" y="0" xlink:href="#g48/TT1"/>
<use x="61290.0" y="0" xlink:href="#g72/TT1"/>
<use x="62029.0" y="0" xlink:href="#g122/TT1"/>
</g>
<text id="Text_56" x="19.0" y="63.59" font-size="10.5pt" font-family="Avenir Next for SAS" font-weight="bold" fill="#2a3037" text-anchor="start" opacity="0">
100-150 Hz / 150-200 Hz / 200-250 Hz / 250-300 Hz / 300-350 Hz / 350-400 Hz / 400-450 Hz / 450-500 Hz / 500-550 Hz / 550-600 Hz</text>
<path d="M37.0 420.0L968.0 420.0Z" stroke="#2a3037" fill="none">
</path>
<defs>
<clipPath id="ClipPath6">
<rect x="37" y="420" width="931" height="49">
</rect>
</clipPath>
</defs>
<g clip-path="url(#ClipPath6)">
<g fill="#626f80" stroke="#626f80" transform="translate(45.19 440.65) scale(0.012 -0.012)">
<defs>
<path id="g70/TT0" d="M166.0 0 L94.0 0 L94.0 708.0 L521.0 708.0 L521.0 644.0 L166.0 644.0 L166.0 398.0 L496.0 398.0 L496.0 335.0 L166.0 335.0 L166.0 0Z">
</path>
</defs>
<use x="0" y="0" xlink:href="#g70/TT0"/>
<defs>
<path id="g101/TT0" d="M515.0 216.0 L127.0 216.0Q 128.0,169.0  150.5,130.5 T 212.0,69.0 T 298.0,46.0 Q 347.0,46.0  387.0,69.5 T 448.0,127.0  L499.0 87.0Q 421.0,-12.0  298.0,-12.0 Q 229.0,-12.0  174.0,20.0 T 87.5,108.0 T 56.0,234.0 Q 56.0,303.0  87.0,359.5 T 172.0,448.0 T 292.0,480.0 Q 363.0,480.0  413.5,449.5 T 490.0,366.0 T 516.0,248.0 Q 516.0,228.0  515.0,216.0 Z M292.0 423.0Q 248.0,423.0  211.5,402.0 T 153.0,345.5 T 128.0,270.0  L447.0 270.0Q 444.0,338.0  403.5,380.5 T 292.0,423.0 Z">
</path>
</defs>
<use x="562.0" y="0" xlink:href="#g101/TT0"/>
<defs>
<path id="g98/TT0" d="M160.0 0 L92.0 0 L92.0 756.0 L160.0 756.0 L160.0 387.0 L162.0 387.0Q 191.0,431.0  239.0,455.5 T 339.0,480.0 Q 410.0,480.0  465.5,447.5 T 551.0,359.0 T 581.0,234.0 Q 581.0,165.0  551.0,109.0 T 465.5,20.5 T 339.0,-12.0 Q 287.0,-12.0  239.0,12.0 T 162.0,79.0  L160.0 79.0 L160.0 0Z M332.0 423.0Q 280.0,423.0  239.0,398.0 T 175.0,330.0 T 152.0,234.0 Q 152.0,181.0  175.0,138.0 T 239.0,70.5 T 332.0,46.0 Q 387.0,46.0  427.0,71.0 T 488.0,138.5 T 509.0,234.0 Q 509.0,287.0  488.0,330.0 T 427.0,398.0 T 387.0,423.0 Z">
</path>
</defs>
<use x="1134.0" y="0" xlink:href="#g98/TT0"/>
<defs>
<path id="g114/TT0" d="M86.0 468.0 L151.0 468.0Q 155.0,418.0  155.0,388.0  L157.0 388.0Q 177.0,429.0  217.5,454.5 T 307.0,480.0 Q 334.0,480.0  352.0,475.0  L343.0 411.0Q 337.0,413.0  322.5,415.0 T 295.0,417.0 Q 236.0,417.0  197.0,372.5 T 158.0,240.0  L158.0 0 L90.0 0 L90.0 365.0Q 90.0,425.0  86.0,468.0 Z">
</path>
</defs>
<use x="1771.0" y="0" xlink:href="#g114/TT0"/>
<defs>
<path id="g117/TT0" d="M426.0 80.0 L424.0 80.0Q 405.0,40.0  359.5,14.0 T 264.0,-12.0 Q 177.0,-12.0  131.5,40.0 T 86.0,181.0  L86.0 468.0 L154.0 468.0 L154.0 209.0Q 154.0,130.0  182.5,87.5 T 281.0,45.0 Q 319.0,45.0  351.0,65.5 T 403.0,127.0 T 423.0,228.0  L423.0 468.0 L491.0 468.0 L491.0 103.0Q 491.0,43.0  495.0,0  L430.0 0Q 426.0,50.0  426.0,80.0 Z">
</path>
</defs>
<use x="2131.0" y="0" xlink:href="#g117/TT0"/>
<use x="2712.0" y="0" xlink:href="#g97/TT0"/>
<use x="3246.0" y="0" xlink:href="#g114/TT0"/>
<use x="3606.0" y="0" xlink:href="#g121/TT0"/>
<use x="4344.0" y="0" xlink:href="#g50/TT0"/>
<use x="4924.0" y="0" xlink:href="#g54/TT0"/>
<defs>
<path id="g44/TT0" d="M102.0 -140.0 L45.0 -140.0 L112.0 95.0 L183.0 95.0 L102.0 -140.0Z">
</path>
</defs>
<use x="5504.0" y="0" xlink:href="#g44/TT0"/>
<use x="6014.0" y="0" xlink:href="#g50/TT0"/>
<use x="6594.0" y="0" xlink:href="#g48/TT0"/>
<use x="7174.0" y="0" xlink:href="#g50/TT0"/>
<defs>
<path id="g53/TT0" d="M180.0 644.0 L175.0 425.0Q 219.0,441.0  273.0,441.0 Q 339.0,441.0  391.5,413.0 T 473.5,334.5 T 503.0,219.0 Q 503.0,151.0  473.5,97.0 T 390.5,12.5 T 268.0,-18.0 Q 194.0,-18.0  140.0,16.0 T 56.0,111.0  L121.0 140.0Q 140.0,96.0  179.0,70.0 T 264.0,44.0 Q 311.0,44.0  349.0,66.0 T 408.5,126.5 T 430.0,212.0 Q 430.0,289.0  380.5,335.5 T 254.0,382.0 Q 180.0,382.0  107.0,343.0  L114.0 708.0 L475.0 708.0 L475.0 644.0 L180.0 644.0Z">
</path>
</defs>
<use x="7754.0" y="0" xlink:href="#g53/TT0"/>
</g>
<text id="Text_58" x="95.19" y="440.65" font-size="9.0pt" font-family="Avenir Next for SAS" fill="#626f80" text-anchor="middle" opacity="0">
February 26, 2025</text>
<g fill="#626f80" stroke="#626f80" transform="translate(161.56 440.65) scale(0.012 -0.012)">
<use x="0" y="0" xlink:href="#g70/TT0"/>
<use x="562.0" y="0" xlink:href="#g101/TT0"/>
<use x="1134.0" y="0" xlink:href="#g98/TT0"/>
<use x="1771.0" y="0" xlink:href="#g114/TT0"/>
<use x="2131.0" y="0" xlink:href="#g117/TT0"/>
<use x="2712.0" y="0" xlink:href="#g97/TT0"/>
<use x="3246.0" y="0" xlink:href="#g114/TT0"/>
<use x="3606.0" y="0" xlink:href="#g121/TT0"/>
<use x="4344.0" y="0" xlink:href="#g50/TT0"/>
<defs>
<path id="g55/TT0" d="M498.0 642.0 L213.0 0 L132.0 0 L425.0 644.0 L78.0 644.0 L78.0 708.0 L498.0 708.0 L498.0 642.0Z">
</path>
</defs>
<use x="4924.0" y="0" xlink:href="#g55/TT0"/>
<use x="5504.0" y="0" xlink:href="#g44/TT0"/>
<use x="6014.0" y="0" xlink:href="#g50/TT0"/>
<use x="6594.0" y="0" xlink:href="#g48/TT0"/>
<use x="7174.0" y="0" xlink:href="#g50/TT0"/>
<use x="7754.0" y="0" xlink:href="#g53/TT0"/>
</g>
<text id="Text_59" x="211.56" y="440.65" font-size="9.0pt" font-family="Avenir Next for SAS" fill="#626f80" text-anchor="middle" opacity="0">
February 27, 2025</text>
<g fill="#626f80" stroke="#626f80" transform="translate(277.94 440.65) scale(0.012 -0.012)">
<use x="0" y="0" xlink:href="#g70/TT0"/>
<use x="562.0" y="0" xlink:href="#g101/TT0"/>
<use x="1134.0" y="0" xlink:href="#g98/TT0"/>
<use x="1771.0" y="0" xlink:href="#g114/TT0"/>
<use x="2131.0" y="0" xlink:href="#g117/TT0"/>
<use x="2712.0" y="0" xlink:href="#g97/TT0"/>
<use x="3246.0" y="0" xlink:href="#g114/TT0"/>
<use x="3606.0" y="0" xlink:href="#g121/TT0"/>
<use x="4344.0" y="0" xlink:href="#g50/TT0"/>
<use x="4924.0" y="0" xlink:href="#g56/TT0"/>
<use x="5504.0" y="0" xlink:href="#g44/TT0"/>
<use x="6014.0" y="0" xlink:href="#g50/TT0"/>
<use x="6594.0" y="0" xlink:href="#g48/TT0"/>
<use x="7174.0" y="0" xlink:href="#g50/TT0"/>
<use x="7754.0" y="0" xlink:href="#g53/TT0"/>
</g>
<text id="Text_60" x="327.94" y="440.65" font-size="9.0pt" font-family="Avenir Next for SAS" fill="#626f80" text-anchor="middle" opacity="0">
February 28, 2025</text>
<g fill="#626f80" stroke="#626f80" transform="translate(405.31 440.65) scale(0.012 -0.012)">
<defs>
<path id="g77/TT0" d="M444.0 122.0 L445.0 122.0 L682.0 708.0 L792.0 708.0 L792.0 0 L720.0 0 L720.0 615.0 L718.0 615.0 L462.0 0 L424.0 0 L168.0 615.0 L166.0 615.0 L166.0 0 L94.0 0 L94.0 708.0 L204.0 708.0 L444.0 122.0Z">
</path>
</defs>
<use x="0" y="0" xlink:href="#g77/TT0"/>
<use x="886.0" y="0" xlink:href="#g97/TT0"/>
<use x="1420.0" y="0" xlink:href="#g114/TT0"/>
<defs>
<path id="g99/TT0" d="M307.0 423.0Q 254.0,423.0  213.0,398.5 T 150.0,330.5 T 128.0,234.0 Q 128.0,181.0  150.0,138.0 T 212.5,70.5 T 306.0,46.0 Q 387.0,46.0  433.0,107.0  L484.0 69.0Q 418.0,-12.0  306.0,-12.0 Q 232.0,-12.0  175.0,20.0 T 87.0,108.0 T 56.0,234.0 Q 56.0,304.0  87.0,360.0 T 175.0,448.0 T 306.0,480.0 Q 356.0,480.0  403.5,459.0 T 480.0,399.0  L427.0 361.0Q 410.0,388.0  377.5,405.5 T 307.0,423.0 Z">
</path>
</defs>
<use x="1780.0" y="0" xlink:href="#g99/TT0"/>
<use x="2280.0" y="0" xlink:href="#g104/TT0"/>
<defs>
<path id="g49/TT0" d="M358.0 0 L286.0 0 L286.0 619.0 L158.0 510.0 L114.0 560.0 L294.0 708.0 L358.0 708.0 L358.0 0Z">
</path>
</defs>
<use x="3113.0" y="0" xlink:href="#g49/TT0"/>
<use x="3693.0" y="0" xlink:href="#g44/TT0"/>
<use x="4203.0" y="0" xlink:href="#g50/TT0"/>
<use x="4783.0" y="0" xlink:href="#g48/TT0"/>
<use x="5363.0" y="0" xlink:href="#g50/TT0"/>
<use x="5943.0" y="0" xlink:href="#g53/TT0"/>
</g>
<text id="Text_61" x="444.31" y="440.65" font-size="9.0pt" font-family="Avenir Next for SAS" fill="#626f80" text-anchor="middle" opacity="0">
March 1, 2025</text>
<g fill="#626f80" stroke="#626f80" transform="translate(521.69 440.65) scale(0.012 -0.012)">
<use x="0" y="0" xlink:href="#g77/TT0"/>
<use x="886.0" y="0" xlink:href="#g97/TT0"/>
<use x="1420.0" y="0" xlink:href="#g114/TT0"/>
<use x="1780.0" y="0" xlink:href="#g99/TT0"/>
<use x="2280.0" y="0" xlink:href="#g104/TT0"/>
<use x="3113.0" y="0" xlink:href="#g50/TT0"/>
<use x="3693.0" y="0" xlink:href="#g44/TT0"/>
<use x="4203.0" y="0" xlink:href="#g50/TT0"/>
<use x="4783.0" y="0" xlink:href="#g48/TT0"/>
<use x="5363.0" y="0" xlink:href="#g50/TT0"/>
<use x="5943.0" y="0" xlink:href="#g53/TT0"/>
</g>
<text id="Text_62" x="560.69" y="440.65" font-size="9.0pt" font-family="Avenir Next for SAS" fill="#626f80" text-anchor="middle" opacity="0">
March 2, 2025</text>
<g fill="#626f80" stroke="#626f80" transform="translate(638.06 440.65) scale(0.012 -0.012)">
<use x="0" y="0" xlink:href="#g77/TT0"/>
<use x="886.0" y="0" xlink:href="#g97/TT0"/>
<use x="1420.0" y="0" xlink:href="#g114/TT0"/>
<use x="1780.0" y="0" xlink:href="#g99/TT0"/>
<use x="2280.0" y="0" xlink:href="#g104/TT0"/>
<defs>
<path id="g51/TT0" d="M245.0 402.0Q 319.0,402.0  364.5,433.5 T 410.0,532.0 Q 410.0,590.0  369.0,627.5 T 270.0,665.0 Q 226.0,665.0  191.0,643.5 T 135.0,582.0  L74.0 614.0Q 106.0,670.0  157.0,698.0 T 274.0,726.0 Q 331.0,726.0  378.0,703.5 T 453.0,638.0 T 481.0,536.0 Q 481.0,475.0  446.5,432.0 T 358.0,374.0  L358.0 372.0Q 421.0,359.0  461.0,312.0 T 501.0,196.0 Q 501.0,131.0  470.0,82.5 T 387.0,8.0 T 273.0,-18.0 Q 196.0,-18.0  137.5,19.5 T 49.0,127.0  L117.0 152.0Q 135.0,102.0  177.0,73.0 T 273.0,44.0 Q 314.0,44.0  350.0,62.5 T 407.5,115.5 T 429.0,196.0 Q 429.0,271.0  376.0,305.5 T 245.0,340.0  L214.0 340.0 L214.0 402.0 L245.0 402.0Z">
</path>
</defs>
<use x="3113.0" y="0" xlink:href="#g51/TT0"/>
<use x="3693.0" y="0" xlink:href="#g44/TT0"/>
<use x="4203.0" y="0" xlink:href="#g50/TT0"/>
<use x="4783.0" y="0" xlink:href="#g48/TT0"/>
<use x="5363.0" y="0" xlink:href="#g50/TT0"/>
<use x="5943.0" y="0" xlink:href="#g53/TT0"/>
</g>
<text id="Text_63" x="677.06" y="440.65" font-size="9.0pt" font-family="Avenir Next for SAS" fill="#626f80" text-anchor="middle" opacity="0">
March 3, 2025</text>
<g fill="#626f80" stroke="#626f80" transform="translate(754.44 440.65) scale(0.012 -0.012)">
<use x="0" y="0" xlink:href="#g77/TT0"/>
<use x="886.0" y="0" xlink:href="#g97/TT0"/>
<use x="1420.0" y="0" xlink:href="#g114/TT0"/>
<use x="1780.0" y="0" xlink:href="#g99/TT0"/>
<use x="2280.0" y="0" xlink:href="#g104/TT0"/>
<use x="3113.0" y="0" xlink:href="#g52/TT0"/>
<use x="3693.0" y="0" xlink:href="#g44/TT0"/>
<use x="4203.0" y="0" xlink:href="#g50/TT0"/>
<use x="4783.0" y="0" xlink:href="#g48/TT0"/>
<use x="5363.0" y="0" xlink:href="#g50/TT0"/>
<use x="5943.0" y="0" xlink:href="#g53/TT0"/>
</g>
<text id="Text_64" x="793.44" y="440.65" font-size="9.0pt" font-family="Avenir Next for SAS" fill="#626f80" text-anchor="middle" opacity="0">
March 4, 2025</text>
<g fill="#626f80" stroke="#626f80" transform="translate(870.81 440.65) scale(0.012 -0.012)">
<use x="0" y="0" xlink:href="#g77/TT0"/>
<use x="886.0" y="0" xlink:href="#g97/TT0"/>
<use x="1420.0" y="0" xlink:href="#g114/TT0"/>
<use x="1780.0" y="0" xlink:href="#g99/TT0"/>
<use x="2280.0" y="0" xlink:href="#g104/TT0"/>
<use x="3113.0" y="0" xlink:href="#g53/TT0"/>
<use x="3693.0" y="0" xlink:href="#g44/TT0"/>
<use x="4203.0" y="0" xlink:href="#g50/TT0"/>
<use x="4783.0" y="0" xlink:href="#g48/TT0"/>
<use x="5363.0" y="0" xlink:href="#g50/TT0"/>
<use x="5943.0" y="0" xlink:href="#g53/TT0"/>
</g>
<text id="Text_65" x="909.81" y="440.65" font-size="9.0pt" font-family="Avenir Next for SAS" fill="#626f80" text-anchor="middle" opacity="0">
March 5, 2025</text>
</g>
<path d="M95.19 420.0L95.19 426.0Z" stroke="#2a3037" fill="none">
</path>
<path d="M211.56 420.0L211.56 426.0Z" stroke="#2a3037" fill="none">
</path>
<path d="M327.94 420.0L327.94 426.0Z" stroke="#2a3037" fill="none">
</path>
<path d="M444.31 420.0L444.31 426.0Z" stroke="#2a3037" fill="none">
</path>
<path d="M560.69 420.0L560.69 426.0Z" stroke="#2a3037" fill="none">
</path>
<path d="M677.06 420.0L677.06 426.0Z" stroke="#2a3037" fill="none">
</path>
<path d="M793.44 420.0L793.44 426.0Z" stroke="#2a3037" fill="none">
</path>
<path d="M909.81 420.0L909.81 426.0Z" stroke="#2a3037" fill="none">
</path>
<g fill="#2a3037" stroke="#2a3037" transform="translate(487.5 465.44) scale(0.014 -0.014)">
<defs>
<path id="g68/TT1" d="M329.0 708.0Q 430.0,708.0  518.5,673.0 T 663.5,558.5 T 720.0,354.0 Q 720.0,237.0  663.0,157.0 T 516.5,38.5 T 329.0,0  L78.0 0 L78.0 708.0 L329.0 708.0Z M585.0 354.0Q 585.0,492.0  506.0,546.0 T 309.0,600.0  L204.0 600.0 L204.0 110.0 L309.0 110.0Q 424.0,110.0  504.5,166.5 T 585.0,354.0 Z">
</path>
</defs>
<use x="0" y="0" xlink:href="#g68/TT1"/>
<defs>
<path id="g97/TT1" d="M367.0 61.0Q 349.0,29.0  308.5,8.5 T 218.0,-12.0 Q 175.0,-12.0  134.0,3.0 T 65.5,51.5 T 38.0,137.0 Q 38.0,233.0  131.0,266.5 T 368.0,300.0  L368.0 312.0Q 368.0,354.0  337.0,377.0 T 258.0,400.0 Q 221.0,400.0  186.0,384.5 T 127.0,345.0  L65.0 418.0Q 105.0,455.0  158.5,474.5 T 268.0,494.0 Q 385.0,494.0  433.5,436.0 T 482.0,292.0  L482.0 0 L370.0 0 L370.0 61.0 L367.0 61.0Z M341.0 219.0Q 158.0,219.0  158.0,139.0 Q 158.0,107.0  182.5,93.0 T 242.0,79.0 Q 303.0,79.0  335.5,111.5 T 368.0,202.0  L368.0 219.0 L341.0 219.0Z">
</path>
</defs>
<use x="764.0" y="0" xlink:href="#g97/TT1"/>
<defs>
<path id="g116/TT1" d="M3.0 480.0 L87.0 480.0 L87.0 619.0 L205.0 619.0 L205.0 480.0 L325.0 480.0 L325.0 384.0 L205.0 384.0 L205.0 161.0Q 205.0,125.0  218.0,106.0 T 268.0,87.0 Q 299.0,87.0  319.0,97.0  L323.0 3.0Q 289.0,-10.0  243.0,-10.0 Q 155.0,-10.0  121.0,35.5 T 87.0,160.0  L87.0 384.0 L3.0 384.0 L3.0 480.0Z">
</path>
</defs>
<use x="1314.0" y="0" xlink:href="#g116/TT1"/>
<defs>
<path id="g101/TT1" d="M529.0 202.0 L164.0 202.0Q 168.0,152.0  208.0,118.0 T 301.0,84.0 Q 384.0,84.0  428.0,146.0  L508.0 82.0Q 437.0,-14.0  302.0,-14.0 Q 228.0,-14.0  169.5,16.5 T 77.5,104.0 T 44.0,237.0 Q 44.0,313.0  77.0,371.5 T 168.0,462.0 T 298.0,494.0 Q 402.0,494.0  466.0,427.0 T 530.0,234.0 Q 530.0,213.0  529.0,202.0 Z M297.0 404.0Q 244.0,404.0  206.0,371.0 T 164.0,288.0  L410.0 288.0Q 410.0,338.0  381.0,371.0 T 297.0,404.0 Z">
</path>
</defs>
<use x="1654.0" y="0" xlink:href="#g101/TT1"/>
</g>
<text id="Text_66" x="502.5" y="465.44" font-size="10.5pt" font-family="Avenir Next for SAS" font-weight="bold" fill="#2a3037" text-anchor="middle" opacity="0">
Date</text>
<path d="M0 244.0L968.0 244.0Z" stroke="#2a3037" fill="none">
</path>
<path d="M37.0 420.0L968.0 420.0Z" stroke="#2a3037" fill="none">
</path>
<defs>
<clipPath id="ClipPath7">
<rect x="0" y="32" width="968" height="437">
</rect>
</clipPath>
</defs>
<g clip-path="url(#ClipPath7)">
<path d="M0 420.0L37.0 420.0Z" stroke="#2a3037" fill="none">
</path>
</g>
</g>
<g transform=" translate(16.0 -16.0)">
</g>
<g transform=" translate(16.0 -16.0)">
</g>
<g transform=" translate(16.0 -16.0)">
<rect x="64.0" y="473.3" rx="5" ry="5" width="839.2" height="26.7" fill="#ffffff">
</rect>
<defs>
<linearGradient id="gradient0" x1="0%" y1="100%" x2="0%" y2="0%">
<stop offset="0%" stop-color="#33a3ff" stop-opacity="1.0">
</stop>
<stop offset="100%" stop-color="#33a3ff" stop-opacity="1.0">
</stop>
</linearGradient>
</defs>
<rect x="70.0" y="482.15" width="9.0" height="9.0" fill="url(#gradient0)">
</rect>
<g fill="#626f80" stroke="#626f80" transform="translate(83.0 490.95) scale(0.012 -0.012)">
<use x="0" y="0" xlink:href="#g49/TT0"/>
<use x="580.0" y="0" xlink:href="#g48/TT0"/>
<use x="1160.0" y="0" xlink:href="#g48/TT0"/>
<defs>
<path id="g45/TT0" d="M272.0 214.0 L48.0 214.0 L48.0 271.0 L272.0 271.0 L272.0 214.0Z">
</path>
</defs>
<use x="1740.0" y="0" xlink:href="#g45/TT0"/>
<use x="2060.0" y="0" xlink:href="#g49/TT0"/>
<use x="2640.0" y="0" xlink:href="#g53/TT0"/>
<use x="3220.0" y="0" xlink:href="#g48/TT0"/>
<defs>
<path id="g72/TT0" d="M94.0 708.0 L166.0 708.0 L166.0 401.0 L552.0 401.0 L552.0 708.0 L624.0 708.0 L624.0 0 L552.0 0 L552.0 335.0 L166.0 335.0 L166.0 0 L94.0 0 L94.0 708.0Z">
</path>
</defs>
<use x="4050.0" y="0" xlink:href="#g72/TT0"/>
<defs>
<path id="g122/TT0" d="M401.0 420.0 L121.0 59.0 L411.0 59.0 L411.0 0 L31.0 0 L31.0 48.0 L310.0 411.0 L45.0 411.0 L45.0 468.0 L401.0 468.0 L401.0 420.0Z">
</path>
</defs>
<use x="4768.0" y="0" xlink:href="#g122/TT0"/>
</g>
<text x="83.0" y="490.95" font-size="9.0pt" font-family="Avenir Next for SAS" fill="#626f80" text-anchor="start" opacity="0">
100-150 Hz</text>
<defs>
<linearGradient id="gradient1" x1="0%" y1="100%" x2="0%" y2="0%">
<stop offset="0%" stop-color="#ffcc32" stop-opacity="1.0">
</stop>
<stop offset="100%" stop-color="#ffcc32" stop-opacity="1.0">
</stop>
</linearGradient>
</defs>
<rect x="153.52" y="482.15" width="9.0" height="9.0" fill="url(#gradient1)">
</rect>
<g fill="#626f80" stroke="#626f80" transform="translate(166.52 490.95) scale(0.012 -0.012)">
<use x="0" y="0" xlink:href="#g49/TT0"/>
<use x="580.0" y="0" xlink:href="#g53/TT0"/>
<use x="1160.0" y="0" xlink:href="#g48/TT0"/>
<use x="1740.0" y="0" xlink:href="#g45/TT0"/>
<use x="2060.0" y="0" xlink:href="#g50/TT0"/>
<use x="2640.0" y="0" xlink:href="#g48/TT0"/>
<use x="3220.0" y="0" xlink:href="#g48/TT0"/>
<use x="4050.0" y="0" xlink:href="#g72/TT0"/>
<use x="4768.0" y="0" xlink:href="#g122/TT0"/>
</g>
<text x="166.52" y="490.95" font-size="9.0pt" font-family="Avenir Next for SAS" fill="#626f80" text-anchor="start" opacity="0">
150-200 Hz</text>
<defs>
<linearGradient id="gradient2" x1="0%" y1="100%" x2="0%" y2="0%">
<stop offset="0%" stop-color="#9471ff" stop-opacity="1.0">
</stop>
<stop offset="100%" stop-color="#9471ff" stop-opacity="1.0">
</stop>
</linearGradient>
</defs>
<rect x="237.04" y="482.15" width="9.0" height="9.0" fill="url(#gradient2)">
</rect>
<g fill="#626f80" stroke="#626f80" transform="translate(250.04 490.95) scale(0.012 -0.012)">
<use x="0" y="0" xlink:href="#g50/TT0"/>
<use x="580.0" y="0" xlink:href="#g48/TT0"/>
<use x="1160.0" y="0" xlink:href="#g48/TT0"/>
<use x="1740.0" y="0" xlink:href="#g45/TT0"/>
<use x="2060.0" y="0" xlink:href="#g50/TT0"/>
<use x="2640.0" y="0" xlink:href="#g53/TT0"/>
<use x="3220.0" y="0" xlink:href="#g48/TT0"/>
<use x="4050.0" y="0" xlink:href="#g72/TT0"/>
<use x="4768.0" y="0" xlink:href="#g122/TT0"/>
</g>
<text x="250.04" y="490.95" font-size="9.0pt" font-family="Avenir Next for SAS" fill="#626f80" text-anchor="start" opacity="0">
200-250 Hz</text>
<defs>
<linearGradient id="gradient3" x1="0%" y1="100%" x2="0%" y2="0%">
<stop offset="0%" stop-color="#ff8224" stop-opacity="1.0">
</stop>
<stop offset="100%" stop-color="#ff8224" stop-opacity="1.0">
</stop>
</linearGradient>
</defs>
<rect x="320.56" y="482.15" width="9.0" height="9.0" fill="url(#gradient3)">
</rect>
<g fill="#626f80" stroke="#626f80" transform="translate(333.56 490.95) scale(0.012 -0.012)">
<use x="0" y="0" xlink:href="#g50/TT0"/>
<use x="580.0" y="0" xlink:href="#g53/TT0"/>
<use x="1160.0" y="0" xlink:href="#g48/TT0"/>
<use x="1740.0" y="0" xlink:href="#g45/TT0"/>
<use x="2060.0" y="0" xlink:href="#g51/TT0"/>
<use x="2640.0" y="0" xlink:href="#g48/TT0"/>
<use x="3220.0" y="0" xlink:href="#g48/TT0"/>
<use x="4050.0" y="0" xlink:href="#g72/TT0"/>
<use x="4768.0" y="0" xlink:href="#g122/TT0"/>
</g>
<text x="333.56" y="490.95" font-size="9.0pt" font-family="Avenir Next for SAS" fill="#626f80" text-anchor="start" opacity="0">
250-300 Hz</text>
<defs>
<linearGradient id="gradient4" x1="0%" y1="100%" x2="0%" y2="0%">
<stop offset="0%" stop-color="#2ad1d1" stop-opacity="1.0">
</stop>
<stop offset="100%" stop-color="#2ad1d1" stop-opacity="1.0">
</stop>
</linearGradient>
</defs>
<rect x="404.08" y="482.15" width="9.0" height="9.0" fill="url(#gradient4)">
</rect>
<g fill="#626f80" stroke="#626f80" transform="translate(417.08 490.95) scale(0.012 -0.012)">
<use x="0" y="0" xlink:href="#g51/TT0"/>
<use x="580.0" y="0" xlink:href="#g48/TT0"/>
<use x="1160.0" y="0" xlink:href="#g48/TT0"/>
<use x="1740.0" y="0" xlink:href="#g45/TT0"/>
<use x="2060.0" y="0" xlink:href="#g51/TT0"/>
<use x="2640.0" y="0" xlink:href="#g53/TT0"/>
<use x="3220.0" y="0" xlink:href="#g48/TT0"/>
<use x="4050.0" y="0" xlink:href="#g72/TT0"/>
<use x="4768.0" y="0" xlink:href="#g122/TT0"/>
</g>
<text x="417.08" y="490.95" font-size="9.0pt" font-family="Avenir Next for SAS" fill="#626f80" text-anchor="start" opacity="0">
300-350 Hz</text>
<defs>
<linearGradient id="gradient5" x1="0%" y1="100%" x2="0%" y2="0%">
<stop offset="0%" stop-color="#dd5757" stop-opacity="1.0">
</stop>
<stop offset="100%" stop-color="#dd5757" stop-opacity="1.0">
</stop>
</linearGradient>
</defs>
<rect x="487.6" y="482.15" width="9.0" height="9.0" fill="url(#gradient5)">
</rect>
<g fill="#626f80" stroke="#626f80" transform="translate(500.6 490.95) scale(0.012 -0.012)">
<use x="0" y="0" xlink:href="#g51/TT0"/>
<use x="580.0" y="0" xlink:href="#g53/TT0"/>
<use x="1160.0" y="0" xlink:href="#g48/TT0"/>
<use x="1740.0" y="0" xlink:href="#g45/TT0"/>
<use x="2060.0" y="0" xlink:href="#g52/TT0"/>
<use x="2640.0" y="0" xlink:href="#g48/TT0"/>
<use x="3220.0" y="0" xlink:href="#g48/TT0"/>
<use x="4050.0" y="0" xlink:href="#g72/TT0"/>
<use x="4768.0" y="0" xlink:href="#g122/TT0"/>
</g>
<text x="500.6" y="490.95" font-size="9.0pt" font-family="Avenir Next for SAS" fill="#626f80" text-anchor="start" opacity="0">
350-400 Hz</text>
<defs>
<linearGradient id="gradient6" x1="0%" y1="100%" x2="0%" y2="0%">
<stop offset="0%" stop-color="#15b57b" stop-opacity="1.0">
</stop>
<stop offset="100%" stop-color="#15b57b" stop-opacity="1.0">
</stop>
</linearGradient>
</defs>
<rect x="571.12" y="482.15" width="9.0" height="9.0" fill="url(#gradient6)">
</rect>
<g fill="#626f80" stroke="#626f80" transform="translate(584.12 490.95) scale(0.012 -0.012)">
<use x="0" y="0" xlink:href="#g52/TT0"/>
<use x="580.0" y="0" xlink:href="#g48/TT0"/>
<use x="1160.0" y="0" xlink:href="#g48/TT0"/>
<use x="1740.0" y="0" xlink:href="#g45/TT0"/>
<use x="2060.0" y="0" xlink:href="#g52/TT0"/>
<use x="2640.0" y="0" xlink:href="#g53/TT0"/>
<use x="3220.0" y="0" xlink:href="#g48/TT0"/>
<use x="4050.0" y="0" xlink:href="#g72/TT0"/>
<use x="4768.0" y="0" xlink:href="#g122/TT0"/>
</g>
<text x="584.12" y="490.95" font-size="9.0pt" font-family="Avenir Next for SAS" fill="#626f80" text-anchor="start" opacity="0">
400-450 Hz</text>
<defs>
<linearGradient id="gradient7" x1="0%" y1="100%" x2="0%" y2="0%">
<stop offset="0%" stop-color="#ff6fbd" stop-opacity="1.0">
</stop>
<stop offset="100%" stop-color="#ff6fbd" stop-opacity="1.0">
</stop>
</linearGradient>
</defs>
<rect x="654.64" y="482.15" width="9.0" height="9.0" fill="url(#gradient7)">
</rect>
<g fill="#626f80" stroke="#626f80" transform="translate(667.64 490.95) scale(0.012 -0.012)">
<use x="0" y="0" xlink:href="#g52/TT0"/>
<use x="580.0" y="0" xlink:href="#g53/TT0"/>
<use x="1160.0" y="0" xlink:href="#g48/TT0"/>
<use x="1740.0" y="0" xlink:href="#g45/TT0"/>
<use x="2060.0" y="0" xlink:href="#g53/TT0"/>
<use x="2640.0" y="0" xlink:href="#g48/TT0"/>
<use x="3220.0" y="0" xlink:href="#g48/TT0"/>
<use x="4050.0" y="0" xlink:href="#g72/TT0"/>
<use x="4768.0" y="0" xlink:href="#g122/TT0"/>
</g>
<text x="667.64" y="490.95" font-size="9.0pt" font-family="Avenir Next for SAS" fill="#626f80" text-anchor="start" opacity="0">
450-500 Hz</text>
<defs>
<linearGradient id="gradient8" x1="0%" y1="100%" x2="0%" y2="0%">
<stop offset="0%" stop-color="#72e2ff" stop-opacity="1.0">
</stop>
<stop offset="100%" stop-color="#72e2ff" stop-opacity="1.0">
</stop>
</linearGradient>
</defs>
<rect x="738.16" y="482.15" width="9.0" height="9.0" fill="url(#gradient8)">
</rect>
<g fill="#626f80" stroke="#626f80" transform="translate(751.16 490.95) scale(0.012 -0.012)">
<use x="0" y="0" xlink:href="#g53/TT0"/>
<use x="580.0" y="0" xlink:href="#g48/TT0"/>
<use x="1160.0" y="0" xlink:href="#g48/TT0"/>
<use x="1740.0" y="0" xlink:href="#g45/TT0"/>
<use x="2060.0" y="0" xlink:href="#g53/TT0"/>
<use x="2640.0" y="0" xlink:href="#g53/TT0"/>
<use x="3220.0" y="0" xlink:href="#g48/TT0"/>
<use x="4050.0" y="0" xlink:href="#g72/TT0"/>
<use x="4768.0" y="0" xlink:href="#g122/TT0"/>
</g>
<text x="751.16" y="490.95" font-size="9.0pt" font-family="Avenir Next for SAS" fill="#626f80" text-anchor="start" opacity="0">
500-550 Hz</text>
<defs>
<linearGradient id="gradient9" x1="0%" y1="100%" x2="0%" y2="0%">
<stop offset="0%" stop-color="#ffff71" stop-opacity="1.0">
</stop>
<stop offset="100%" stop-color="#ffff71" stop-opacity="1.0">
</stop>
</linearGradient>
</defs>
<rect x="821.68" y="482.15" width="9.0" height="9.0" fill="url(#gradient9)">
</rect>
<g fill="#626f80" stroke="#626f80" transform="translate(834.68 490.95) scale(0.012 -0.012)">
<use x="0" y="0" xlink:href="#g53/TT0"/>
<use x="580.0" y="0" xlink:href="#g53/TT0"/>
<use x="1160.0" y="0" xlink:href="#g48/TT0"/>
<use x="1740.0" y="0" xlink:href="#g45/TT0"/>
<use x="2060.0" y="0" xlink:href="#g54/TT0"/>
<use x="2640.0" y="0" xlink:href="#g48/TT0"/>
<use x="3220.0" y="0" xlink:href="#g48/TT0"/>
<use x="4050.0" y="0" xlink:href="#g72/TT0"/>
<use x="4768.0" y="0" xlink:href="#g122/TT0"/>
</g>
<text x="834.68" y="490.95" font-size="9.0pt" font-family="Avenir Next for SAS" fill="#626f80" text-anchor="start" opacity="0">
550-600 Hz</text>
</g>
</g>
</svg>
