<svg xmlns="http://www.w3.org/2000/svg" xmlns:xlink="http://www.w3.org/1999/xlink" version="1.1" width="1000" height="500" viewBox="0 0 1000 500">
<rect x="0" y="0" width="1000" height="500" fill="#ffffff">
</rect>
<g>
<rect x="0" y="0" rx="5" ry="5" width="1000.0" height="500.0" fill="#ffffff" opacity="0">
</rect>
<rect x="0" y="0" rx="5" ry="5" width="1000.0" height="500.0" fill="#ffffff" opacity="0">
</rect>
<rect x="0" y="0" rx="5" ry="5" width="1000.0" height="500.0" fill="#ffffff" opacity="0">
</rect>
<rect x="0" y="0" rx="5" ry="5" width="1000.0" height="500.0" fill="#ffffff" opacity="0">
</rect>
<g transform=" translate(16.0 -16.0)">
<defs>
<clipPath id="ClipPath0">
<rect x="46" y="46" width="925" height="366">
</rect>
</clipPath>
</defs>
<g clip-path="url(#ClipPath0)">
<defs>
<clipPath id="ClipPath1">
<rect x="46" y="48" width="923" height="364">
</rect>
</clipPath>
</defs>
<g clip-path="url(#ClipPath1)">
<g transform="">
<polyline id="Polyline_186" points="52.0,260.55  57.23,258.86  62.46,255.61  67.69,250.81  72.92,246.44  78.15,249.8  83.38,256.78  88.61,266.75  93.84,277.08  99.07,284.77  104.3,296.99  109.53,299.93  114.76,295.23  119.99,293.97  125.22,287.68  130.45,279.79  135.68,271.66  140.91,266.11  146.14,265.78  151.37,262.28  156.6,258.9  161.83,244.96  167.06,227.27  172.29,215.55  177.52,206.88  182.75,197.62  187.98,185.22  193.21,174.27  198.44,163.18  203.67,154.75  208.9,151.99  214.13,150.69  219.36,145.16  224.59,138.95  229.82,133.32  235.05,129.89  240.28,125.93  245.51,122.3  250.74,118.76  255.97,108.69  261.2,94.85  266.43,89.1  271.66,90.72  276.89,91.59  282.11,88.1  287.34,80.08  292.57,74.81  297.8,72.47  303.03,74.61  308.26,75.73  313.49,76.26  318.72,75.52  323.95,72.79  329.18,79.15  334.41,88.4  339.64,97.74  344.87,105.02  350.1,105.82  355.33,109.42  360.56,114.46  365.79,120.59  371.02,127.08  376.25,128.27  381.48,125.52  386.71,124.09  391.94,122.72  397.17,131.7  402.4,141.28  407.63,144.44  412.86,141.73  418.09,140.21  423.32,144.33  428.55,149.03  433.78,151.69  439.01,152.04  444.24,153.01  449.47,154.32  454.7,149.79  459.93,157.25  465.16,165.7  470.39,176.35  475.62,178.77  480.85,175.72  486.08,171.32  491.31,179.87  496.54,184.49  501.77,189.14  507.0,185.67  512.23,182.12  517.46,183.83  522.69,192.64  527.92,200.39  533.15,204.93  538.38,204.72  543.61,205.25  548.84,210.24  554.07,219.86  559.3,226.88  564.53,232.36  569.76,235.12  574.99,234.47  580.22,239.65  585.45,246.87  590.68,254.1  595.91,257.27  601.14,254.4  606.37,252.42  611.6,252.48  616.83,254.37  622.06,255.26  627.29,253.71  632.52,249.49  637.75,244.82  642.98,247.58  648.21,256.66  653.44,260.38  658.67,259.51  663.9,256.54  669.13,255.01  674.36,256.32  679.59,258.34  684.82,263.0  690.05,265.95  695.28,268.55  700.51,268.73  705.74,275.7  710.97,289.64  716.2,302.52  721.43,306.73  726.66,306.85  731.89,308.52  737.11,313.05  742.34,319.15  747.57,325.94  752.8,331.25  758.03,332.65  763.26,333.86  768.49,340.31  773.72,351.26  778.95,360.46  784.18,366.44  789.41,367.14  794.64,366.72  799.87,367.95  805.1,373.9  810.33,379.63  815.56,382.27  820.79,375.83  826.02,373.71  831.25,371.43  836.48,374.94  841.71,375.13  846.94,371.13  852.17,362.34  857.4,358.86  862.63,359.04  867.86,356.9  873.09,360.54  878.32,360.95  883.55,359.19  888.78,355.8  894.01,355.65  899.24,361.64  904.47,366.13  909.7,365.98  914.93,364.99  920.16,367.77  925.39,371.62  930.62,377.51  935.85,384.83  941.08,388.25  946.31,388.12  951.54,389.39  956.77,391.19  962.0,395.58 " fill="none" stroke="#287fc7" stroke-width="3.0">
</polyline>
</g>
<g transform="">
<polyline id="Polyline_537" points="52.0,260.24  57.23,258.91  62.46,256.34  67.69,253.33  72.92,246.44  78.15,249.8  83.38,256.78  88.61,266.75  93.84,277.08  99.07,284.77  104.3,296.99  109.53,299.93  114.76,295.23  119.99,293.97  125.22,287.68  130.45,279.79  135.68,271.66  140.91,266.11  146.14,265.78  151.37,262.28  156.6,258.9  161.83,244.96  167.06,227.27  172.29,215.55  177.52,206.88  182.75,197.62  187.98,185.22  193.21,174.27  198.44,163.18  203.67,154.75  208.9,151.99  214.13,150.69  219.36,145.16  224.59,138.95  229.82,133.32  235.05,129.89  240.28,125.93  245.51,122.3  250.74,118.76  255.97,108.69  261.2,94.85  266.43,89.1  271.66,90.72  276.89,91.59  282.11,88.1  287.34,80.08  292.57,74.81  297.8,72.47  303.03,74.61  308.26,75.73  313.49,76.26  318.72,75.52  323.95,72.79  329.18,79.15  334.41,88.4  339.64,97.74  344.87,105.02  350.1,105.82  355.33,109.42  360.56,114.46  365.79,120.59  371.02,127.08  376.25,128.27  381.48,125.52  386.71,124.09  391.94,122.72  397.17,131.7  402.4,141.28  407.63,144.44  412.86,141.73  418.09,140.21  423.32,144.33  428.55,149.03  433.78,151.69  439.01,152.04  444.24,153.01  449.47,154.32  454.7,149.79  459.93,157.25  465.16,165.7  470.39,176.35  475.62,178.77  480.85,175.72  486.08,171.32  491.31,179.87  496.54,184.49  501.77,189.14  507.0,185.67  512.23,183.87  517.46,185.67  522.69,192.43  527.92,199.93  533.15,206.0  538.38,206.45  543.61,207.21  548.84,212.52  554.07,221.66  559.3,229.38  564.53,235.21  569.76,238.09  574.99,237.49  580.22,242.39  585.45,249.52  590.68,257.11  595.91,259.35  601.14,257.09  606.37,255.57  611.6,256.07  616.83,257.52  622.06,259.09  627.29,257.04  632.52,253.22  637.75,248.49  642.98,251.3  648.21,259.31  653.44,262.83  658.67,262.66  663.9,259.96  669.13,258.28  674.36,259.44  679.59,261.6  684.82,266.06  690.05,268.06  695.28,271.07  700.51,271.28  705.74,278.14  710.97,292.34  716.2,305.45  721.43,309.51  726.66,309.78  731.89,310.81  737.11,315.42  742.34,321.72  747.57,328.14  752.8,332.97  758.03,334.57  763.26,335.59  768.49,342.21  773.72,353.41  778.95,362.88  784.18,367.67  789.41,368.71  794.64,367.99  799.87,368.98  805.1,375.23  810.33,381.23  815.56,383.79  820.79,377.97  826.02,375.04  831.25,373.41  836.48,376.7  841.71,376.29  846.94,372.11  852.17,362.95  857.4,359.53  862.63,358.49  867.86,356.59  873.09,360.41  878.32,360.39  883.55,358.05  888.78,355.15  894.01,354.23  899.24,359.85  904.47,364.88  909.7,364.74  914.93,364.92  920.16,367.82  925.39,371.52  930.62,378.24  935.85,385.86  941.08,389.35  946.31,389.39  951.54,390.2  956.77,391.52  962.0,394.99 " fill="none" stroke="#b7b7b7" stroke-width="3.0" stroke-dasharray="4,4" opacity="0.75">
</polyline>
</g>
<g transform="">
<polygon points="52.0,261.12  57.23,259.06  62.46,258.4  67.69,260.48  512.23,188.79  517.46,190.88  522.69,193.03  527.92,201.24  533.15,209.04  538.38,211.34  543.61,212.77  548.84,218.99  554.07,226.76  559.3,236.45  564.53,243.26  569.76,246.46  574.99,246.06  580.22,250.13  585.45,257.04  590.68,265.59  595.91,265.23  601.14,264.7  606.37,264.48  611.6,266.2  616.83,266.45  622.06,269.93  627.29,266.44  632.52,263.78  637.75,258.88  642.98,261.84  648.21,266.8  653.44,269.75  658.67,271.55  663.9,269.64  669.13,267.52  674.36,268.25  679.59,270.81  684.82,274.69  690.05,274.01  695.28,278.19  700.51,278.49  705.74,285.06  710.97,299.97  716.2,313.75  721.43,317.39  726.66,318.07  731.89,317.3  737.11,322.15  742.34,329.01  747.57,334.39  752.8,337.82  758.03,340.01  763.26,340.46  768.49,347.58  773.72,359.49  778.95,369.75  784.18,371.13  789.41,373.17  794.64,371.58  799.87,371.88  805.1,378.99  810.33,385.75  815.56,388.08  820.79,384.03  826.02,378.81  831.25,379.04  836.48,381.69  841.71,379.56  846.94,374.89  852.17,364.68  857.4,361.41  862.63,360.04  867.86,357.48  873.09,360.78  878.32,361.97  883.55,361.29  888.78,356.98  894.01,358.25  899.24,364.92  904.47,368.41  909.7,368.23  914.93,365.13  920.16,367.99  925.39,371.8  930.62,380.31  935.85,388.77  941.08,392.48  946.31,392.99  951.54,392.5  956.77,392.45  962.0,396.64  962.0,393.34  956.77,390.59  951.54,387.9  946.31,385.79  941.08,386.23  935.85,382.96  930.62,376.17  925.39,371.25  920.16,367.66  914.93,364.71  909.7,361.26  904.47,361.34  899.24,354.77  894.01,350.21  888.78,353.33  883.55,354.81  878.32,358.82  873.09,360.03  867.86,355.69  862.63,356.94  857.4,357.64  852.17,361.23  846.94,369.33  841.71,373.01  836.48,371.71  831.25,367.79  826.02,371.27  820.79,371.92  815.56,379.5  810.33,376.71  805.1,371.47  799.87,366.07  794.64,364.4  789.41,364.26  784.18,364.2  778.95,356.02  773.72,347.33  768.49,336.84  763.26,330.71  758.03,329.14  752.8,328.12  747.57,321.9  742.34,314.44  737.11,308.7  731.89,304.32  726.66,301.49  721.43,301.63  716.2,297.15  710.97,284.71  705.74,271.23  700.51,264.07  695.28,263.94  690.05,262.1  684.82,257.42  679.59,252.39  674.36,250.63  669.13,249.03  663.9,250.28  658.67,253.76  653.44,255.9  648.21,251.81  642.98,240.77  637.75,238.11  632.52,242.66  627.29,247.63  622.06,248.26  616.83,248.6  611.6,245.93  606.37,246.66  601.14,249.49  595.91,253.47  590.68,248.62  585.45,242.0  580.22,234.65  574.99,228.93  569.76,229.71  564.53,227.15  559.3,222.3  554.07,216.56  548.84,206.06  543.61,201.65  538.38,201.56  533.15,202.96  527.92,198.61  522.69,191.84  517.46,180.46  512.23,178.94  67.69,246.18  62.46,254.28  57.23,258.76  52.0,259.36 " fill="#d1d1d1" fill-opacity="0.6">
</polygon>
</g>
</g>
<path d="M46.0 406.0L969.0 406.0" stroke="#2a3037" stroke-dasharray="1,2" fill="none" opacity="0.4">
</path>
<path d="M46.0 318.25L969.0 318.25" stroke="#2a3037" stroke-dasharray="1,2" fill="none" opacity="0.4">
</path>
<path d="M46.0 230.5L969.0 230.5" stroke="#2a3037" stroke-dasharray="1,2" fill="none" opacity="0.4">
</path>
<path d="M46.0 142.75L969.0 142.75" stroke="#2a3037" stroke-dasharray="1,2" fill="none" opacity="0.4">
</path>
<path d="M46.0 55.0L969.0 55.0" stroke="#2a3037" stroke-dasharray="1,2" fill="none" opacity="0.4">
</path>
<path d="M52.0 412.0L52.0 48.0" stroke="#2a3037" stroke-dasharray="1,2" fill="none" opacity="0.4">
</path>
<path d="M177.52 412.0L177.52 48.0" stroke="#2a3037" stroke-dasharray="1,2" fill="none" opacity="0.4">
</path>
<path d="M303.03 412.0L303.03 48.0" stroke="#2a3037" stroke-dasharray="1,2" fill="none" opacity="0.4">
</path>
<path d="M428.55 412.0L428.55 48.0" stroke="#2a3037" stroke-dasharray="1,2" fill="none" opacity="0.4">
</path>
<path d="M554.07 412.0L554.07 48.0" stroke="#2a3037" stroke-dasharray="1,2" fill="none" opacity="0.4">
</path>
<path d="M679.59 412.0L679.59 48.0" stroke="#2a3037" stroke-dasharray="1,2" fill="none" opacity="0.4">
</path>
<path d="M805.1 412.0L805.1 48.0" stroke="#2a3037" stroke-dasharray="1,2" fill="none" opacity="0.4">
</path>
<path d="M930.62 412.0L930.62 48.0" stroke="#2a3037" stroke-dasharray="1,2" fill="none" opacity="0.4">
</path>
</g>
<defs>
<clipPath id="ClipPath2">
<rect x="0" y="49" width="46" height="363">
</rect>
</clipPath>
</defs>
<g clip-path="url(#ClipPath2)">
<g fill="#626f80" stroke="#626f80" transform="translate(-0.76 409.3) scale(0.012 -0.012)">
<defs>
<path id="g49/TT0" d="M358.0 0 L286.0 0 L286.0 619.0 L158.0 510.0 L114.0 560.0 L294.0 708.0 L358.0 708.0 L358.0 0Z">
</path>
</defs>
<use x="0" y="0" xlink:href="#g49/TT0"/>
<defs>
<path id="g48/TT0" d="M522.0 353.0Q 522.0,195.0  467.0,88.5 T 290.0,-18.0 Q 167.0,-18.0  112.5,88.5 T 58.0,353.0 Q 58.0,512.0  112.5,619.0 T 290.0,726.0 Q 412.0,726.0  467.0,618.5 T 522.0,353.0 Z M131.0 353.0Q 131.0,226.0  167.5,135.0 T 290.0,44.0 Q 375.0,44.0  412.0,135.5 T 449.0,353.0 Q 449.0,480.0  412.0,572.5 T 290.0,665.0 Q 204.0,665.0  167.5,573.0 T 131.0,353.0 Z">
</path>
</defs>
<use x="580.0" y="0" xlink:href="#g48/TT0"/>
<use x="1160.0" y="0" xlink:href="#g48/TT0"/>
<use x="1740.0" y="0" xlink:href="#g48/TT0"/>
<use x="2320.0" y="0" xlink:href="#g48/TT0"/>
<use x="2900.0" y="0" xlink:href="#g48/TT0"/>
</g>
<text id="Text_1239" x="41.0" y="409.3" font-size="9.0pt" font-family="Avenir Next for SAS" fill="#626f80" text-anchor="end" opacity="0">
100000</text>
<g fill="#626f80" stroke="#626f80" transform="translate(-0.76 322.55) scale(0.012 -0.012)">
<use x="0" y="0" xlink:href="#g49/TT0"/>
<use x="580.0" y="0" xlink:href="#g48/TT0"/>
<use x="1160.0" y="0" xlink:href="#g49/TT0"/>
<use x="1740.0" y="0" xlink:href="#g48/TT0"/>
<use x="2320.0" y="0" xlink:href="#g48/TT0"/>
<use x="2900.0" y="0" xlink:href="#g48/TT0"/>
</g>
<text id="Text_1240" x="41.0" y="322.55" font-size="9.0pt" font-family="Avenir Next for SAS" fill="#626f80" text-anchor="end" opacity="0">
101000</text>
<g fill="#626f80" stroke="#626f80" transform="translate(-0.76 234.8) scale(0.012 -0.012)">
<use x="0" y="0" xlink:href="#g49/TT0"/>
<use x="580.0" y="0" xlink:href="#g48/TT0"/>
<defs>
<path id="g50/TT0" d="M51.0 0 L51.0 75.0 L341.0 368.0Q 380.0,408.0  403.0,447.0 T 426.0,530.0 Q 426.0,590.0  385.5,627.5 T 286.0,665.0 Q 230.0,665.0  191.0,630.0 T 140.0,539.0  L69.0 553.0Q 84.0,629.0  144.0,677.5 T 286.0,726.0 Q 344.0,726.0  392.5,703.5 T 470.0,637.0 T 499.0,531.0 Q 499.0,469.0  470.0,421.5 T 384.0,317.0  L129.0 64.0 L504.0 64.0 L504.0 0 L51.0 0Z">
</path>
</defs>
<use x="1160.0" y="0" xlink:href="#g50/TT0"/>
<use x="1740.0" y="0" xlink:href="#g48/TT0"/>
<use x="2320.0" y="0" xlink:href="#g48/TT0"/>
<use x="2900.0" y="0" xlink:href="#g48/TT0"/>
</g>
<text id="Text_1241" x="41.0" y="234.8" font-size="9.0pt" font-family="Avenir Next for SAS" fill="#626f80" text-anchor="end" opacity="0">
102000</text>
<g fill="#626f80" stroke="#626f80" transform="translate(-0.76 147.05) scale(0.012 -0.012)">
<use x="0" y="0" xlink:href="#g49/TT0"/>
<use x="580.0" y="0" xlink:href="#g48/TT0"/>
<defs>
<path id="g51/TT0" d="M245.0 402.0Q 319.0,402.0  364.5,433.5 T 410.0,532.0 Q 410.0,590.0  369.0,627.5 T 270.0,665.0 Q 226.0,665.0  191.0,643.5 T 135.0,582.0  L74.0 614.0Q 106.0,670.0  157.0,698.0 T 274.0,726.0 Q 331.0,726.0  378.0,703.5 T 453.0,638.0 T 481.0,536.0 Q 481.0,475.0  446.5,432.0 T 358.0,374.0  L358.0 372.0Q 421.0,359.0  461.0,312.0 T 501.0,196.0 Q 501.0,131.0  470.0,82.5 T 387.0,8.0 T 273.0,-18.0 Q 196.0,-18.0  137.5,19.5 T 49.0,127.0  L117.0 152.0Q 135.0,102.0  177.0,73.0 T 273.0,44.0 Q 314.0,44.0  350.0,62.5 T 407.5,115.5 T 429.0,196.0 Q 429.0,271.0  376.0,305.5 T 245.0,340.0  L214.0 340.0 L214.0 402.0 L245.0 402.0Z">
</path>
</defs>
<use x="1160.0" y="0" xlink:href="#g51/TT0"/>
<use x="1740.0" y="0" xlink:href="#g48/TT0"/>
<use x="2320.0" y="0" xlink:href="#g48/TT0"/>
<use x="2900.0" y="0" xlink:href="#g48/TT0"/>
</g>
<text id="Text_1242" x="41.0" y="147.05" font-size="9.0pt" font-family="Avenir Next for SAS" fill="#626f80" text-anchor="end" opacity="0">
103000</text>
<g fill="#626f80" stroke="#626f80" transform="translate(-0.76 60.3) scale(0.012 -0.012)">
<use x="0" y="0" xlink:href="#g49/TT0"/>
<use x="580.0" y="0" xlink:href="#g48/TT0"/>
<defs>
<path id="g52/TT0" d="M436.0 234.0 L540.0 234.0 L540.0 171.0 L436.0 171.0 L436.0 0 L366.0 0 L366.0 171.0 L42.0 171.0 L42.0 241.0 L342.0 708.0 L436.0 708.0 L436.0 234.0Z M366.0 627.0 L364.0 627.0 L117.0 234.0 L366.0 234.0 L366.0 627.0Z">
</path>
</defs>
<use x="1160.0" y="0" xlink:href="#g52/TT0"/>
<use x="1740.0" y="0" xlink:href="#g48/TT0"/>
<use x="2320.0" y="0" xlink:href="#g48/TT0"/>
<use x="2900.0" y="0" xlink:href="#g48/TT0"/>
</g>
<text id="Text_1243" x="41.0" y="60.3" font-size="9.0pt" font-family="Avenir Next for SAS" fill="#626f80" text-anchor="end" opacity="0">
104000</text>
</g>
<g fill="#2a3037" stroke="#2a3037" transform="translate(0 45.59) scale(0.014 -0.014)">
<defs>
<path id="g65/TT1" d="M300.0 708.0 L409.0 708.0 L714.0 0 L570.0 0 L504.0 162.0 L197.0 162.0 L133.0 0 L-8.0 0 L300.0 708.0Z M460.0 270.0 L351.0 558.0 L240.0 270.0 L460.0 270.0Z">
</path>
</defs>
<use x="0" y="0" xlink:href="#g65/TT1"/>
<defs>
<path id="g105/TT1" d="M133.0 715.0Q 166.0,715.0  188.5,694.5 T 211.0,643.0 Q 211.0,612.0  188.5,591.5 T 133.0,571.0 Q 101.0,571.0  79.0,592.5 T 57.0,643.0 Q 57.0,672.0  79.0,693.5 T 133.0,715.0 Z M74.0 480.0 L194.0 480.0 L194.0 0 L74.0 0 L74.0 480.0Z">
</path>
</defs>
<use x="706.0" y="0" xlink:href="#g105/TT1"/>
<defs>
<path id="g114/TT1" d="M187.0 480.0 L187.0 400.0 L189.0 400.0Q 209.0,443.0  246.0,468.5 T 329.0,494.0 Q 346.0,494.0  358.0,491.0  L358.0 381.0Q 338.0,386.0  321.0,386.0 Q 272.0,386.0  243.0,363.0 T 203.0,310.5 T 192.0,257.0  L192.0 0 L72.0 0 L72.0 480.0 L187.0 480.0Z">
</path>
</defs>
<use x="974.0" y="0" xlink:href="#g114/TT1"/>
<defs>
<path id="g80/TT1" d="M309.0 708.0Q 576.0,708.0  576.0,503.0 Q 576.0,393.0  500.0,343.0 T 301.0,293.0  L204.0 293.0 L204.0 0 L78.0 0 L78.0 708.0 L309.0 708.0Z M449.0 503.0Q 449.0,560.0  407.5,581.0 T 296.0,602.0  L204.0 602.0 L204.0 399.0 L292.0 399.0Q 363.0,399.0  406.0,422.0 T 449.0,503.0 Z">
</path>
</defs>
<use x="1588.0" y="0" xlink:href="#g80/TT1"/>
<use x="2198.0" y="0" xlink:href="#g114/TT1"/>
<defs>
<path id="g101/TT1" d="M529.0 202.0 L164.0 202.0Q 168.0,152.0  208.0,118.0 T 301.0,84.0 Q 384.0,84.0  428.0,146.0  L508.0 82.0Q 437.0,-14.0  302.0,-14.0 Q 228.0,-14.0  169.5,16.5 T 77.5,104.0 T 44.0,237.0 Q 44.0,313.0  77.0,371.5 T 168.0,462.0 T 298.0,494.0 Q 402.0,494.0  466.0,427.0 T 530.0,234.0 Q 530.0,213.0  529.0,202.0 Z M297.0 404.0Q 244.0,404.0  206.0,371.0 T 164.0,288.0  L410.0 288.0Q 410.0,338.0  381.0,371.0 T 297.0,404.0 Z">
</path>
</defs>
<use x="2562.0" y="0" xlink:href="#g101/TT1"/>
<defs>
<path id="g115/TT1" d="M230.0 404.0Q 198.0,404.0  175.5,391.0 T 153.0,352.0 Q 153.0,327.0  176.0,315.0 T 257.0,289.0 Q 325.0,273.0  368.5,241.0 T 412.0,146.0 Q 412.0,64.0  355.5,25.0 T 212.0,-14.0 Q 155.0,-14.0  102.0,7.0 T 15.0,65.0  L94.0 139.0Q 114.0,112.0  146.5,95.5 T 217.0,79.0 Q 248.0,79.0  271.0,93.0 T 294.0,136.0 Q 294.0,164.0  269.5,177.5 T 184.0,205.0 Q 119.0,221.0  80.5,250.5 T 42.0,341.0 Q 42.0,416.0  98.0,455.0 T 233.0,494.0 Q 287.0,494.0  336.0,475.0 T 413.0,421.0  L335.0 352.0Q 318.0,374.0  290.0,389.0 T 230.0,404.0 Z">
</path>
</defs>
<use x="3136.0" y="0" xlink:href="#g115/TT1"/>
<use x="3580.0" y="0" xlink:href="#g115/TT1"/>
<defs>
<path id="g117/TT1" d="M396.0 0 L396.0 77.0 L394.0 77.0Q 377.0,39.0  336.5,12.5 T 245.0,-14.0 Q 157.0,-14.0  112.5,42.5 T 68.0,180.0  L68.0 480.0 L188.0 480.0 L188.0 214.0Q 188.0,86.0  278.0,86.0 Q 332.0,86.0  361.0,124.5 T 390.0,216.0  L390.0 480.0 L510.0 480.0 L510.0 0 L396.0 0Z">
</path>
</defs>
<use x="4024.0" y="0" xlink:href="#g117/TT1"/>
<use x="4606.0" y="0" xlink:href="#g114/TT1"/>
<use x="4970.0" y="0" xlink:href="#g101/TT1"/>
</g>
<text id="Text_1244" x="0" y="45.59" font-size="10.5pt" font-family="Avenir Next for SAS" font-weight="bold" fill="#2a3037" text-anchor="start" opacity="0">
Air Pressure</text>
<defs>
<clipPath id="ClipPath3">
<rect x="46" y="412" width="922" height="57">
</rect>
</clipPath>
</defs>
<g clip-path="url(#ClipPath3)">
<g fill="#626f80" stroke="#626f80" transform="translate(49.0 426.65) scale(0.012 -0.012)">
<use x="0" y="0" xlink:href="#g50/TT0"/>
<defs>
<path id="g54/TT0" d="M203.0 397.0Q 218.0,409.0  247.0,416.0 T 304.0,423.0 Q 365.0,423.0  414.5,395.5 T 492.0,318.0 T 520.0,205.0 Q 520.0,140.0  490.5,89.5 T 408.5,10.5 T 290.0,-18.0 Q 224.0,-18.0  171.5,10.5 T 89.5,89.5 T 60.0,205.0 Q 60.0,255.0  77.0,301.5 T 124.0,397.0  L317.0 708.0 L400.0 708.0 L201.0 399.0 L203.0 397.0Z M290.0 43.0Q 336.0,43.0  372.0,64.0 T 428.0,122.0 T 448.0,205.0 Q 448.0,275.0  405.0,320.0 T 290.0,365.0 Q 218.0,365.0  175.0,320.0 T 132.0,205.0 Q 132.0,159.0  152.0,122.0 T 208.0,64.0 T 244.0,43.0 Z">
</path>
</defs>
<use x="580.0" y="0" xlink:href="#g54/TT0"/>
<defs>
<path id="g70/TT0" d="M166.0 0 L94.0 0 L94.0 708.0 L521.0 708.0 L521.0 644.0 L166.0 644.0 L166.0 398.0 L496.0 398.0 L496.0 335.0 L166.0 335.0 L166.0 0Z">
</path>
</defs>
<use x="1160.0" y="0" xlink:href="#g70/TT0"/>
<defs>
<path id="g101/TT0" d="M515.0 216.0 L127.0 216.0Q 128.0,169.0  150.5,130.5 T 212.0,69.0 T 298.0,46.0 Q 347.0,46.0  387.0,69.5 T 448.0,127.0  L499.0 87.0Q 421.0,-12.0  298.0,-12.0 Q 229.0,-12.0  174.0,20.0 T 87.5,108.0 T 56.0,234.0 Q 56.0,303.0  87.0,359.5 T 172.0,448.0 T 292.0,480.0 Q 363.0,480.0  413.5,449.5 T 490.0,366.0 T 516.0,248.0 Q 516.0,228.0  515.0,216.0 Z M292.0 423.0Q 248.0,423.0  211.5,402.0 T 153.0,345.5 T 128.0,270.0  L447.0 270.0Q 444.0,338.0  403.5,380.5 T 292.0,423.0 Z">
</path>
</defs>
<use x="1722.0" y="0" xlink:href="#g101/TT0"/>
<defs>
<path id="g98/TT0" d="M160.0 0 L92.0 0 L92.0 756.0 L160.0 756.0 L160.0 387.0 L162.0 387.0Q 191.0,431.0  239.0,455.5 T 339.0,480.0 Q 410.0,480.0  465.5,447.5 T 551.0,359.0 T 581.0,234.0 Q 581.0,165.0  551.0,109.0 T 465.5,20.5 T 339.0,-12.0 Q 287.0,-12.0  239.0,12.0 T 162.0,79.0  L160.0 79.0 L160.0 0Z M332.0 423.0Q 280.0,423.0  239.0,398.0 T 175.0,330.0 T 152.0,234.0 Q 152.0,181.0  175.0,138.0 T 239.0,70.5 T 332.0,46.0 Q 387.0,46.0  427.0,71.0 T 488.0,138.5 T 509.0,234.0 Q 509.0,287.0  488.0,330.0 T 427.0,398.0 T 387.0,423.0 Z">
</path>
</defs>
<use x="2294.0" y="0" xlink:href="#g98/TT0"/>
</g>
<text x="66.0" y="426.65" font-size="9.0pt" font-family="Avenir Next for SAS" fill="#626f80" text-anchor="middle" opacity="0">
26Feb</text>
<g fill="#626f80" stroke="#626f80" transform="translate(53.0 441.35) scale(0.012 -0.012)">
<use x="0" y="0" xlink:href="#g50/TT0"/>
<use x="580.0" y="0" xlink:href="#g48/TT0"/>
<use x="1160.0" y="0" xlink:href="#g50/TT0"/>
<defs>
<path id="g53/TT0" d="M180.0 644.0 L175.0 425.0Q 219.0,441.0  273.0,441.0 Q 339.0,441.0  391.5,413.0 T 473.5,334.5 T 503.0,219.0 Q 503.0,151.0  473.5,97.0 T 390.5,12.5 T 268.0,-18.0 Q 194.0,-18.0  140.0,16.0 T 56.0,111.0  L121.0 140.0Q 140.0,96.0  179.0,70.0 T 264.0,44.0 Q 311.0,44.0  349.0,66.0 T 408.5,126.5 T 430.0,212.0 Q 430.0,289.0  380.5,335.5 T 254.0,382.0 Q 180.0,382.0  107.0,343.0  L114.0 708.0 L475.0 708.0 L475.0 644.0 L180.0 644.0Z">
</path>
</defs>
<use x="1740.0" y="0" xlink:href="#g53/TT0"/>
</g>
<text x="66.0" y="441.35" font-size="9.0pt" font-family="Avenir Next for SAS" fill="#626f80" text-anchor="middle" opacity="0">
2025</text>
<g fill="#626f80" stroke="#626f80" transform="translate(160.52 426.65) scale(0.012 -0.012)">
<use x="0" y="0" xlink:href="#g50/TT0"/>
<defs>
<path id="g56/TT0" d="M517.0 186.0Q 517.0,126.0  486.0,79.5 T 403.0,7.5 T 290.0,-18.0 Q 229.0,-18.0  177.0,7.5 T 94.0,79.5 T 63.0,186.0 Q 63.0,256.0  100.5,306.5 T 197.0,375.0  L197.0 377.0Q 150.0,393.0  120.0,437.5 T 90.0,537.0 Q 90.0,593.0  117.0,636.0 T 190.0,702.5 T 290.0,726.0 Q 344.0,726.0  390.0,702.5 T 463.0,636.0 T 490.0,537.0 Q 490.0,482.0  460.0,437.5 T 383.0,377.0  L383.0 375.0Q 442.0,358.0  479.5,307.0 T 517.0,186.0 Z M290.0 406.0Q 345.0,406.0  382.5,442.0 T 420.0,533.0 Q 420.0,590.0  383.0,627.5 T 290.0,665.0 Q 234.0,665.0  197.0,627.5 T 160.0,533.0 Q 160.0,478.0  197.5,442.0 T 290.0,406.0 Z M290.0 43.0Q 359.0,43.0  402.0,86.0 T 445.0,194.0 Q 445.0,258.0  402.0,300.0 T 290.0,342.0 Q 221.0,342.0  178.0,300.0 T 135.0,194.0 Q 135.0,129.0  178.0,86.0 T 290.0,43.0 Z">
</path>
</defs>
<use x="580.0" y="0" xlink:href="#g56/TT0"/>
<use x="1160.0" y="0" xlink:href="#g70/TT0"/>
<use x="1722.0" y="0" xlink:href="#g101/TT0"/>
<use x="2294.0" y="0" xlink:href="#g98/TT0"/>
</g>
<text x="177.52" y="426.65" font-size="9.0pt" font-family="Avenir Next for SAS" fill="#626f80" text-anchor="middle" opacity="0">
28Feb</text>
<g fill="#626f80" stroke="#626f80" transform="translate(286.03 426.65) scale(0.012 -0.012)">
<use x="0" y="0" xlink:href="#g48/TT0"/>
<use x="580.0" y="0" xlink:href="#g50/TT0"/>
<defs>
<path id="g77/TT0" d="M444.0 122.0 L445.0 122.0 L682.0 708.0 L792.0 708.0 L792.0 0 L720.0 0 L720.0 615.0 L718.0 615.0 L462.0 0 L424.0 0 L168.0 615.0 L166.0 615.0 L166.0 0 L94.0 0 L94.0 708.0 L204.0 708.0 L444.0 122.0Z">
</path>
</defs>
<use x="1160.0" y="0" xlink:href="#g77/TT0"/>
<defs>
<path id="g97/TT0" d="M260.0 423.0Q 220.0,423.0  183.0,408.0 T 121.0,368.0  L83.0 413.0Q 113.0,443.0  161.0,461.5 T 267.0,480.0 Q 347.0,480.0  398.0,436.0 T 449.0,310.0  L449.0 105.0Q 449.0,42.0  457.0,0  L396.0 0Q 389.0,40.0  389.0,76.0  L387.0 76.0Q 355.0,30.0  314.5,9.0 T 217.0,-12.0 Q 178.0,-12.0  141.0,2.5 T 79.5,49.0 T 55.0,130.0 Q 55.0,198.0  99.0,232.0 T 212.5,276.5 T 385.0,287.0  L385.0 302.0Q 385.0,362.0  353.0,392.5 T 260.0,423.0 Z M125.0 133.0Q 125.0,87.0  157.0,65.5 T 235.0,44.0 Q 304.0,44.0  344.5,89.0 T 385.0,199.0  L385.0 234.0 L365.0 234.0Q 259.0,234.0  192.0,213.5 T 125.0,133.0 Z">
</path>
</defs>
<use x="2046.0" y="0" xlink:href="#g97/TT0"/>
<defs>
<path id="g114/TT0" d="M86.0 468.0 L151.0 468.0Q 155.0,418.0  155.0,388.0  L157.0 388.0Q 177.0,429.0  217.5,454.5 T 307.0,480.0 Q 334.0,480.0  352.0,475.0  L343.0 411.0Q 337.0,413.0  322.5,415.0 T 295.0,417.0 Q 236.0,417.0  197.0,372.5 T 158.0,240.0  L158.0 0 L90.0 0 L90.0 365.0Q 90.0,425.0  86.0,468.0 Z">
</path>
</defs>
<use x="2580.0" y="0" xlink:href="#g114/TT0"/>
</g>
<text x="303.03" y="426.65" font-size="9.0pt" font-family="Avenir Next for SAS" fill="#626f80" text-anchor="middle" opacity="0">
02Mar</text>
<g fill="#626f80" stroke="#626f80" transform="translate(411.55 426.65) scale(0.012 -0.012)">
<use x="0" y="0" xlink:href="#g48/TT0"/>
<use x="580.0" y="0" xlink:href="#g52/TT0"/>
<use x="1160.0" y="0" xlink:href="#g77/TT0"/>
<use x="2046.0" y="0" xlink:href="#g97/TT0"/>
<use x="2580.0" y="0" xlink:href="#g114/TT0"/>
</g>
<text x="428.55" y="426.65" font-size="9.0pt" font-family="Avenir Next for SAS" fill="#626f80" text-anchor="middle" opacity="0">
04Mar</text>
<g fill="#626f80" stroke="#626f80" transform="translate(537.07 426.65) scale(0.012 -0.012)">
<use x="0" y="0" xlink:href="#g48/TT0"/>
<use x="580.0" y="0" xlink:href="#g54/TT0"/>
<use x="1160.0" y="0" xlink:href="#g77/TT0"/>
<use x="2046.0" y="0" xlink:href="#g97/TT0"/>
<use x="2580.0" y="0" xlink:href="#g114/TT0"/>
</g>
<text x="554.07" y="426.65" font-size="9.0pt" font-family="Avenir Next for SAS" fill="#626f80" text-anchor="middle" opacity="0">
06Mar</text>
<g fill="#626f80" stroke="#626f80" transform="translate(662.59 426.65) scale(0.012 -0.012)">
<use x="0" y="0" xlink:href="#g48/TT0"/>
<use x="580.0" y="0" xlink:href="#g56/TT0"/>
<use x="1160.0" y="0" xlink:href="#g77/TT0"/>
<use x="2046.0" y="0" xlink:href="#g97/TT0"/>
<use x="2580.0" y="0" xlink:href="#g114/TT0"/>
</g>
<text x="679.59" y="426.65" font-size="9.0pt" font-family="Avenir Next for SAS" fill="#626f80" text-anchor="middle" opacity="0">
08Mar</text>
<g fill="#626f80" stroke="#626f80" transform="translate(788.1 426.65) scale(0.012 -0.012)">
<use x="0" y="0" xlink:href="#g49/TT0"/>
<use x="580.0" y="0" xlink:href="#g48/TT0"/>
<use x="1160.0" y="0" xlink:href="#g77/TT0"/>
<use x="2046.0" y="0" xlink:href="#g97/TT0"/>
<use x="2580.0" y="0" xlink:href="#g114/TT0"/>
</g>
<text x="805.1" y="426.65" font-size="9.0pt" font-family="Avenir Next for SAS" fill="#626f80" text-anchor="middle" opacity="0">
10Mar</text>
<g fill="#626f80" stroke="#626f80" transform="translate(913.62 426.65) scale(0.012 -0.012)">
<use x="0" y="0" xlink:href="#g49/TT0"/>
<use x="580.0" y="0" xlink:href="#g50/TT0"/>
<use x="1160.0" y="0" xlink:href="#g77/TT0"/>
<use x="2046.0" y="0" xlink:href="#g97/TT0"/>
<use x="2580.0" y="0" xlink:href="#g114/TT0"/>
</g>
<text x="930.62" y="426.65" font-size="9.0pt" font-family="Avenir Next for SAS" fill="#626f80" text-anchor="middle" opacity="0">
12Mar</text>
</g>
<g fill="#2a3037" stroke="#2a3037" transform="translate(476.0 465.44) scale(0.014 -0.014)">
<defs>
<path id="g68/TT1" d="M329.0 708.0Q 430.0,708.0  518.5,673.0 T 663.5,558.5 T 720.0,354.0 Q 720.0,237.0  663.0,157.0 T 516.5,38.5 T 329.0,0  L78.0 0 L78.0 708.0 L329.0 708.0Z M585.0 354.0Q 585.0,492.0  506.0,546.0 T 309.0,600.0  L204.0 600.0 L204.0 110.0 L309.0 110.0Q 424.0,110.0  504.5,166.5 T 585.0,354.0 Z">
</path>
</defs>
<use x="0" y="0" xlink:href="#g68/TT1"/>
<defs>
<path id="g97/TT1" d="M367.0 61.0Q 349.0,29.0  308.5,8.5 T 218.0,-12.0 Q 175.0,-12.0  134.0,3.0 T 65.5,51.5 T 38.0,137.0 Q 38.0,233.0  131.0,266.5 T 368.0,300.0  L368.0 312.0Q 368.0,354.0  337.0,377.0 T 258.0,400.0 Q 221.0,400.0  186.0,384.5 T 127.0,345.0  L65.0 418.0Q 105.0,455.0  158.5,474.5 T 268.0,494.0 Q 385.0,494.0  433.5,436.0 T 482.0,292.0  L482.0 0 L370.0 0 L370.0 61.0 L367.0 61.0Z M341.0 219.0Q 158.0,219.0  158.0,139.0 Q 158.0,107.0  182.5,93.0 T 242.0,79.0 Q 303.0,79.0  335.5,111.5 T 368.0,202.0  L368.0 219.0 L341.0 219.0Z">
</path>
</defs>
<use x="764.0" y="0" xlink:href="#g97/TT1"/>
<defs>
<path id="g116/TT1" d="M3.0 480.0 L87.0 480.0 L87.0 619.0 L205.0 619.0 L205.0 480.0 L325.0 480.0 L325.0 384.0 L205.0 384.0 L205.0 161.0Q 205.0,125.0  218.0,106.0 T 268.0,87.0 Q 299.0,87.0  319.0,97.0  L323.0 3.0Q 289.0,-10.0  243.0,-10.0 Q 155.0,-10.0  121.0,35.5 T 87.0,160.0  L87.0 384.0 L3.0 384.0 L3.0 480.0Z">
</path>
</defs>
<use x="1314.0" y="0" xlink:href="#g116/TT1"/>
<use x="1654.0" y="0" xlink:href="#g101/TT1"/>
<use x="2478.0" y="0" xlink:href="#g116/TT1"/>
<use x="2818.0" y="0" xlink:href="#g105/TT1"/>
<defs>
<path id="g109/TT1" d="M822.0 300.0 L822.0 0 L702.0 0 L702.0 266.0Q 702.0,394.0  612.0,394.0 Q 560.0,394.0  533.0,354.5 T 506.0,262.0  L506.0 0 L386.0 0 L386.0 290.0Q 386.0,337.0  363.5,365.5 T 297.0,394.0 Q 246.0,394.0  219.0,355.5 T 192.0,264.0  L192.0 0 L72.0 0 L72.0 480.0 L186.0 480.0 L186.0 403.0 L188.0 403.0Q 205.0,442.0  244.0,468.0 T 337.0,494.0 Q 390.0,494.0  428.0,470.0 T 487.0,403.0 Q 511.0,447.0  551.5,470.5 T 645.0,494.0 Q 733.0,494.0  777.5,437.5 T 822.0,300.0 Z">
</path>
</defs>
<use x="3086.0" y="0" xlink:href="#g109/TT1"/>
<use x="3976.0" y="0" xlink:href="#g101/TT1"/>
</g>
<text id="Text_1246" x="507.0" y="465.44" font-size="10.5pt" font-family="Avenir Next for SAS" font-weight="bold" fill="#2a3037" text-anchor="middle" opacity="0">
Date time</text>
</g>
<g transform=" translate(16.0 -16.0)">
</g>
<g transform=" translate(16.0 -16.0)">
</g>
<g transform=" translate(16.0 -16.0)">
<rect x="292.0" y="473.3" rx="5" ry="5" width="382.42" height="26.7" fill="#ffffff">
</rect>
<path d="M298.0 486.65L348.0 486.65" stroke="#b7b7b7" stroke-dasharray="4,4" stroke-width="3.0" fill="none" opacity="0.75">
</path>
<g fill="#626f80" stroke="#626f80" transform="translate(352.0 490.95) scale(0.012 -0.012)">
<defs>
<path id="g65/TT0" d="M89.0 0 L10.0 0 L316.0 708.0 L386.0 708.0 L690.0 0 L610.0 0 L532.0 186.0 L166.0 186.0 L89.0 0Z M193.0 252.0 L505.0 252.0 L349.0 628.0 L193.0 252.0Z">
</path>
</defs>
<use x="0" y="0" xlink:href="#g65/TT0"/>
<defs>
<path id="g118/TT0" d="M282.0 0 L207.0 0 L16.0 468.0 L92.0 468.0 L244.0 72.0 L246.0 72.0 L399.0 468.0 L472.0 468.0 L282.0 0Z">
</path>
</defs>
<use x="700.0" y="0" xlink:href="#g118/TT0"/>
<use x="1188.0" y="0" xlink:href="#g101/TT0"/>
<use x="1760.0" y="0" xlink:href="#g114/TT0"/>
<use x="2120.0" y="0" xlink:href="#g97/TT0"/>
<defs>
<path id="g103/TT0" d="M294.0 -180.0Q 389.0,-180.0  433.0,-129.0 T 477.0,4.0  L477.0 92.0 L475.0 92.0Q 449.0,50.0  399.5,25.0 T 298.0,0 Q 226.0,0  171.0,30.5 T 86.0,115.5 T 56.0,238.0 Q 56.0,305.0  86.5,360.0 T 172.0,447.5 T 298.0,480.0 Q 351.0,480.0  399.5,455.5 T 475.0,387.0  L477.0 387.0 L477.0 468.0 L545.0 468.0 L545.0 4.0Q 545.0,-56.0  523.0,-110.5 T 444.0,-202.5 T 291.0,-240.0 Q 227.0,-240.0  167.5,-215.0 T 66.0,-146.0  L115.0 -94.0Q 144.0,-131.0  193.0,-155.5 T 294.0,-180.0 Z M305.0 58.0Q 357.0,58.0  398.0,81.0 T 462.0,145.5 T 485.0,240.0 Q 485.0,289.0  461.5,331.0 T 397.0,398.0 T 305.0,423.0 Q 250.0,423.0  210.0,398.0 T 149.0,331.5 T 128.0,240.0 Q 128.0,190.0  149.0,148.5 T 210.0,82.5 T 250.0,58.0 Z">
</path>
</defs>
<use x="2654.0" y="0" xlink:href="#g103/TT0"/>
<use x="3286.0" y="0" xlink:href="#g101/TT0"/>
<use x="4108.0" y="0" xlink:href="#g65/TT0"/>
<defs>
<path id="g105/TT0" d="M125.0 600.0Q 106.0,600.0  91.5,614.0 T 77.0,648.0 Q 77.0,668.0  91.5,682.0 T 125.0,696.0 Q 144.0,696.0  158.5,682.0 T 173.0,648.0 Q 173.0,628.0  158.5,614.0 T 125.0,600.0 Z M159.0 0 L91.0 0 L91.0 468.0 L159.0 468.0 L159.0 0Z">
</path>
</defs>
<use x="4808.0" y="0" xlink:href="#g105/TT0"/>
<use x="5058.0" y="0" xlink:href="#g114/TT0"/>
<defs>
<path id="g80/TT0" d="M294.0 708.0Q 405.0,708.0  469.0,660.0 T 533.0,519.0 Q 533.0,426.0  468.0,377.5 T 292.0,329.0  L166.0 329.0 L166.0 0 L94.0 0 L94.0 708.0 L294.0 708.0Z M288.0 390.0Q 372.0,390.0  416.5,423.0 T 461.0,519.0 Q 461.0,583.0  416.5,614.5 T 288.0,646.0  L166.0 646.0 L166.0 390.0 L288.0 390.0Z">
</path>
</defs>
<use x="5668.0" y="0" xlink:href="#g80/TT0"/>
<use x="6248.0" y="0" xlink:href="#g114/TT0"/>
<use x="6608.0" y="0" xlink:href="#g101/TT0"/>
<defs>
<path id="g115/TT0" d="M224.0 423.0Q 183.0,423.0  154.0,404.5 T 125.0,350.0 Q 125.0,318.0  151.0,300.0 T 237.0,270.0 Q 320.0,253.0  359.5,220.0 T 399.0,133.0 Q 399.0,59.0  347.5,23.5 T 223.0,-12.0 Q 167.0,-12.0  118.0,11.0 T 38.0,79.0  L92.0 119.0Q 111.0,87.0  146.5,66.5 T 222.0,46.0 Q 270.0,46.0  301.0,65.5 T 332.0,128.0 Q 332.0,163.0  299.5,182.0 T 194.0,218.0 Q 136.0,232.0  98.0,258.5 T 60.0,344.0 Q 60.0,411.0  108.5,445.5 T 227.0,480.0 Q 277.0,480.0  323.0,457.5 T 391.0,396.0  L339.0 357.0Q 324.0,387.0  293.0,405.0 T 224.0,423.0 Z">
</path>
</defs>
<use x="7180.0" y="0" xlink:href="#g115/TT0"/>
<use x="7624.0" y="0" xlink:href="#g115/TT0"/>
<defs>
<path id="g117/TT0" d="M426.0 80.0 L424.0 80.0Q 405.0,40.0  359.5,14.0 T 264.0,-12.0 Q 177.0,-12.0  131.5,40.0 T 86.0,181.0  L86.0 468.0 L154.0 468.0 L154.0 209.0Q 154.0,130.0  182.5,87.5 T 281.0,45.0 Q 319.0,45.0  351.0,65.5 T 403.0,127.0 T 423.0,228.0  L423.0 468.0 L491.0 468.0 L491.0 103.0Q 491.0,43.0  495.0,0  L430.0 0Q 426.0,50.0  426.0,80.0 Z">
</path>
</defs>
<use x="8068.0" y="0" xlink:href="#g117/TT0"/>
<use x="8649.0" y="0" xlink:href="#g114/TT0"/>
<use x="9009.0" y="0" xlink:href="#g101/TT0"/>
</g>
<text x="352.0" y="490.95" font-size="9.0pt" font-family="Avenir Next for SAS" fill="#626f80" text-anchor="start" opacity="0">
Average Air Pressure</text>
<path d="M474.97 486.65L524.97 486.65Z" stroke="#287fc7" stroke-width="3.0" fill="none">
</path>
<g fill="#626f80" stroke="#626f80" transform="translate(528.97 490.95) scale(0.012 -0.012)">
<use x="0" y="0" xlink:href="#g65/TT0"/>
<use x="700.0" y="0" xlink:href="#g105/TT0"/>
<use x="950.0" y="0" xlink:href="#g114/TT0"/>
<use x="1560.0" y="0" xlink:href="#g80/TT0"/>
<use x="2140.0" y="0" xlink:href="#g114/TT0"/>
<use x="2500.0" y="0" xlink:href="#g101/TT0"/>
<use x="3072.0" y="0" xlink:href="#g115/TT0"/>
<use x="3516.0" y="0" xlink:href="#g115/TT0"/>
<use x="3960.0" y="0" xlink:href="#g117/TT0"/>
<use x="4541.0" y="0" xlink:href="#g114/TT0"/>
<use x="4901.0" y="0" xlink:href="#g101/TT0"/>
</g>
<text x="528.97" y="490.95" font-size="9.0pt" font-family="Avenir Next for SAS" fill="#626f80" text-anchor="start" opacity="0">
Air Pressure</text>
<rect x="602.65" y="482.15" width="9.0" height="9.0" fill="#d1d1d1" opacity="0.6">
</rect>
<g fill="#626f80" stroke="#626f80" transform="translate(615.65 490.95) scale(0.012 -0.012)">
<defs>
<path id="g66/TT0" d="M305.0 708.0Q 401.0,708.0  467.0,666.0 T 533.0,527.0 Q 533.0,471.0  498.5,429.5 T 408.0,375.0  L408.0 373.0Q 479.0,365.0  523.5,318.0 T 568.0,196.0 Q 568.0,137.0  536.0,93.0 T 444.0,24.5 T 304.0,0  L94.0 0 L94.0 708.0 L305.0 708.0Z M311.0 398.0Q 372.0,398.0  416.5,428.0 T 461.0,522.0 Q 461.0,586.0  414.0,616.0 T 291.0,646.0  L166.0 646.0 L166.0 398.0 L311.0 398.0Z M300.0 62.0Q 385.0,62.0  440.0,96.0 T 495.0,200.0 Q 495.0,269.0  448.0,304.0 T 313.0,339.0  L166.0 339.0 L166.0 62.0 L300.0 62.0Z">
</path>
</defs>
<use x="0" y="0" xlink:href="#g66/TT0"/>
<use x="636.0" y="0" xlink:href="#g97/TT0"/>
<defs>
<path id="g110/TT0" d="M155.0 388.0 L157.0 388.0Q 176.0,428.0  221.5,454.0 T 317.0,480.0 Q 404.0,480.0  449.5,428.0 T 495.0,287.0  L495.0 0 L427.0 0 L427.0 259.0Q 427.0,338.0  398.5,380.5 T 300.0,423.0 Q 262.0,423.0  230.0,402.5 T 178.0,341.0 T 158.0,240.0  L158.0 0 L90.0 0 L90.0 365.0Q 90.0,425.0  86.0,468.0  L151.0 468.0Q 155.0,418.0  155.0,388.0 Z">
</path>
</defs>
<use x="1170.0" y="0" xlink:href="#g110/TT0"/>
<defs>
<path id="g100/TT0" d="M298.0 -12.0Q 227.0,-12.0  171.5,20.5 T 86.0,109.0 T 56.0,234.0 Q 56.0,303.0  86.0,359.0 T 171.5,447.5 T 298.0,480.0 Q 350.0,480.0  398.0,455.5 T 475.0,387.0  L477.0 387.0 L477.0 756.0 L545.0 756.0 L545.0 0 L477.0 0 L477.0 79.0 L475.0 79.0Q 446.0,36.0  398.0,12.0 T 298.0,-12.0 Z M305.0 46.0Q 357.0,46.0  398.0,70.5 T 462.0,138.0 T 485.0,234.0 Q 485.0,287.0  462.0,330.0 T 398.0,398.0 T 305.0,423.0 Q 250.0,423.0  210.0,398.0 T 149.0,330.0 T 128.0,234.0 Q 128.0,181.0  149.0,138.5 T 210.0,71.0 T 250.0,46.0 Z">
</path>
</defs>
<use x="1751.0" y="0" xlink:href="#g100/TT0"/>
<use x="2638.0" y="0" xlink:href="#g80/TT0"/>
<defs>
<path id="g108/TT0" d="M160.0 0 L92.0 0 L92.0 756.0 L160.0 756.0 L160.0 0Z">
</path>
</defs>
<use x="3218.0" y="0" xlink:href="#g108/TT0"/>
<defs>
<path id="g111/TT0" d="M305.0 -12.0Q 234.0,-12.0  177.0,20.0 T 88.0,108.0 T 56.0,234.0 Q 56.0,304.0  88.0,360.0 T 177.0,448.0 T 305.0,480.0 Q 377.0,480.0  434.0,448.0 T 523.0,360.0 T 555.0,234.0 Q 555.0,164.0  523.0,108.0 T 434.0,20.0 T 377.0,-12.0 Z M305.0 423.0Q 252.0,423.0  212.0,398.0 T 150.0,330.0 T 128.0,234.0 Q 128.0,181.0  150.0,138.5 T 212.0,71.0 T 305.0,46.0 Q 358.0,46.0  398.5,71.0 T 461.0,138.5 T 483.0,234.0 Q 483.0,287.0  461.0,330.0 T 398.5,398.0 T 358.0,423.0 Z">
</path>
</defs>
<use x="3470.0" y="0" xlink:href="#g111/TT0"/>
<defs>
<path id="g116/TT0" d="M169.0 411.0 L169.0 138.0Q 169.0,89.0  187.0,70.5 T 239.0,52.0 Q 268.0,52.0  298.0,67.0  L301.0 8.0Q 264.0,-6.0  221.0,-6.0 Q 173.0,-6.0  137.0,22.0 T 101.0,119.0  L101.0 411.0 L4.0 411.0 L4.0 468.0 L101.0 468.0 L101.0 600.0 L169.0 600.0 L169.0 468.0 L301.0 468.0 L301.0 411.0 L169.0 411.0Z">
</path>
</defs>
<use x="4081.0" y="0" xlink:href="#g116/TT0"/>
</g>
<text x="615.65" y="490.95" font-size="9.0pt" font-family="Avenir Next for SAS" fill="#626f80" text-anchor="start" opacity="0">
Band Plot</text>
</g>
</g>
</svg>
