<svg xmlns="http://www.w3.org/2000/svg" xmlns:xlink="http://www.w3.org/1999/xlink" version="1.1" width="1000" height="500" viewBox="0 0 1000 500">
<rect x="0" y="0" width="1000" height="500" fill="#ffffff">
</rect>
<g>
<rect x="0" y="0" rx="5" ry="5" width="1000.0" height="500.0" fill="#ffffff" opacity="0">
</rect>
<rect x="0" y="0" rx="5" ry="5" width="1000.0" height="500.0" fill="#ffffff" opacity="0">
</rect>
<rect x="0" y="0" rx="5" ry="5" width="1000.0" height="500.0" fill="#ffffff" opacity="0">
</rect>
<rect x="0" y="0" rx="5" ry="5" width="1000.0" height="500.0" fill="#ffffff" opacity="0">
</rect>
<g transform=" translate(16.0 -16.0)">
<defs>
<clipPath id="ClipPath0">
<rect x="22" y="46" width="949" height="366">
</rect>
</clipPath>
</defs>
<g clip-path="url(#ClipPath0)">
<defs>
<clipPath id="ClipPath1">
<rect x="22" y="48" width="947" height="364">
</rect>
</clipPath>
</defs>
<g clip-path="url(#ClipPath1)">
<g transform="">
<polyline id="Polyline_184" points="28.0,249.42  33.43,252.47  38.86,256.02  44.29,260.6  49.72,263.14  55.15,252.97  60.58,243.32  66.01,241.28  71.44,241.28  76.87,242.81  82.3,246.37  87.73,249.42  93.16,252.47  98.59,255.01  104.02,257.55  109.45,260.09  114.88,262.12  120.31,262.12  125.74,261.11  131.17,259.58  136.6,259.58  142.03,260.09  147.47,261.61  152.9,263.65  158.33,265.17  163.76,266.7  169.19,267.21  174.62,269.24  180.05,269.75  185.48,268.22  190.91,261.61  196.34,259.58  201.77,258.56  207.2,258.56  212.63,261.11  218.06,265.17  223.49,269.75  228.92,273.3  234.35,275.34  239.78,276.86  245.21,277.37  250.64,274.32  256.07,265.17  261.5,257.55  266.93,251.45  272.36,253.48  277.79,259.58  283.22,266.19  288.65,272.29  294.08,277.37  299.51,282.45  304.94,288.04  310.37,289.57  315.8,273.3  321.23,257.55  326.66,246.37  332.09,239.76  337.52,243.82  342.95,251.96  348.38,261.11  353.81,269.75  359.24,277.88  364.67,285.5  370.1,292.11  375.53,294.65  380.97,275.85  386.4,257.55  391.83,245.35  397.26,239.25  402.69,242.3  408.12,250.43  413.55,259.58  418.98,268.22  424.41,274.32  429.84,280.42  435.27,286.01  440.7,288.04  446.13,270.76  451.56,252.97  456.99,240.77  462.42,233.66  467.85,236.2  473.28,243.82  478.71,252.97  484.14,262.12  489.57,269.75  495.0,276.35  500.43,282.96  505.86,283.98  511.29,264.66  516.72,246.37  522.15,234.17  527.58,227.05  533.01,229.59  538.44,237.72  543.87,246.37  549.3,255.01  554.73,262.63  560.16,269.24  565.59,275.85  571.02,275.85  576.45,254.5  581.88,236.71  587.31,224.0  592.74,217.9  598.17,219.94  603.6,226.54  609.03,235.18  614.47,243.82  619.9,250.43  625.33,256.02  630.76,260.6  636.19,260.6  641.62,240.77  647.05,224.51  652.48,213.33  657.91,208.24  663.34,211.29  668.77,218.41  674.2,226.54  679.63,235.18  685.06,242.81  690.49,250.94  695.92,258.56  701.35,259.58  706.78,238.23  712.21,221.46  717.64,211.29  723.07,204.69  728.5,207.23  733.93,214.34  739.36,220.95  744.79,228.07  750.22,234.68  755.65,241.28  761.08,248.4  766.51,250.43  771.94,232.13  777.37,177.24  782.8,166.06  788.23,216.89  793.66,243.32  799.09,262.63  804.52,272.8  809.95,280.93  815.38,287.54  820.81,292.62  826.24,291.6  831.67,257.55  837.1,216.89  842.53,211.8  847.97,220.95  853.4,234.68  858.83,253.48  864.26,263.14  869.69,267.71  875.12,272.29  880.55,268.73  885.98,267.21  891.41,267.21  896.84,263.65  902.27,262.12  907.7,254.5  913.13,252.97  918.56,259.07  923.99,270.25  929.42,278.39  934.85,282.96  940.28,280.93  945.71,276.86  951.14,276.35  956.57,277.88  962.0,267.71 " fill="none" stroke="#287fc7" stroke-width="3.0">
</polyline>
</g>
<g transform="">
<polyline id="Polyline_531" points="28.0,227.56  33.43,229.34  38.86,231.88  44.29,234.68  49.72,263.14  55.15,252.97  60.58,243.32  66.01,241.28  71.44,241.28  76.87,242.81  82.3,246.37  87.73,249.42  93.16,252.47  98.59,255.01  104.02,257.55  109.45,260.09  114.88,262.12  120.31,262.12  125.74,261.11  131.17,259.58  136.6,259.58  142.03,260.09  147.47,261.61  152.9,263.65  158.33,265.17  163.76,266.7  169.19,267.21  174.62,269.24  180.05,269.75  185.48,268.22  190.91,261.61  196.34,259.58  201.77,258.56  207.2,258.56  212.63,261.11  218.06,265.17  223.49,269.75  228.92,273.3  234.35,275.34  239.78,276.86  245.21,277.37  250.64,274.32  256.07,265.17  261.5,257.55  266.93,251.45  272.36,253.48  277.79,259.58  283.22,266.19  288.65,272.29  294.08,277.37  299.51,282.45  304.94,288.04  310.37,289.57  315.8,273.3  321.23,257.55  326.66,246.37  332.09,239.76  337.52,243.82  342.95,251.96  348.38,261.11  353.81,269.75  359.24,277.88  364.67,285.5  370.1,292.11  375.53,294.65  380.97,275.85  386.4,257.55  391.83,245.35  397.26,239.25  402.69,242.3  408.12,250.43  413.55,259.58  418.98,268.22  424.41,274.32  429.84,280.42  435.27,286.01  440.7,288.04  446.13,270.76  451.56,252.97  456.99,240.77  462.42,233.66  467.85,236.2  473.28,243.82  478.71,252.97  484.14,262.12  489.57,269.75  495.0,276.35  500.43,282.96  505.86,241.54  511.29,230.61  516.72,218.16  522.15,206.21  527.58,200.11  533.01,201.38  538.44,205.7  543.87,210.79  549.3,216.38  554.73,221.97  560.16,226.8  565.59,232.13  571.02,233.15  576.45,220.44  581.88,206.21  587.31,197.06  592.74,193.0  598.17,193.76  603.6,197.32  609.03,202.4  614.47,207.74  619.9,212.31  625.33,216.12  630.76,219.68  636.19,219.43  641.62,207.99  647.05,195.03  652.48,187.91  657.91,184.86  663.34,186.39  668.77,189.95  674.2,195.03  679.63,200.62  685.06,205.7  690.49,210.79  695.92,217.39  701.35,218.41  706.78,206.47  712.21,194.27  717.64,185.88  723.07,182.58  728.5,184.1  733.93,188.17  739.36,192.23  744.79,196.81  750.22,201.38  755.65,205.96  761.08,211.04  766.51,212.82  771.94,202.65  777.37,171.65  782.8,164.28  788.23,189.69  793.66,202.4  799.09,212.06  804.52,217.39  809.95,222.73  815.38,226.8  820.81,230.61  826.24,231.37  831.67,215.11  837.1,193.25  842.53,185.88  847.97,189.18  853.4,196.55  858.83,205.96  864.26,211.55  869.69,214.6  875.12,217.14  880.55,216.63  885.98,216.89  891.41,217.65  896.84,216.63  902.27,216.38  907.7,212.82  913.13,212.06  918.56,214.85  923.99,219.94  929.42,224.76  934.85,227.31  940.28,227.81  945.71,226.8  951.14,227.05  956.57,228.32  962.0,223.24 " fill="none" stroke="#c79f27" stroke-width="3.0">
</polyline>
</g>
<g transform="">
<polygon points="28.0,289.38  33.43,294.75  38.86,300.17  44.29,307.99  505.86,361.58  511.29,326.93  516.72,297.94  522.15,285.28  527.58,276.31  533.01,281.17  538.44,296.27  543.87,311.42  549.3,325.64  554.73,336.98  560.16,346.84  565.59,355.77  571.02,353.91  576.45,316.76  581.88,292.47  587.31,273.26  592.74,263.44  598.17,267.8  603.6,279.98  609.03,295.13  614.47,309.81  619.9,320.13  625.33,328.98  630.76,335.41  636.19,335.88  641.62,300.72  647.05,278.41  652.48,259.8  657.91,250.99  663.34,256.83  668.77,270.45  674.2,284.16  679.63,298.38  685.06,310.65  690.49,324.36  695.92,333.84  701.35,334.86  706.78,296.32  712.21,271.18  717.64,257.76  723.07,245.11  728.5,249.51  733.93,262.21  739.36,273.46  744.79,285.22  750.22,295.55  755.65,305.87  761.08,316.71  766.51,319.2  771.94,286.04  777.37,187.46  782.8,169.31  788.23,266.61  793.66,318.13  799.09,355.1  804.52,374.1  809.95,387.34  815.38,398.59  820.81,406.0  826.24,401.73  831.67,335.15  837.1,260.1  842.53,259.2  847.97,279.04  853.4,304.38  858.83,340.38  864.26,357.47  869.69,364.83  875.12,373.12  880.55,363.99  885.98,359.21  891.41,357.82  896.84,349.61  902.27,345.76  907.7,330.7  913.13,327.79  918.56,339.93  923.99,362.26  929.42,376.43  934.85,384.73  940.28,378.05  945.71,368.4  951.14,366.5  956.57,368.49  962.0,349.03  962.0,97.45  956.57,88.15  951.14,87.6  945.71,85.19  940.28,77.58  934.85,69.88  929.42,73.09  923.99,77.61  918.56,89.78  913.13,96.33  907.7,94.93  902.27,86.99  896.84,83.65  891.41,77.48  885.98,74.56  880.55,69.27  875.12,61.16  869.69,64.37  864.26,65.63  858.83,71.54  853.4,88.73  847.97,99.33  842.53,112.56  837.1,126.4  831.67,95.06  826.24,61.01  820.81,55.22  815.38,55.0  809.95,58.12  804.52,60.69  799.09,69.01  793.66,86.67  788.23,112.78  782.8,159.25  777.37,155.83  771.94,119.27  766.51,106.43  761.08,105.37  755.65,106.04  750.22,107.22  744.79,108.39  739.36,111.01  733.93,114.13  728.5,118.69  723.07,120.04  717.64,114.0  712.21,117.35  706.78,116.61  701.35,101.96  695.92,100.95  690.49,97.21  685.06,100.76  679.63,102.86  674.2,105.9  668.77,109.44  663.34,115.94  657.91,118.73  652.48,116.03  647.05,111.65  641.62,115.26  636.19,102.98  630.76,103.95  625.33,103.27  619.9,104.49  614.47,105.66  609.03,109.67  603.6,114.65  598.17,119.72  592.74,122.55  587.31,120.87  581.88,119.95  576.45,124.12  571.02,112.39  565.59,108.5  560.16,106.75  554.73,106.96  549.3,107.12  543.87,110.15  538.44,115.13  533.01,121.59  527.58,123.92  522.15,127.14  516.72,138.37  511.29,134.29  505.86,121.49  44.29,161.36  38.86,163.59  33.43,163.93  28.0,165.74 " fill="#9471ff" fill-opacity="0.5">
</polygon>
</g>
</g>
<path d="M22.0 405.97L969.0 405.97" stroke="#2a3037" stroke-dasharray="1,2" fill="none" opacity="0.4">
</path>
<path d="M22.0 304.31L969.0 304.31" stroke="#2a3037" stroke-dasharray="1,2" fill="none" opacity="0.4">
</path>
<path d="M22.0 202.65L969.0 202.65" stroke="#2a3037" stroke-dasharray="1,2" fill="none" opacity="0.4">
</path>
<path d="M22.0 101.0L969.0 101.0" stroke="#2a3037" stroke-dasharray="1,2" fill="none" opacity="0.4">
</path>
<path d="M28.0 412.0L28.0 48.0" stroke="#2a3037" stroke-dasharray="1,2" fill="none" opacity="0.4">
</path>
<path d="M158.33 412.0L158.33 48.0" stroke="#2a3037" stroke-dasharray="1,2" fill="none" opacity="0.4">
</path>
<path d="M288.65 412.0L288.65 48.0" stroke="#2a3037" stroke-dasharray="1,2" fill="none" opacity="0.4">
</path>
<path d="M418.98 412.0L418.98 48.0" stroke="#2a3037" stroke-dasharray="1,2" fill="none" opacity="0.4">
</path>
<path d="M549.3 412.0L549.3 48.0" stroke="#2a3037" stroke-dasharray="1,2" fill="none" opacity="0.4">
</path>
<path d="M679.63 412.0L679.63 48.0" stroke="#2a3037" stroke-dasharray="1,2" fill="none" opacity="0.4">
</path>
<path d="M809.95 412.0L809.95 48.0" stroke="#2a3037" stroke-dasharray="1,2" fill="none" opacity="0.4">
</path>
<path d="M940.28 412.0L940.28 48.0" stroke="#2a3037" stroke-dasharray="1,2" fill="none" opacity="0.4">
</path>
</g>
<defs>
<clipPath id="ClipPath2">
<rect x="0" y="49" width="22" height="363">
</rect>
</clipPath>
</defs>
<g clip-path="url(#ClipPath2)">
<g fill="#626f80" stroke="#626f80" transform="translate(-0.76 409.27) scale(0.012 -0.012)">
<defs>
<path id="g45/TT0" d="M272.0 214.0 L48.0 214.0 L48.0 271.0 L272.0 271.0 L272.0 214.0Z">
</path>
</defs>
<use x="0" y="0" xlink:href="#g45/TT0"/>
<defs>
<path id="g50/TT0" d="M51.0 0 L51.0 75.0 L341.0 368.0Q 380.0,408.0  403.0,447.0 T 426.0,530.0 Q 426.0,590.0  385.5,627.5 T 286.0,665.0 Q 230.0,665.0  191.0,630.0 T 140.0,539.0  L69.0 553.0Q 84.0,629.0  144.0,677.5 T 286.0,726.0 Q 344.0,726.0  392.5,703.5 T 470.0,637.0 T 499.0,531.0 Q 499.0,469.0  470.0,421.5 T 384.0,317.0  L129.0 64.0 L504.0 64.0 L504.0 0 L51.0 0Z">
</path>
</defs>
<use x="320.0" y="0" xlink:href="#g50/TT0"/>
<defs>
<path id="g48/TT0" d="M522.0 353.0Q 522.0,195.0  467.0,88.5 T 290.0,-18.0 Q 167.0,-18.0  112.5,88.5 T 58.0,353.0 Q 58.0,512.0  112.5,619.0 T 290.0,726.0 Q 412.0,726.0  467.0,618.5 T 522.0,353.0 Z M131.0 353.0Q 131.0,226.0  167.5,135.0 T 290.0,44.0 Q 375.0,44.0  412.0,135.5 T 449.0,353.0 Q 449.0,480.0  412.0,572.5 T 290.0,665.0 Q 204.0,665.0  167.5,573.0 T 131.0,353.0 Z">
</path>
</defs>
<use x="900.0" y="0" xlink:href="#g48/TT0"/>
</g>
<text id="Text_1225" x="17.0" y="409.27" font-size="9.0pt" font-family="Avenir Next for SAS" fill="#626f80" text-anchor="end" opacity="0">
-20</text>
<g fill="#626f80" stroke="#626f80" transform="translate(10.04 308.61) scale(0.012 -0.012)">
<use x="0" y="0" xlink:href="#g48/TT0"/>
</g>
<text id="Text_1226" x="17.0" y="308.61" font-size="9.0pt" font-family="Avenir Next for SAS" fill="#626f80" text-anchor="end" opacity="0">
0</text>
<g fill="#626f80" stroke="#626f80" transform="translate(3.08 206.96) scale(0.012 -0.012)">
<use x="0" y="0" xlink:href="#g50/TT0"/>
<use x="580.0" y="0" xlink:href="#g48/TT0"/>
</g>
<text id="Text_1227" x="17.0" y="206.96" font-size="9.0pt" font-family="Avenir Next for SAS" fill="#626f80" text-anchor="end" opacity="0">
20</text>
<g fill="#626f80" stroke="#626f80" transform="translate(3.08 105.3) scale(0.012 -0.012)">
<defs>
<path id="g52/TT0" d="M436.0 234.0 L540.0 234.0 L540.0 171.0 L436.0 171.0 L436.0 0 L366.0 0 L366.0 171.0 L42.0 171.0 L42.0 241.0 L342.0 708.0 L436.0 708.0 L436.0 234.0Z M366.0 627.0 L364.0 627.0 L117.0 234.0 L366.0 234.0 L366.0 627.0Z">
</path>
</defs>
<use x="0" y="0" xlink:href="#g52/TT0"/>
<use x="580.0" y="0" xlink:href="#g48/TT0"/>
</g>
<text id="Text_1228" x="17.0" y="105.3" font-size="9.0pt" font-family="Avenir Next for SAS" fill="#626f80" text-anchor="end" opacity="0">
40</text>
</g>
<g fill="#2a3037" stroke="#2a3037" transform="translate(0 45.59) scale(0.014 -0.014)">
<defs>
<path id="g84/TT1" d="M221.0 598.0 L4.0 598.0 L4.0 708.0 L564.0 708.0 L564.0 598.0 L347.0 598.0 L347.0 0 L221.0 0 L221.0 598.0Z">
</path>
</defs>
<use x="0" y="0" xlink:href="#g84/TT1"/>
<defs>
<path id="g101/TT1" d="M529.0 202.0 L164.0 202.0Q 168.0,152.0  208.0,118.0 T 301.0,84.0 Q 384.0,84.0  428.0,146.0  L508.0 82.0Q 437.0,-14.0  302.0,-14.0 Q 228.0,-14.0  169.5,16.5 T 77.5,104.0 T 44.0,237.0 Q 44.0,313.0  77.0,371.5 T 168.0,462.0 T 298.0,494.0 Q 402.0,494.0  466.0,427.0 T 530.0,234.0 Q 530.0,213.0  529.0,202.0 Z M297.0 404.0Q 244.0,404.0  206.0,371.0 T 164.0,288.0  L410.0 288.0Q 410.0,338.0  381.0,371.0 T 297.0,404.0 Z">
</path>
</defs>
<use x="568.0" y="0" xlink:href="#g101/TT1"/>
<defs>
<path id="g109/TT1" d="M822.0 300.0 L822.0 0 L702.0 0 L702.0 266.0Q 702.0,394.0  612.0,394.0 Q 560.0,394.0  533.0,354.5 T 506.0,262.0  L506.0 0 L386.0 0 L386.0 290.0Q 386.0,337.0  363.5,365.5 T 297.0,394.0 Q 246.0,394.0  219.0,355.5 T 192.0,264.0  L192.0 0 L72.0 0 L72.0 480.0 L186.0 480.0 L186.0 403.0 L188.0 403.0Q 205.0,442.0  244.0,468.0 T 337.0,494.0 Q 390.0,494.0  428.0,470.0 T 487.0,403.0 Q 511.0,447.0  551.5,470.5 T 645.0,494.0 Q 733.0,494.0  777.5,437.5 T 822.0,300.0 Z">
</path>
</defs>
<use x="1142.0" y="0" xlink:href="#g109/TT1"/>
<defs>
<path id="g112/TT1" d="M187.0 413.0 L190.0 413.0Q 211.0,446.0  253.5,470.0 T 356.0,494.0 Q 423.0,494.0  476.0,461.0 T 559.0,370.0 T 589.0,242.0 Q 589.0,172.0  560.0,113.5 T 477.5,20.5 T 353.0,-14.0 Q 303.0,-14.0  260.0,7.0 T 194.0,64.0  L192.0 64.0 L192.0 -240.0 L72.0 -240.0 L72.0 480.0 L187.0 480.0 L187.0 413.0Z M329.0 396.0Q 287.0,396.0  255.0,373.5 T 205.5,314.5 T 188.0,240.0 Q 188.0,202.0  205.5,166.5 T 255.0,108.5 T 329.0,86.0 Q 373.0,86.0  404.5,108.5 T 451.5,167.0 T 467.0,242.0 Q 467.0,281.0  451.5,316.5 T 404.5,374.0 T 373.0,396.0 Z">
</path>
</defs>
<use x="2032.0" y="0" xlink:href="#g112/TT1"/>
<use x="2665.0" y="0" xlink:href="#g101/TT1"/>
<defs>
<path id="g114/TT1" d="M187.0 480.0 L187.0 400.0 L189.0 400.0Q 209.0,443.0  246.0,468.5 T 329.0,494.0 Q 346.0,494.0  358.0,491.0  L358.0 381.0Q 338.0,386.0  321.0,386.0 Q 272.0,386.0  243.0,363.0 T 203.0,310.5 T 192.0,257.0  L192.0 0 L72.0 0 L72.0 480.0 L187.0 480.0Z">
</path>
</defs>
<use x="3239.0" y="0" xlink:href="#g114/TT1"/>
<defs>
<path id="g97/TT1" d="M367.0 61.0Q 349.0,29.0  308.5,8.5 T 218.0,-12.0 Q 175.0,-12.0  134.0,3.0 T 65.5,51.5 T 38.0,137.0 Q 38.0,233.0  131.0,266.5 T 368.0,300.0  L368.0 312.0Q 368.0,354.0  337.0,377.0 T 258.0,400.0 Q 221.0,400.0  186.0,384.5 T 127.0,345.0  L65.0 418.0Q 105.0,455.0  158.5,474.5 T 268.0,494.0 Q 385.0,494.0  433.5,436.0 T 482.0,292.0  L482.0 0 L370.0 0 L370.0 61.0 L367.0 61.0Z M341.0 219.0Q 158.0,219.0  158.0,139.0 Q 158.0,107.0  182.5,93.0 T 242.0,79.0 Q 303.0,79.0  335.5,111.5 T 368.0,202.0  L368.0 219.0 L341.0 219.0Z">
</path>
</defs>
<use x="3603.0" y="0" xlink:href="#g97/TT1"/>
<defs>
<path id="g116/TT1" d="M3.0 480.0 L87.0 480.0 L87.0 619.0 L205.0 619.0 L205.0 480.0 L325.0 480.0 L325.0 384.0 L205.0 384.0 L205.0 161.0Q 205.0,125.0  218.0,106.0 T 268.0,87.0 Q 299.0,87.0  319.0,97.0  L323.0 3.0Q 289.0,-10.0  243.0,-10.0 Q 155.0,-10.0  121.0,35.5 T 87.0,160.0  L87.0 384.0 L3.0 384.0 L3.0 480.0Z">
</path>
</defs>
<use x="4153.0" y="0" xlink:href="#g116/TT1"/>
<defs>
<path id="g117/TT1" d="M396.0 0 L396.0 77.0 L394.0 77.0Q 377.0,39.0  336.5,12.5 T 245.0,-14.0 Q 157.0,-14.0  112.5,42.5 T 68.0,180.0  L68.0 480.0 L188.0 480.0 L188.0 214.0Q 188.0,86.0  278.0,86.0 Q 332.0,86.0  361.0,124.5 T 390.0,216.0  L390.0 480.0 L510.0 480.0 L510.0 0 L396.0 0Z">
</path>
</defs>
<use x="4493.0" y="0" xlink:href="#g117/TT1"/>
<use x="5075.0" y="0" xlink:href="#g114/TT1"/>
<use x="5439.0" y="0" xlink:href="#g101/TT1"/>
<defs>
<path id="g105/TT1" d="M133.0 715.0Q 166.0,715.0  188.5,694.5 T 211.0,643.0 Q 211.0,612.0  188.5,591.5 T 133.0,571.0 Q 101.0,571.0  79.0,592.5 T 57.0,643.0 Q 57.0,672.0  79.0,693.5 T 133.0,715.0 Z M74.0 480.0 L194.0 480.0 L194.0 0 L74.0 0 L74.0 480.0Z">
</path>
</defs>
<use x="6263.0" y="0" xlink:href="#g105/TT1"/>
<defs>
<path id="g110/TT1" d="M186.0 480.0 L186.0 403.0 L188.0 403.0Q 205.0,441.0  245.5,467.5 T 337.0,494.0 Q 425.0,494.0  469.5,437.5 T 514.0,300.0  L514.0 0 L394.0 0 L394.0 266.0Q 394.0,394.0  304.0,394.0 Q 250.0,394.0  221.0,355.5 T 192.0,264.0  L192.0 0 L72.0 0 L72.0 480.0 L186.0 480.0Z">
</path>
</defs>
<use x="6531.0" y="0" xlink:href="#g110/TT1"/>
<defs>
<path id="g115/TT1" d="M230.0 404.0Q 198.0,404.0  175.5,391.0 T 153.0,352.0 Q 153.0,327.0  176.0,315.0 T 257.0,289.0 Q 325.0,273.0  368.5,241.0 T 412.0,146.0 Q 412.0,64.0  355.5,25.0 T 212.0,-14.0 Q 155.0,-14.0  102.0,7.0 T 15.0,65.0  L94.0 139.0Q 114.0,112.0  146.5,95.5 T 217.0,79.0 Q 248.0,79.0  271.0,93.0 T 294.0,136.0 Q 294.0,164.0  269.5,177.5 T 184.0,205.0 Q 119.0,221.0  80.5,250.5 T 42.0,341.0 Q 42.0,416.0  98.0,455.0 T 233.0,494.0 Q 287.0,494.0  336.0,475.0 T 413.0,421.0  L335.0 352.0Q 318.0,374.0  290.0,389.0 T 230.0,404.0 Z">
</path>
</defs>
<use x="7113.0" y="0" xlink:href="#g115/TT1"/>
<use x="7557.0" y="0" xlink:href="#g105/TT1"/>
<defs>
<path id="g100/TT1" d="M446.0 0 L446.0 72.0 L444.0 72.0Q 420.0,31.0  375.0,8.5 T 279.0,-14.0 Q 208.0,-14.0  154.5,20.5 T 72.0,113.5 T 43.0,242.0 Q 43.0,312.0  73.0,370.0 T 156.0,461.0 T 276.0,494.0 Q 377.0,494.0  437.0,419.0  L440.0 419.0 L440.0 756.0 L560.0 756.0 L560.0 0 L446.0 0Z M303.0 86.0Q 345.0,86.0  377.0,108.5 T 426.5,166.5 T 444.0,240.0 Q 444.0,278.0  426.5,314.5 T 377.0,373.5 T 303.0,396.0 Q 259.0,396.0  227.5,374.0 T 180.5,316.5 T 165.0,242.0 Q 165.0,203.0  180.5,167.0 T 227.5,108.5 T 259.0,86.0 Z">
</path>
</defs>
<use x="7825.0" y="0" xlink:href="#g100/TT1"/>
<use x="8459.0" y="0" xlink:href="#g101/TT1"/>
</g>
<g fill="#2a3037" stroke="#2a3037" transform="translate(129.96 45.59) scale(0.0068 -0.0068)">
<defs>
<path id="g128/TT2" d="M2013.0 465.0Q 1949.0,218.0  1789.5,96.5 T 1407.0,-25.0 Q 1048.0,-25.0  883.5,200.5 T 719.0,743.0 Q 719.0,1094.0  912.5,1292.5 T 1409.0,1491.0 Q 1624.0,1491.0  1776.0,1382.0 T 1989.0,1063.0  L1798.0 1018.0Q 1703.0,1325.0  1407.0,1325.0 Q 1167.0,1325.0  1043.5,1167.5 T 920.0,745.0 Q 920.0,439.0  1050.0,290.0 T 1391.0,141.0 Q 1735.0,141.0  1821.0,514.0 Z M367.0 1485.0Q 481.0,1485.0  562.0,1403.5 T 643.0,1208.0 Q 643.0,1093.0  561.5,1011.5 T 367.0,930.0 Q 253.0,930.0  171.5,1011.5 T 90.0,1208.0 Q 90.0,1323.0  171.0,1404.0 T 367.0,1485.0 Z M367.0 1038.0Q 436.0,1038.0  485.5,1088.0 T 535.0,1208.0 Q 535.0,1278.0  485.5,1327.0 T 367.0,1376.0 Q 297.0,1376.0  248.0,1327.0 T 199.0,1208.0 Q 199.0,1138.0  248.0,1088.0 T 367.0,1038.0 Z">
</path>
</defs>
<use x="0" y="0" xlink:href="#g128/TT2"/>
</g>
<text id="Text_1229" x="0" y="45.59" font-size="10.5pt" font-family="Avenir Next for SAS" font-weight="bold" fill="#2a3037" text-anchor="start" opacity="0">
Temperature inside ℃</text>
<defs>
<clipPath id="ClipPath3">
<rect x="22" y="412" width="946" height="57">
</rect>
</clipPath>
</defs>
<g clip-path="url(#ClipPath3)">
<g fill="#626f80" stroke="#626f80" transform="translate(25.0 426.65) scale(0.012 -0.012)">
<use x="0" y="0" xlink:href="#g50/TT0"/>
<defs>
<path id="g54/TT0" d="M203.0 397.0Q 218.0,409.0  247.0,416.0 T 304.0,423.0 Q 365.0,423.0  414.5,395.5 T 492.0,318.0 T 520.0,205.0 Q 520.0,140.0  490.5,89.5 T 408.5,10.5 T 290.0,-18.0 Q 224.0,-18.0  171.5,10.5 T 89.5,89.5 T 60.0,205.0 Q 60.0,255.0  77.0,301.5 T 124.0,397.0  L317.0 708.0 L400.0 708.0 L201.0 399.0 L203.0 397.0Z M290.0 43.0Q 336.0,43.0  372.0,64.0 T 428.0,122.0 T 448.0,205.0 Q 448.0,275.0  405.0,320.0 T 290.0,365.0 Q 218.0,365.0  175.0,320.0 T 132.0,205.0 Q 132.0,159.0  152.0,122.0 T 208.0,64.0 T 244.0,43.0 Z">
</path>
</defs>
<use x="580.0" y="0" xlink:href="#g54/TT0"/>
<defs>
<path id="g70/TT0" d="M166.0 0 L94.0 0 L94.0 708.0 L521.0 708.0 L521.0 644.0 L166.0 644.0 L166.0 398.0 L496.0 398.0 L496.0 335.0 L166.0 335.0 L166.0 0Z">
</path>
</defs>
<use x="1160.0" y="0" xlink:href="#g70/TT0"/>
<defs>
<path id="g101/TT0" d="M515.0 216.0 L127.0 216.0Q 128.0,169.0  150.5,130.5 T 212.0,69.0 T 298.0,46.0 Q 347.0,46.0  387.0,69.5 T 448.0,127.0  L499.0 87.0Q 421.0,-12.0  298.0,-12.0 Q 229.0,-12.0  174.0,20.0 T 87.5,108.0 T 56.0,234.0 Q 56.0,303.0  87.0,359.5 T 172.0,448.0 T 292.0,480.0 Q 363.0,480.0  413.5,449.5 T 490.0,366.0 T 516.0,248.0 Q 516.0,228.0  515.0,216.0 Z M292.0 423.0Q 248.0,423.0  211.5,402.0 T 153.0,345.5 T 128.0,270.0  L447.0 270.0Q 444.0,338.0  403.5,380.5 T 292.0,423.0 Z">
</path>
</defs>
<use x="1722.0" y="0" xlink:href="#g101/TT0"/>
<defs>
<path id="g98/TT0" d="M160.0 0 L92.0 0 L92.0 756.0 L160.0 756.0 L160.0 387.0 L162.0 387.0Q 191.0,431.0  239.0,455.5 T 339.0,480.0 Q 410.0,480.0  465.5,447.5 T 551.0,359.0 T 581.0,234.0 Q 581.0,165.0  551.0,109.0 T 465.5,20.5 T 339.0,-12.0 Q 287.0,-12.0  239.0,12.0 T 162.0,79.0  L160.0 79.0 L160.0 0Z M332.0 423.0Q 280.0,423.0  239.0,398.0 T 175.0,330.0 T 152.0,234.0 Q 152.0,181.0  175.0,138.0 T 239.0,70.5 T 332.0,46.0 Q 387.0,46.0  427.0,71.0 T 488.0,138.5 T 509.0,234.0 Q 509.0,287.0  488.0,330.0 T 427.0,398.0 T 387.0,423.0 Z">
</path>
</defs>
<use x="2294.0" y="0" xlink:href="#g98/TT0"/>
</g>
<text x="42.0" y="426.65" font-size="9.0pt" font-family="Avenir Next for SAS" fill="#626f80" text-anchor="middle" opacity="0">
26Feb</text>
<g fill="#626f80" stroke="#626f80" transform="translate(29.0 441.35) scale(0.012 -0.012)">
<use x="0" y="0" xlink:href="#g50/TT0"/>
<use x="580.0" y="0" xlink:href="#g48/TT0"/>
<use x="1160.0" y="0" xlink:href="#g50/TT0"/>
<defs>
<path id="g53/TT0" d="M180.0 644.0 L175.0 425.0Q 219.0,441.0  273.0,441.0 Q 339.0,441.0  391.5,413.0 T 473.5,334.5 T 503.0,219.0 Q 503.0,151.0  473.5,97.0 T 390.5,12.5 T 268.0,-18.0 Q 194.0,-18.0  140.0,16.0 T 56.0,111.0  L121.0 140.0Q 140.0,96.0  179.0,70.0 T 264.0,44.0 Q 311.0,44.0  349.0,66.0 T 408.5,126.5 T 430.0,212.0 Q 430.0,289.0  380.5,335.5 T 254.0,382.0 Q 180.0,382.0  107.0,343.0  L114.0 708.0 L475.0 708.0 L475.0 644.0 L180.0 644.0Z">
</path>
</defs>
<use x="1740.0" y="0" xlink:href="#g53/TT0"/>
</g>
<text x="42.0" y="441.35" font-size="9.0pt" font-family="Avenir Next for SAS" fill="#626f80" text-anchor="middle" opacity="0">
2025</text>
<g fill="#626f80" stroke="#626f80" transform="translate(141.33 426.65) scale(0.012 -0.012)">
<use x="0" y="0" xlink:href="#g50/TT0"/>
<defs>
<path id="g56/TT0" d="M517.0 186.0Q 517.0,126.0  486.0,79.5 T 403.0,7.5 T 290.0,-18.0 Q 229.0,-18.0  177.0,7.5 T 94.0,79.5 T 63.0,186.0 Q 63.0,256.0  100.5,306.5 T 197.0,375.0  L197.0 377.0Q 150.0,393.0  120.0,437.5 T 90.0,537.0 Q 90.0,593.0  117.0,636.0 T 190.0,702.5 T 290.0,726.0 Q 344.0,726.0  390.0,702.5 T 463.0,636.0 T 490.0,537.0 Q 490.0,482.0  460.0,437.5 T 383.0,377.0  L383.0 375.0Q 442.0,358.0  479.5,307.0 T 517.0,186.0 Z M290.0 406.0Q 345.0,406.0  382.5,442.0 T 420.0,533.0 Q 420.0,590.0  383.0,627.5 T 290.0,665.0 Q 234.0,665.0  197.0,627.5 T 160.0,533.0 Q 160.0,478.0  197.5,442.0 T 290.0,406.0 Z M290.0 43.0Q 359.0,43.0  402.0,86.0 T 445.0,194.0 Q 445.0,258.0  402.0,300.0 T 290.0,342.0 Q 221.0,342.0  178.0,300.0 T 135.0,194.0 Q 135.0,129.0  178.0,86.0 T 290.0,43.0 Z">
</path>
</defs>
<use x="580.0" y="0" xlink:href="#g56/TT0"/>
<use x="1160.0" y="0" xlink:href="#g70/TT0"/>
<use x="1722.0" y="0" xlink:href="#g101/TT0"/>
<use x="2294.0" y="0" xlink:href="#g98/TT0"/>
</g>
<text x="158.33" y="426.65" font-size="9.0pt" font-family="Avenir Next for SAS" fill="#626f80" text-anchor="middle" opacity="0">
28Feb</text>
<g fill="#626f80" stroke="#626f80" transform="translate(271.65 426.65) scale(0.012 -0.012)">
<use x="0" y="0" xlink:href="#g48/TT0"/>
<use x="580.0" y="0" xlink:href="#g50/TT0"/>
<defs>
<path id="g77/TT0" d="M444.0 122.0 L445.0 122.0 L682.0 708.0 L792.0 708.0 L792.0 0 L720.0 0 L720.0 615.0 L718.0 615.0 L462.0 0 L424.0 0 L168.0 615.0 L166.0 615.0 L166.0 0 L94.0 0 L94.0 708.0 L204.0 708.0 L444.0 122.0Z">
</path>
</defs>
<use x="1160.0" y="0" xlink:href="#g77/TT0"/>
<defs>
<path id="g97/TT0" d="M260.0 423.0Q 220.0,423.0  183.0,408.0 T 121.0,368.0  L83.0 413.0Q 113.0,443.0  161.0,461.5 T 267.0,480.0 Q 347.0,480.0  398.0,436.0 T 449.0,310.0  L449.0 105.0Q 449.0,42.0  457.0,0  L396.0 0Q 389.0,40.0  389.0,76.0  L387.0 76.0Q 355.0,30.0  314.5,9.0 T 217.0,-12.0 Q 178.0,-12.0  141.0,2.5 T 79.5,49.0 T 55.0,130.0 Q 55.0,198.0  99.0,232.0 T 212.5,276.5 T 385.0,287.0  L385.0 302.0Q 385.0,362.0  353.0,392.5 T 260.0,423.0 Z M125.0 133.0Q 125.0,87.0  157.0,65.5 T 235.0,44.0 Q 304.0,44.0  344.5,89.0 T 385.0,199.0  L385.0 234.0 L365.0 234.0Q 259.0,234.0  192.0,213.5 T 125.0,133.0 Z">
</path>
</defs>
<use x="2046.0" y="0" xlink:href="#g97/TT0"/>
<defs>
<path id="g114/TT0" d="M86.0 468.0 L151.0 468.0Q 155.0,418.0  155.0,388.0  L157.0 388.0Q 177.0,429.0  217.5,454.5 T 307.0,480.0 Q 334.0,480.0  352.0,475.0  L343.0 411.0Q 337.0,413.0  322.5,415.0 T 295.0,417.0 Q 236.0,417.0  197.0,372.5 T 158.0,240.0  L158.0 0 L90.0 0 L90.0 365.0Q 90.0,425.0  86.0,468.0 Z">
</path>
</defs>
<use x="2580.0" y="0" xlink:href="#g114/TT0"/>
</g>
<text x="288.65" y="426.65" font-size="9.0pt" font-family="Avenir Next for SAS" fill="#626f80" text-anchor="middle" opacity="0">
02Mar</text>
<g fill="#626f80" stroke="#626f80" transform="translate(401.98 426.65) scale(0.012 -0.012)">
<use x="0" y="0" xlink:href="#g48/TT0"/>
<use x="580.0" y="0" xlink:href="#g52/TT0"/>
<use x="1160.0" y="0" xlink:href="#g77/TT0"/>
<use x="2046.0" y="0" xlink:href="#g97/TT0"/>
<use x="2580.0" y="0" xlink:href="#g114/TT0"/>
</g>
<text x="418.98" y="426.65" font-size="9.0pt" font-family="Avenir Next for SAS" fill="#626f80" text-anchor="middle" opacity="0">
04Mar</text>
<g fill="#626f80" stroke="#626f80" transform="translate(532.3 426.65) scale(0.012 -0.012)">
<use x="0" y="0" xlink:href="#g48/TT0"/>
<use x="580.0" y="0" xlink:href="#g54/TT0"/>
<use x="1160.0" y="0" xlink:href="#g77/TT0"/>
<use x="2046.0" y="0" xlink:href="#g97/TT0"/>
<use x="2580.0" y="0" xlink:href="#g114/TT0"/>
</g>
<text x="549.3" y="426.65" font-size="9.0pt" font-family="Avenir Next for SAS" fill="#626f80" text-anchor="middle" opacity="0">
06Mar</text>
<g fill="#626f80" stroke="#626f80" transform="translate(662.63 426.65) scale(0.012 -0.012)">
<use x="0" y="0" xlink:href="#g48/TT0"/>
<use x="580.0" y="0" xlink:href="#g56/TT0"/>
<use x="1160.0" y="0" xlink:href="#g77/TT0"/>
<use x="2046.0" y="0" xlink:href="#g97/TT0"/>
<use x="2580.0" y="0" xlink:href="#g114/TT0"/>
</g>
<text x="679.63" y="426.65" font-size="9.0pt" font-family="Avenir Next for SAS" fill="#626f80" text-anchor="middle" opacity="0">
08Mar</text>
<g fill="#626f80" stroke="#626f80" transform="translate(792.95 426.65) scale(0.012 -0.012)">
<defs>
<path id="g49/TT0" d="M358.0 0 L286.0 0 L286.0 619.0 L158.0 510.0 L114.0 560.0 L294.0 708.0 L358.0 708.0 L358.0 0Z">
</path>
</defs>
<use x="0" y="0" xlink:href="#g49/TT0"/>
<use x="580.0" y="0" xlink:href="#g48/TT0"/>
<use x="1160.0" y="0" xlink:href="#g77/TT0"/>
<use x="2046.0" y="0" xlink:href="#g97/TT0"/>
<use x="2580.0" y="0" xlink:href="#g114/TT0"/>
</g>
<text x="809.95" y="426.65" font-size="9.0pt" font-family="Avenir Next for SAS" fill="#626f80" text-anchor="middle" opacity="0">
10Mar</text>
<g fill="#626f80" stroke="#626f80" transform="translate(923.28 426.65) scale(0.012 -0.012)">
<use x="0" y="0" xlink:href="#g49/TT0"/>
<use x="580.0" y="0" xlink:href="#g50/TT0"/>
<use x="1160.0" y="0" xlink:href="#g77/TT0"/>
<use x="2046.0" y="0" xlink:href="#g97/TT0"/>
<use x="2580.0" y="0" xlink:href="#g114/TT0"/>
</g>
<text x="940.28" y="426.65" font-size="9.0pt" font-family="Avenir Next for SAS" fill="#626f80" text-anchor="middle" opacity="0">
12Mar</text>
</g>
<g fill="#2a3037" stroke="#2a3037" transform="translate(464.0 465.44) scale(0.014 -0.014)">
<defs>
<path id="g68/TT1" d="M329.0 708.0Q 430.0,708.0  518.5,673.0 T 663.5,558.5 T 720.0,354.0 Q 720.0,237.0  663.0,157.0 T 516.5,38.5 T 329.0,0  L78.0 0 L78.0 708.0 L329.0 708.0Z M585.0 354.0Q 585.0,492.0  506.0,546.0 T 309.0,600.0  L204.0 600.0 L204.0 110.0 L309.0 110.0Q 424.0,110.0  504.5,166.5 T 585.0,354.0 Z">
</path>
</defs>
<use x="0" y="0" xlink:href="#g68/TT1"/>
<use x="764.0" y="0" xlink:href="#g97/TT1"/>
<use x="1314.0" y="0" xlink:href="#g116/TT1"/>
<use x="1654.0" y="0" xlink:href="#g101/TT1"/>
<use x="2478.0" y="0" xlink:href="#g116/TT1"/>
<use x="2818.0" y="0" xlink:href="#g105/TT1"/>
<use x="3086.0" y="0" xlink:href="#g109/TT1"/>
<use x="3976.0" y="0" xlink:href="#g101/TT1"/>
</g>
<text id="Text_1231" x="495.0" y="465.44" font-size="10.5pt" font-family="Avenir Next for SAS" font-weight="bold" fill="#2a3037" text-anchor="middle" opacity="0">
Date time</text>
</g>
<g transform=" translate(16.0 -16.0)">
</g>
<g transform=" translate(16.0 -16.0)">
</g>
<g transform=" translate(16.0 -16.0)">
<rect x="268.0" y="473.3" rx="5" ry="5" width="431.44" height="26.7" fill="#ffffff">
</rect>
<path d="M274.0 486.65L324.0 486.65Z" stroke="#287fc7" stroke-width="3.0" fill="none">
</path>
<g fill="#626f80" stroke="#626f80" transform="translate(328.0 490.95) scale(0.012 -0.012)">
<defs>
<path id="g84/TT0" d="M321.0 0 L249.0 0 L249.0 644.0 L12.0 644.0 L12.0 708.0 L558.0 708.0 L558.0 644.0 L321.0 644.0 L321.0 0Z">
</path>
</defs>
<use x="0" y="0" xlink:href="#g84/TT0"/>
<use x="570.0" y="0" xlink:href="#g101/TT0"/>
<defs>
<path id="g109/TT0" d="M311.0 480.0Q 356.0,480.0  395.0,458.0 T 455.0,381.0 Q 479.0,429.0  521.0,454.5 T 619.0,480.0 Q 706.0,480.0  751.5,428.0 T 797.0,287.0  L797.0 0 L729.0 0 L729.0 259.0Q 729.0,423.0  608.0,423.0 Q 540.0,423.0  507.5,372.5 T 475.0,249.0  L475.0 0 L407.0 0 L407.0 273.0Q 407.0,347.0  382.5,385.0 T 294.0,423.0 Q 260.0,423.0  228.5,402.5 T 177.5,340.5 T 158.0,240.0  L158.0 0 L90.0 0 L90.0 365.0Q 90.0,425.0  86.0,468.0  L151.0 468.0Q 155.0,418.0  155.0,388.0  L157.0 388.0Q 178.0,429.0  219.5,454.5 T 311.0,480.0 Z">
</path>
</defs>
<use x="1142.0" y="0" xlink:href="#g109/TT0"/>
<defs>
<path id="g112/TT0" d="M90.0 -240.0 L90.0 468.0 L158.0 468.0 L158.0 387.0 L161.0 387.0Q 189.0,431.0  237.0,455.5 T 337.0,480.0 Q 408.0,480.0  463.5,447.5 T 549.0,359.0 T 579.0,234.0 Q 579.0,165.0  549.0,109.0 T 463.5,20.5 T 337.0,-12.0 Q 286.0,-12.0  238.0,12.0 T 161.0,79.0  L158.0 79.0 L158.0 -240.0 L90.0 -240.0Z M330.0 423.0Q 278.0,423.0  237.0,398.0 T 173.0,330.0 T 150.0,234.0 Q 150.0,181.0  173.0,138.0 T 237.0,70.5 T 330.0,46.0 Q 385.0,46.0  425.0,71.0 T 486.0,138.5 T 507.0,234.0 Q 507.0,287.0  486.0,330.0 T 425.0,398.0 T 385.0,423.0 Z">
</path>
</defs>
<use x="2025.0" y="0" xlink:href="#g112/TT0"/>
<use x="2660.0" y="0" xlink:href="#g101/TT0"/>
<use x="3232.0" y="0" xlink:href="#g114/TT0"/>
<use x="3592.0" y="0" xlink:href="#g97/TT0"/>
<defs>
<path id="g116/TT0" d="M169.0 411.0 L169.0 138.0Q 169.0,89.0  187.0,70.5 T 239.0,52.0 Q 268.0,52.0  298.0,67.0  L301.0 8.0Q 264.0,-6.0  221.0,-6.0 Q 173.0,-6.0  137.0,22.0 T 101.0,119.0  L101.0 411.0 L4.0 411.0 L4.0 468.0 L101.0 468.0 L101.0 600.0 L169.0 600.0 L169.0 468.0 L301.0 468.0 L301.0 411.0 L169.0 411.0Z">
</path>
</defs>
<use x="4126.0" y="0" xlink:href="#g116/TT0"/>
<defs>
<path id="g117/TT0" d="M426.0 80.0 L424.0 80.0Q 405.0,40.0  359.5,14.0 T 264.0,-12.0 Q 177.0,-12.0  131.5,40.0 T 86.0,181.0  L86.0 468.0 L154.0 468.0 L154.0 209.0Q 154.0,130.0  182.5,87.5 T 281.0,45.0 Q 319.0,45.0  351.0,65.5 T 403.0,127.0 T 423.0,228.0  L423.0 468.0 L491.0 468.0 L491.0 103.0Q 491.0,43.0  495.0,0  L430.0 0Q 426.0,50.0  426.0,80.0 Z">
</path>
</defs>
<use x="4443.0" y="0" xlink:href="#g117/TT0"/>
<use x="5024.0" y="0" xlink:href="#g114/TT0"/>
<use x="5384.0" y="0" xlink:href="#g101/TT0"/>
<defs>
<path id="g105/TT0" d="M125.0 600.0Q 106.0,600.0  91.5,614.0 T 77.0,648.0 Q 77.0,668.0  91.5,682.0 T 125.0,696.0 Q 144.0,696.0  158.5,682.0 T 173.0,648.0 Q 173.0,628.0  158.5,614.0 T 125.0,600.0 Z M159.0 0 L91.0 0 L91.0 468.0 L159.0 468.0 L159.0 0Z">
</path>
</defs>
<use x="6206.0" y="0" xlink:href="#g105/TT0"/>
<defs>
<path id="g110/TT0" d="M155.0 388.0 L157.0 388.0Q 176.0,428.0  221.5,454.0 T 317.0,480.0 Q 404.0,480.0  449.5,428.0 T 495.0,287.0  L495.0 0 L427.0 0 L427.0 259.0Q 427.0,338.0  398.5,380.5 T 300.0,423.0 Q 262.0,423.0  230.0,402.5 T 178.0,341.0 T 158.0,240.0  L158.0 0 L90.0 0 L90.0 365.0Q 90.0,425.0  86.0,468.0  L151.0 468.0Q 155.0,418.0  155.0,388.0 Z">
</path>
</defs>
<use x="6456.0" y="0" xlink:href="#g110/TT0"/>
<defs>
<path id="g115/TT0" d="M224.0 423.0Q 183.0,423.0  154.0,404.5 T 125.0,350.0 Q 125.0,318.0  151.0,300.0 T 237.0,270.0 Q 320.0,253.0  359.5,220.0 T 399.0,133.0 Q 399.0,59.0  347.5,23.5 T 223.0,-12.0 Q 167.0,-12.0  118.0,11.0 T 38.0,79.0  L92.0 119.0Q 111.0,87.0  146.5,66.5 T 222.0,46.0 Q 270.0,46.0  301.0,65.5 T 332.0,128.0 Q 332.0,163.0  299.5,182.0 T 194.0,218.0 Q 136.0,232.0  98.0,258.5 T 60.0,344.0 Q 60.0,411.0  108.5,445.5 T 227.0,480.0 Q 277.0,480.0  323.0,457.5 T 391.0,396.0  L339.0 357.0Q 324.0,387.0  293.0,405.0 T 224.0,423.0 Z">
</path>
</defs>
<use x="7037.0" y="0" xlink:href="#g115/TT0"/>
<use x="7481.0" y="0" xlink:href="#g105/TT0"/>
<defs>
<path id="g100/TT0" d="M298.0 -12.0Q 227.0,-12.0  171.5,20.5 T 86.0,109.0 T 56.0,234.0 Q 56.0,303.0  86.0,359.0 T 171.5,447.5 T 298.0,480.0 Q 350.0,480.0  398.0,455.5 T 475.0,387.0  L477.0 387.0 L477.0 756.0 L545.0 756.0 L545.0 0 L477.0 0 L477.0 79.0 L475.0 79.0Q 446.0,36.0  398.0,12.0 T 298.0,-12.0 Z M305.0 46.0Q 357.0,46.0  398.0,70.5 T 462.0,138.0 T 485.0,234.0 Q 485.0,287.0  462.0,330.0 T 398.0,398.0 T 305.0,423.0 Q 250.0,423.0  210.0,398.0 T 149.0,330.0 T 128.0,234.0 Q 128.0,181.0  149.0,138.5 T 210.0,71.0 T 250.0,46.0 Z">
</path>
</defs>
<use x="7731.0" y="0" xlink:href="#g100/TT0"/>
<use x="8368.0" y="0" xlink:href="#g101/TT0"/>
</g>
<g fill="#626f80" stroke="#626f80" transform="translate(438.28 490.95) scale(0.0059 -0.0059)">
<use x="0" y="0" xlink:href="#g128/TT2"/>
</g>
<text x="328.0" y="490.95" font-size="9.0pt" font-family="Avenir Next for SAS" fill="#626f80" text-anchor="start" opacity="0">
Temperature inside ℃</text>
<path d="M458.54 486.65L508.54 486.65Z" stroke="#c79f27" stroke-width="3.0" fill="none">
</path>
<g fill="#626f80" stroke="#626f80" transform="translate(512.54 490.95) scale(0.012 -0.012)">
<defs>
<path id="g65/TT0" d="M89.0 0 L10.0 0 L316.0 708.0 L386.0 708.0 L690.0 0 L610.0 0 L532.0 186.0 L166.0 186.0 L89.0 0Z M193.0 252.0 L505.0 252.0 L349.0 628.0 L193.0 252.0Z">
</path>
</defs>
<use x="0" y="0" xlink:href="#g65/TT0"/>
<defs>
<path id="g86/TT0" d="M311.0 93.0 L313.0 93.0 L543.0 708.0 L620.0 708.0 L349.0 0 L273.0 0 L3.0 708.0 L81.0 708.0 L311.0 93.0Z">
</path>
</defs>
<use x="700.0" y="0" xlink:href="#g86/TT0"/>
<defs>
<path id="g71/TT0" d="M426.0 663.0Q 338.0,663.0  271.0,621.0 T 168.0,508.0 T 132.0,354.0 Q 132.0,271.0  168.0,200.5 T 271.0,88.0 T 426.0,46.0 Q 484.0,46.0  534.5,58.5 T 617.0,92.0  L617.0 307.0 L452.0 307.0 L452.0 370.0 L689.0 370.0 L689.0 51.0Q 574.0,-18.0  425.0,-18.0 Q 319.0,-18.0  235.0,30.0 T 103.5,163.0 T 56.0,354.0 Q 56.0,460.0  104.0,545.0 T 236.5,678.0 T 425.0,726.0 Q 584.0,726.0  681.0,631.0  L631.0 581.0Q 554.0,663.0  426.0,663.0 Z">
</path>
</defs>
<use x="1323.0" y="0" xlink:href="#g71/TT0"/>
<defs>
<path id="g95/TT0" d="M0 -75.0 L500.0 -75.0 L500.0 -125.0 L0 -125.0 L0 -75.0Z">
</path>
</defs>
<use x="2102.0" y="0" xlink:href="#g95/TT0"/>
<use x="2602.0" y="0" xlink:href="#g84/TT0"/>
<defs>
<path id="g69/TT0" d="M166.0 64.0 L545.0 64.0 L545.0 0 L94.0 0 L94.0 708.0 L533.0 708.0 L533.0 644.0 L166.0 644.0 L166.0 400.0 L509.0 400.0 L509.0 337.0 L166.0 337.0 L166.0 64.0Z">
</path>
</defs>
<use x="3172.0" y="0" xlink:href="#g69/TT0"/>
<use x="3764.0" y="0" xlink:href="#g77/TT0"/>
<defs>
<path id="g80/TT0" d="M294.0 708.0Q 405.0,708.0  469.0,660.0 T 533.0,519.0 Q 533.0,426.0  468.0,377.5 T 292.0,329.0  L166.0 329.0 L166.0 0 L94.0 0 L94.0 708.0 L294.0 708.0Z M288.0 390.0Q 372.0,390.0  416.5,423.0 T 461.0,519.0 Q 461.0,583.0  416.5,614.5 T 288.0,646.0  L166.0 646.0 L166.0 390.0 L288.0 390.0Z">
</path>
</defs>
<use x="4650.0" y="0" xlink:href="#g80/TT0"/>
<use x="5230.0" y="0" xlink:href="#g95/TT0"/>
<defs>
<path id="g73/TT0" d="M166.0 0 L94.0 0 L94.0 708.0 L166.0 708.0 L166.0 0Z">
</path>
</defs>
<use x="5730.0" y="0" xlink:href="#g73/TT0"/>
<defs>
<path id="g78/TT0" d="M596.0 105.0 L598.0 105.0 L598.0 708.0 L670.0 708.0 L670.0 0 L580.0 0 L168.0 609.0 L166.0 609.0 L166.0 0 L94.0 0 L94.0 708.0 L184.0 708.0 L596.0 105.0Z">
</path>
</defs>
<use x="5990.0" y="0" xlink:href="#g78/TT0"/>
<defs>
<path id="g83/TT0" d="M291.0 665.0Q 254.0,665.0  219.5,650.0 T 162.5,605.0 T 140.0,532.0 Q 140.0,490.0  160.5,464.0 T 210.5,424.5 T 294.0,393.0 Q 365.0,370.0  405.0,350.5 T 474.5,291.5 T 504.0,186.0 Q 504.0,119.0  471.0,73.0 T 385.0,4.5 T 273.0,-18.0 Q 206.0,-18.0  146.5,9.0 T 50.0,87.0  L112.0 133.0Q 137.0,93.0  179.0,68.5 T 274.0,44.0 Q 312.0,44.0  348.5,60.0 T 408.0,107.0 T 431.0,181.0 Q 431.0,227.0  408.0,255.5 T 351.5,299.0 T 258.0,333.0 Q 201.0,351.0  160.5,372.5 T 94.0,432.5 T 68.0,531.0 Q 68.0,596.0  101.5,640.0 T 186.5,705.0 T 294.0,726.0 Q 361.0,726.0  414.0,701.5 T 494.0,640.0  L437.0 594.0Q 414.0,627.0  377.0,646.0 T 291.0,665.0 Z">
</path>
</defs>
<use x="6754.0" y="0" xlink:href="#g83/TT0"/>
<use x="7318.0" y="0" xlink:href="#g73/TT0"/>
<defs>
<path id="g68/TT0" d="M329.0 708.0Q 421.0,708.0  507.0,667.5 T 647.0,546.5 T 701.0,354.0 Q 701.0,242.0  647.0,161.5 T 507.0,40.5 T 329.0,0  L94.0 0 L94.0 708.0 L329.0 708.0Z M309.0 64.0Q 411.0,64.0  482.5,105.0 T 589.5,212.0 T 625.0,354.0 Q 625.0,430.0  589.5,496.0 T 482.5,603.0 T 309.0,644.0  L166.0 644.0 L166.0 64.0 L309.0 64.0Z">
</path>
</defs>
<use x="7578.0" y="0" xlink:href="#g68/TT0"/>
<use x="8335.0" y="0" xlink:href="#g69/TT0"/>
</g>
<text x="512.54" y="490.95" font-size="9.0pt" font-family="Avenir Next for SAS" fill="#626f80" text-anchor="start" opacity="0">
AVG_TEMP_INSIDE</text>
<rect x="627.67" y="482.15" width="9.0" height="9.0" fill="#9471ff" opacity="0.5">
</rect>
<g fill="#626f80" stroke="#626f80" transform="translate(640.67 490.95) scale(0.012 -0.012)">
<defs>
<path id="g66/TT0" d="M305.0 708.0Q 401.0,708.0  467.0,666.0 T 533.0,527.0 Q 533.0,471.0  498.5,429.5 T 408.0,375.0  L408.0 373.0Q 479.0,365.0  523.5,318.0 T 568.0,196.0 Q 568.0,137.0  536.0,93.0 T 444.0,24.5 T 304.0,0  L94.0 0 L94.0 708.0 L305.0 708.0Z M311.0 398.0Q 372.0,398.0  416.5,428.0 T 461.0,522.0 Q 461.0,586.0  414.0,616.0 T 291.0,646.0  L166.0 646.0 L166.0 398.0 L311.0 398.0Z M300.0 62.0Q 385.0,62.0  440.0,96.0 T 495.0,200.0 Q 495.0,269.0  448.0,304.0 T 313.0,339.0  L166.0 339.0 L166.0 62.0 L300.0 62.0Z">
</path>
</defs>
<use x="0" y="0" xlink:href="#g66/TT0"/>
<use x="636.0" y="0" xlink:href="#g97/TT0"/>
<use x="1170.0" y="0" xlink:href="#g110/TT0"/>
<use x="1751.0" y="0" xlink:href="#g100/TT0"/>
<use x="2638.0" y="0" xlink:href="#g80/TT0"/>
<defs>
<path id="g108/TT0" d="M160.0 0 L92.0 0 L92.0 756.0 L160.0 756.0 L160.0 0Z">
</path>
</defs>
<use x="3218.0" y="0" xlink:href="#g108/TT0"/>
<defs>
<path id="g111/TT0" d="M305.0 -12.0Q 234.0,-12.0  177.0,20.0 T 88.0,108.0 T 56.0,234.0 Q 56.0,304.0  88.0,360.0 T 177.0,448.0 T 305.0,480.0 Q 377.0,480.0  434.0,448.0 T 523.0,360.0 T 555.0,234.0 Q 555.0,164.0  523.0,108.0 T 434.0,20.0 T 377.0,-12.0 Z M305.0 423.0Q 252.0,423.0  212.0,398.0 T 150.0,330.0 T 128.0,234.0 Q 128.0,181.0  150.0,138.5 T 212.0,71.0 T 305.0,46.0 Q 358.0,46.0  398.5,71.0 T 461.0,138.5 T 483.0,234.0 Q 483.0,287.0  461.0,330.0 T 398.5,398.0 T 358.0,423.0 Z">
</path>
</defs>
<use x="3470.0" y="0" xlink:href="#g111/TT0"/>
<use x="4081.0" y="0" xlink:href="#g116/TT0"/>
</g>
<text x="640.67" y="490.95" font-size="9.0pt" font-family="Avenir Next for SAS" fill="#626f80" text-anchor="start" opacity="0">
Band Plot</text>
</g>
</g>
</svg>
