<svg xmlns="http://www.w3.org/2000/svg" xmlns:xlink="http://www.w3.org/1999/xlink" version="1.1" width="1000" height="500" viewBox="0 0 1000 500">
<rect x="0" y="0" width="1000" height="500" fill="#ffffff">
</rect>
<g>
<rect x="0" y="0" rx="5" ry="5" width="1000.0" height="500.0" fill="#ffffff" opacity="0">
</rect>
<rect x="0" y="0" rx="5" ry="5" width="1000.0" height="500.0" fill="#ffffff" opacity="0">
</rect>
<rect x="0" y="0" rx="5" ry="5" width="1000.0" height="500.0" fill="#ffffff" opacity="0">
</rect>
<rect x="0" y="0" rx="5" ry="5" width="1000.0" height="500.0" fill="#ffffff" opacity="0">
</rect>
<g transform=" translate(16.0 -16.0)">
<defs>
<clipPath id="ClipPath0">
<rect x="18" y="46" width="953" height="366">
</rect>
</clipPath>
</defs>
<g clip-path="url(#ClipPath0)">
<defs>
<clipPath id="ClipPath1">
<rect x="18" y="48" width="951" height="364">
</rect>
</clipPath>
</defs>
<g clip-path="url(#ClipPath1)">
<g transform="">
<polyline id="Polyline_68" points="24.0,294.06  40.75,258.01  57.5,239.04  74.25,221.96  91.0,199.19  107.75,189.71  124.5,197.3  141.25,202.99  158.0,218.17  174.75,246.63  191.5,290.26  208.25,271.29  225.0,267.5  241.75,208.68  258.5,147.97  275.25,110.02  292.0,87.25  308.75,70.18  325.5,55.0  342.25,81.56  359.0,123.3  375.75,193.5  392.5,278.88  409.25,320.62  426.0,332.01  442.75,278.88  459.5,189.71  476.25,157.45  493.0,127.1  509.75,100.54  526.5,106.23  543.25,98.64  560.0,157.45  576.75,240.94  593.5,324.42  610.25,368.05  627.0,368.05  643.75,324.42  660.5,254.22  677.25,218.17  694.0,214.37  710.75,180.22  727.5,136.58  744.25,123.3  761.0,168.84  777.75,276.98  794.5,354.77  811.25,406.0  828.0,404.1  844.75,362.36  861.5,240.94  878.25,170.74  895.0,149.86  911.75,136.58  928.5,104.33  945.25,81.56  962.0,85.36 " fill="none" stroke="#287fc7" stroke-width="3.0">
</polyline>
</g>
<g transform="">
<polyline id="Polyline_183" points="24.0,294.06  40.75,258.01  57.5,239.04  74.25,221.96  91.0,199.19  107.75,189.71  124.5,197.3  141.25,202.99  158.0,218.17  174.75,246.63  191.5,290.26  208.25,271.29  225.0,267.5  241.75,208.68  258.5,147.97  275.25,110.02  292.0,87.25  308.75,70.18  325.5,55.0  342.25,81.56  359.0,123.3  375.75,193.5  392.5,278.88  409.25,320.62  426.0,332.01  442.75,278.88  459.5,189.71  476.25,157.45  493.0,127.1  509.75,100.54  526.5,106.23  543.25,98.64  560.0,157.45  576.75,240.94  593.5,324.42  610.25,368.05  627.0,368.05  643.75,324.42  660.5,254.22  677.25,218.17  694.0,214.37  710.75,180.22  727.5,136.58  744.25,123.3  761.0,168.84  777.75,276.98  794.5,354.77  811.25,406.0  828.0,404.1  844.75,362.36  861.5,240.94  878.25,170.74  895.0,149.86  911.75,136.58  928.5,104.33  945.25,81.56  962.0,85.36 " fill="none" stroke="#b7b7b7" stroke-width="3.0" stroke-dasharray="4,4" opacity="0.75">
</polyline>
</g>
<g transform="">
</g>
</g>
<path d="M18.0 362.36L969.0 362.36" stroke="#2a3037" stroke-dasharray="1,2" fill="none" opacity="0.4">
</path>
<path d="M18.0 267.5L969.0 267.5" stroke="#2a3037" stroke-dasharray="1,2" fill="none" opacity="0.4">
</path>
<path d="M18.0 172.63L969.0 172.63" stroke="#2a3037" stroke-dasharray="1,2" fill="none" opacity="0.4">
</path>
<path d="M18.0 77.77L969.0 77.77" stroke="#2a3037" stroke-dasharray="1,2" fill="none" opacity="0.4">
</path>
<path d="M24.0 412.0L24.0 48.0" stroke="#2a3037" stroke-dasharray="1,2" fill="none" opacity="0.4">
</path>
<path d="M225.0 412.0L225.0 48.0" stroke="#2a3037" stroke-dasharray="1,2" fill="none" opacity="0.4">
</path>
<path d="M426.0 412.0L426.0 48.0" stroke="#2a3037" stroke-dasharray="1,2" fill="none" opacity="0.4">
</path>
<path d="M627.0 412.0L627.0 48.0" stroke="#2a3037" stroke-dasharray="1,2" fill="none" opacity="0.4">
</path>
<path d="M828.0 412.0L828.0 48.0" stroke="#2a3037" stroke-dasharray="1,2" fill="none" opacity="0.4">
</path>
</g>
<defs>
<clipPath id="ClipPath2">
<rect x="0" y="49" width="18" height="363">
</rect>
</clipPath>
</defs>
<g clip-path="url(#ClipPath2)">
<g fill="#626f80" stroke="#626f80" transform="translate(-0.92 366.66) scale(0.012 -0.012)">
<defs>
<path id="g49/TT0" d="M358.0 0 L286.0 0 L286.0 619.0 L158.0 510.0 L114.0 560.0 L294.0 708.0 L358.0 708.0 L358.0 0Z">
</path>
</defs>
<use x="0" y="0" xlink:href="#g49/TT0"/>
<defs>
<path id="g53/TT0" d="M180.0 644.0 L175.0 425.0Q 219.0,441.0  273.0,441.0 Q 339.0,441.0  391.5,413.0 T 473.5,334.5 T 503.0,219.0 Q 503.0,151.0  473.5,97.0 T 390.5,12.5 T 268.0,-18.0 Q 194.0,-18.0  140.0,16.0 T 56.0,111.0  L121.0 140.0Q 140.0,96.0  179.0,70.0 T 264.0,44.0 Q 311.0,44.0  349.0,66.0 T 408.5,126.5 T 430.0,212.0 Q 430.0,289.0  380.5,335.5 T 254.0,382.0 Q 180.0,382.0  107.0,343.0  L114.0 708.0 L475.0 708.0 L475.0 644.0 L180.0 644.0Z">
</path>
</defs>
<use x="580.0" y="0" xlink:href="#g53/TT0"/>
</g>
<text id="Text_356" x="13.0" y="366.66" font-size="9.0pt" font-family="Avenir Next for SAS" fill="#626f80" text-anchor="end" opacity="0">
15</text>
<g fill="#626f80" stroke="#626f80" transform="translate(-0.92 271.8) scale(0.012 -0.012)">
<defs>
<path id="g50/TT0" d="M51.0 0 L51.0 75.0 L341.0 368.0Q 380.0,408.0  403.0,447.0 T 426.0,530.0 Q 426.0,590.0  385.5,627.5 T 286.0,665.0 Q 230.0,665.0  191.0,630.0 T 140.0,539.0  L69.0 553.0Q 84.0,629.0  144.0,677.5 T 286.0,726.0 Q 344.0,726.0  392.5,703.5 T 470.0,637.0 T 499.0,531.0 Q 499.0,469.0  470.0,421.5 T 384.0,317.0  L129.0 64.0 L504.0 64.0 L504.0 0 L51.0 0Z">
</path>
</defs>
<use x="0" y="0" xlink:href="#g50/TT0"/>
<defs>
<path id="g48/TT0" d="M522.0 353.0Q 522.0,195.0  467.0,88.5 T 290.0,-18.0 Q 167.0,-18.0  112.5,88.5 T 58.0,353.0 Q 58.0,512.0  112.5,619.0 T 290.0,726.0 Q 412.0,726.0  467.0,618.5 T 522.0,353.0 Z M131.0 353.0Q 131.0,226.0  167.5,135.0 T 290.0,44.0 Q 375.0,44.0  412.0,135.5 T 449.0,353.0 Q 449.0,480.0  412.0,572.5 T 290.0,665.0 Q 204.0,665.0  167.5,573.0 T 131.0,353.0 Z">
</path>
</defs>
<use x="580.0" y="0" xlink:href="#g48/TT0"/>
</g>
<text id="Text_357" x="13.0" y="271.8" font-size="9.0pt" font-family="Avenir Next for SAS" fill="#626f80" text-anchor="end" opacity="0">
20</text>
<g fill="#626f80" stroke="#626f80" transform="translate(-0.92 176.93) scale(0.012 -0.012)">
<use x="0" y="0" xlink:href="#g50/TT0"/>
<use x="580.0" y="0" xlink:href="#g53/TT0"/>
</g>
<text id="Text_358" x="13.0" y="176.93" font-size="9.0pt" font-family="Avenir Next for SAS" fill="#626f80" text-anchor="end" opacity="0">
25</text>
<g fill="#626f80" stroke="#626f80" transform="translate(-0.92 82.07) scale(0.012 -0.012)">
<defs>
<path id="g51/TT0" d="M245.0 402.0Q 319.0,402.0  364.5,433.5 T 410.0,532.0 Q 410.0,590.0  369.0,627.5 T 270.0,665.0 Q 226.0,665.0  191.0,643.5 T 135.0,582.0  L74.0 614.0Q 106.0,670.0  157.0,698.0 T 274.0,726.0 Q 331.0,726.0  378.0,703.5 T 453.0,638.0 T 481.0,536.0 Q 481.0,475.0  446.5,432.0 T 358.0,374.0  L358.0 372.0Q 421.0,359.0  461.0,312.0 T 501.0,196.0 Q 501.0,131.0  470.0,82.5 T 387.0,8.0 T 273.0,-18.0 Q 196.0,-18.0  137.5,19.5 T 49.0,127.0  L117.0 152.0Q 135.0,102.0  177.0,73.0 T 273.0,44.0 Q 314.0,44.0  350.0,62.5 T 407.5,115.5 T 429.0,196.0 Q 429.0,271.0  376.0,305.5 T 245.0,340.0  L214.0 340.0 L214.0 402.0 L245.0 402.0Z">
</path>
</defs>
<use x="0" y="0" xlink:href="#g51/TT0"/>
<use x="580.0" y="0" xlink:href="#g48/TT0"/>
</g>
<text id="Text_359" x="13.0" y="82.07" font-size="9.0pt" font-family="Avenir Next for SAS" fill="#626f80" text-anchor="end" opacity="0">
30</text>
</g>
<g fill="#2a3037" stroke="#2a3037" transform="translate(0 45.59) scale(0.014 -0.014)">
<defs>
<path id="g84/TT1" d="M221.0 598.0 L4.0 598.0 L4.0 708.0 L564.0 708.0 L564.0 598.0 L347.0 598.0 L347.0 0 L221.0 0 L221.0 598.0Z">
</path>
</defs>
<use x="0" y="0" xlink:href="#g84/TT1"/>
<defs>
<path id="g101/TT1" d="M529.0 202.0 L164.0 202.0Q 168.0,152.0  208.0,118.0 T 301.0,84.0 Q 384.0,84.0  428.0,146.0  L508.0 82.0Q 437.0,-14.0  302.0,-14.0 Q 228.0,-14.0  169.5,16.5 T 77.5,104.0 T 44.0,237.0 Q 44.0,313.0  77.0,371.5 T 168.0,462.0 T 298.0,494.0 Q 402.0,494.0  466.0,427.0 T 530.0,234.0 Q 530.0,213.0  529.0,202.0 Z M297.0 404.0Q 244.0,404.0  206.0,371.0 T 164.0,288.0  L410.0 288.0Q 410.0,338.0  381.0,371.0 T 297.0,404.0 Z">
</path>
</defs>
<use x="568.0" y="0" xlink:href="#g101/TT1"/>
<defs>
<path id="g109/TT1" d="M822.0 300.0 L822.0 0 L702.0 0 L702.0 266.0Q 702.0,394.0  612.0,394.0 Q 560.0,394.0  533.0,354.5 T 506.0,262.0  L506.0 0 L386.0 0 L386.0 290.0Q 386.0,337.0  363.5,365.5 T 297.0,394.0 Q 246.0,394.0  219.0,355.5 T 192.0,264.0  L192.0 0 L72.0 0 L72.0 480.0 L186.0 480.0 L186.0 403.0 L188.0 403.0Q 205.0,442.0  244.0,468.0 T 337.0,494.0 Q 390.0,494.0  428.0,470.0 T 487.0,403.0 Q 511.0,447.0  551.5,470.5 T 645.0,494.0 Q 733.0,494.0  777.5,437.5 T 822.0,300.0 Z">
</path>
</defs>
<use x="1142.0" y="0" xlink:href="#g109/TT1"/>
<defs>
<path id="g112/TT1" d="M187.0 413.0 L190.0 413.0Q 211.0,446.0  253.5,470.0 T 356.0,494.0 Q 423.0,494.0  476.0,461.0 T 559.0,370.0 T 589.0,242.0 Q 589.0,172.0  560.0,113.5 T 477.5,20.5 T 353.0,-14.0 Q 303.0,-14.0  260.0,7.0 T 194.0,64.0  L192.0 64.0 L192.0 -240.0 L72.0 -240.0 L72.0 480.0 L187.0 480.0 L187.0 413.0Z M329.0 396.0Q 287.0,396.0  255.0,373.5 T 205.5,314.5 T 188.0,240.0 Q 188.0,202.0  205.5,166.5 T 255.0,108.5 T 329.0,86.0 Q 373.0,86.0  404.5,108.5 T 451.5,167.0 T 467.0,242.0 Q 467.0,281.0  451.5,316.5 T 404.5,374.0 T 373.0,396.0 Z">
</path>
</defs>
<use x="2032.0" y="0" xlink:href="#g112/TT1"/>
<use x="2665.0" y="0" xlink:href="#g101/TT1"/>
<defs>
<path id="g114/TT1" d="M187.0 480.0 L187.0 400.0 L189.0 400.0Q 209.0,443.0  246.0,468.5 T 329.0,494.0 Q 346.0,494.0  358.0,491.0  L358.0 381.0Q 338.0,386.0  321.0,386.0 Q 272.0,386.0  243.0,363.0 T 203.0,310.5 T 192.0,257.0  L192.0 0 L72.0 0 L72.0 480.0 L187.0 480.0Z">
</path>
</defs>
<use x="3239.0" y="0" xlink:href="#g114/TT1"/>
<defs>
<path id="g97/TT1" d="M367.0 61.0Q 349.0,29.0  308.5,8.5 T 218.0,-12.0 Q 175.0,-12.0  134.0,3.0 T 65.5,51.5 T 38.0,137.0 Q 38.0,233.0  131.0,266.5 T 368.0,300.0  L368.0 312.0Q 368.0,354.0  337.0,377.0 T 258.0,400.0 Q 221.0,400.0  186.0,384.5 T 127.0,345.0  L65.0 418.0Q 105.0,455.0  158.5,474.5 T 268.0,494.0 Q 385.0,494.0  433.5,436.0 T 482.0,292.0  L482.0 0 L370.0 0 L370.0 61.0 L367.0 61.0Z M341.0 219.0Q 158.0,219.0  158.0,139.0 Q 158.0,107.0  182.5,93.0 T 242.0,79.0 Q 303.0,79.0  335.5,111.5 T 368.0,202.0  L368.0 219.0 L341.0 219.0Z">
</path>
</defs>
<use x="3603.0" y="0" xlink:href="#g97/TT1"/>
<defs>
<path id="g116/TT1" d="M3.0 480.0 L87.0 480.0 L87.0 619.0 L205.0 619.0 L205.0 480.0 L325.0 480.0 L325.0 384.0 L205.0 384.0 L205.0 161.0Q 205.0,125.0  218.0,106.0 T 268.0,87.0 Q 299.0,87.0  319.0,97.0  L323.0 3.0Q 289.0,-10.0  243.0,-10.0 Q 155.0,-10.0  121.0,35.5 T 87.0,160.0  L87.0 384.0 L3.0 384.0 L3.0 480.0Z">
</path>
</defs>
<use x="4153.0" y="0" xlink:href="#g116/TT1"/>
<defs>
<path id="g117/TT1" d="M396.0 0 L396.0 77.0 L394.0 77.0Q 377.0,39.0  336.5,12.5 T 245.0,-14.0 Q 157.0,-14.0  112.5,42.5 T 68.0,180.0  L68.0 480.0 L188.0 480.0 L188.0 214.0Q 188.0,86.0  278.0,86.0 Q 332.0,86.0  361.0,124.5 T 390.0,216.0  L390.0 480.0 L510.0 480.0 L510.0 0 L396.0 0Z">
</path>
</defs>
<use x="4493.0" y="0" xlink:href="#g117/TT1"/>
<use x="5075.0" y="0" xlink:href="#g114/TT1"/>
<use x="5439.0" y="0" xlink:href="#g101/TT1"/>
<defs>
<path id="g68/TT1" d="M329.0 708.0Q 430.0,708.0  518.5,673.0 T 663.5,558.5 T 720.0,354.0 Q 720.0,237.0  663.0,157.0 T 516.5,38.5 T 329.0,0  L78.0 0 L78.0 708.0 L329.0 708.0Z M585.0 354.0Q 585.0,492.0  506.0,546.0 T 309.0,600.0  L204.0 600.0 L204.0 110.0 L309.0 110.0Q 424.0,110.0  504.5,166.5 T 585.0,354.0 Z">
</path>
</defs>
<use x="6263.0" y="0" xlink:href="#g68/TT1"/>
<defs>
<path id="g105/TT1" d="M133.0 715.0Q 166.0,715.0  188.5,694.5 T 211.0,643.0 Q 211.0,612.0  188.5,591.5 T 133.0,571.0 Q 101.0,571.0  79.0,592.5 T 57.0,643.0 Q 57.0,672.0  79.0,693.5 T 133.0,715.0 Z M74.0 480.0 L194.0 480.0 L194.0 0 L74.0 0 L74.0 480.0Z">
</path>
</defs>
<use x="7027.0" y="0" xlink:href="#g105/TT1"/>
<defs>
<path id="g102/TT1" d="M0 384.0 L0 480.0 L91.0 480.0 L91.0 551.0Q 91.0,648.0  136.0,708.0 T 285.0,768.0 Q 321.0,768.0  346.0,761.0  L338.0 659.0Q 315.0,666.0  292.0,666.0 Q 211.0,666.0  211.0,558.0  L211.0 480.0 L322.0 480.0 L322.0 384.0 L211.0 384.0 L211.0 0 L91.0 0 L91.0 384.0 L0 384.0Z">
</path>
</defs>
<use x="7295.0" y="0" xlink:href="#g102/TT1"/>
<use x="7619.0" y="0" xlink:href="#g102/TT1"/>
<use x="7943.0" y="0" xlink:href="#g101/TT1"/>
<use x="8517.0" y="0" xlink:href="#g114/TT1"/>
<use x="8881.0" y="0" xlink:href="#g101/TT1"/>
<defs>
<path id="g110/TT1" d="M186.0 480.0 L186.0 403.0 L188.0 403.0Q 205.0,441.0  245.5,467.5 T 337.0,494.0 Q 425.0,494.0  469.5,437.5 T 514.0,300.0  L514.0 0 L394.0 0 L394.0 266.0Q 394.0,394.0  304.0,394.0 Q 250.0,394.0  221.0,355.5 T 192.0,264.0  L192.0 0 L72.0 0 L72.0 480.0 L186.0 480.0Z">
</path>
</defs>
<use x="9455.0" y="0" xlink:href="#g110/TT1"/>
<defs>
<path id="g99/TT1" d="M301.0 394.0Q 259.0,394.0  229.0,372.0 T 184.0,314.5 T 169.0,240.0 Q 169.0,201.0  184.5,165.5 T 231.0,108.0 T 305.0,86.0 Q 334.0,86.0  361.5,97.5 T 406.0,129.0  L481.0 53.0Q 451.0,21.0  404.5,3.5 T 304.0,-14.0 Q 232.0,-14.0  173.0,16.5 T 79.0,104.5 T 44.0,240.0 Q 44.0,316.0  78.5,373.5 T 171.5,462.5 T 301.0,494.0 Q 354.0,494.0  404.0,474.0 T 482.0,419.0  L400.0 347.0Q 386.0,367.0  358.0,380.5 T 301.0,394.0 Z">
</path>
</defs>
<use x="10037.0" y="0" xlink:href="#g99/TT1"/>
<use x="10525.0" y="0" xlink:href="#g101/TT1"/>
</g>
<g fill="#2a3037" stroke="#2a3037" transform="translate(158.89 45.59) scale(0.0068 -0.0068)">
<defs>
<path id="g128/TT2" d="M2013.0 465.0Q 1949.0,218.0  1789.5,96.5 T 1407.0,-25.0 Q 1048.0,-25.0  883.5,200.5 T 719.0,743.0 Q 719.0,1094.0  912.5,1292.5 T 1409.0,1491.0 Q 1624.0,1491.0  1776.0,1382.0 T 1989.0,1063.0  L1798.0 1018.0Q 1703.0,1325.0  1407.0,1325.0 Q 1167.0,1325.0  1043.5,1167.5 T 920.0,745.0 Q 920.0,439.0  1050.0,290.0 T 1391.0,141.0 Q 1735.0,141.0  1821.0,514.0 Z M367.0 1485.0Q 481.0,1485.0  562.0,1403.5 T 643.0,1208.0 Q 643.0,1093.0  561.5,1011.5 T 367.0,930.0 Q 253.0,930.0  171.5,1011.5 T 90.0,1208.0 Q 90.0,1323.0  171.0,1404.0 T 367.0,1485.0 Z M367.0 1038.0Q 436.0,1038.0  485.5,1088.0 T 535.0,1208.0 Q 535.0,1278.0  485.5,1327.0 T 367.0,1376.0 Q 297.0,1376.0  248.0,1327.0 T 199.0,1208.0 Q 199.0,1138.0  248.0,1088.0 T 367.0,1038.0 Z">
</path>
</defs>
<use x="0" y="0" xlink:href="#g128/TT2"/>
</g>
<g fill="#2a3037" stroke="#2a3037" transform="translate(173.19 45.59) scale(0.014 -0.014)">
<defs>
<path id="g40/TT1" d="M182.0 732.0 L266.0 677.0Q 206.0,593.0  172.5,492.0 T 139.0,288.0 Q 139.0,185.0  172.5,84.0 T 266.0,-101.0  L182.0 -156.0Q 112.0,-60.0  74.0,54.0 T 36.0,288.0 Q 36.0,408.0  74.0,522.0 T 182.0,732.0 Z">
</path>
</defs>
<use x="250.0" y="0" xlink:href="#g40/TT1"/>
<use x="580.0" y="0" xlink:href="#g105/TT1"/>
<use x="848.0" y="0" xlink:href="#g110/TT1"/>
<defs>
<path id="g115/TT1" d="M230.0 404.0Q 198.0,404.0  175.5,391.0 T 153.0,352.0 Q 153.0,327.0  176.0,315.0 T 257.0,289.0 Q 325.0,273.0  368.5,241.0 T 412.0,146.0 Q 412.0,64.0  355.5,25.0 T 212.0,-14.0 Q 155.0,-14.0  102.0,7.0 T 15.0,65.0  L94.0 139.0Q 114.0,112.0  146.5,95.5 T 217.0,79.0 Q 248.0,79.0  271.0,93.0 T 294.0,136.0 Q 294.0,164.0  269.5,177.5 T 184.0,205.0 Q 119.0,221.0  80.5,250.5 T 42.0,341.0 Q 42.0,416.0  98.0,455.0 T 233.0,494.0 Q 287.0,494.0  336.0,475.0 T 413.0,421.0  L335.0 352.0Q 318.0,374.0  290.0,389.0 T 230.0,404.0 Z">
</path>
</defs>
<use x="1430.0" y="0" xlink:href="#g115/TT1"/>
<use x="1874.0" y="0" xlink:href="#g105/TT1"/>
<defs>
<path id="g100/TT1" d="M446.0 0 L446.0 72.0 L444.0 72.0Q 420.0,31.0  375.0,8.5 T 279.0,-14.0 Q 208.0,-14.0  154.5,20.5 T 72.0,113.5 T 43.0,242.0 Q 43.0,312.0  73.0,370.0 T 156.0,461.0 T 276.0,494.0 Q 377.0,494.0  437.0,419.0  L440.0 419.0 L440.0 756.0 L560.0 756.0 L560.0 0 L446.0 0Z M303.0 86.0Q 345.0,86.0  377.0,108.5 T 426.5,166.5 T 444.0,240.0 Q 444.0,278.0  426.5,314.5 T 377.0,373.5 T 303.0,396.0 Q 259.0,396.0  227.5,374.0 T 180.5,316.5 T 165.0,242.0 Q 165.0,203.0  180.5,167.0 T 227.5,108.5 T 259.0,86.0 Z">
</path>
</defs>
<use x="2142.0" y="0" xlink:href="#g100/TT1"/>
<use x="2776.0" y="0" xlink:href="#g101/TT1"/>
<defs>
<path id="g45/TT1" d="M280.0 195.0 L40.0 195.0 L40.0 297.0 L280.0 297.0 L280.0 195.0Z">
</path>
</defs>
<use x="3350.0" y="0" xlink:href="#g45/TT1"/>
<defs>
<path id="g111/TT1" d="M305.0 494.0Q 377.0,494.0  437.0,462.5 T 531.5,373.5 T 566.0,242.0 Q 566.0,168.0  531.5,109.5 T 437.0,18.5 T 305.0,-14.0 Q 233.0,-14.0  173.0,18.5 T 78.5,109.5 T 44.0,242.0 Q 44.0,316.0  78.5,373.5 T 173.0,462.5 T 233.0,494.0 Z M305.0 86.0Q 350.0,86.0  381.5,108.5 T 428.5,167.0 T 444.0,242.0 Q 444.0,281.0  428.5,316.5 T 381.5,374.0 T 305.0,396.0 Q 260.0,396.0  228.5,374.0 T 181.5,316.5 T 166.0,242.0 Q 166.0,203.0  181.5,167.0 T 228.5,108.5 T 260.0,86.0 Z">
</path>
</defs>
<use x="3670.0" y="0" xlink:href="#g111/TT1"/>
<use x="4280.0" y="0" xlink:href="#g117/TT1"/>
<use x="4862.0" y="0" xlink:href="#g116/TT1"/>
<use x="5202.0" y="0" xlink:href="#g115/TT1"/>
<use x="5646.0" y="0" xlink:href="#g105/TT1"/>
<use x="5914.0" y="0" xlink:href="#g100/TT1"/>
<use x="6548.0" y="0" xlink:href="#g101/TT1"/>
<defs>
<path id="g41/TT1" d="M148.0 -156.0 L64.0 -101.0Q 124.0,-17.0  157.5,84.0 T 191.0,288.0 Q 191.0,391.0  157.5,492.0 T 64.0,677.0  L148.0 732.0Q 218.0,636.0  256.0,522.0 T 294.0,288.0 Q 294.0,168.0  256.0,54.0 T 148.0,-156.0 Z">
</path>
</defs>
<use x="7122.0" y="0" xlink:href="#g41/TT1"/>
</g>
<text id="Text_360" x="0" y="45.59" font-size="10.5pt" font-family="Avenir Next for SAS" font-weight="bold" fill="#2a3037" text-anchor="start" opacity="0">
Temperature Difference ℃ (inside-outside)</text>
<defs>
<clipPath id="ClipPath3">
<rect x="18" y="412" width="950" height="57">
</rect>
</clipPath>
</defs>
<g clip-path="url(#ClipPath3)">
<g fill="#626f80" stroke="#626f80" transform="translate(20.0 426.65) scale(0.012 -0.012)">
<use x="0" y="0" xlink:href="#g49/TT0"/>
<use x="580.0" y="0" xlink:href="#g50/TT0"/>
<defs>
<path id="g58/TT0" d="M150.0 366.0Q 127.0,366.0  111.5,382.0 T 96.0,420.0 Q 96.0,442.0  111.5,458.0 T 150.0,474.0 Q 173.0,474.0  188.5,458.0 T 204.0,420.0 Q 204.0,398.0  188.5,382.0 T 150.0,366.0 Z M150.0 -6.0Q 127.0,-6.0  111.5,10.0 T 96.0,48.0 Q 96.0,70.0  111.5,86.0 T 150.0,102.0 Q 173.0,102.0  188.5,86.0 T 204.0,48.0 Q 204.0,26.0  188.5,10.0 T 150.0,-6.0 Z">
</path>
</defs>
<use x="1160.0" y="0" xlink:href="#g58/TT0"/>
<use x="1460.0" y="0" xlink:href="#g48/TT0"/>
<use x="2040.0" y="0" xlink:href="#g48/TT0"/>
<use x="2620.0" y="0" xlink:href="#g58/TT0"/>
<use x="2920.0" y="0" xlink:href="#g48/TT0"/>
<use x="3500.0" y="0" xlink:href="#g48/TT0"/>
<defs>
<path id="g65/TT0" d="M89.0 0 L10.0 0 L316.0 708.0 L386.0 708.0 L690.0 0 L610.0 0 L532.0 186.0 L166.0 186.0 L89.0 0Z M193.0 252.0 L505.0 252.0 L349.0 628.0 L193.0 252.0Z">
</path>
</defs>
<use x="4330.0" y="0" xlink:href="#g65/TT0"/>
<defs>
<path id="g77/TT0" d="M444.0 122.0 L445.0 122.0 L682.0 708.0 L792.0 708.0 L792.0 0 L720.0 0 L720.0 615.0 L718.0 615.0 L462.0 0 L424.0 0 L168.0 615.0 L166.0 615.0 L166.0 0 L94.0 0 L94.0 708.0 L204.0 708.0 L444.0 122.0Z">
</path>
</defs>
<use x="5030.0" y="0" xlink:href="#g77/TT0"/>
</g>
<text x="55.0" y="426.65" font-size="9.0pt" font-family="Avenir Next for SAS" fill="#626f80" text-anchor="middle" opacity="0">
12:00:00 AM</text>
<g fill="#626f80" stroke="#626f80" transform="translate(31.0 441.35) scale(0.012 -0.012)">
<use x="0" y="0" xlink:href="#g51/TT0"/>
<use x="580.0" y="0" xlink:href="#g48/TT0"/>
<use x="1160.0" y="0" xlink:href="#g77/TT0"/>
<defs>
<path id="g97/TT0" d="M260.0 423.0Q 220.0,423.0  183.0,408.0 T 121.0,368.0  L83.0 413.0Q 113.0,443.0  161.0,461.5 T 267.0,480.0 Q 347.0,480.0  398.0,436.0 T 449.0,310.0  L449.0 105.0Q 449.0,42.0  457.0,0  L396.0 0Q 389.0,40.0  389.0,76.0  L387.0 76.0Q 355.0,30.0  314.5,9.0 T 217.0,-12.0 Q 178.0,-12.0  141.0,2.5 T 79.5,49.0 T 55.0,130.0 Q 55.0,198.0  99.0,232.0 T 212.5,276.5 T 385.0,287.0  L385.0 302.0Q 385.0,362.0  353.0,392.5 T 260.0,423.0 Z M125.0 133.0Q 125.0,87.0  157.0,65.5 T 235.0,44.0 Q 304.0,44.0  344.5,89.0 T 385.0,199.0  L385.0 234.0 L365.0 234.0Q 259.0,234.0  192.0,213.5 T 125.0,133.0 Z">
</path>
</defs>
<use x="2046.0" y="0" xlink:href="#g97/TT0"/>
<defs>
<path id="g114/TT0" d="M86.0 468.0 L151.0 468.0Q 155.0,418.0  155.0,388.0  L157.0 388.0Q 177.0,429.0  217.5,454.5 T 307.0,480.0 Q 334.0,480.0  352.0,475.0  L343.0 411.0Q 337.0,413.0  322.5,415.0 T 295.0,417.0 Q 236.0,417.0  197.0,372.5 T 158.0,240.0  L158.0 0 L90.0 0 L90.0 365.0Q 90.0,425.0  86.0,468.0 Z">
</path>
</defs>
<use x="2580.0" y="0" xlink:href="#g114/TT0"/>
<use x="2940.0" y="0" xlink:href="#g50/TT0"/>
<use x="3520.0" y="0" xlink:href="#g53/TT0"/>
</g>
<text x="55.0" y="441.35" font-size="9.0pt" font-family="Avenir Next for SAS" fill="#626f80" text-anchor="middle" opacity="0">
30Mar25</text>
<g fill="#626f80" stroke="#626f80" transform="translate(190.0 426.65) scale(0.012 -0.012)">
<use x="0" y="0" xlink:href="#g49/TT0"/>
<use x="580.0" y="0" xlink:href="#g50/TT0"/>
<use x="1160.0" y="0" xlink:href="#g58/TT0"/>
<use x="1460.0" y="0" xlink:href="#g48/TT0"/>
<use x="2040.0" y="0" xlink:href="#g48/TT0"/>
<use x="2620.0" y="0" xlink:href="#g58/TT0"/>
<use x="2920.0" y="0" xlink:href="#g48/TT0"/>
<use x="3500.0" y="0" xlink:href="#g48/TT0"/>
<use x="4330.0" y="0" xlink:href="#g65/TT0"/>
<use x="5030.0" y="0" xlink:href="#g77/TT0"/>
</g>
<text x="225.0" y="426.65" font-size="9.0pt" font-family="Avenir Next for SAS" fill="#626f80" text-anchor="middle" opacity="0">
12:00:00 AM</text>
<g fill="#626f80" stroke="#626f80" transform="translate(201.0 441.35) scale(0.012 -0.012)">
<use x="0" y="0" xlink:href="#g51/TT0"/>
<use x="580.0" y="0" xlink:href="#g49/TT0"/>
<use x="1160.0" y="0" xlink:href="#g77/TT0"/>
<use x="2046.0" y="0" xlink:href="#g97/TT0"/>
<use x="2580.0" y="0" xlink:href="#g114/TT0"/>
<use x="2940.0" y="0" xlink:href="#g50/TT0"/>
<use x="3520.0" y="0" xlink:href="#g53/TT0"/>
</g>
<text x="225.0" y="441.35" font-size="9.0pt" font-family="Avenir Next for SAS" fill="#626f80" text-anchor="middle" opacity="0">
31Mar25</text>
<g fill="#626f80" stroke="#626f80" transform="translate(391.0 426.65) scale(0.012 -0.012)">
<use x="0" y="0" xlink:href="#g49/TT0"/>
<use x="580.0" y="0" xlink:href="#g50/TT0"/>
<use x="1160.0" y="0" xlink:href="#g58/TT0"/>
<use x="1460.0" y="0" xlink:href="#g48/TT0"/>
<use x="2040.0" y="0" xlink:href="#g48/TT0"/>
<use x="2620.0" y="0" xlink:href="#g58/TT0"/>
<use x="2920.0" y="0" xlink:href="#g48/TT0"/>
<use x="3500.0" y="0" xlink:href="#g48/TT0"/>
<use x="4330.0" y="0" xlink:href="#g65/TT0"/>
<use x="5030.0" y="0" xlink:href="#g77/TT0"/>
</g>
<text x="426.0" y="426.65" font-size="9.0pt" font-family="Avenir Next for SAS" fill="#626f80" text-anchor="middle" opacity="0">
12:00:00 AM</text>
<g fill="#626f80" stroke="#626f80" transform="translate(402.0 441.35) scale(0.012 -0.012)">
<use x="0" y="0" xlink:href="#g48/TT0"/>
<use x="580.0" y="0" xlink:href="#g49/TT0"/>
<use x="1160.0" y="0" xlink:href="#g65/TT0"/>
<defs>
<path id="g112/TT0" d="M90.0 -240.0 L90.0 468.0 L158.0 468.0 L158.0 387.0 L161.0 387.0Q 189.0,431.0  237.0,455.5 T 337.0,480.0 Q 408.0,480.0  463.5,447.5 T 549.0,359.0 T 579.0,234.0 Q 579.0,165.0  549.0,109.0 T 463.5,20.5 T 337.0,-12.0 Q 286.0,-12.0  238.0,12.0 T 161.0,79.0  L158.0 79.0 L158.0 -240.0 L90.0 -240.0Z M330.0 423.0Q 278.0,423.0  237.0,398.0 T 173.0,330.0 T 150.0,234.0 Q 150.0,181.0  173.0,138.0 T 237.0,70.5 T 330.0,46.0 Q 385.0,46.0  425.0,71.0 T 486.0,138.5 T 507.0,234.0 Q 507.0,287.0  486.0,330.0 T 425.0,398.0 T 385.0,423.0 Z">
</path>
</defs>
<use x="1860.0" y="0" xlink:href="#g112/TT0"/>
<use x="2495.0" y="0" xlink:href="#g114/TT0"/>
<use x="2855.0" y="0" xlink:href="#g50/TT0"/>
<use x="3435.0" y="0" xlink:href="#g53/TT0"/>
</g>
<text x="426.0" y="441.35" font-size="9.0pt" font-family="Avenir Next for SAS" fill="#626f80" text-anchor="middle" opacity="0">
01Apr25</text>
<g fill="#626f80" stroke="#626f80" transform="translate(592.0 426.65) scale(0.012 -0.012)">
<use x="0" y="0" xlink:href="#g49/TT0"/>
<use x="580.0" y="0" xlink:href="#g50/TT0"/>
<use x="1160.0" y="0" xlink:href="#g58/TT0"/>
<use x="1460.0" y="0" xlink:href="#g48/TT0"/>
<use x="2040.0" y="0" xlink:href="#g48/TT0"/>
<use x="2620.0" y="0" xlink:href="#g58/TT0"/>
<use x="2920.0" y="0" xlink:href="#g48/TT0"/>
<use x="3500.0" y="0" xlink:href="#g48/TT0"/>
<use x="4330.0" y="0" xlink:href="#g65/TT0"/>
<use x="5030.0" y="0" xlink:href="#g77/TT0"/>
</g>
<text x="627.0" y="426.65" font-size="9.0pt" font-family="Avenir Next for SAS" fill="#626f80" text-anchor="middle" opacity="0">
12:00:00 AM</text>
<g fill="#626f80" stroke="#626f80" transform="translate(603.0 441.35) scale(0.012 -0.012)">
<use x="0" y="0" xlink:href="#g48/TT0"/>
<use x="580.0" y="0" xlink:href="#g50/TT0"/>
<use x="1160.0" y="0" xlink:href="#g65/TT0"/>
<use x="1860.0" y="0" xlink:href="#g112/TT0"/>
<use x="2495.0" y="0" xlink:href="#g114/TT0"/>
<use x="2855.0" y="0" xlink:href="#g50/TT0"/>
<use x="3435.0" y="0" xlink:href="#g53/TT0"/>
</g>
<text x="627.0" y="441.35" font-size="9.0pt" font-family="Avenir Next for SAS" fill="#626f80" text-anchor="middle" opacity="0">
02Apr25</text>
<g fill="#626f80" stroke="#626f80" transform="translate(793.0 426.65) scale(0.012 -0.012)">
<use x="0" y="0" xlink:href="#g49/TT0"/>
<use x="580.0" y="0" xlink:href="#g50/TT0"/>
<use x="1160.0" y="0" xlink:href="#g58/TT0"/>
<use x="1460.0" y="0" xlink:href="#g48/TT0"/>
<use x="2040.0" y="0" xlink:href="#g48/TT0"/>
<use x="2620.0" y="0" xlink:href="#g58/TT0"/>
<use x="2920.0" y="0" xlink:href="#g48/TT0"/>
<use x="3500.0" y="0" xlink:href="#g48/TT0"/>
<use x="4330.0" y="0" xlink:href="#g65/TT0"/>
<use x="5030.0" y="0" xlink:href="#g77/TT0"/>
</g>
<text x="828.0" y="426.65" font-size="9.0pt" font-family="Avenir Next for SAS" fill="#626f80" text-anchor="middle" opacity="0">
12:00:00 AM</text>
<g fill="#626f80" stroke="#626f80" transform="translate(804.0 441.35) scale(0.012 -0.012)">
<use x="0" y="0" xlink:href="#g48/TT0"/>
<use x="580.0" y="0" xlink:href="#g51/TT0"/>
<use x="1160.0" y="0" xlink:href="#g65/TT0"/>
<use x="1860.0" y="0" xlink:href="#g112/TT0"/>
<use x="2495.0" y="0" xlink:href="#g114/TT0"/>
<use x="2855.0" y="0" xlink:href="#g50/TT0"/>
<use x="3435.0" y="0" xlink:href="#g53/TT0"/>
</g>
<text x="828.0" y="441.35" font-size="9.0pt" font-family="Avenir Next for SAS" fill="#626f80" text-anchor="middle" opacity="0">
03Apr25</text>
</g>
<g fill="#2a3037" stroke="#2a3037" transform="translate(462.0 465.44) scale(0.014 -0.014)">
<use x="0" y="0" xlink:href="#g68/TT1"/>
<use x="764.0" y="0" xlink:href="#g97/TT1"/>
<use x="1314.0" y="0" xlink:href="#g116/TT1"/>
<use x="1654.0" y="0" xlink:href="#g101/TT1"/>
<use x="2478.0" y="0" xlink:href="#g116/TT1"/>
<use x="2818.0" y="0" xlink:href="#g105/TT1"/>
<use x="3086.0" y="0" xlink:href="#g109/TT1"/>
<use x="3976.0" y="0" xlink:href="#g101/TT1"/>
</g>
<text id="Text_362" x="493.0" y="465.44" font-size="10.5pt" font-family="Avenir Next for SAS" font-weight="bold" fill="#2a3037" text-anchor="middle" opacity="0">
Date time</text>
</g>
<g transform=" translate(16.0 -16.0)">
</g>
<g transform=" translate(16.0 -16.0)">
</g>
<g transform=" translate(16.0 -16.0)">
<rect x="123.0" y="473.3" rx="5" ry="5" width="720.22" height="26.7" fill="#ffffff">
</rect>
<path d="M129.0 486.65L179.0 486.65" stroke="#b7b7b7" stroke-dasharray="4,4" stroke-width="3.0" fill="none" opacity="0.75">
</path>
<g fill="#626f80" stroke="#626f80" transform="translate(183.0 490.95) scale(0.012 -0.012)">
<use x="0" y="0" xlink:href="#g65/TT0"/>
<defs>
<path id="g118/TT0" d="M282.0 0 L207.0 0 L16.0 468.0 L92.0 468.0 L244.0 72.0 L246.0 72.0 L399.0 468.0 L472.0 468.0 L282.0 0Z">
</path>
</defs>
<use x="700.0" y="0" xlink:href="#g118/TT0"/>
<defs>
<path id="g101/TT0" d="M515.0 216.0 L127.0 216.0Q 128.0,169.0  150.5,130.5 T 212.0,69.0 T 298.0,46.0 Q 347.0,46.0  387.0,69.5 T 448.0,127.0  L499.0 87.0Q 421.0,-12.0  298.0,-12.0 Q 229.0,-12.0  174.0,20.0 T 87.5,108.0 T 56.0,234.0 Q 56.0,303.0  87.0,359.5 T 172.0,448.0 T 292.0,480.0 Q 363.0,480.0  413.5,449.5 T 490.0,366.0 T 516.0,248.0 Q 516.0,228.0  515.0,216.0 Z M292.0 423.0Q 248.0,423.0  211.5,402.0 T 153.0,345.5 T 128.0,270.0  L447.0 270.0Q 444.0,338.0  403.5,380.5 T 292.0,423.0 Z">
</path>
</defs>
<use x="1188.0" y="0" xlink:href="#g101/TT0"/>
<use x="1760.0" y="0" xlink:href="#g114/TT0"/>
<use x="2120.0" y="0" xlink:href="#g97/TT0"/>
<defs>
<path id="g103/TT0" d="M294.0 -180.0Q 389.0,-180.0  433.0,-129.0 T 477.0,4.0  L477.0 92.0 L475.0 92.0Q 449.0,50.0  399.5,25.0 T 298.0,0 Q 226.0,0  171.0,30.5 T 86.0,115.5 T 56.0,238.0 Q 56.0,305.0  86.5,360.0 T 172.0,447.5 T 298.0,480.0 Q 351.0,480.0  399.5,455.5 T 475.0,387.0  L477.0 387.0 L477.0 468.0 L545.0 468.0 L545.0 4.0Q 545.0,-56.0  523.0,-110.5 T 444.0,-202.5 T 291.0,-240.0 Q 227.0,-240.0  167.5,-215.0 T 66.0,-146.0  L115.0 -94.0Q 144.0,-131.0  193.0,-155.5 T 294.0,-180.0 Z M305.0 58.0Q 357.0,58.0  398.0,81.0 T 462.0,145.5 T 485.0,240.0 Q 485.0,289.0  461.5,331.0 T 397.0,398.0 T 305.0,423.0 Q 250.0,423.0  210.0,398.0 T 149.0,331.5 T 128.0,240.0 Q 128.0,190.0  149.0,148.5 T 210.0,82.5 T 250.0,58.0 Z">
</path>
</defs>
<use x="2654.0" y="0" xlink:href="#g103/TT0"/>
<use x="3286.0" y="0" xlink:href="#g101/TT0"/>
<defs>
<path id="g84/TT0" d="M321.0 0 L249.0 0 L249.0 644.0 L12.0 644.0 L12.0 708.0 L558.0 708.0 L558.0 644.0 L321.0 644.0 L321.0 0Z">
</path>
</defs>
<use x="4108.0" y="0" xlink:href="#g84/TT0"/>
<use x="4678.0" y="0" xlink:href="#g101/TT0"/>
<defs>
<path id="g109/TT0" d="M311.0 480.0Q 356.0,480.0  395.0,458.0 T 455.0,381.0 Q 479.0,429.0  521.0,454.5 T 619.0,480.0 Q 706.0,480.0  751.5,428.0 T 797.0,287.0  L797.0 0 L729.0 0 L729.0 259.0Q 729.0,423.0  608.0,423.0 Q 540.0,423.0  507.5,372.5 T 475.0,249.0  L475.0 0 L407.0 0 L407.0 273.0Q 407.0,347.0  382.5,385.0 T 294.0,423.0 Q 260.0,423.0  228.5,402.5 T 177.5,340.5 T 158.0,240.0  L158.0 0 L90.0 0 L90.0 365.0Q 90.0,425.0  86.0,468.0  L151.0 468.0Q 155.0,418.0  155.0,388.0  L157.0 388.0Q 178.0,429.0  219.5,454.5 T 311.0,480.0 Z">
</path>
</defs>
<use x="5250.0" y="0" xlink:href="#g109/TT0"/>
<use x="6133.0" y="0" xlink:href="#g112/TT0"/>
<use x="6768.0" y="0" xlink:href="#g101/TT0"/>
<use x="7340.0" y="0" xlink:href="#g114/TT0"/>
<use x="7700.0" y="0" xlink:href="#g97/TT0"/>
<defs>
<path id="g116/TT0" d="M169.0 411.0 L169.0 138.0Q 169.0,89.0  187.0,70.5 T 239.0,52.0 Q 268.0,52.0  298.0,67.0  L301.0 8.0Q 264.0,-6.0  221.0,-6.0 Q 173.0,-6.0  137.0,22.0 T 101.0,119.0  L101.0 411.0 L4.0 411.0 L4.0 468.0 L101.0 468.0 L101.0 600.0 L169.0 600.0 L169.0 468.0 L301.0 468.0 L301.0 411.0 L169.0 411.0Z">
</path>
</defs>
<use x="8234.0" y="0" xlink:href="#g116/TT0"/>
<defs>
<path id="g117/TT0" d="M426.0 80.0 L424.0 80.0Q 405.0,40.0  359.5,14.0 T 264.0,-12.0 Q 177.0,-12.0  131.5,40.0 T 86.0,181.0  L86.0 468.0 L154.0 468.0 L154.0 209.0Q 154.0,130.0  182.5,87.5 T 281.0,45.0 Q 319.0,45.0  351.0,65.5 T 403.0,127.0 T 423.0,228.0  L423.0 468.0 L491.0 468.0 L491.0 103.0Q 491.0,43.0  495.0,0  L430.0 0Q 426.0,50.0  426.0,80.0 Z">
</path>
</defs>
<use x="8551.0" y="0" xlink:href="#g117/TT0"/>
<use x="9132.0" y="0" xlink:href="#g114/TT0"/>
<use x="9492.0" y="0" xlink:href="#g101/TT0"/>
<defs>
<path id="g68/TT0" d="M329.0 708.0Q 421.0,708.0  507.0,667.5 T 647.0,546.5 T 701.0,354.0 Q 701.0,242.0  647.0,161.5 T 507.0,40.5 T 329.0,0  L94.0 0 L94.0 708.0 L329.0 708.0Z M309.0 64.0Q 411.0,64.0  482.5,105.0 T 589.5,212.0 T 625.0,354.0 Q 625.0,430.0  589.5,496.0 T 482.5,603.0 T 309.0,644.0  L166.0 644.0 L166.0 64.0 L309.0 64.0Z">
</path>
</defs>
<use x="10314.0" y="0" xlink:href="#g68/TT0"/>
<defs>
<path id="g105/TT0" d="M125.0 600.0Q 106.0,600.0  91.5,614.0 T 77.0,648.0 Q 77.0,668.0  91.5,682.0 T 125.0,696.0 Q 144.0,696.0  158.5,682.0 T 173.0,648.0 Q 173.0,628.0  158.5,614.0 T 125.0,600.0 Z M159.0 0 L91.0 0 L91.0 468.0 L159.0 468.0 L159.0 0Z">
</path>
</defs>
<use x="11071.0" y="0" xlink:href="#g105/TT0"/>
<defs>
<path id="g102/TT0" d="M178.0 411.0 L178.0 0 L110.0 0 L110.0 411.0 L12.0 411.0 L12.0 468.0 L110.0 468.0 L110.0 596.0Q 110.0,677.0  150.0,722.5 T 269.0,768.0 Q 301.0,768.0  325.0,761.0  L313.0 701.0Q 289.0,708.0  266.0,708.0 Q 215.0,708.0  196.5,677.0 T 178.0,588.0  L178.0 468.0 L288.0 468.0 L288.0 411.0 L178.0 411.0Z">
</path>
</defs>
<use x="11321.0" y="0" xlink:href="#g102/TT0"/>
<use x="11616.0" y="0" xlink:href="#g102/TT0"/>
<use x="11911.0" y="0" xlink:href="#g101/TT0"/>
<use x="12483.0" y="0" xlink:href="#g114/TT0"/>
<use x="12843.0" y="0" xlink:href="#g101/TT0"/>
<defs>
<path id="g110/TT0" d="M155.0 388.0 L157.0 388.0Q 176.0,428.0  221.5,454.0 T 317.0,480.0 Q 404.0,480.0  449.5,428.0 T 495.0,287.0  L495.0 0 L427.0 0 L427.0 259.0Q 427.0,338.0  398.5,380.5 T 300.0,423.0 Q 262.0,423.0  230.0,402.5 T 178.0,341.0 T 158.0,240.0  L158.0 0 L90.0 0 L90.0 365.0Q 90.0,425.0  86.0,468.0  L151.0 468.0Q 155.0,418.0  155.0,388.0 Z">
</path>
</defs>
<use x="13415.0" y="0" xlink:href="#g110/TT0"/>
<defs>
<path id="g99/TT0" d="M307.0 423.0Q 254.0,423.0  213.0,398.5 T 150.0,330.5 T 128.0,234.0 Q 128.0,181.0  150.0,138.0 T 212.5,70.5 T 306.0,46.0 Q 387.0,46.0  433.0,107.0  L484.0 69.0Q 418.0,-12.0  306.0,-12.0 Q 232.0,-12.0  175.0,20.0 T 87.0,108.0 T 56.0,234.0 Q 56.0,304.0  87.0,360.0 T 175.0,448.0 T 306.0,480.0 Q 356.0,480.0  403.5,459.0 T 480.0,399.0  L427.0 361.0Q 410.0,388.0  377.5,405.5 T 307.0,423.0 Z">
</path>
</defs>
<use x="13996.0" y="0" xlink:href="#g99/TT0"/>
<use x="14496.0" y="0" xlink:href="#g101/TT0"/>
</g>
<g fill="#626f80" stroke="#626f80" transform="translate(366.82 490.95) scale(0.0059 -0.0059)">
<use x="0" y="0" xlink:href="#g128/TT2"/>
</g>
<g fill="#626f80" stroke="#626f80" transform="translate(379.08 490.95) scale(0.012 -0.012)">
<defs>
<path id="g40/TT0" d="M230.0 -126.0 L178.0 -159.0Q 112.0,-72.0  72.0,46.0 T 32.0,288.0 Q 32.0,412.0  72.0,530.0 T 178.0,735.0  L230.0 702.0Q 170.0,618.0  134.0,509.0 T 98.0,288.0 Q 98.0,176.0  134.0,67.0 T 230.0,-126.0 Z">
</path>
</defs>
<use x="250.0" y="0" xlink:href="#g40/TT0"/>
<use x="550.0" y="0" xlink:href="#g105/TT0"/>
<use x="800.0" y="0" xlink:href="#g110/TT0"/>
<defs>
<path id="g115/TT0" d="M224.0 423.0Q 183.0,423.0  154.0,404.5 T 125.0,350.0 Q 125.0,318.0  151.0,300.0 T 237.0,270.0 Q 320.0,253.0  359.5,220.0 T 399.0,133.0 Q 399.0,59.0  347.5,23.5 T 223.0,-12.0 Q 167.0,-12.0  118.0,11.0 T 38.0,79.0  L92.0 119.0Q 111.0,87.0  146.5,66.5 T 222.0,46.0 Q 270.0,46.0  301.0,65.5 T 332.0,128.0 Q 332.0,163.0  299.5,182.0 T 194.0,218.0 Q 136.0,232.0  98.0,258.5 T 60.0,344.0 Q 60.0,411.0  108.5,445.5 T 227.0,480.0 Q 277.0,480.0  323.0,457.5 T 391.0,396.0  L339.0 357.0Q 324.0,387.0  293.0,405.0 T 224.0,423.0 Z">
</path>
</defs>
<use x="1381.0" y="0" xlink:href="#g115/TT0"/>
<use x="1825.0" y="0" xlink:href="#g105/TT0"/>
<defs>
<path id="g100/TT0" d="M298.0 -12.0Q 227.0,-12.0  171.5,20.5 T 86.0,109.0 T 56.0,234.0 Q 56.0,303.0  86.0,359.0 T 171.5,447.5 T 298.0,480.0 Q 350.0,480.0  398.0,455.5 T 475.0,387.0  L477.0 387.0 L477.0 756.0 L545.0 756.0 L545.0 0 L477.0 0 L477.0 79.0 L475.0 79.0Q 446.0,36.0  398.0,12.0 T 298.0,-12.0 Z M305.0 46.0Q 357.0,46.0  398.0,70.5 T 462.0,138.0 T 485.0,234.0 Q 485.0,287.0  462.0,330.0 T 398.0,398.0 T 305.0,423.0 Q 250.0,423.0  210.0,398.0 T 149.0,330.0 T 128.0,234.0 Q 128.0,181.0  149.0,138.5 T 210.0,71.0 T 250.0,46.0 Z">
</path>
</defs>
<use x="2075.0" y="0" xlink:href="#g100/TT0"/>
<use x="2712.0" y="0" xlink:href="#g101/TT0"/>
<defs>
<path id="g45/TT0" d="M272.0 214.0 L48.0 214.0 L48.0 271.0 L272.0 271.0 L272.0 214.0Z">
</path>
</defs>
<use x="3284.0" y="0" xlink:href="#g45/TT0"/>
<defs>
<path id="g111/TT0" d="M305.0 -12.0Q 234.0,-12.0  177.0,20.0 T 88.0,108.0 T 56.0,234.0 Q 56.0,304.0  88.0,360.0 T 177.0,448.0 T 305.0,480.0 Q 377.0,480.0  434.0,448.0 T 523.0,360.0 T 555.0,234.0 Q 555.0,164.0  523.0,108.0 T 434.0,20.0 T 377.0,-12.0 Z M305.0 423.0Q 252.0,423.0  212.0,398.0 T 150.0,330.0 T 128.0,234.0 Q 128.0,181.0  150.0,138.5 T 212.0,71.0 T 305.0,46.0 Q 358.0,46.0  398.5,71.0 T 461.0,138.5 T 483.0,234.0 Q 483.0,287.0  461.0,330.0 T 398.5,398.0 T 358.0,423.0 Z">
</path>
</defs>
<use x="3604.0" y="0" xlink:href="#g111/TT0"/>
<use x="4215.0" y="0" xlink:href="#g117/TT0"/>
<use x="4796.0" y="0" xlink:href="#g116/TT0"/>
<use x="5113.0" y="0" xlink:href="#g115/TT0"/>
<use x="5557.0" y="0" xlink:href="#g105/TT0"/>
<use x="5807.0" y="0" xlink:href="#g100/TT0"/>
<use x="6444.0" y="0" xlink:href="#g101/TT0"/>
<defs>
<path id="g41/TT0" d="M70.0 702.0 L122.0 735.0Q 188.0,648.0  228.0,530.0 T 268.0,288.0 Q 268.0,164.0  228.0,46.0 T 122.0,-159.0  L70.0 -126.0Q 130.0,-42.0  166.0,67.0 T 202.0,288.0 Q 202.0,400.0  166.0,509.0 T 70.0,702.0 Z">
</path>
</defs>
<use x="7016.0" y="0" xlink:href="#g41/TT0"/>
</g>
<text x="183.0" y="490.95" font-size="9.0pt" font-family="Avenir Next for SAS" fill="#626f80" text-anchor="start" opacity="0">
Average Temperature Difference ℃ (inside-outside)</text>
<path d="M474.87 486.65L524.87 486.65Z" stroke="#287fc7" stroke-width="3.0" fill="none">
</path>
<g fill="#626f80" stroke="#626f80" transform="translate(528.87 490.95) scale(0.012 -0.012)">
<use x="0" y="0" xlink:href="#g84/TT0"/>
<use x="570.0" y="0" xlink:href="#g101/TT0"/>
<use x="1142.0" y="0" xlink:href="#g109/TT0"/>
<use x="2025.0" y="0" xlink:href="#g112/TT0"/>
<use x="2660.0" y="0" xlink:href="#g101/TT0"/>
<use x="3232.0" y="0" xlink:href="#g114/TT0"/>
<use x="3592.0" y="0" xlink:href="#g97/TT0"/>
<use x="4126.0" y="0" xlink:href="#g116/TT0"/>
<use x="4443.0" y="0" xlink:href="#g117/TT0"/>
<use x="5024.0" y="0" xlink:href="#g114/TT0"/>
<use x="5384.0" y="0" xlink:href="#g101/TT0"/>
<use x="6206.0" y="0" xlink:href="#g68/TT0"/>
<use x="6963.0" y="0" xlink:href="#g105/TT0"/>
<use x="7213.0" y="0" xlink:href="#g102/TT0"/>
<use x="7508.0" y="0" xlink:href="#g102/TT0"/>
<use x="7803.0" y="0" xlink:href="#g101/TT0"/>
<use x="8375.0" y="0" xlink:href="#g114/TT0"/>
<use x="8735.0" y="0" xlink:href="#g101/TT0"/>
<use x="9307.0" y="0" xlink:href="#g110/TT0"/>
<use x="9888.0" y="0" xlink:href="#g99/TT0"/>
<use x="10388.0" y="0" xlink:href="#g101/TT0"/>
</g>
<g fill="#626f80" stroke="#626f80" transform="translate(663.39 490.95) scale(0.0059 -0.0059)">
<use x="0" y="0" xlink:href="#g128/TT2"/>
</g>
<g fill="#626f80" stroke="#626f80" transform="translate(675.66 490.95) scale(0.012 -0.012)">
<use x="250.0" y="0" xlink:href="#g40/TT0"/>
<use x="550.0" y="0" xlink:href="#g105/TT0"/>
<use x="800.0" y="0" xlink:href="#g110/TT0"/>
<use x="1381.0" y="0" xlink:href="#g115/TT0"/>
<use x="1825.0" y="0" xlink:href="#g105/TT0"/>
<use x="2075.0" y="0" xlink:href="#g100/TT0"/>
<use x="2712.0" y="0" xlink:href="#g101/TT0"/>
<use x="3284.0" y="0" xlink:href="#g45/TT0"/>
<use x="3604.0" y="0" xlink:href="#g111/TT0"/>
<use x="4215.0" y="0" xlink:href="#g117/TT0"/>
<use x="4796.0" y="0" xlink:href="#g116/TT0"/>
<use x="5113.0" y="0" xlink:href="#g115/TT0"/>
<use x="5557.0" y="0" xlink:href="#g105/TT0"/>
<use x="5807.0" y="0" xlink:href="#g100/TT0"/>
<use x="6444.0" y="0" xlink:href="#g101/TT0"/>
<use x="7016.0" y="0" xlink:href="#g41/TT0"/>
</g>
<text x="528.87" y="490.95" font-size="9.0pt" font-family="Avenir Next for SAS" fill="#626f80" text-anchor="start" opacity="0">
Temperature Difference ℃ (inside-outside)</text>
<rect x="771.45" y="482.15" width="9.0" height="9.0" fill="#d1d1d1" opacity="0.6">
</rect>
<g fill="#626f80" stroke="#626f80" transform="translate(784.45 490.95) scale(0.012 -0.012)">
<defs>
<path id="g66/TT0" d="M305.0 708.0Q 401.0,708.0  467.0,666.0 T 533.0,527.0 Q 533.0,471.0  498.5,429.5 T 408.0,375.0  L408.0 373.0Q 479.0,365.0  523.5,318.0 T 568.0,196.0 Q 568.0,137.0  536.0,93.0 T 444.0,24.5 T 304.0,0  L94.0 0 L94.0 708.0 L305.0 708.0Z M311.0 398.0Q 372.0,398.0  416.5,428.0 T 461.0,522.0 Q 461.0,586.0  414.0,616.0 T 291.0,646.0  L166.0 646.0 L166.0 398.0 L311.0 398.0Z M300.0 62.0Q 385.0,62.0  440.0,96.0 T 495.0,200.0 Q 495.0,269.0  448.0,304.0 T 313.0,339.0  L166.0 339.0 L166.0 62.0 L300.0 62.0Z">
</path>
</defs>
<use x="0" y="0" xlink:href="#g66/TT0"/>
<use x="636.0" y="0" xlink:href="#g97/TT0"/>
<use x="1170.0" y="0" xlink:href="#g110/TT0"/>
<use x="1751.0" y="0" xlink:href="#g100/TT0"/>
<defs>
<path id="g80/TT0" d="M294.0 708.0Q 405.0,708.0  469.0,660.0 T 533.0,519.0 Q 533.0,426.0  468.0,377.5 T 292.0,329.0  L166.0 329.0 L166.0 0 L94.0 0 L94.0 708.0 L294.0 708.0Z M288.0 390.0Q 372.0,390.0  416.5,423.0 T 461.0,519.0 Q 461.0,583.0  416.5,614.5 T 288.0,646.0  L166.0 646.0 L166.0 390.0 L288.0 390.0Z">
</path>
</defs>
<use x="2638.0" y="0" xlink:href="#g80/TT0"/>
<defs>
<path id="g108/TT0" d="M160.0 0 L92.0 0 L92.0 756.0 L160.0 756.0 L160.0 0Z">
</path>
</defs>
<use x="3218.0" y="0" xlink:href="#g108/TT0"/>
<use x="3470.0" y="0" xlink:href="#g111/TT0"/>
<use x="4081.0" y="0" xlink:href="#g116/TT0"/>
</g>
<text x="784.45" y="490.95" font-size="9.0pt" font-family="Avenir Next for SAS" fill="#626f80" text-anchor="start" opacity="0">
Band Plot</text>
</g>
</g>
</svg>
