<svg xmlns="http://www.w3.org/2000/svg" xmlns:xlink="http://www.w3.org/1999/xlink" version="1.1" width="1000" height="500" viewBox="0 0 1000 500">
<rect x="0" y="0" width="1000" height="500" fill="#ffffff">
</rect>
<g>
<rect x="0" y="0" rx="5" ry="5" width="1000.0" height="500.0" fill="#ffffff" opacity="0">
</rect>
<rect x="0" y="0" rx="5" ry="5" width="1000.0" height="500.0" fill="#ffffff" opacity="0">
</rect>
<rect x="0" y="0" rx="5" ry="5" width="1000.0" height="500.0" fill="#ffffff" opacity="0">
</rect>
<g transform=" translate(0 10.0)">
<rect x="0" y="-10.0" rx="5" ry="5" width="1000.0" height="510.0" fill="#ffffff" opacity="0">
</rect>
<g transform=" translate(16.0 -16.0)">
<defs>
<clipPath id="ClipPath0">
<rect x="25" y="36" width="946" height="376">
</rect>
</clipPath>
</defs>
<g clip-path="url(#ClipPath0)">
<defs>
<clipPath id="ClipPath1">
<rect x="25" y="38" width="944" height="374">
</rect>
</clipPath>
</defs>
<g clip-path="url(#ClipPath1)">
<g transform="">
<polyline id="Polyline_102" points="31.0,190.85  41.34,196.94  51.69,200.9  62.03,196.94  72.38,172.27  82.72,152.78  93.07,161.61  103.41,156.74  113.76,166.48  124.1,172.88  134.44,183.84  144.79,202.12  155.13,208.82  165.48,207.3  175.82,203.64  186.17,198.46  196.51,181.41  206.86,171.36  217.2,179.28  227.54,174.1  237.89,181.71  248.23,193.29  258.58,210.04  268.92,222.83  279.27,228.31  289.61,229.83  299.96,228.92  310.3,224.35  320.64,190.54  330.99,185.37  341.33,214.61  351.68,215.52  362.02,219.48  372.37,228.62  382.71,237.45  393.06,243.24  403.4,244.45  413.74,244.15  424.09,244.15  434.43,235.62  444.78,210.04  455.12,195.11  465.47,270.04  475.81,309.94  486.16,144.25  496.5,132.98  506.84,135.11  517.19,133.89  527.53,132.07  537.88,130.85  548.22,129.63  558.57,126.58  568.91,129.93  579.26,160.09  589.6,186.58  599.94,208.21  610.29,206.08  620.63,185.98  630.98,173.18  641.32,171.66  651.67,164.35  662.01,152.78  672.36,149.43  682.7,150.34  693.04,160.09  703.39,172.57  713.73,206.08  724.08,211.56  734.42,203.95  744.77,187.5  755.11,177.75  765.46,166.48  775.8,153.08  786.14,150.95  796.49,147.9  806.83,143.03  817.18,152.17  827.52,170.14  837.87,197.85  848.21,213.39  858.56,206.99  868.9,192.98  879.24,181.41  889.59,174.4  899.93,164.96  910.28,159.17  920.62,159.78  930.97,153.39  941.31,154.0  951.66,171.66  962.0,195.11 " fill="none" stroke="#287fc7" stroke-width="3.0">
</polyline>
</g>
<g transform="">
<polyline id="Polyline_285" points="31.0,193.44  41.34,197.7  51.69,200.29  62.03,198.62  72.38,185.82  82.72,175.47  93.07,178.06  103.41,173.64  113.76,177.75  124.1,181.86  134.44,188.72  144.79,199.07  155.13,203.49  165.48,203.49  175.82,202.27  186.17,200.29  196.51,191.31  206.86,185.67  217.2,188.41  227.54,184.15  237.89,187.8  248.23,194.35  258.58,204.1  268.92,211.56  279.27,215.21  289.61,217.04  299.96,216.89  310.3,215.82  320.64,198.77  330.99,195.57  341.33,208.36  351.68,206.99  362.02,209.12  372.37,214.3  382.71,220.09  393.06,224.05  403.4,225.57  413.74,226.33  424.09,227.25  434.43,223.44  444.78,210.65  455.12,202.57  465.47,238.67  475.81,257.4  486.16,174.1  496.5,168.92  506.84,171.36  517.19,171.66  527.53,171.81  537.88,172.12  548.22,172.12  558.57,171.2  568.91,172.73  579.26,187.04  589.6,199.07  599.94,208.67  610.29,207.75  620.63,198.62  630.98,193.13  641.32,193.59  651.67,191.0  662.01,185.21  672.36,183.69  682.7,184.76  693.04,189.63  703.39,195.87  713.73,212.47  724.08,214.45  734.42,210.65  744.77,202.88  755.11,198.62  765.46,193.29  775.8,187.5  786.14,186.43  796.49,184.91  806.83,182.93  817.18,187.04  827.52,195.72  837.87,209.43  848.21,216.43  858.56,212.93  868.9,206.53  879.24,201.81  889.59,198.92  899.93,194.66  910.28,191.76  920.62,192.52  930.97,189.48  941.31,189.63  951.66,198.01  962.0,209.43 " fill="none" stroke="#b7b7b7" stroke-width="3.0" stroke-dasharray="4,4" opacity="0.75">
</polyline>
</g>
<g transform="">
<polygon points="31.0,200.76  41.34,199.86  51.69,202.01  62.03,203.35  72.38,224.16  82.72,239.65  93.07,224.58  103.41,221.45  113.76,209.63  124.1,207.28  134.44,202.5  144.79,207.69  155.13,218.56  165.48,214.26  175.82,206.15  186.17,205.46  196.51,219.3  206.86,226.16  217.2,214.26  227.54,212.58  237.89,205.03  248.23,197.37  258.58,220.9  268.92,243.43  279.27,252.26  289.61,253.22  299.96,250.92  310.3,239.94  320.64,222.03  330.99,224.43  341.33,226.02  351.68,231.11  362.02,238.41  372.37,254.79  382.71,269.19  393.06,278.32  403.4,278.98  413.74,276.73  424.09,275.06  434.43,257.9  444.78,212.37  455.12,223.68  465.47,327.4  475.81,406.0  486.16,258.52  496.5,270.57  506.84,273.87  517.19,278.48  527.53,284.23  537.88,288.85  548.22,292.29  558.57,297.41  568.91,293.76  579.26,263.28  589.6,234.39  599.94,209.96  610.29,212.49  620.63,234.37  630.98,249.56  641.32,255.62  651.67,266.38  662.01,276.96  672.36,280.61  682.7,282.1  693.04,273.19  703.39,261.78  713.73,230.56  724.08,222.64  734.42,229.6  744.77,246.38  755.11,257.63  765.46,269.09  775.8,284.84  786.14,286.79  796.49,289.58  806.83,295.78  817.18,285.68  827.52,268.08  837.87,242.16  848.21,225.05  858.56,229.73  868.9,244.87  879.24,259.53  889.59,268.27  899.93,278.65  910.28,283.94  920.62,285.13  930.97,291.56  941.31,290.42  951.66,272.52  962.0,249.92  962.0,168.94  951.66,123.49  941.31,88.84  930.97,87.4  920.62,99.92  910.28,99.59  899.93,110.66  889.59,129.57  879.24,144.1  868.9,168.2  858.56,196.13  848.21,207.82  837.87,176.69  827.52,123.36  817.18,88.4  806.83,70.08  796.49,80.24  786.14,86.07  775.8,90.15  765.46,117.48  755.11,139.61  744.77,159.38  734.42,191.69  724.08,206.27  713.73,194.38  703.39,129.97  693.04,106.07  682.7,87.41  672.36,86.78  662.01,93.47  651.67,115.62  641.32,131.56  630.98,136.71  620.63,162.86  610.29,203.01  599.94,207.37  589.6,163.75  579.26,110.8  568.91,51.69  558.57,45.0  548.22,51.94  537.88,55.39  527.53,59.39  517.19,64.84  506.84,68.84  496.5,67.27  486.16,89.67  475.81,108.8  465.47,149.94  455.12,181.47  444.78,208.92  434.43,188.98  424.09,179.43  413.74,175.94  403.4,172.16  393.06,169.78  382.71,170.98  372.37,173.81  362.02,179.83  351.68,182.87  341.33,190.7  330.99,166.71  320.64,175.51  310.3,191.7  299.96,182.86  289.61,180.86  279.27,178.17  268.92,179.69  258.58,187.3  248.23,191.34  237.89,170.57  227.54,155.72  217.2,162.57  206.86,145.18  196.51,163.31  186.17,195.12  175.82,198.39  165.48,192.72  155.13,188.41  144.79,190.46  134.44,174.93  124.1,156.45  113.76,145.88  103.41,125.83  93.07,131.54  82.72,111.29  72.38,147.49  62.03,193.88  51.69,198.57  41.34,195.55  31.0,186.12 " fill="#d1d1d1" fill-opacity="0.6">
</polygon>
</g>
</g>
<path d="M25.0 383.64L969.0 383.64" stroke="#2a3037" stroke-dasharray="1,2" fill="none" opacity="0.4">
</path>
<path d="M25.0 307.5L969.0 307.5" stroke="#2a3037" stroke-dasharray="1,2" fill="none" opacity="0.4">
</path>
<path d="M25.0 231.36L969.0 231.36" stroke="#2a3037" stroke-dasharray="1,2" fill="none" opacity="0.4">
</path>
<path d="M25.0 155.21L969.0 155.21" stroke="#2a3037" stroke-dasharray="1,2" fill="none" opacity="0.4">
</path>
<path d="M25.0 79.07L969.0 79.07" stroke="#2a3037" stroke-dasharray="1,2" fill="none" opacity="0.4">
</path>
<path d="M31.0 412.0L31.0 38.0" stroke="#2a3037" stroke-dasharray="1,2" fill="none" opacity="0.4">
</path>
<path d="M155.13 412.0L155.13 38.0" stroke="#2a3037" stroke-dasharray="1,2" fill="none" opacity="0.4">
</path>
<path d="M279.27 412.0L279.27 38.0" stroke="#2a3037" stroke-dasharray="1,2" fill="none" opacity="0.4">
</path>
<path d="M403.4 412.0L403.4 38.0" stroke="#2a3037" stroke-dasharray="1,2" fill="none" opacity="0.4">
</path>
<path d="M527.53 412.0L527.53 38.0" stroke="#2a3037" stroke-dasharray="1,2" fill="none" opacity="0.4">
</path>
<path d="M651.67 412.0L651.67 38.0" stroke="#2a3037" stroke-dasharray="1,2" fill="none" opacity="0.4">
</path>
<path d="M775.8 412.0L775.8 38.0" stroke="#2a3037" stroke-dasharray="1,2" fill="none" opacity="0.4">
</path>
<path d="M899.93 412.0L899.93 38.0" stroke="#2a3037" stroke-dasharray="1,2" fill="none" opacity="0.4">
</path>
</g>
<defs>
<clipPath id="ClipPath2">
<rect x="0" y="39" width="25" height="373">
</rect>
</clipPath>
</defs>
<g clip-path="url(#ClipPath2)">
<g fill="#626f80" stroke="#626f80" transform="translate(13.04 387.95) scale(0.012 -0.012)">
<defs>
<path id="g48/TT0" d="M522.0 353.0Q 522.0,195.0  467.0,88.5 T 290.0,-18.0 Q 167.0,-18.0  112.5,88.5 T 58.0,353.0 Q 58.0,512.0  112.5,619.0 T 290.0,726.0 Q 412.0,726.0  467.0,618.5 T 522.0,353.0 Z M131.0 353.0Q 131.0,226.0  167.5,135.0 T 290.0,44.0 Q 375.0,44.0  412.0,135.5 T 449.0,353.0 Q 449.0,480.0  412.0,572.5 T 290.0,665.0 Q 204.0,665.0  167.5,573.0 T 131.0,353.0 Z">
</path>
</defs>
<use x="0" y="0" xlink:href="#g48/TT0"/>
</g>
<text id="Text_651" x="20.0" y="387.95" font-size="9.0pt" font-family="Avenir Next for SAS" fill="#626f80" text-anchor="end" opacity="0">
0</text>
<g fill="#626f80" stroke="#626f80" transform="translate(6.08 311.8) scale(0.012 -0.012)">
<defs>
<path id="g50/TT0" d="M51.0 0 L51.0 75.0 L341.0 368.0Q 380.0,408.0  403.0,447.0 T 426.0,530.0 Q 426.0,590.0  385.5,627.5 T 286.0,665.0 Q 230.0,665.0  191.0,630.0 T 140.0,539.0  L69.0 553.0Q 84.0,629.0  144.0,677.5 T 286.0,726.0 Q 344.0,726.0  392.5,703.5 T 470.0,637.0 T 499.0,531.0 Q 499.0,469.0  470.0,421.5 T 384.0,317.0  L129.0 64.0 L504.0 64.0 L504.0 0 L51.0 0Z">
</path>
</defs>
<use x="0" y="0" xlink:href="#g50/TT0"/>
<defs>
<path id="g53/TT0" d="M180.0 644.0 L175.0 425.0Q 219.0,441.0  273.0,441.0 Q 339.0,441.0  391.5,413.0 T 473.5,334.5 T 503.0,219.0 Q 503.0,151.0  473.5,97.0 T 390.5,12.5 T 268.0,-18.0 Q 194.0,-18.0  140.0,16.0 T 56.0,111.0  L121.0 140.0Q 140.0,96.0  179.0,70.0 T 264.0,44.0 Q 311.0,44.0  349.0,66.0 T 408.5,126.5 T 430.0,212.0 Q 430.0,289.0  380.5,335.5 T 254.0,382.0 Q 180.0,382.0  107.0,343.0  L114.0 708.0 L475.0 708.0 L475.0 644.0 L180.0 644.0Z">
</path>
</defs>
<use x="580.0" y="0" xlink:href="#g53/TT0"/>
</g>
<text id="Text_652" x="20.0" y="311.8" font-size="9.0pt" font-family="Avenir Next for SAS" fill="#626f80" text-anchor="end" opacity="0">
25</text>
<g fill="#626f80" stroke="#626f80" transform="translate(6.08 235.66) scale(0.012 -0.012)">
<use x="0" y="0" xlink:href="#g53/TT0"/>
<use x="580.0" y="0" xlink:href="#g48/TT0"/>
</g>
<text id="Text_653" x="20.0" y="235.66" font-size="9.0pt" font-family="Avenir Next for SAS" fill="#626f80" text-anchor="end" opacity="0">
50</text>
<g fill="#626f80" stroke="#626f80" transform="translate(6.08 159.52) scale(0.012 -0.012)">
<defs>
<path id="g55/TT0" d="M498.0 642.0 L213.0 0 L132.0 0 L425.0 644.0 L78.0 644.0 L78.0 708.0 L498.0 708.0 L498.0 642.0Z">
</path>
</defs>
<use x="0" y="0" xlink:href="#g55/TT0"/>
<use x="580.0" y="0" xlink:href="#g53/TT0"/>
</g>
<text id="Text_654" x="20.0" y="159.52" font-size="9.0pt" font-family="Avenir Next for SAS" fill="#626f80" text-anchor="end" opacity="0">
75</text>
<g fill="#626f80" stroke="#626f80" transform="translate(-0.88 83.37) scale(0.012 -0.012)">
<defs>
<path id="g49/TT0" d="M358.0 0 L286.0 0 L286.0 619.0 L158.0 510.0 L114.0 560.0 L294.0 708.0 L358.0 708.0 L358.0 0Z">
</path>
</defs>
<use x="0" y="0" xlink:href="#g49/TT0"/>
<use x="580.0" y="0" xlink:href="#g48/TT0"/>
<use x="1160.0" y="0" xlink:href="#g48/TT0"/>
</g>
<text id="Text_655" x="20.0" y="83.37" font-size="9.0pt" font-family="Avenir Next for SAS" fill="#626f80" text-anchor="end" opacity="0">
100</text>
</g>
<g fill="#2a3037" stroke="#2a3037" transform="translate(0 35.59) scale(0.014 -0.014)">
<defs>
<path id="g82/TT1" d="M324.0 708.0Q 436.0,708.0  510.5,659.0 T 585.0,505.0 Q 585.0,430.0  542.0,380.5 T 423.0,314.0  L612.0 0 L460.0 0 L296.0 300.0 L204.0 300.0 L204.0 0 L78.0 0 L78.0 708.0 L324.0 708.0Z M459.0 506.0Q 459.0,558.0  418.0,580.0 T 318.0,602.0  L204.0 602.0 L204.0 403.0 L307.0 403.0Q 459.0,403.0  459.0,506.0 Z">
</path>
</defs>
<use x="0" y="0" xlink:href="#g82/TT1"/>
<defs>
<path id="g101/TT1" d="M529.0 202.0 L164.0 202.0Q 168.0,152.0  208.0,118.0 T 301.0,84.0 Q 384.0,84.0  428.0,146.0  L508.0 82.0Q 437.0,-14.0  302.0,-14.0 Q 228.0,-14.0  169.5,16.5 T 77.5,104.0 T 44.0,237.0 Q 44.0,313.0  77.0,371.5 T 168.0,462.0 T 298.0,494.0 Q 402.0,494.0  466.0,427.0 T 530.0,234.0 Q 530.0,213.0  529.0,202.0 Z M297.0 404.0Q 244.0,404.0  206.0,371.0 T 164.0,288.0  L410.0 288.0Q 410.0,338.0  381.0,371.0 T 297.0,404.0 Z">
</path>
</defs>
<use x="629.0" y="0" xlink:href="#g101/TT1"/>
<defs>
<path id="g108/TT1" d="M74.0 756.0 L194.0 756.0 L194.0 0 L74.0 0 L74.0 756.0Z">
</path>
</defs>
<use x="1203.0" y="0" xlink:href="#g108/TT1"/>
<defs>
<path id="g97/TT1" d="M367.0 61.0Q 349.0,29.0  308.5,8.5 T 218.0,-12.0 Q 175.0,-12.0  134.0,3.0 T 65.5,51.5 T 38.0,137.0 Q 38.0,233.0  131.0,266.5 T 368.0,300.0  L368.0 312.0Q 368.0,354.0  337.0,377.0 T 258.0,400.0 Q 221.0,400.0  186.0,384.5 T 127.0,345.0  L65.0 418.0Q 105.0,455.0  158.5,474.5 T 268.0,494.0 Q 385.0,494.0  433.5,436.0 T 482.0,292.0  L482.0 0 L370.0 0 L370.0 61.0 L367.0 61.0Z M341.0 219.0Q 158.0,219.0  158.0,139.0 Q 158.0,107.0  182.5,93.0 T 242.0,79.0 Q 303.0,79.0  335.5,111.5 T 368.0,202.0  L368.0 219.0 L341.0 219.0Z">
</path>
</defs>
<use x="1471.0" y="0" xlink:href="#g97/TT1"/>
<defs>
<path id="g116/TT1" d="M3.0 480.0 L87.0 480.0 L87.0 619.0 L205.0 619.0 L205.0 480.0 L325.0 480.0 L325.0 384.0 L205.0 384.0 L205.0 161.0Q 205.0,125.0  218.0,106.0 T 268.0,87.0 Q 299.0,87.0  319.0,97.0  L323.0 3.0Q 289.0,-10.0  243.0,-10.0 Q 155.0,-10.0  121.0,35.5 T 87.0,160.0  L87.0 384.0 L3.0 384.0 L3.0 480.0Z">
</path>
</defs>
<use x="2021.0" y="0" xlink:href="#g116/TT1"/>
<defs>
<path id="g105/TT1" d="M133.0 715.0Q 166.0,715.0  188.5,694.5 T 211.0,643.0 Q 211.0,612.0  188.5,591.5 T 133.0,571.0 Q 101.0,571.0  79.0,592.5 T 57.0,643.0 Q 57.0,672.0  79.0,693.5 T 133.0,715.0 Z M74.0 480.0 L194.0 480.0 L194.0 0 L74.0 0 L74.0 480.0Z">
</path>
</defs>
<use x="2361.0" y="0" xlink:href="#g105/TT1"/>
<defs>
<path id="g118/TT1" d="M0 480.0 L131.0 480.0 L257.0 130.0 L259.0 130.0 L386.0 480.0 L513.0 480.0 L322.0 0 L194.0 0 L0 480.0Z">
</path>
</defs>
<use x="2629.0" y="0" xlink:href="#g118/TT1"/>
<use x="3142.0" y="0" xlink:href="#g101/TT1"/>
<defs>
<path id="g72/TT1" d="M78.0 708.0 L204.0 708.0 L204.0 422.0 L535.0 422.0 L535.0 708.0 L661.0 708.0 L661.0 0 L535.0 0 L535.0 314.0 L204.0 314.0 L204.0 0 L78.0 0 L78.0 708.0Z">
</path>
</defs>
<use x="3966.0" y="0" xlink:href="#g72/TT1"/>
<defs>
<path id="g117/TT1" d="M396.0 0 L396.0 77.0 L394.0 77.0Q 377.0,39.0  336.5,12.5 T 245.0,-14.0 Q 157.0,-14.0  112.5,42.5 T 68.0,180.0  L68.0 480.0 L188.0 480.0 L188.0 214.0Q 188.0,86.0  278.0,86.0 Q 332.0,86.0  361.0,124.5 T 390.0,216.0  L390.0 480.0 L510.0 480.0 L510.0 0 L396.0 0Z">
</path>
</defs>
<use x="4705.0" y="0" xlink:href="#g117/TT1"/>
<defs>
<path id="g109/TT1" d="M822.0 300.0 L822.0 0 L702.0 0 L702.0 266.0Q 702.0,394.0  612.0,394.0 Q 560.0,394.0  533.0,354.5 T 506.0,262.0  L506.0 0 L386.0 0 L386.0 290.0Q 386.0,337.0  363.5,365.5 T 297.0,394.0 Q 246.0,394.0  219.0,355.5 T 192.0,264.0  L192.0 0 L72.0 0 L72.0 480.0 L186.0 480.0 L186.0 403.0 L188.0 403.0Q 205.0,442.0  244.0,468.0 T 337.0,494.0 Q 390.0,494.0  428.0,470.0 T 487.0,403.0 Q 511.0,447.0  551.5,470.5 T 645.0,494.0 Q 733.0,494.0  777.5,437.5 T 822.0,300.0 Z">
</path>
</defs>
<use x="5287.0" y="0" xlink:href="#g109/TT1"/>
<use x="6177.0" y="0" xlink:href="#g105/TT1"/>
<defs>
<path id="g100/TT1" d="M446.0 0 L446.0 72.0 L444.0 72.0Q 420.0,31.0  375.0,8.5 T 279.0,-14.0 Q 208.0,-14.0  154.5,20.5 T 72.0,113.5 T 43.0,242.0 Q 43.0,312.0  73.0,370.0 T 156.0,461.0 T 276.0,494.0 Q 377.0,494.0  437.0,419.0  L440.0 419.0 L440.0 756.0 L560.0 756.0 L560.0 0 L446.0 0Z M303.0 86.0Q 345.0,86.0  377.0,108.5 T 426.5,166.5 T 444.0,240.0 Q 444.0,278.0  426.5,314.5 T 377.0,373.5 T 303.0,396.0 Q 259.0,396.0  227.5,374.0 T 180.5,316.5 T 165.0,242.0 Q 165.0,203.0  180.5,167.0 T 227.5,108.5 T 259.0,86.0 Z">
</path>
</defs>
<use x="6445.0" y="0" xlink:href="#g100/TT1"/>
<use x="7079.0" y="0" xlink:href="#g105/TT1"/>
<use x="7347.0" y="0" xlink:href="#g116/TT1"/>
<defs>
<path id="g121/TT1" d="M133.0 480.0 L267.0 131.0 L269.0 131.0 L388.0 480.0 L513.0 480.0 L286.0 -103.0Q 258.0,-174.0  218.5,-207.0 T 104.0,-240.0 Q 71.0,-240.0  42.0,-233.0  L52.0 -129.0Q 74.0,-136.0  97.0,-136.0 Q 133.0,-136.0  149.0,-119.5 T 182.0,-61.0  L206.0 0 L0 480.0 L133.0 480.0Z">
</path>
</defs>
<use x="7687.0" y="0" xlink:href="#g121/TT1"/>
<use x="8450.0" y="0" xlink:href="#g105/TT1"/>
<defs>
<path id="g110/TT1" d="M186.0 480.0 L186.0 403.0 L188.0 403.0Q 205.0,441.0  245.5,467.5 T 337.0,494.0 Q 425.0,494.0  469.5,437.5 T 514.0,300.0  L514.0 0 L394.0 0 L394.0 266.0Q 394.0,394.0  304.0,394.0 Q 250.0,394.0  221.0,355.5 T 192.0,264.0  L192.0 0 L72.0 0 L72.0 480.0 L186.0 480.0Z">
</path>
</defs>
<use x="8718.0" y="0" xlink:href="#g110/TT1"/>
<defs>
<path id="g115/TT1" d="M230.0 404.0Q 198.0,404.0  175.5,391.0 T 153.0,352.0 Q 153.0,327.0  176.0,315.0 T 257.0,289.0 Q 325.0,273.0  368.5,241.0 T 412.0,146.0 Q 412.0,64.0  355.5,25.0 T 212.0,-14.0 Q 155.0,-14.0  102.0,7.0 T 15.0,65.0  L94.0 139.0Q 114.0,112.0  146.5,95.5 T 217.0,79.0 Q 248.0,79.0  271.0,93.0 T 294.0,136.0 Q 294.0,164.0  269.5,177.5 T 184.0,205.0 Q 119.0,221.0  80.5,250.5 T 42.0,341.0 Q 42.0,416.0  98.0,455.0 T 233.0,494.0 Q 287.0,494.0  336.0,475.0 T 413.0,421.0  L335.0 352.0Q 318.0,374.0  290.0,389.0 T 230.0,404.0 Z">
</path>
</defs>
<use x="9300.0" y="0" xlink:href="#g115/TT1"/>
<use x="9744.0" y="0" xlink:href="#g105/TT1"/>
<use x="10012.0" y="0" xlink:href="#g100/TT1"/>
<use x="10646.0" y="0" xlink:href="#g101/TT1"/>
<defs>
<path id="g40/TT1" d="M182.0 732.0 L266.0 677.0Q 206.0,593.0  172.5,492.0 T 139.0,288.0 Q 139.0,185.0  172.5,84.0 T 266.0,-101.0  L182.0 -156.0Q 112.0,-60.0  74.0,54.0 T 36.0,288.0 Q 36.0,408.0  74.0,522.0 T 182.0,732.0 Z">
</path>
</defs>
<use x="11470.0" y="0" xlink:href="#g40/TT1"/>
<defs>
<path id="g37/TT1" d="M631.0 740.0 L714.0 702.0 L298.0 -32.0 L215.0 6.0 L631.0 740.0Z M226.0 720.0Q 277.0,720.0  319.5,695.0 T 387.0,627.5 T 412.0,534.0 Q 412.0,483.0  387.0,440.5 T 319.5,373.0 T 226.0,348.0 Q 175.0,348.0  132.5,373.0 T 65.0,440.5 T 40.0,534.0 Q 40.0,585.0  65.0,627.5 T 132.5,695.0 T 175.0,720.0 Z M226.0 624.0Q 189.0,624.0  162.5,598.0 T 136.0,534.0 Q 136.0,497.0  162.5,470.5 T 226.0,444.0 Q 264.0,444.0  290.0,470.5 T 316.0,534.0 Q 316.0,572.0  290.0,598.0 T 226.0,624.0 Z M704.0 360.0Q 755.0,360.0  797.5,335.0 T 865.0,267.5 T 890.0,174.0 Q 890.0,123.0  865.0,80.5 T 797.5,13.0 T 704.0,-12.0 Q 653.0,-12.0  610.5,13.0 T 543.0,80.5 T 518.0,174.0 Q 518.0,225.0  543.0,267.5 T 610.5,335.0 T 653.0,360.0 Z M704.0 264.0Q 667.0,264.0  640.5,238.0 T 614.0,174.0 Q 614.0,137.0  640.5,110.5 T 704.0,84.0 Q 742.0,84.0  768.0,110.5 T 794.0,174.0 Q 794.0,212.0  768.0,238.0 T 704.0,264.0 Z">
</path>
</defs>
<use x="11800.0" y="0" xlink:href="#g37/TT1"/>
<defs>
<path id="g41/TT1" d="M148.0 -156.0 L64.0 -101.0Q 124.0,-17.0  157.5,84.0 T 191.0,288.0 Q 191.0,391.0  157.5,492.0 T 64.0,677.0  L148.0 732.0Q 218.0,636.0  256.0,522.0 T 294.0,288.0 Q 294.0,168.0  256.0,54.0 T 148.0,-156.0 Z">
</path>
</defs>
<use x="12730.0" y="0" xlink:href="#g41/TT1"/>
</g>
<text id="Text_656" x="0" y="35.59" font-size="10.5pt" font-family="Avenir Next for SAS" font-weight="bold" fill="#2a3037" text-anchor="start" opacity="0">
Relative Humidity inside (%)</text>
<defs>
<clipPath id="ClipPath3">
<rect x="25" y="412" width="943" height="57">
</rect>
</clipPath>
</defs>
<g clip-path="url(#ClipPath3)">
<g fill="#626f80" stroke="#626f80" transform="translate(28.0 426.65) scale(0.012 -0.012)">
<use x="0" y="0" xlink:href="#g48/TT0"/>
<defs>
<path id="g54/TT0" d="M203.0 397.0Q 218.0,409.0  247.0,416.0 T 304.0,423.0 Q 365.0,423.0  414.5,395.5 T 492.0,318.0 T 520.0,205.0 Q 520.0,140.0  490.5,89.5 T 408.5,10.5 T 290.0,-18.0 Q 224.0,-18.0  171.5,10.5 T 89.5,89.5 T 60.0,205.0 Q 60.0,255.0  77.0,301.5 T 124.0,397.0  L317.0 708.0 L400.0 708.0 L201.0 399.0 L203.0 397.0Z M290.0 43.0Q 336.0,43.0  372.0,64.0 T 428.0,122.0 T 448.0,205.0 Q 448.0,275.0  405.0,320.0 T 290.0,365.0 Q 218.0,365.0  175.0,320.0 T 132.0,205.0 Q 132.0,159.0  152.0,122.0 T 208.0,64.0 T 244.0,43.0 Z">
</path>
</defs>
<use x="580.0" y="0" xlink:href="#g54/TT0"/>
<defs>
<path id="g77/TT0" d="M444.0 122.0 L445.0 122.0 L682.0 708.0 L792.0 708.0 L792.0 0 L720.0 0 L720.0 615.0 L718.0 615.0 L462.0 0 L424.0 0 L168.0 615.0 L166.0 615.0 L166.0 0 L94.0 0 L94.0 708.0 L204.0 708.0 L444.0 122.0Z">
</path>
</defs>
<use x="1160.0" y="0" xlink:href="#g77/TT0"/>
<defs>
<path id="g97/TT0" d="M260.0 423.0Q 220.0,423.0  183.0,408.0 T 121.0,368.0  L83.0 413.0Q 113.0,443.0  161.0,461.5 T 267.0,480.0 Q 347.0,480.0  398.0,436.0 T 449.0,310.0  L449.0 105.0Q 449.0,42.0  457.0,0  L396.0 0Q 389.0,40.0  389.0,76.0  L387.0 76.0Q 355.0,30.0  314.5,9.0 T 217.0,-12.0 Q 178.0,-12.0  141.0,2.5 T 79.5,49.0 T 55.0,130.0 Q 55.0,198.0  99.0,232.0 T 212.5,276.5 T 385.0,287.0  L385.0 302.0Q 385.0,362.0  353.0,392.5 T 260.0,423.0 Z M125.0 133.0Q 125.0,87.0  157.0,65.5 T 235.0,44.0 Q 304.0,44.0  344.5,89.0 T 385.0,199.0  L385.0 234.0 L365.0 234.0Q 259.0,234.0  192.0,213.5 T 125.0,133.0 Z">
</path>
</defs>
<use x="2046.0" y="0" xlink:href="#g97/TT0"/>
<defs>
<path id="g114/TT0" d="M86.0 468.0 L151.0 468.0Q 155.0,418.0  155.0,388.0  L157.0 388.0Q 177.0,429.0  217.5,454.5 T 307.0,480.0 Q 334.0,480.0  352.0,475.0  L343.0 411.0Q 337.0,413.0  322.5,415.0 T 295.0,417.0 Q 236.0,417.0  197.0,372.5 T 158.0,240.0  L158.0 0 L90.0 0 L90.0 365.0Q 90.0,425.0  86.0,468.0 Z">
</path>
</defs>
<use x="2580.0" y="0" xlink:href="#g114/TT0"/>
</g>
<text x="45.0" y="426.65" font-size="9.0pt" font-family="Avenir Next for SAS" fill="#626f80" text-anchor="middle" opacity="0">
06Mar</text>
<g fill="#626f80" stroke="#626f80" transform="translate(32.0 441.35) scale(0.012 -0.012)">
<use x="0" y="0" xlink:href="#g50/TT0"/>
<use x="580.0" y="0" xlink:href="#g48/TT0"/>
<use x="1160.0" y="0" xlink:href="#g50/TT0"/>
<use x="1740.0" y="0" xlink:href="#g53/TT0"/>
</g>
<text x="45.0" y="441.35" font-size="9.0pt" font-family="Avenir Next for SAS" fill="#626f80" text-anchor="middle" opacity="0">
2025</text>
<g fill="#626f80" stroke="#626f80" transform="translate(138.13 426.65) scale(0.012 -0.012)">
<use x="0" y="0" xlink:href="#g48/TT0"/>
<use x="580.0" y="0" xlink:href="#g55/TT0"/>
<use x="1160.0" y="0" xlink:href="#g77/TT0"/>
<use x="2046.0" y="0" xlink:href="#g97/TT0"/>
<use x="2580.0" y="0" xlink:href="#g114/TT0"/>
</g>
<text x="155.13" y="426.65" font-size="9.0pt" font-family="Avenir Next for SAS" fill="#626f80" text-anchor="middle" opacity="0">
07Mar</text>
<g fill="#626f80" stroke="#626f80" transform="translate(262.27 426.65) scale(0.012 -0.012)">
<use x="0" y="0" xlink:href="#g48/TT0"/>
<defs>
<path id="g56/TT0" d="M517.0 186.0Q 517.0,126.0  486.0,79.5 T 403.0,7.5 T 290.0,-18.0 Q 229.0,-18.0  177.0,7.5 T 94.0,79.5 T 63.0,186.0 Q 63.0,256.0  100.5,306.5 T 197.0,375.0  L197.0 377.0Q 150.0,393.0  120.0,437.5 T 90.0,537.0 Q 90.0,593.0  117.0,636.0 T 190.0,702.5 T 290.0,726.0 Q 344.0,726.0  390.0,702.5 T 463.0,636.0 T 490.0,537.0 Q 490.0,482.0  460.0,437.5 T 383.0,377.0  L383.0 375.0Q 442.0,358.0  479.5,307.0 T 517.0,186.0 Z M290.0 406.0Q 345.0,406.0  382.5,442.0 T 420.0,533.0 Q 420.0,590.0  383.0,627.5 T 290.0,665.0 Q 234.0,665.0  197.0,627.5 T 160.0,533.0 Q 160.0,478.0  197.5,442.0 T 290.0,406.0 Z M290.0 43.0Q 359.0,43.0  402.0,86.0 T 445.0,194.0 Q 445.0,258.0  402.0,300.0 T 290.0,342.0 Q 221.0,342.0  178.0,300.0 T 135.0,194.0 Q 135.0,129.0  178.0,86.0 T 290.0,43.0 Z">
</path>
</defs>
<use x="580.0" y="0" xlink:href="#g56/TT0"/>
<use x="1160.0" y="0" xlink:href="#g77/TT0"/>
<use x="2046.0" y="0" xlink:href="#g97/TT0"/>
<use x="2580.0" y="0" xlink:href="#g114/TT0"/>
</g>
<text x="279.27" y="426.65" font-size="9.0pt" font-family="Avenir Next for SAS" fill="#626f80" text-anchor="middle" opacity="0">
08Mar</text>
<g fill="#626f80" stroke="#626f80" transform="translate(386.4 426.65) scale(0.012 -0.012)">
<use x="0" y="0" xlink:href="#g48/TT0"/>
<defs>
<path id="g57/TT0" d="M379.0 311.0Q 364.0,299.0  335.0,292.0 T 278.0,285.0 Q 217.0,285.0  167.5,312.5 T 90.0,390.0 T 62.0,503.0 Q 62.0,568.0  91.5,618.5 T 173.5,697.5 T 292.0,726.0 Q 358.0,726.0  410.5,697.5 T 492.5,618.5 T 522.0,503.0 Q 522.0,453.0  505.0,406.5 T 458.0,311.0  L265.0 0 L182.0 0 L381.0 309.0 L379.0 311.0Z M292.0 665.0Q 246.0,665.0  210.0,644.0 T 154.0,586.0 T 134.0,503.0 Q 134.0,433.0  177.0,388.0 T 292.0,343.0 Q 364.0,343.0  407.0,388.0 T 450.0,503.0 Q 450.0,549.0  430.0,586.0 T 374.0,644.0 T 338.0,665.0 Z">
</path>
</defs>
<use x="580.0" y="0" xlink:href="#g57/TT0"/>
<use x="1160.0" y="0" xlink:href="#g77/TT0"/>
<use x="2046.0" y="0" xlink:href="#g97/TT0"/>
<use x="2580.0" y="0" xlink:href="#g114/TT0"/>
</g>
<text x="403.4" y="426.65" font-size="9.0pt" font-family="Avenir Next for SAS" fill="#626f80" text-anchor="middle" opacity="0">
09Mar</text>
<g fill="#626f80" stroke="#626f80" transform="translate(510.53 426.65) scale(0.012 -0.012)">
<use x="0" y="0" xlink:href="#g49/TT0"/>
<use x="580.0" y="0" xlink:href="#g48/TT0"/>
<use x="1160.0" y="0" xlink:href="#g77/TT0"/>
<use x="2046.0" y="0" xlink:href="#g97/TT0"/>
<use x="2580.0" y="0" xlink:href="#g114/TT0"/>
</g>
<text x="527.53" y="426.65" font-size="9.0pt" font-family="Avenir Next for SAS" fill="#626f80" text-anchor="middle" opacity="0">
10Mar</text>
<g fill="#626f80" stroke="#626f80" transform="translate(634.67 426.65) scale(0.012 -0.012)">
<use x="0" y="0" xlink:href="#g49/TT0"/>
<use x="580.0" y="0" xlink:href="#g49/TT0"/>
<use x="1160.0" y="0" xlink:href="#g77/TT0"/>
<use x="2046.0" y="0" xlink:href="#g97/TT0"/>
<use x="2580.0" y="0" xlink:href="#g114/TT0"/>
</g>
<text x="651.67" y="426.65" font-size="9.0pt" font-family="Avenir Next for SAS" fill="#626f80" text-anchor="middle" opacity="0">
11Mar</text>
<g fill="#626f80" stroke="#626f80" transform="translate(758.8 426.65) scale(0.012 -0.012)">
<use x="0" y="0" xlink:href="#g49/TT0"/>
<use x="580.0" y="0" xlink:href="#g50/TT0"/>
<use x="1160.0" y="0" xlink:href="#g77/TT0"/>
<use x="2046.0" y="0" xlink:href="#g97/TT0"/>
<use x="2580.0" y="0" xlink:href="#g114/TT0"/>
</g>
<text x="775.8" y="426.65" font-size="9.0pt" font-family="Avenir Next for SAS" fill="#626f80" text-anchor="middle" opacity="0">
12Mar</text>
<g fill="#626f80" stroke="#626f80" transform="translate(882.93 426.65) scale(0.012 -0.012)">
<use x="0" y="0" xlink:href="#g49/TT0"/>
<defs>
<path id="g51/TT0" d="M245.0 402.0Q 319.0,402.0  364.5,433.5 T 410.0,532.0 Q 410.0,590.0  369.0,627.5 T 270.0,665.0 Q 226.0,665.0  191.0,643.5 T 135.0,582.0  L74.0 614.0Q 106.0,670.0  157.0,698.0 T 274.0,726.0 Q 331.0,726.0  378.0,703.5 T 453.0,638.0 T 481.0,536.0 Q 481.0,475.0  446.5,432.0 T 358.0,374.0  L358.0 372.0Q 421.0,359.0  461.0,312.0 T 501.0,196.0 Q 501.0,131.0  470.0,82.5 T 387.0,8.0 T 273.0,-18.0 Q 196.0,-18.0  137.5,19.5 T 49.0,127.0  L117.0 152.0Q 135.0,102.0  177.0,73.0 T 273.0,44.0 Q 314.0,44.0  350.0,62.5 T 407.5,115.5 T 429.0,196.0 Q 429.0,271.0  376.0,305.5 T 245.0,340.0  L214.0 340.0 L214.0 402.0 L245.0 402.0Z">
</path>
</defs>
<use x="580.0" y="0" xlink:href="#g51/TT0"/>
<use x="1160.0" y="0" xlink:href="#g77/TT0"/>
<use x="2046.0" y="0" xlink:href="#g97/TT0"/>
<use x="2580.0" y="0" xlink:href="#g114/TT0"/>
</g>
<text x="899.93" y="426.65" font-size="9.0pt" font-family="Avenir Next for SAS" fill="#626f80" text-anchor="middle" opacity="0">
13Mar</text>
</g>
<g fill="#2a3037" stroke="#2a3037" transform="translate(465.5 465.44) scale(0.014 -0.014)">
<defs>
<path id="g68/TT1" d="M329.0 708.0Q 430.0,708.0  518.5,673.0 T 663.5,558.5 T 720.0,354.0 Q 720.0,237.0  663.0,157.0 T 516.5,38.5 T 329.0,0  L78.0 0 L78.0 708.0 L329.0 708.0Z M585.0 354.0Q 585.0,492.0  506.0,546.0 T 309.0,600.0  L204.0 600.0 L204.0 110.0 L309.0 110.0Q 424.0,110.0  504.5,166.5 T 585.0,354.0 Z">
</path>
</defs>
<use x="0" y="0" xlink:href="#g68/TT1"/>
<use x="764.0" y="0" xlink:href="#g97/TT1"/>
<use x="1314.0" y="0" xlink:href="#g116/TT1"/>
<use x="1654.0" y="0" xlink:href="#g101/TT1"/>
<use x="2478.0" y="0" xlink:href="#g116/TT1"/>
<use x="2818.0" y="0" xlink:href="#g105/TT1"/>
<use x="3086.0" y="0" xlink:href="#g109/TT1"/>
<use x="3976.0" y="0" xlink:href="#g101/TT1"/>
</g>
<text id="Text_658" x="496.5" y="465.44" font-size="10.5pt" font-family="Avenir Next for SAS" font-weight="bold" fill="#2a3037" text-anchor="middle" opacity="0">
Date time</text>
</g>
</g>
<g transform=" translate(0 10.0)">
<g transform=" translate(16.0 -16.0)">
</g>
</g>
<g transform=" translate(0 10.0)">
<g transform=" translate(16.0 -16.0)">
</g>
</g>
<g transform=" translate(0 10.0)">
<g transform=" translate(16.0 -16.0)">
<rect x="206.0" y="473.3" rx="5" ry="5" width="554.07" height="26.7" fill="#ffffff">
</rect>
<path d="M212.0 486.65L262.0 486.65" stroke="#b7b7b7" stroke-dasharray="4,4" stroke-width="3.0" fill="none" opacity="0.75">
</path>
<g fill="#626f80" stroke="#626f80" transform="translate(266.0 490.95) scale(0.012 -0.012)">
<defs>
<path id="g65/TT0" d="M89.0 0 L10.0 0 L316.0 708.0 L386.0 708.0 L690.0 0 L610.0 0 L532.0 186.0 L166.0 186.0 L89.0 0Z M193.0 252.0 L505.0 252.0 L349.0 628.0 L193.0 252.0Z">
</path>
</defs>
<use x="0" y="0" xlink:href="#g65/TT0"/>
<defs>
<path id="g118/TT0" d="M282.0 0 L207.0 0 L16.0 468.0 L92.0 468.0 L244.0 72.0 L246.0 72.0 L399.0 468.0 L472.0 468.0 L282.0 0Z">
</path>
</defs>
<use x="700.0" y="0" xlink:href="#g118/TT0"/>
<defs>
<path id="g101/TT0" d="M515.0 216.0 L127.0 216.0Q 128.0,169.0  150.5,130.5 T 212.0,69.0 T 298.0,46.0 Q 347.0,46.0  387.0,69.5 T 448.0,127.0  L499.0 87.0Q 421.0,-12.0  298.0,-12.0 Q 229.0,-12.0  174.0,20.0 T 87.5,108.0 T 56.0,234.0 Q 56.0,303.0  87.0,359.5 T 172.0,448.0 T 292.0,480.0 Q 363.0,480.0  413.5,449.5 T 490.0,366.0 T 516.0,248.0 Q 516.0,228.0  515.0,216.0 Z M292.0 423.0Q 248.0,423.0  211.5,402.0 T 153.0,345.5 T 128.0,270.0  L447.0 270.0Q 444.0,338.0  403.5,380.5 T 292.0,423.0 Z">
</path>
</defs>
<use x="1188.0" y="0" xlink:href="#g101/TT0"/>
<use x="1760.0" y="0" xlink:href="#g114/TT0"/>
<use x="2120.0" y="0" xlink:href="#g97/TT0"/>
<defs>
<path id="g103/TT0" d="M294.0 -180.0Q 389.0,-180.0  433.0,-129.0 T 477.0,4.0  L477.0 92.0 L475.0 92.0Q 449.0,50.0  399.5,25.0 T 298.0,0 Q 226.0,0  171.0,30.5 T 86.0,115.5 T 56.0,238.0 Q 56.0,305.0  86.5,360.0 T 172.0,447.5 T 298.0,480.0 Q 351.0,480.0  399.5,455.5 T 475.0,387.0  L477.0 387.0 L477.0 468.0 L545.0 468.0 L545.0 4.0Q 545.0,-56.0  523.0,-110.5 T 444.0,-202.5 T 291.0,-240.0 Q 227.0,-240.0  167.5,-215.0 T 66.0,-146.0  L115.0 -94.0Q 144.0,-131.0  193.0,-155.5 T 294.0,-180.0 Z M305.0 58.0Q 357.0,58.0  398.0,81.0 T 462.0,145.5 T 485.0,240.0 Q 485.0,289.0  461.5,331.0 T 397.0,398.0 T 305.0,423.0 Q 250.0,423.0  210.0,398.0 T 149.0,331.5 T 128.0,240.0 Q 128.0,190.0  149.0,148.5 T 210.0,82.5 T 250.0,58.0 Z">
</path>
</defs>
<use x="2654.0" y="0" xlink:href="#g103/TT0"/>
<use x="3286.0" y="0" xlink:href="#g101/TT0"/>
<defs>
<path id="g82/TT0" d="M94.0 0 L94.0 708.0 L302.0 708.0Q 414.0,708.0  479.0,662.5 T 544.0,519.0 Q 544.0,442.0  493.5,394.0 T 363.0,337.0  L570.0 0 L482.0 0 L286.0 331.0 L166.0 331.0 L166.0 0 L94.0 0Z M291.0 393.0Q 378.0,393.0  425.0,425.0 T 472.0,519.0 Q 472.0,646.0  294.0,646.0  L166.0 646.0 L166.0 393.0 L291.0 393.0Z">
</path>
</defs>
<use x="4108.0" y="0" xlink:href="#g82/TT0"/>
<use x="4707.0" y="0" xlink:href="#g101/TT0"/>
<defs>
<path id="g108/TT0" d="M160.0 0 L92.0 0 L92.0 756.0 L160.0 756.0 L160.0 0Z">
</path>
</defs>
<use x="5279.0" y="0" xlink:href="#g108/TT0"/>
<use x="5531.0" y="0" xlink:href="#g97/TT0"/>
<defs>
<path id="g116/TT0" d="M169.0 411.0 L169.0 138.0Q 169.0,89.0  187.0,70.5 T 239.0,52.0 Q 268.0,52.0  298.0,67.0  L301.0 8.0Q 264.0,-6.0  221.0,-6.0 Q 173.0,-6.0  137.0,22.0 T 101.0,119.0  L101.0 411.0 L4.0 411.0 L4.0 468.0 L101.0 468.0 L101.0 600.0 L169.0 600.0 L169.0 468.0 L301.0 468.0 L301.0 411.0 L169.0 411.0Z">
</path>
</defs>
<use x="6065.0" y="0" xlink:href="#g116/TT0"/>
<defs>
<path id="g105/TT0" d="M125.0 600.0Q 106.0,600.0  91.5,614.0 T 77.0,648.0 Q 77.0,668.0  91.5,682.0 T 125.0,696.0 Q 144.0,696.0  158.5,682.0 T 173.0,648.0 Q 173.0,628.0  158.5,614.0 T 125.0,600.0 Z M159.0 0 L91.0 0 L91.0 468.0 L159.0 468.0 L159.0 0Z">
</path>
</defs>
<use x="6382.0" y="0" xlink:href="#g105/TT0"/>
<use x="6632.0" y="0" xlink:href="#g118/TT0"/>
<use x="7120.0" y="0" xlink:href="#g101/TT0"/>
<defs>
<path id="g72/TT0" d="M94.0 708.0 L166.0 708.0 L166.0 401.0 L552.0 401.0 L552.0 708.0 L624.0 708.0 L624.0 0 L552.0 0 L552.0 335.0 L166.0 335.0 L166.0 0 L94.0 0 L94.0 708.0Z">
</path>
</defs>
<use x="7942.0" y="0" xlink:href="#g72/TT0"/>
<defs>
<path id="g117/TT0" d="M426.0 80.0 L424.0 80.0Q 405.0,40.0  359.5,14.0 T 264.0,-12.0 Q 177.0,-12.0  131.5,40.0 T 86.0,181.0  L86.0 468.0 L154.0 468.0 L154.0 209.0Q 154.0,130.0  182.5,87.5 T 281.0,45.0 Q 319.0,45.0  351.0,65.5 T 403.0,127.0 T 423.0,228.0  L423.0 468.0 L491.0 468.0 L491.0 103.0Q 491.0,43.0  495.0,0  L430.0 0Q 426.0,50.0  426.0,80.0 Z">
</path>
</defs>
<use x="8660.0" y="0" xlink:href="#g117/TT0"/>
<defs>
<path id="g109/TT0" d="M311.0 480.0Q 356.0,480.0  395.0,458.0 T 455.0,381.0 Q 479.0,429.0  521.0,454.5 T 619.0,480.0 Q 706.0,480.0  751.5,428.0 T 797.0,287.0  L797.0 0 L729.0 0 L729.0 259.0Q 729.0,423.0  608.0,423.0 Q 540.0,423.0  507.5,372.5 T 475.0,249.0  L475.0 0 L407.0 0 L407.0 273.0Q 407.0,347.0  382.5,385.0 T 294.0,423.0 Q 260.0,423.0  228.5,402.5 T 177.5,340.5 T 158.0,240.0  L158.0 0 L90.0 0 L90.0 365.0Q 90.0,425.0  86.0,468.0  L151.0 468.0Q 155.0,418.0  155.0,388.0  L157.0 388.0Q 178.0,429.0  219.5,454.5 T 311.0,480.0 Z">
</path>
</defs>
<use x="9241.0" y="0" xlink:href="#g109/TT0"/>
<use x="10124.0" y="0" xlink:href="#g105/TT0"/>
<defs>
<path id="g100/TT0" d="M298.0 -12.0Q 227.0,-12.0  171.5,20.5 T 86.0,109.0 T 56.0,234.0 Q 56.0,303.0  86.0,359.0 T 171.5,447.5 T 298.0,480.0 Q 350.0,480.0  398.0,455.5 T 475.0,387.0  L477.0 387.0 L477.0 756.0 L545.0 756.0 L545.0 0 L477.0 0 L477.0 79.0 L475.0 79.0Q 446.0,36.0  398.0,12.0 T 298.0,-12.0 Z M305.0 46.0Q 357.0,46.0  398.0,70.5 T 462.0,138.0 T 485.0,234.0 Q 485.0,287.0  462.0,330.0 T 398.0,398.0 T 305.0,423.0 Q 250.0,423.0  210.0,398.0 T 149.0,330.0 T 128.0,234.0 Q 128.0,181.0  149.0,138.5 T 210.0,71.0 T 250.0,46.0 Z">
</path>
</defs>
<use x="10374.0" y="0" xlink:href="#g100/TT0"/>
<use x="11011.0" y="0" xlink:href="#g105/TT0"/>
<use x="11261.0" y="0" xlink:href="#g116/TT0"/>
<defs>
<path id="g121/TT0" d="M253.0 73.0 L398.0 468.0 L472.0 468.0 L239.0 -121.0Q 216.0,-180.0  182.5,-210.0 T 92.0,-240.0 Q 61.0,-240.0  31.0,-234.0  L38.0 -172.0Q 62.0,-180.0  88.0,-180.0 Q 121.0,-180.0  141.5,-159.5 T 178.0,-97.0  L216.0 1.0 L16.0 468.0 L92.0 468.0 L251.0 73.0 L253.0 73.0Z">
</path>
</defs>
<use x="11578.0" y="0" xlink:href="#g121/TT0"/>
<use x="12316.0" y="0" xlink:href="#g105/TT0"/>
<defs>
<path id="g110/TT0" d="M155.0 388.0 L157.0 388.0Q 176.0,428.0  221.5,454.0 T 317.0,480.0 Q 404.0,480.0  449.5,428.0 T 495.0,287.0  L495.0 0 L427.0 0 L427.0 259.0Q 427.0,338.0  398.5,380.5 T 300.0,423.0 Q 262.0,423.0  230.0,402.5 T 178.0,341.0 T 158.0,240.0  L158.0 0 L90.0 0 L90.0 365.0Q 90.0,425.0  86.0,468.0  L151.0 468.0Q 155.0,418.0  155.0,388.0 Z">
</path>
</defs>
<use x="12566.0" y="0" xlink:href="#g110/TT0"/>
<defs>
<path id="g115/TT0" d="M224.0 423.0Q 183.0,423.0  154.0,404.5 T 125.0,350.0 Q 125.0,318.0  151.0,300.0 T 237.0,270.0 Q 320.0,253.0  359.5,220.0 T 399.0,133.0 Q 399.0,59.0  347.5,23.5 T 223.0,-12.0 Q 167.0,-12.0  118.0,11.0 T 38.0,79.0  L92.0 119.0Q 111.0,87.0  146.5,66.5 T 222.0,46.0 Q 270.0,46.0  301.0,65.5 T 332.0,128.0 Q 332.0,163.0  299.5,182.0 T 194.0,218.0 Q 136.0,232.0  98.0,258.5 T 60.0,344.0 Q 60.0,411.0  108.5,445.5 T 227.0,480.0 Q 277.0,480.0  323.0,457.5 T 391.0,396.0  L339.0 357.0Q 324.0,387.0  293.0,405.0 T 224.0,423.0 Z">
</path>
</defs>
<use x="13147.0" y="0" xlink:href="#g115/TT0"/>
<use x="13591.0" y="0" xlink:href="#g105/TT0"/>
<use x="13841.0" y="0" xlink:href="#g100/TT0"/>
<use x="14478.0" y="0" xlink:href="#g101/TT0"/>
<defs>
<path id="g40/TT0" d="M230.0 -126.0 L178.0 -159.0Q 112.0,-72.0  72.0,46.0 T 32.0,288.0 Q 32.0,412.0  72.0,530.0 T 178.0,735.0  L230.0 702.0Q 170.0,618.0  134.0,509.0 T 98.0,288.0 Q 98.0,176.0  134.0,67.0 T 230.0,-126.0 Z">
</path>
</defs>
<use x="15300.0" y="0" xlink:href="#g40/TT0"/>
<defs>
<path id="g37/TT0" d="M217.0 -31.0 L165.0 -4.0 L616.0 739.0 L667.0 712.0 L217.0 -31.0Z M214.0 370.0Q 165.0,370.0  125.0,393.5 T 61.5,457.0 T 38.0,545.0 Q 38.0,593.0  61.5,633.0 T 125.0,696.5 T 214.0,720.0 Q 263.0,720.0  303.0,696.5 T 366.5,633.0 T 390.0,545.0 Q 390.0,497.0  366.5,457.0 T 303.0,393.5 T 263.0,370.0 Z M214.0 660.0Q 166.0,660.0  132.0,627.0 T 98.0,545.0 Q 98.0,496.0  132.0,463.0 T 214.0,430.0 Q 262.0,430.0  296.0,463.0 T 330.0,545.0 Q 330.0,594.0  296.0,627.0 T 214.0,660.0 Z M619.0 -12.0Q 570.0,-12.0  530.0,11.5 T 466.5,75.0 T 443.0,163.0 Q 443.0,211.0  466.5,251.0 T 530.0,314.5 T 619.0,338.0 Q 668.0,338.0  708.0,314.5 T 771.5,251.0 T 795.0,163.0 Q 795.0,115.0  771.5,75.0 T 708.0,11.5 T 668.0,-12.0 Z M619.0 278.0Q 571.0,278.0  537.0,245.0 T 503.0,163.0 Q 503.0,114.0  537.0,81.0 T 619.0,48.0 Q 667.0,48.0  701.0,81.0 T 735.0,163.0 Q 735.0,212.0  701.0,245.0 T 619.0,278.0 Z">
</path>
</defs>
<use x="15600.0" y="0" xlink:href="#g37/TT0"/>
<defs>
<path id="g41/TT0" d="M70.0 702.0 L122.0 735.0Q 188.0,648.0  228.0,530.0 T 268.0,288.0 Q 268.0,164.0  228.0,46.0 T 122.0,-159.0  L70.0 -126.0Q 130.0,-42.0  166.0,67.0 T 202.0,288.0 Q 202.0,400.0  166.0,509.0 T 70.0,702.0 Z">
</path>
</defs>
<use x="16433.0" y="0" xlink:href="#g41/TT0"/>
</g>
<text x="266.0" y="490.95" font-size="9.0pt" font-family="Avenir Next for SAS" fill="#626f80" text-anchor="start" opacity="0">
Average Relative Humidity inside (%)</text>
<path d="M474.8 486.65L524.8 486.65Z" stroke="#287fc7" stroke-width="3.0" fill="none">
</path>
<g fill="#626f80" stroke="#626f80" transform="translate(528.8 490.95) scale(0.012 -0.012)">
<use x="0" y="0" xlink:href="#g82/TT0"/>
<use x="599.0" y="0" xlink:href="#g101/TT0"/>
<use x="1171.0" y="0" xlink:href="#g108/TT0"/>
<use x="1423.0" y="0" xlink:href="#g97/TT0"/>
<use x="1957.0" y="0" xlink:href="#g116/TT0"/>
<use x="2274.0" y="0" xlink:href="#g105/TT0"/>
<use x="2524.0" y="0" xlink:href="#g118/TT0"/>
<use x="3012.0" y="0" xlink:href="#g101/TT0"/>
<use x="3834.0" y="0" xlink:href="#g72/TT0"/>
<use x="4552.0" y="0" xlink:href="#g117/TT0"/>
<use x="5133.0" y="0" xlink:href="#g109/TT0"/>
<use x="6016.0" y="0" xlink:href="#g105/TT0"/>
<use x="6266.0" y="0" xlink:href="#g100/TT0"/>
<use x="6903.0" y="0" xlink:href="#g105/TT0"/>
<use x="7153.0" y="0" xlink:href="#g116/TT0"/>
<use x="7470.0" y="0" xlink:href="#g121/TT0"/>
<use x="8208.0" y="0" xlink:href="#g105/TT0"/>
<use x="8458.0" y="0" xlink:href="#g110/TT0"/>
<use x="9039.0" y="0" xlink:href="#g115/TT0"/>
<use x="9483.0" y="0" xlink:href="#g105/TT0"/>
<use x="9733.0" y="0" xlink:href="#g100/TT0"/>
<use x="10370.0" y="0" xlink:href="#g101/TT0"/>
<use x="11192.0" y="0" xlink:href="#g40/TT0"/>
<use x="11492.0" y="0" xlink:href="#g37/TT0"/>
<use x="12325.0" y="0" xlink:href="#g41/TT0"/>
</g>
<text x="528.8" y="490.95" font-size="9.0pt" font-family="Avenir Next for SAS" fill="#626f80" text-anchor="start" opacity="0">
Relative Humidity inside (%)</text>
<rect x="688.3" y="482.15" width="9.0" height="9.0" fill="#d1d1d1" opacity="0.6">
</rect>
<g fill="#626f80" stroke="#626f80" transform="translate(701.3 490.95) scale(0.012 -0.012)">
<defs>
<path id="g66/TT0" d="M305.0 708.0Q 401.0,708.0  467.0,666.0 T 533.0,527.0 Q 533.0,471.0  498.5,429.5 T 408.0,375.0  L408.0 373.0Q 479.0,365.0  523.5,318.0 T 568.0,196.0 Q 568.0,137.0  536.0,93.0 T 444.0,24.5 T 304.0,0  L94.0 0 L94.0 708.0 L305.0 708.0Z M311.0 398.0Q 372.0,398.0  416.5,428.0 T 461.0,522.0 Q 461.0,586.0  414.0,616.0 T 291.0,646.0  L166.0 646.0 L166.0 398.0 L311.0 398.0Z M300.0 62.0Q 385.0,62.0  440.0,96.0 T 495.0,200.0 Q 495.0,269.0  448.0,304.0 T 313.0,339.0  L166.0 339.0 L166.0 62.0 L300.0 62.0Z">
</path>
</defs>
<use x="0" y="0" xlink:href="#g66/TT0"/>
<use x="636.0" y="0" xlink:href="#g97/TT0"/>
<use x="1170.0" y="0" xlink:href="#g110/TT0"/>
<use x="1751.0" y="0" xlink:href="#g100/TT0"/>
<defs>
<path id="g80/TT0" d="M294.0 708.0Q 405.0,708.0  469.0,660.0 T 533.0,519.0 Q 533.0,426.0  468.0,377.5 T 292.0,329.0  L166.0 329.0 L166.0 0 L94.0 0 L94.0 708.0 L294.0 708.0Z M288.0 390.0Q 372.0,390.0  416.5,423.0 T 461.0,519.0 Q 461.0,583.0  416.5,614.5 T 288.0,646.0  L166.0 646.0 L166.0 390.0 L288.0 390.0Z">
</path>
</defs>
<use x="2638.0" y="0" xlink:href="#g80/TT0"/>
<use x="3218.0" y="0" xlink:href="#g108/TT0"/>
<defs>
<path id="g111/TT0" d="M305.0 -12.0Q 234.0,-12.0  177.0,20.0 T 88.0,108.0 T 56.0,234.0 Q 56.0,304.0  88.0,360.0 T 177.0,448.0 T 305.0,480.0 Q 377.0,480.0  434.0,448.0 T 523.0,360.0 T 555.0,234.0 Q 555.0,164.0  523.0,108.0 T 434.0,20.0 T 377.0,-12.0 Z M305.0 423.0Q 252.0,423.0  212.0,398.0 T 150.0,330.0 T 128.0,234.0 Q 128.0,181.0  150.0,138.5 T 212.0,71.0 T 305.0,46.0 Q 358.0,46.0  398.5,71.0 T 461.0,138.5 T 483.0,234.0 Q 483.0,287.0  461.0,330.0 T 398.5,398.0 T 358.0,423.0 Z">
</path>
</defs>
<use x="3470.0" y="0" xlink:href="#g111/TT0"/>
<use x="4081.0" y="0" xlink:href="#g116/TT0"/>
</g>
<text x="701.3" y="490.95" font-size="9.0pt" font-family="Avenir Next for SAS" fill="#626f80" text-anchor="start" opacity="0">
Band Plot</text>
</g>
</g>
</g>
</svg>
