<svg xmlns="http://www.w3.org/2000/svg" xmlns:xlink="http://www.w3.org/1999/xlink" version="1.1" width="1000" height="500" viewBox="0 0 1000 500">
<rect x="0" y="0" width="1000" height="500" fill="#ffffff">
</rect>
<g>
<rect x="0" y="0" rx="5" ry="5" width="1000.0" height="500.0" fill="#ffffff" opacity="0">
</rect>
<rect x="0" y="0" rx="5" ry="5" width="1000.0" height="500.0" fill="#ffffff" opacity="0">
</rect>
<rect x="0" y="0" rx="5" ry="5" width="1000.0" height="500.0" fill="#ffffff" opacity="0">
</rect>
<g transform=" translate(0 10.0)">
<rect x="0" y="-10.0" rx="5" ry="5" width="1000.0" height="510.0" fill="#ffffff" opacity="0">
</rect>
<g transform=" translate(16.0 -16.0)">
<defs>
<clipPath id="ClipPath0">
<rect x="25" y="36" width="946" height="376">
</rect>
</clipPath>
</defs>
<g clip-path="url(#ClipPath0)">
<defs>
<clipPath id="ClipPath1">
<rect x="25" y="38" width="944" height="374">
</rect>
</clipPath>
</defs>
<g clip-path="url(#ClipPath1)">
<g transform="">
<polyline id="Polyline_98" points="31.0,196.03  41.83,198.46  52.65,199.68  63.48,200.29  74.3,199.38  85.13,198.16  95.95,194.5  106.78,190.54  117.6,189.02  128.43,190.85  139.26,193.59  150.08,196.03  160.91,198.16  171.73,199.68  182.56,200.9  193.38,202.12  204.21,201.2  215.03,199.99  225.86,197.55  236.69,194.2  247.51,193.89  258.34,195.42  269.16,198.16  279.99,200.29  290.81,202.12  301.64,204.25  312.47,204.86  323.29,207.3  334.12,206.99  344.94,205.77  355.77,202.12  366.59,198.46  377.42,198.77  388.24,199.99  399.07,202.73  409.9,204.86  420.72,206.69  431.55,208.51  442.37,210.34  453.2,211.26  464.02,211.26  474.85,210.04  485.67,207.3  496.5,204.86  507.33,203.95  518.15,204.86  528.98,207.6  539.8,209.43  550.63,211.56  561.45,213.39  572.28,214.61  583.1,215.82  593.93,215.52  604.76,214.0  615.58,211.56  626.41,209.12  637.23,209.43  648.06,211.26  658.88,213.08  669.71,215.52  680.53,217.65  691.36,217.65  702.19,217.96  713.01,219.17  723.84,219.17  734.66,219.17  745.49,218.87  756.31,217.35  767.14,217.35  777.97,218.26  788.79,219.48  799.62,220.09  810.44,221.92  821.27,221.92  832.09,221.92  842.92,222.83  853.74,221.92  864.57,221.31  875.4,221.0  886.22,219.48  897.05,218.87  907.87,220.09  918.7,222.22  929.52,223.44  940.35,224.35  951.17,224.35  962.0,225.27 " fill="none" stroke="#287fc7" stroke-width="3.0">
</polyline>
</g>
<g transform="">
<polyline id="Polyline_273" points="31.0,193.44  41.83,197.7  52.65,200.29  63.48,198.62  74.3,185.82  85.13,175.47  95.95,178.06  106.78,173.64  117.6,177.75  128.43,181.86  139.26,188.72  150.08,199.07  160.91,203.49  171.73,203.49  182.56,202.27  193.38,200.29  204.21,191.31  215.03,185.67  225.86,188.41  236.69,184.15  247.51,187.8  258.34,194.35  269.16,204.1  279.99,211.56  290.81,215.21  301.64,217.04  312.47,216.89  323.29,215.82  334.12,198.77  344.94,195.57  355.77,208.36  366.59,206.99  377.42,209.12  388.24,214.3  399.07,220.09  409.9,224.05  420.72,225.57  431.55,226.33  442.37,227.25  453.2,223.44  464.02,210.65  474.85,202.57  485.67,238.67  496.5,257.4  507.33,174.1  518.15,168.92  528.98,171.36  539.8,171.66  550.63,171.81  561.45,172.12  572.28,172.12  583.1,171.2  593.93,172.73  604.76,187.04  615.58,199.07  626.41,208.67  637.23,207.75  648.06,198.62  658.88,193.13  669.71,193.59  680.53,191.0  691.36,185.21  702.19,183.69  713.01,184.76  723.84,189.63  734.66,195.87  745.49,212.47  756.31,214.45  767.14,210.65  777.97,202.88  788.79,198.62  799.62,193.29  810.44,187.5  821.27,186.43  832.09,184.91  842.92,182.93  853.74,187.04  864.57,195.72  875.4,209.43  886.22,216.43  897.05,212.93  907.87,206.53  918.7,201.81  929.52,198.92  940.35,194.66  951.17,191.76  962.0,192.52 " fill="none" stroke="#b7b7b7" stroke-width="3.0" stroke-dasharray="4,4" opacity="0.75">
</polyline>
</g>
<g transform="">
<polygon points="31.0,200.76  41.83,199.86  52.65,202.01  63.48,203.35  74.3,224.16  85.13,239.65  95.95,224.58  106.78,221.45  117.6,209.63  128.43,207.28  139.26,202.5  150.08,207.69  160.91,218.56  171.73,214.26  182.56,206.15  193.38,205.46  204.21,219.3  215.03,226.16  225.86,214.26  236.69,212.58  247.51,205.03  258.34,197.37  269.16,220.9  279.99,243.43  290.81,252.26  301.64,253.22  312.47,250.92  323.29,239.94  334.12,222.03  344.94,224.43  355.77,226.02  366.59,231.11  377.42,238.41  388.24,254.79  399.07,269.19  409.9,278.32  420.72,278.98  431.55,276.73  442.37,275.06  453.2,257.9  464.02,212.37  474.85,223.68  485.67,327.4  496.5,406.0  507.33,258.52  518.15,270.57  528.98,273.87  539.8,278.48  550.63,284.23  561.45,288.85  572.28,292.29  583.1,297.41  593.93,293.76  604.76,263.28  615.58,234.39  626.41,209.96  637.23,212.49  648.06,234.37  658.88,249.56  669.71,255.62  680.53,266.38  691.36,276.96  702.19,280.61  713.01,282.1  723.84,273.19  734.66,261.78  745.49,230.56  756.31,222.64  767.14,229.6  777.97,246.38  788.79,257.63  799.62,269.09  810.44,284.84  821.27,286.79  832.09,289.58  842.92,295.78  853.74,285.68  864.57,268.08  875.4,242.16  886.22,225.05  897.05,229.73  907.87,244.87  918.7,259.53  929.52,268.27  940.35,278.65  951.17,283.94  962.0,285.13  962.0,99.92  951.17,99.59  940.35,110.66  929.52,129.57  918.7,144.1  907.87,168.2  897.05,196.13  886.22,207.82  875.4,176.69  864.57,123.36  853.74,88.4  842.92,70.08  832.09,80.24  821.27,86.07  810.44,90.15  799.62,117.48  788.79,139.61  777.97,159.38  767.14,191.69  756.31,206.27  745.49,194.38  734.66,129.97  723.84,106.07  713.01,87.41  702.19,86.78  691.36,93.47  680.53,115.62  669.71,131.56  658.88,136.71  648.06,162.86  637.23,203.01  626.41,207.37  615.58,163.75  604.76,110.8  593.93,51.69  583.1,45.0  572.28,51.94  561.45,55.39  550.63,59.39  539.8,64.84  528.98,68.84  518.15,67.27  507.33,89.67  496.5,108.8  485.67,149.94  474.85,181.47  464.02,208.92  453.2,188.98  442.37,179.43  431.55,175.94  420.72,172.16  409.9,169.78  399.07,170.98  388.24,173.81  377.42,179.83  366.59,182.87  355.77,190.7  344.94,166.71  334.12,175.51  323.29,191.7  312.47,182.86  301.64,180.86  290.81,178.17  279.99,179.69  269.16,187.3  258.34,191.34  247.51,170.57  236.69,155.72  225.86,162.57  215.03,145.18  204.21,163.31  193.38,195.12  182.56,198.39  171.73,192.72  160.91,188.41  150.08,190.46  139.26,174.93  128.43,156.45  117.6,145.88  106.78,125.83  95.95,131.54  85.13,111.29  74.3,147.49  63.48,193.88  52.65,198.57  41.83,195.55  31.0,186.12 " fill="#d1d1d1" fill-opacity="0.6">
</polygon>
</g>
</g>
<path d="M25.0 383.64L969.0 383.64" stroke="#2a3037" stroke-dasharray="1,2" fill="none" opacity="0.4">
</path>
<path d="M25.0 307.5L969.0 307.5" stroke="#2a3037" stroke-dasharray="1,2" fill="none" opacity="0.4">
</path>
<path d="M25.0 231.36L969.0 231.36" stroke="#2a3037" stroke-dasharray="1,2" fill="none" opacity="0.4">
</path>
<path d="M25.0 155.21L969.0 155.21" stroke="#2a3037" stroke-dasharray="1,2" fill="none" opacity="0.4">
</path>
<path d="M25.0 79.07L969.0 79.07" stroke="#2a3037" stroke-dasharray="1,2" fill="none" opacity="0.4">
</path>
<path d="M31.0 412.0L31.0 38.0" stroke="#2a3037" stroke-dasharray="1,2" fill="none" opacity="0.4">
</path>
<path d="M160.91 412.0L160.91 38.0" stroke="#2a3037" stroke-dasharray="1,2" fill="none" opacity="0.4">
</path>
<path d="M290.81 412.0L290.81 38.0" stroke="#2a3037" stroke-dasharray="1,2" fill="none" opacity="0.4">
</path>
<path d="M420.72 412.0L420.72 38.0" stroke="#2a3037" stroke-dasharray="1,2" fill="none" opacity="0.4">
</path>
<path d="M550.63 412.0L550.63 38.0" stroke="#2a3037" stroke-dasharray="1,2" fill="none" opacity="0.4">
</path>
<path d="M680.53 412.0L680.53 38.0" stroke="#2a3037" stroke-dasharray="1,2" fill="none" opacity="0.4">
</path>
<path d="M810.44 412.0L810.44 38.0" stroke="#2a3037" stroke-dasharray="1,2" fill="none" opacity="0.4">
</path>
<path d="M940.35 412.0L940.35 38.0" stroke="#2a3037" stroke-dasharray="1,2" fill="none" opacity="0.4">
</path>
</g>
<defs>
<clipPath id="ClipPath2">
<rect x="0" y="39" width="25" height="373">
</rect>
</clipPath>
</defs>
<g clip-path="url(#ClipPath2)">
<g fill="#626f80" stroke="#626f80" transform="translate(13.04 387.95) scale(0.012 -0.012)">
<defs>
<path id="g48/TT0" d="M522.0 353.0Q 522.0,195.0  467.0,88.5 T 290.0,-18.0 Q 167.0,-18.0  112.5,88.5 T 58.0,353.0 Q 58.0,512.0  112.5,619.0 T 290.0,726.0 Q 412.0,726.0  467.0,618.5 T 522.0,353.0 Z M131.0 353.0Q 131.0,226.0  167.5,135.0 T 290.0,44.0 Q 375.0,44.0  412.0,135.5 T 449.0,353.0 Q 449.0,480.0  412.0,572.5 T 290.0,665.0 Q 204.0,665.0  167.5,573.0 T 131.0,353.0 Z">
</path>
</defs>
<use x="0" y="0" xlink:href="#g48/TT0"/>
</g>
<text id="Text_623" x="20.0" y="387.95" font-size="9.0pt" font-family="Avenir Next for SAS" fill="#626f80" text-anchor="end" opacity="0">
0</text>
<g fill="#626f80" stroke="#626f80" transform="translate(6.08 311.8) scale(0.012 -0.012)">
<defs>
<path id="g50/TT0" d="M51.0 0 L51.0 75.0 L341.0 368.0Q 380.0,408.0  403.0,447.0 T 426.0,530.0 Q 426.0,590.0  385.5,627.5 T 286.0,665.0 Q 230.0,665.0  191.0,630.0 T 140.0,539.0  L69.0 553.0Q 84.0,629.0  144.0,677.5 T 286.0,726.0 Q 344.0,726.0  392.5,703.5 T 470.0,637.0 T 499.0,531.0 Q 499.0,469.0  470.0,421.5 T 384.0,317.0  L129.0 64.0 L504.0 64.0 L504.0 0 L51.0 0Z">
</path>
</defs>
<use x="0" y="0" xlink:href="#g50/TT0"/>
<defs>
<path id="g53/TT0" d="M180.0 644.0 L175.0 425.0Q 219.0,441.0  273.0,441.0 Q 339.0,441.0  391.5,413.0 T 473.5,334.5 T 503.0,219.0 Q 503.0,151.0  473.5,97.0 T 390.5,12.5 T 268.0,-18.0 Q 194.0,-18.0  140.0,16.0 T 56.0,111.0  L121.0 140.0Q 140.0,96.0  179.0,70.0 T 264.0,44.0 Q 311.0,44.0  349.0,66.0 T 408.5,126.5 T 430.0,212.0 Q 430.0,289.0  380.5,335.5 T 254.0,382.0 Q 180.0,382.0  107.0,343.0  L114.0 708.0 L475.0 708.0 L475.0 644.0 L180.0 644.0Z">
</path>
</defs>
<use x="580.0" y="0" xlink:href="#g53/TT0"/>
</g>
<text id="Text_624" x="20.0" y="311.8" font-size="9.0pt" font-family="Avenir Next for SAS" fill="#626f80" text-anchor="end" opacity="0">
25</text>
<g fill="#626f80" stroke="#626f80" transform="translate(6.08 235.66) scale(0.012 -0.012)">
<use x="0" y="0" xlink:href="#g53/TT0"/>
<use x="580.0" y="0" xlink:href="#g48/TT0"/>
</g>
<text id="Text_625" x="20.0" y="235.66" font-size="9.0pt" font-family="Avenir Next for SAS" fill="#626f80" text-anchor="end" opacity="0">
50</text>
<g fill="#626f80" stroke="#626f80" transform="translate(6.08 159.52) scale(0.012 -0.012)">
<defs>
<path id="g55/TT0" d="M498.0 642.0 L213.0 0 L132.0 0 L425.0 644.0 L78.0 644.0 L78.0 708.0 L498.0 708.0 L498.0 642.0Z">
</path>
</defs>
<use x="0" y="0" xlink:href="#g55/TT0"/>
<use x="580.0" y="0" xlink:href="#g53/TT0"/>
</g>
<text id="Text_626" x="20.0" y="159.52" font-size="9.0pt" font-family="Avenir Next for SAS" fill="#626f80" text-anchor="end" opacity="0">
75</text>
<g fill="#626f80" stroke="#626f80" transform="translate(-0.88 83.37) scale(0.012 -0.012)">
<defs>
<path id="g49/TT0" d="M358.0 0 L286.0 0 L286.0 619.0 L158.0 510.0 L114.0 560.0 L294.0 708.0 L358.0 708.0 L358.0 0Z">
</path>
</defs>
<use x="0" y="0" xlink:href="#g49/TT0"/>
<use x="580.0" y="0" xlink:href="#g48/TT0"/>
<use x="1160.0" y="0" xlink:href="#g48/TT0"/>
</g>
<text id="Text_627" x="20.0" y="83.37" font-size="9.0pt" font-family="Avenir Next for SAS" fill="#626f80" text-anchor="end" opacity="0">
100</text>
</g>
<g fill="#2a3037" stroke="#2a3037" transform="translate(0 35.59) scale(0.014 -0.014)">
<defs>
<path id="g82/TT1" d="M324.0 708.0Q 436.0,708.0  510.5,659.0 T 585.0,505.0 Q 585.0,430.0  542.0,380.5 T 423.0,314.0  L612.0 0 L460.0 0 L296.0 300.0 L204.0 300.0 L204.0 0 L78.0 0 L78.0 708.0 L324.0 708.0Z M459.0 506.0Q 459.0,558.0  418.0,580.0 T 318.0,602.0  L204.0 602.0 L204.0 403.0 L307.0 403.0Q 459.0,403.0  459.0,506.0 Z">
</path>
</defs>
<use x="0" y="0" xlink:href="#g82/TT1"/>
<defs>
<path id="g101/TT1" d="M529.0 202.0 L164.0 202.0Q 168.0,152.0  208.0,118.0 T 301.0,84.0 Q 384.0,84.0  428.0,146.0  L508.0 82.0Q 437.0,-14.0  302.0,-14.0 Q 228.0,-14.0  169.5,16.5 T 77.5,104.0 T 44.0,237.0 Q 44.0,313.0  77.0,371.5 T 168.0,462.0 T 298.0,494.0 Q 402.0,494.0  466.0,427.0 T 530.0,234.0 Q 530.0,213.0  529.0,202.0 Z M297.0 404.0Q 244.0,404.0  206.0,371.0 T 164.0,288.0  L410.0 288.0Q 410.0,338.0  381.0,371.0 T 297.0,404.0 Z">
</path>
</defs>
<use x="629.0" y="0" xlink:href="#g101/TT1"/>
<defs>
<path id="g108/TT1" d="M74.0 756.0 L194.0 756.0 L194.0 0 L74.0 0 L74.0 756.0Z">
</path>
</defs>
<use x="1203.0" y="0" xlink:href="#g108/TT1"/>
<defs>
<path id="g97/TT1" d="M367.0 61.0Q 349.0,29.0  308.5,8.5 T 218.0,-12.0 Q 175.0,-12.0  134.0,3.0 T 65.5,51.5 T 38.0,137.0 Q 38.0,233.0  131.0,266.5 T 368.0,300.0  L368.0 312.0Q 368.0,354.0  337.0,377.0 T 258.0,400.0 Q 221.0,400.0  186.0,384.5 T 127.0,345.0  L65.0 418.0Q 105.0,455.0  158.5,474.5 T 268.0,494.0 Q 385.0,494.0  433.5,436.0 T 482.0,292.0  L482.0 0 L370.0 0 L370.0 61.0 L367.0 61.0Z M341.0 219.0Q 158.0,219.0  158.0,139.0 Q 158.0,107.0  182.5,93.0 T 242.0,79.0 Q 303.0,79.0  335.5,111.5 T 368.0,202.0  L368.0 219.0 L341.0 219.0Z">
</path>
</defs>
<use x="1471.0" y="0" xlink:href="#g97/TT1"/>
<defs>
<path id="g116/TT1" d="M3.0 480.0 L87.0 480.0 L87.0 619.0 L205.0 619.0 L205.0 480.0 L325.0 480.0 L325.0 384.0 L205.0 384.0 L205.0 161.0Q 205.0,125.0  218.0,106.0 T 268.0,87.0 Q 299.0,87.0  319.0,97.0  L323.0 3.0Q 289.0,-10.0  243.0,-10.0 Q 155.0,-10.0  121.0,35.5 T 87.0,160.0  L87.0 384.0 L3.0 384.0 L3.0 480.0Z">
</path>
</defs>
<use x="2021.0" y="0" xlink:href="#g116/TT1"/>
<defs>
<path id="g105/TT1" d="M133.0 715.0Q 166.0,715.0  188.5,694.5 T 211.0,643.0 Q 211.0,612.0  188.5,591.5 T 133.0,571.0 Q 101.0,571.0  79.0,592.5 T 57.0,643.0 Q 57.0,672.0  79.0,693.5 T 133.0,715.0 Z M74.0 480.0 L194.0 480.0 L194.0 0 L74.0 0 L74.0 480.0Z">
</path>
</defs>
<use x="2361.0" y="0" xlink:href="#g105/TT1"/>
<defs>
<path id="g118/TT1" d="M0 480.0 L131.0 480.0 L257.0 130.0 L259.0 130.0 L386.0 480.0 L513.0 480.0 L322.0 0 L194.0 0 L0 480.0Z">
</path>
</defs>
<use x="2629.0" y="0" xlink:href="#g118/TT1"/>
<use x="3142.0" y="0" xlink:href="#g101/TT1"/>
<defs>
<path id="g72/TT1" d="M78.0 708.0 L204.0 708.0 L204.0 422.0 L535.0 422.0 L535.0 708.0 L661.0 708.0 L661.0 0 L535.0 0 L535.0 314.0 L204.0 314.0 L204.0 0 L78.0 0 L78.0 708.0Z">
</path>
</defs>
<use x="3966.0" y="0" xlink:href="#g72/TT1"/>
<defs>
<path id="g117/TT1" d="M396.0 0 L396.0 77.0 L394.0 77.0Q 377.0,39.0  336.5,12.5 T 245.0,-14.0 Q 157.0,-14.0  112.5,42.5 T 68.0,180.0  L68.0 480.0 L188.0 480.0 L188.0 214.0Q 188.0,86.0  278.0,86.0 Q 332.0,86.0  361.0,124.5 T 390.0,216.0  L390.0 480.0 L510.0 480.0 L510.0 0 L396.0 0Z">
</path>
</defs>
<use x="4705.0" y="0" xlink:href="#g117/TT1"/>
<defs>
<path id="g109/TT1" d="M822.0 300.0 L822.0 0 L702.0 0 L702.0 266.0Q 702.0,394.0  612.0,394.0 Q 560.0,394.0  533.0,354.5 T 506.0,262.0  L506.0 0 L386.0 0 L386.0 290.0Q 386.0,337.0  363.5,365.5 T 297.0,394.0 Q 246.0,394.0  219.0,355.5 T 192.0,264.0  L192.0 0 L72.0 0 L72.0 480.0 L186.0 480.0 L186.0 403.0 L188.0 403.0Q 205.0,442.0  244.0,468.0 T 337.0,494.0 Q 390.0,494.0  428.0,470.0 T 487.0,403.0 Q 511.0,447.0  551.5,470.5 T 645.0,494.0 Q 733.0,494.0  777.5,437.5 T 822.0,300.0 Z">
</path>
</defs>
<use x="5287.0" y="0" xlink:href="#g109/TT1"/>
<use x="6177.0" y="0" xlink:href="#g105/TT1"/>
<defs>
<path id="g100/TT1" d="M446.0 0 L446.0 72.0 L444.0 72.0Q 420.0,31.0  375.0,8.5 T 279.0,-14.0 Q 208.0,-14.0  154.5,20.5 T 72.0,113.5 T 43.0,242.0 Q 43.0,312.0  73.0,370.0 T 156.0,461.0 T 276.0,494.0 Q 377.0,494.0  437.0,419.0  L440.0 419.0 L440.0 756.0 L560.0 756.0 L560.0 0 L446.0 0Z M303.0 86.0Q 345.0,86.0  377.0,108.5 T 426.5,166.5 T 444.0,240.0 Q 444.0,278.0  426.5,314.5 T 377.0,373.5 T 303.0,396.0 Q 259.0,396.0  227.5,374.0 T 180.5,316.5 T 165.0,242.0 Q 165.0,203.0  180.5,167.0 T 227.5,108.5 T 259.0,86.0 Z">
</path>
</defs>
<use x="6445.0" y="0" xlink:href="#g100/TT1"/>
<use x="7079.0" y="0" xlink:href="#g105/TT1"/>
<use x="7347.0" y="0" xlink:href="#g116/TT1"/>
<defs>
<path id="g121/TT1" d="M133.0 480.0 L267.0 131.0 L269.0 131.0 L388.0 480.0 L513.0 480.0 L286.0 -103.0Q 258.0,-174.0  218.5,-207.0 T 104.0,-240.0 Q 71.0,-240.0  42.0,-233.0  L52.0 -129.0Q 74.0,-136.0  97.0,-136.0 Q 133.0,-136.0  149.0,-119.5 T 182.0,-61.0  L206.0 0 L0 480.0 L133.0 480.0Z">
</path>
</defs>
<use x="7687.0" y="0" xlink:href="#g121/TT1"/>
<use x="8450.0" y="0" xlink:href="#g105/TT1"/>
<defs>
<path id="g110/TT1" d="M186.0 480.0 L186.0 403.0 L188.0 403.0Q 205.0,441.0  245.5,467.5 T 337.0,494.0 Q 425.0,494.0  469.5,437.5 T 514.0,300.0  L514.0 0 L394.0 0 L394.0 266.0Q 394.0,394.0  304.0,394.0 Q 250.0,394.0  221.0,355.5 T 192.0,264.0  L192.0 0 L72.0 0 L72.0 480.0 L186.0 480.0Z">
</path>
</defs>
<use x="8718.0" y="0" xlink:href="#g110/TT1"/>
<defs>
<path id="g115/TT1" d="M230.0 404.0Q 198.0,404.0  175.5,391.0 T 153.0,352.0 Q 153.0,327.0  176.0,315.0 T 257.0,289.0 Q 325.0,273.0  368.5,241.0 T 412.0,146.0 Q 412.0,64.0  355.5,25.0 T 212.0,-14.0 Q 155.0,-14.0  102.0,7.0 T 15.0,65.0  L94.0 139.0Q 114.0,112.0  146.5,95.5 T 217.0,79.0 Q 248.0,79.0  271.0,93.0 T 294.0,136.0 Q 294.0,164.0  269.5,177.5 T 184.0,205.0 Q 119.0,221.0  80.5,250.5 T 42.0,341.0 Q 42.0,416.0  98.0,455.0 T 233.0,494.0 Q 287.0,494.0  336.0,475.0 T 413.0,421.0  L335.0 352.0Q 318.0,374.0  290.0,389.0 T 230.0,404.0 Z">
</path>
</defs>
<use x="9300.0" y="0" xlink:href="#g115/TT1"/>
<use x="9744.0" y="0" xlink:href="#g105/TT1"/>
<use x="10012.0" y="0" xlink:href="#g100/TT1"/>
<use x="10646.0" y="0" xlink:href="#g101/TT1"/>
<defs>
<path id="g40/TT1" d="M182.0 732.0 L266.0 677.0Q 206.0,593.0  172.5,492.0 T 139.0,288.0 Q 139.0,185.0  172.5,84.0 T 266.0,-101.0  L182.0 -156.0Q 112.0,-60.0  74.0,54.0 T 36.0,288.0 Q 36.0,408.0  74.0,522.0 T 182.0,732.0 Z">
</path>
</defs>
<use x="11470.0" y="0" xlink:href="#g40/TT1"/>
<defs>
<path id="g37/TT1" d="M631.0 740.0 L714.0 702.0 L298.0 -32.0 L215.0 6.0 L631.0 740.0Z M226.0 720.0Q 277.0,720.0  319.5,695.0 T 387.0,627.5 T 412.0,534.0 Q 412.0,483.0  387.0,440.5 T 319.5,373.0 T 226.0,348.0 Q 175.0,348.0  132.5,373.0 T 65.0,440.5 T 40.0,534.0 Q 40.0,585.0  65.0,627.5 T 132.5,695.0 T 175.0,720.0 Z M226.0 624.0Q 189.0,624.0  162.5,598.0 T 136.0,534.0 Q 136.0,497.0  162.5,470.5 T 226.0,444.0 Q 264.0,444.0  290.0,470.5 T 316.0,534.0 Q 316.0,572.0  290.0,598.0 T 226.0,624.0 Z M704.0 360.0Q 755.0,360.0  797.5,335.0 T 865.0,267.5 T 890.0,174.0 Q 890.0,123.0  865.0,80.5 T 797.5,13.0 T 704.0,-12.0 Q 653.0,-12.0  610.5,13.0 T 543.0,80.5 T 518.0,174.0 Q 518.0,225.0  543.0,267.5 T 610.5,335.0 T 653.0,360.0 Z M704.0 264.0Q 667.0,264.0  640.5,238.0 T 614.0,174.0 Q 614.0,137.0  640.5,110.5 T 704.0,84.0 Q 742.0,84.0  768.0,110.5 T 794.0,174.0 Q 794.0,212.0  768.0,238.0 T 704.0,264.0 Z">
</path>
</defs>
<use x="11800.0" y="0" xlink:href="#g37/TT1"/>
<defs>
<path id="g41/TT1" d="M148.0 -156.0 L64.0 -101.0Q 124.0,-17.0  157.5,84.0 T 191.0,288.0 Q 191.0,391.0  157.5,492.0 T 64.0,677.0  L148.0 732.0Q 218.0,636.0  256.0,522.0 T 294.0,288.0 Q 294.0,168.0  256.0,54.0 T 148.0,-156.0 Z">
</path>
</defs>
<use x="12730.0" y="0" xlink:href="#g41/TT1"/>
</g>
<text id="Text_628" x="0" y="35.59" font-size="10.5pt" font-family="Avenir Next for SAS" font-weight="bold" fill="#2a3037" text-anchor="start" opacity="0">
Relative Humidity inside (%)</text>
<defs>
<clipPath id="ClipPath3">
<rect x="25" y="412" width="943" height="57">
</rect>
</clipPath>
</defs>
<g clip-path="url(#ClipPath3)">
<g fill="#626f80" stroke="#626f80" transform="translate(28.0 426.65) scale(0.012 -0.012)">
<use x="0" y="0" xlink:href="#g48/TT0"/>
<defs>
<path id="g54/TT0" d="M203.0 397.0Q 218.0,409.0  247.0,416.0 T 304.0,423.0 Q 365.0,423.0  414.5,395.5 T 492.0,318.0 T 520.0,205.0 Q 520.0,140.0  490.5,89.5 T 408.5,10.5 T 290.0,-18.0 Q 224.0,-18.0  171.5,10.5 T 89.5,89.5 T 60.0,205.0 Q 60.0,255.0  77.0,301.5 T 124.0,397.0  L317.0 708.0 L400.0 708.0 L201.0 399.0 L203.0 397.0Z M290.0 43.0Q 336.0,43.0  372.0,64.0 T 428.0,122.0 T 448.0,205.0 Q 448.0,275.0  405.0,320.0 T 290.0,365.0 Q 218.0,365.0  175.0,320.0 T 132.0,205.0 Q 132.0,159.0  152.0,122.0 T 208.0,64.0 T 244.0,43.0 Z">
</path>
</defs>
<use x="580.0" y="0" xlink:href="#g54/TT0"/>
<defs>
<path id="g77/TT0" d="M444.0 122.0 L445.0 122.0 L682.0 708.0 L792.0 708.0 L792.0 0 L720.0 0 L720.0 615.0 L718.0 615.0 L462.0 0 L424.0 0 L168.0 615.0 L166.0 615.0 L166.0 0 L94.0 0 L94.0 708.0 L204.0 708.0 L444.0 122.0Z">
</path>
</defs>
<use x="1160.0" y="0" xlink:href="#g77/TT0"/>
<defs>
<path id="g97/TT0" d="M260.0 423.0Q 220.0,423.0  183.0,408.0 T 121.0,368.0  L83.0 413.0Q 113.0,443.0  161.0,461.5 T 267.0,480.0 Q 347.0,480.0  398.0,436.0 T 449.0,310.0  L449.0 105.0Q 449.0,42.0  457.0,0  L396.0 0Q 389.0,40.0  389.0,76.0  L387.0 76.0Q 355.0,30.0  314.5,9.0 T 217.0,-12.0 Q 178.0,-12.0  141.0,2.5 T 79.5,49.0 T 55.0,130.0 Q 55.0,198.0  99.0,232.0 T 212.5,276.5 T 385.0,287.0  L385.0 302.0Q 385.0,362.0  353.0,392.5 T 260.0,423.0 Z M125.0 133.0Q 125.0,87.0  157.0,65.5 T 235.0,44.0 Q 304.0,44.0  344.5,89.0 T 385.0,199.0  L385.0 234.0 L365.0 234.0Q 259.0,234.0  192.0,213.5 T 125.0,133.0 Z">
</path>
</defs>
<use x="2046.0" y="0" xlink:href="#g97/TT0"/>
<defs>
<path id="g114/TT0" d="M86.0 468.0 L151.0 468.0Q 155.0,418.0  155.0,388.0  L157.0 388.0Q 177.0,429.0  217.5,454.5 T 307.0,480.0 Q 334.0,480.0  352.0,475.0  L343.0 411.0Q 337.0,413.0  322.5,415.0 T 295.0,417.0 Q 236.0,417.0  197.0,372.5 T 158.0,240.0  L158.0 0 L90.0 0 L90.0 365.0Q 90.0,425.0  86.0,468.0 Z">
</path>
</defs>
<use x="2580.0" y="0" xlink:href="#g114/TT0"/>
</g>
<text x="45.0" y="426.65" font-size="9.0pt" font-family="Avenir Next for SAS" fill="#626f80" text-anchor="middle" opacity="0">
06Mar</text>
<g fill="#626f80" stroke="#626f80" transform="translate(32.0 441.35) scale(0.012 -0.012)">
<use x="0" y="0" xlink:href="#g50/TT0"/>
<use x="580.0" y="0" xlink:href="#g48/TT0"/>
<use x="1160.0" y="0" xlink:href="#g50/TT0"/>
<use x="1740.0" y="0" xlink:href="#g53/TT0"/>
</g>
<text x="45.0" y="441.35" font-size="9.0pt" font-family="Avenir Next for SAS" fill="#626f80" text-anchor="middle" opacity="0">
2025</text>
<g fill="#626f80" stroke="#626f80" transform="translate(143.91 426.65) scale(0.012 -0.012)">
<use x="0" y="0" xlink:href="#g48/TT0"/>
<use x="580.0" y="0" xlink:href="#g55/TT0"/>
<use x="1160.0" y="0" xlink:href="#g77/TT0"/>
<use x="2046.0" y="0" xlink:href="#g97/TT0"/>
<use x="2580.0" y="0" xlink:href="#g114/TT0"/>
</g>
<text x="160.91" y="426.65" font-size="9.0pt" font-family="Avenir Next for SAS" fill="#626f80" text-anchor="middle" opacity="0">
07Mar</text>
<g fill="#626f80" stroke="#626f80" transform="translate(273.81 426.65) scale(0.012 -0.012)">
<use x="0" y="0" xlink:href="#g48/TT0"/>
<defs>
<path id="g56/TT0" d="M517.0 186.0Q 517.0,126.0  486.0,79.5 T 403.0,7.5 T 290.0,-18.0 Q 229.0,-18.0  177.0,7.5 T 94.0,79.5 T 63.0,186.0 Q 63.0,256.0  100.5,306.5 T 197.0,375.0  L197.0 377.0Q 150.0,393.0  120.0,437.5 T 90.0,537.0 Q 90.0,593.0  117.0,636.0 T 190.0,702.5 T 290.0,726.0 Q 344.0,726.0  390.0,702.5 T 463.0,636.0 T 490.0,537.0 Q 490.0,482.0  460.0,437.5 T 383.0,377.0  L383.0 375.0Q 442.0,358.0  479.5,307.0 T 517.0,186.0 Z M290.0 406.0Q 345.0,406.0  382.5,442.0 T 420.0,533.0 Q 420.0,590.0  383.0,627.5 T 290.0,665.0 Q 234.0,665.0  197.0,627.5 T 160.0,533.0 Q 160.0,478.0  197.5,442.0 T 290.0,406.0 Z M290.0 43.0Q 359.0,43.0  402.0,86.0 T 445.0,194.0 Q 445.0,258.0  402.0,300.0 T 290.0,342.0 Q 221.0,342.0  178.0,300.0 T 135.0,194.0 Q 135.0,129.0  178.0,86.0 T 290.0,43.0 Z">
</path>
</defs>
<use x="580.0" y="0" xlink:href="#g56/TT0"/>
<use x="1160.0" y="0" xlink:href="#g77/TT0"/>
<use x="2046.0" y="0" xlink:href="#g97/TT0"/>
<use x="2580.0" y="0" xlink:href="#g114/TT0"/>
</g>
<text x="290.81" y="426.65" font-size="9.0pt" font-family="Avenir Next for SAS" fill="#626f80" text-anchor="middle" opacity="0">
08Mar</text>
<g fill="#626f80" stroke="#626f80" transform="translate(403.72 426.65) scale(0.012 -0.012)">
<use x="0" y="0" xlink:href="#g48/TT0"/>
<defs>
<path id="g57/TT0" d="M379.0 311.0Q 364.0,299.0  335.0,292.0 T 278.0,285.0 Q 217.0,285.0  167.5,312.5 T 90.0,390.0 T 62.0,503.0 Q 62.0,568.0  91.5,618.5 T 173.5,697.5 T 292.0,726.0 Q 358.0,726.0  410.5,697.5 T 492.5,618.5 T 522.0,503.0 Q 522.0,453.0  505.0,406.5 T 458.0,311.0  L265.0 0 L182.0 0 L381.0 309.0 L379.0 311.0Z M292.0 665.0Q 246.0,665.0  210.0,644.0 T 154.0,586.0 T 134.0,503.0 Q 134.0,433.0  177.0,388.0 T 292.0,343.0 Q 364.0,343.0  407.0,388.0 T 450.0,503.0 Q 450.0,549.0  430.0,586.0 T 374.0,644.0 T 338.0,665.0 Z">
</path>
</defs>
<use x="580.0" y="0" xlink:href="#g57/TT0"/>
<use x="1160.0" y="0" xlink:href="#g77/TT0"/>
<use x="2046.0" y="0" xlink:href="#g97/TT0"/>
<use x="2580.0" y="0" xlink:href="#g114/TT0"/>
</g>
<text x="420.72" y="426.65" font-size="9.0pt" font-family="Avenir Next for SAS" fill="#626f80" text-anchor="middle" opacity="0">
09Mar</text>
<g fill="#626f80" stroke="#626f80" transform="translate(533.63 426.65) scale(0.012 -0.012)">
<use x="0" y="0" xlink:href="#g49/TT0"/>
<use x="580.0" y="0" xlink:href="#g48/TT0"/>
<use x="1160.0" y="0" xlink:href="#g77/TT0"/>
<use x="2046.0" y="0" xlink:href="#g97/TT0"/>
<use x="2580.0" y="0" xlink:href="#g114/TT0"/>
</g>
<text x="550.63" y="426.65" font-size="9.0pt" font-family="Avenir Next for SAS" fill="#626f80" text-anchor="middle" opacity="0">
10Mar</text>
<g fill="#626f80" stroke="#626f80" transform="translate(663.53 426.65) scale(0.012 -0.012)">
<use x="0" y="0" xlink:href="#g49/TT0"/>
<use x="580.0" y="0" xlink:href="#g49/TT0"/>
<use x="1160.0" y="0" xlink:href="#g77/TT0"/>
<use x="2046.0" y="0" xlink:href="#g97/TT0"/>
<use x="2580.0" y="0" xlink:href="#g114/TT0"/>
</g>
<text x="680.53" y="426.65" font-size="9.0pt" font-family="Avenir Next for SAS" fill="#626f80" text-anchor="middle" opacity="0">
11Mar</text>
<g fill="#626f80" stroke="#626f80" transform="translate(793.44 426.65) scale(0.012 -0.012)">
<use x="0" y="0" xlink:href="#g49/TT0"/>
<use x="580.0" y="0" xlink:href="#g50/TT0"/>
<use x="1160.0" y="0" xlink:href="#g77/TT0"/>
<use x="2046.0" y="0" xlink:href="#g97/TT0"/>
<use x="2580.0" y="0" xlink:href="#g114/TT0"/>
</g>
<text x="810.44" y="426.65" font-size="9.0pt" font-family="Avenir Next for SAS" fill="#626f80" text-anchor="middle" opacity="0">
12Mar</text>
<g fill="#626f80" stroke="#626f80" transform="translate(923.35 426.65) scale(0.012 -0.012)">
<use x="0" y="0" xlink:href="#g49/TT0"/>
<defs>
<path id="g51/TT0" d="M245.0 402.0Q 319.0,402.0  364.5,433.5 T 410.0,532.0 Q 410.0,590.0  369.0,627.5 T 270.0,665.0 Q 226.0,665.0  191.0,643.5 T 135.0,582.0  L74.0 614.0Q 106.0,670.0  157.0,698.0 T 274.0,726.0 Q 331.0,726.0  378.0,703.5 T 453.0,638.0 T 481.0,536.0 Q 481.0,475.0  446.5,432.0 T 358.0,374.0  L358.0 372.0Q 421.0,359.0  461.0,312.0 T 501.0,196.0 Q 501.0,131.0  470.0,82.5 T 387.0,8.0 T 273.0,-18.0 Q 196.0,-18.0  137.5,19.5 T 49.0,127.0  L117.0 152.0Q 135.0,102.0  177.0,73.0 T 273.0,44.0 Q 314.0,44.0  350.0,62.5 T 407.5,115.5 T 429.0,196.0 Q 429.0,271.0  376.0,305.5 T 245.0,340.0  L214.0 340.0 L214.0 402.0 L245.0 402.0Z">
</path>
</defs>
<use x="580.0" y="0" xlink:href="#g51/TT0"/>
<use x="1160.0" y="0" xlink:href="#g77/TT0"/>
<use x="2046.0" y="0" xlink:href="#g97/TT0"/>
<use x="2580.0" y="0" xlink:href="#g114/TT0"/>
</g>
<text x="940.35" y="426.65" font-size="9.0pt" font-family="Avenir Next for SAS" fill="#626f80" text-anchor="middle" opacity="0">
13Mar</text>
</g>
<g fill="#2a3037" stroke="#2a3037" transform="translate(465.5 465.44) scale(0.014 -0.014)">
<defs>
<path id="g68/TT1" d="M329.0 708.0Q 430.0,708.0  518.5,673.0 T 663.5,558.5 T 720.0,354.0 Q 720.0,237.0  663.0,157.0 T 516.5,38.5 T 329.0,0  L78.0 0 L78.0 708.0 L329.0 708.0Z M585.0 354.0Q 585.0,492.0  506.0,546.0 T 309.0,600.0  L204.0 600.0 L204.0 110.0 L309.0 110.0Q 424.0,110.0  504.5,166.5 T 585.0,354.0 Z">
</path>
</defs>
<use x="0" y="0" xlink:href="#g68/TT1"/>
<use x="764.0" y="0" xlink:href="#g97/TT1"/>
<use x="1314.0" y="0" xlink:href="#g116/TT1"/>
<use x="1654.0" y="0" xlink:href="#g101/TT1"/>
<use x="2478.0" y="0" xlink:href="#g116/TT1"/>
<use x="2818.0" y="0" xlink:href="#g105/TT1"/>
<use x="3086.0" y="0" xlink:href="#g109/TT1"/>
<use x="3976.0" y="0" xlink:href="#g101/TT1"/>
</g>
<text id="Text_630" x="496.5" y="465.44" font-size="10.5pt" font-family="Avenir Next for SAS" font-weight="bold" fill="#2a3037" text-anchor="middle" opacity="0">
Date time</text>
</g>
</g>
<g transform=" translate(0 10.0)">
<g transform=" translate(16.0 -16.0)">
</g>
</g>
<g transform=" translate(0 10.0)">
<g transform=" translate(16.0 -16.0)">
</g>
</g>
<g transform=" translate(0 10.0)">
<g transform=" translate(16.0 -16.0)">
<rect x="206.0" y="473.3" rx="5" ry="5" width="554.07" height="26.7" fill="#ffffff">
</rect>
<path d="M212.0 486.65L262.0 486.65" stroke="#b7b7b7" stroke-dasharray="4,4" stroke-width="3.0" fill="none" opacity="0.75">
</path>
<g fill="#626f80" stroke="#626f80" transform="translate(266.0 490.95) scale(0.012 -0.012)">
<defs>
<path id="g65/TT0" d="M89.0 0 L10.0 0 L316.0 708.0 L386.0 708.0 L690.0 0 L610.0 0 L532.0 186.0 L166.0 186.0 L89.0 0Z M193.0 252.0 L505.0 252.0 L349.0 628.0 L193.0 252.0Z">
</path>
</defs>
<use x="0" y="0" xlink:href="#g65/TT0"/>
<defs>
<path id="g118/TT0" d="M282.0 0 L207.0 0 L16.0 468.0 L92.0 468.0 L244.0 72.0 L246.0 72.0 L399.0 468.0 L472.0 468.0 L282.0 0Z">
</path>
</defs>
<use x="700.0" y="0" xlink:href="#g118/TT0"/>
<defs>
<path id="g101/TT0" d="M515.0 216.0 L127.0 216.0Q 128.0,169.0  150.5,130.5 T 212.0,69.0 T 298.0,46.0 Q 347.0,46.0  387.0,69.5 T 448.0,127.0  L499.0 87.0Q 421.0,-12.0  298.0,-12.0 Q 229.0,-12.0  174.0,20.0 T 87.5,108.0 T 56.0,234.0 Q 56.0,303.0  87.0,359.5 T 172.0,448.0 T 292.0,480.0 Q 363.0,480.0  413.5,449.5 T 490.0,366.0 T 516.0,248.0 Q 516.0,228.0  515.0,216.0 Z M292.0 423.0Q 248.0,423.0  211.5,402.0 T 153.0,345.5 T 128.0,270.0  L447.0 270.0Q 444.0,338.0  403.5,380.5 T 292.0,423.0 Z">
</path>
</defs>
<use x="1188.0" y="0" xlink:href="#g101/TT0"/>
<use x="1760.0" y="0" xlink:href="#g114/TT0"/>
<use x="2120.0" y="0" xlink:href="#g97/TT0"/>
<defs>
<path id="g103/TT0" d="M294.0 -180.0Q 389.0,-180.0  433.0,-129.0 T 477.0,4.0  L477.0 92.0 L475.0 92.0Q 449.0,50.0  399.5,25.0 T 298.0,0 Q 226.0,0  171.0,30.5 T 86.0,115.5 T 56.0,238.0 Q 56.0,305.0  86.5,360.0 T 172.0,447.5 T 298.0,480.0 Q 351.0,480.0  399.5,455.5 T 475.0,387.0  L477.0 387.0 L477.0 468.0 L545.0 468.0 L545.0 4.0Q 545.0,-56.0  523.0,-110.5 T 444.0,-202.5 T 291.0,-240.0 Q 227.0,-240.0  167.5,-215.0 T 66.0,-146.0  L115.0 -94.0Q 144.0,-131.0  193.0,-155.5 T 294.0,-180.0 Z M305.0 58.0Q 357.0,58.0  398.0,81.0 T 462.0,145.5 T 485.0,240.0 Q 485.0,289.0  461.5,331.0 T 397.0,398.0 T 305.0,423.0 Q 250.0,423.0  210.0,398.0 T 149.0,331.5 T 128.0,240.0 Q 128.0,190.0  149.0,148.5 T 210.0,82.5 T 250.0,58.0 Z">
</path>
</defs>
<use x="2654.0" y="0" xlink:href="#g103/TT0"/>
<use x="3286.0" y="0" xlink:href="#g101/TT0"/>
<defs>
<path id="g82/TT0" d="M94.0 0 L94.0 708.0 L302.0 708.0Q 414.0,708.0  479.0,662.5 T 544.0,519.0 Q 544.0,442.0  493.5,394.0 T 363.0,337.0  L570.0 0 L482.0 0 L286.0 331.0 L166.0 331.0 L166.0 0 L94.0 0Z M291.0 393.0Q 378.0,393.0  425.0,425.0 T 472.0,519.0 Q 472.0,646.0  294.0,646.0  L166.0 646.0 L166.0 393.0 L291.0 393.0Z">
</path>
</defs>
<use x="4108.0" y="0" xlink:href="#g82/TT0"/>
<use x="4707.0" y="0" xlink:href="#g101/TT0"/>
<defs>
<path id="g108/TT0" d="M160.0 0 L92.0 0 L92.0 756.0 L160.0 756.0 L160.0 0Z">
</path>
</defs>
<use x="5279.0" y="0" xlink:href="#g108/TT0"/>
<use x="5531.0" y="0" xlink:href="#g97/TT0"/>
<defs>
<path id="g116/TT0" d="M169.0 411.0 L169.0 138.0Q 169.0,89.0  187.0,70.5 T 239.0,52.0 Q 268.0,52.0  298.0,67.0  L301.0 8.0Q 264.0,-6.0  221.0,-6.0 Q 173.0,-6.0  137.0,22.0 T 101.0,119.0  L101.0 411.0 L4.0 411.0 L4.0 468.0 L101.0 468.0 L101.0 600.0 L169.0 600.0 L169.0 468.0 L301.0 468.0 L301.0 411.0 L169.0 411.0Z">
</path>
</defs>
<use x="6065.0" y="0" xlink:href="#g116/TT0"/>
<defs>
<path id="g105/TT0" d="M125.0 600.0Q 106.0,600.0  91.5,614.0 T 77.0,648.0 Q 77.0,668.0  91.5,682.0 T 125.0,696.0 Q 144.0,696.0  158.5,682.0 T 173.0,648.0 Q 173.0,628.0  158.5,614.0 T 125.0,600.0 Z M159.0 0 L91.0 0 L91.0 468.0 L159.0 468.0 L159.0 0Z">
</path>
</defs>
<use x="6382.0" y="0" xlink:href="#g105/TT0"/>
<use x="6632.0" y="0" xlink:href="#g118/TT0"/>
<use x="7120.0" y="0" xlink:href="#g101/TT0"/>
<defs>
<path id="g72/TT0" d="M94.0 708.0 L166.0 708.0 L166.0 401.0 L552.0 401.0 L552.0 708.0 L624.0 708.0 L624.0 0 L552.0 0 L552.0 335.0 L166.0 335.0 L166.0 0 L94.0 0 L94.0 708.0Z">
</path>
</defs>
<use x="7942.0" y="0" xlink:href="#g72/TT0"/>
<defs>
<path id="g117/TT0" d="M426.0 80.0 L424.0 80.0Q 405.0,40.0  359.5,14.0 T 264.0,-12.0 Q 177.0,-12.0  131.5,40.0 T 86.0,181.0  L86.0 468.0 L154.0 468.0 L154.0 209.0Q 154.0,130.0  182.5,87.5 T 281.0,45.0 Q 319.0,45.0  351.0,65.5 T 403.0,127.0 T 423.0,228.0  L423.0 468.0 L491.0 468.0 L491.0 103.0Q 491.0,43.0  495.0,0  L430.0 0Q 426.0,50.0  426.0,80.0 Z">
</path>
</defs>
<use x="8660.0" y="0" xlink:href="#g117/TT0"/>
<defs>
<path id="g109/TT0" d="M311.0 480.0Q 356.0,480.0  395.0,458.0 T 455.0,381.0 Q 479.0,429.0  521.0,454.5 T 619.0,480.0 Q 706.0,480.0  751.5,428.0 T 797.0,287.0  L797.0 0 L729.0 0 L729.0 259.0Q 729.0,423.0  608.0,423.0 Q 540.0,423.0  507.5,372.5 T 475.0,249.0  L475.0 0 L407.0 0 L407.0 273.0Q 407.0,347.0  382.5,385.0 T 294.0,423.0 Q 260.0,423.0  228.5,402.5 T 177.5,340.5 T 158.0,240.0  L158.0 0 L90.0 0 L90.0 365.0Q 90.0,425.0  86.0,468.0  L151.0 468.0Q 155.0,418.0  155.0,388.0  L157.0 388.0Q 178.0,429.0  219.5,454.5 T 311.0,480.0 Z">
</path>
</defs>
<use x="9241.0" y="0" xlink:href="#g109/TT0"/>
<use x="10124.0" y="0" xlink:href="#g105/TT0"/>
<defs>
<path id="g100/TT0" d="M298.0 -12.0Q 227.0,-12.0  171.5,20.5 T 86.0,109.0 T 56.0,234.0 Q 56.0,303.0  86.0,359.0 T 171.5,447.5 T 298.0,480.0 Q 350.0,480.0  398.0,455.5 T 475.0,387.0  L477.0 387.0 L477.0 756.0 L545.0 756.0 L545.0 0 L477.0 0 L477.0 79.0 L475.0 79.0Q 446.0,36.0  398.0,12.0 T 298.0,-12.0 Z M305.0 46.0Q 357.0,46.0  398.0,70.5 T 462.0,138.0 T 485.0,234.0 Q 485.0,287.0  462.0,330.0 T 398.0,398.0 T 305.0,423.0 Q 250.0,423.0  210.0,398.0 T 149.0,330.0 T 128.0,234.0 Q 128.0,181.0  149.0,138.5 T 210.0,71.0 T 250.0,46.0 Z">
</path>
</defs>
<use x="10374.0" y="0" xlink:href="#g100/TT0"/>
<use x="11011.0" y="0" xlink:href="#g105/TT0"/>
<use x="11261.0" y="0" xlink:href="#g116/TT0"/>
<defs>
<path id="g121/TT0" d="M253.0 73.0 L398.0 468.0 L472.0 468.0 L239.0 -121.0Q 216.0,-180.0  182.5,-210.0 T 92.0,-240.0 Q 61.0,-240.0  31.0,-234.0  L38.0 -172.0Q 62.0,-180.0  88.0,-180.0 Q 121.0,-180.0  141.5,-159.5 T 178.0,-97.0  L216.0 1.0 L16.0 468.0 L92.0 468.0 L251.0 73.0 L253.0 73.0Z">
</path>
</defs>
<use x="11578.0" y="0" xlink:href="#g121/TT0"/>
<use x="12316.0" y="0" xlink:href="#g105/TT0"/>
<defs>
<path id="g110/TT0" d="M155.0 388.0 L157.0 388.0Q 176.0,428.0  221.5,454.0 T 317.0,480.0 Q 404.0,480.0  449.5,428.0 T 495.0,287.0  L495.0 0 L427.0 0 L427.0 259.0Q 427.0,338.0  398.5,380.5 T 300.0,423.0 Q 262.0,423.0  230.0,402.5 T 178.0,341.0 T 158.0,240.0  L158.0 0 L90.0 0 L90.0 365.0Q 90.0,425.0  86.0,468.0  L151.0 468.0Q 155.0,418.0  155.0,388.0 Z">
</path>
</defs>
<use x="12566.0" y="0" xlink:href="#g110/TT0"/>
<defs>
<path id="g115/TT0" d="M224.0 423.0Q 183.0,423.0  154.0,404.5 T 125.0,350.0 Q 125.0,318.0  151.0,300.0 T 237.0,270.0 Q 320.0,253.0  359.5,220.0 T 399.0,133.0 Q 399.0,59.0  347.5,23.5 T 223.0,-12.0 Q 167.0,-12.0  118.0,11.0 T 38.0,79.0  L92.0 119.0Q 111.0,87.0  146.5,66.5 T 222.0,46.0 Q 270.0,46.0  301.0,65.5 T 332.0,128.0 Q 332.0,163.0  299.5,182.0 T 194.0,218.0 Q 136.0,232.0  98.0,258.5 T 60.0,344.0 Q 60.0,411.0  108.5,445.5 T 227.0,480.0 Q 277.0,480.0  323.0,457.5 T 391.0,396.0  L339.0 357.0Q 324.0,387.0  293.0,405.0 T 224.0,423.0 Z">
</path>
</defs>
<use x="13147.0" y="0" xlink:href="#g115/TT0"/>
<use x="13591.0" y="0" xlink:href="#g105/TT0"/>
<use x="13841.0" y="0" xlink:href="#g100/TT0"/>
<use x="14478.0" y="0" xlink:href="#g101/TT0"/>
<defs>
<path id="g40/TT0" d="M230.0 -126.0 L178.0 -159.0Q 112.0,-72.0  72.0,46.0 T 32.0,288.0 Q 32.0,412.0  72.0,530.0 T 178.0,735.0  L230.0 702.0Q 170.0,618.0  134.0,509.0 T 98.0,288.0 Q 98.0,176.0  134.0,67.0 T 230.0,-126.0 Z">
</path>
</defs>
<use x="15300.0" y="0" xlink:href="#g40/TT0"/>
<defs>
<path id="g37/TT0" d="M217.0 -31.0 L165.0 -4.0 L616.0 739.0 L667.0 712.0 L217.0 -31.0Z M214.0 370.0Q 165.0,370.0  125.0,393.5 T 61.5,457.0 T 38.0,545.0 Q 38.0,593.0  61.5,633.0 T 125.0,696.5 T 214.0,720.0 Q 263.0,720.0  303.0,696.5 T 366.5,633.0 T 390.0,545.0 Q 390.0,497.0  366.5,457.0 T 303.0,393.5 T 263.0,370.0 Z M214.0 660.0Q 166.0,660.0  132.0,627.0 T 98.0,545.0 Q 98.0,496.0  132.0,463.0 T 214.0,430.0 Q 262.0,430.0  296.0,463.0 T 330.0,545.0 Q 330.0,594.0  296.0,627.0 T 214.0,660.0 Z M619.0 -12.0Q 570.0,-12.0  530.0,11.5 T 466.5,75.0 T 443.0,163.0 Q 443.0,211.0  466.5,251.0 T 530.0,314.5 T 619.0,338.0 Q 668.0,338.0  708.0,314.5 T 771.5,251.0 T 795.0,163.0 Q 795.0,115.0  771.5,75.0 T 708.0,11.5 T 668.0,-12.0 Z M619.0 278.0Q 571.0,278.0  537.0,245.0 T 503.0,163.0 Q 503.0,114.0  537.0,81.0 T 619.0,48.0 Q 667.0,48.0  701.0,81.0 T 735.0,163.0 Q 735.0,212.0  701.0,245.0 T 619.0,278.0 Z">
</path>
</defs>
<use x="15600.0" y="0" xlink:href="#g37/TT0"/>
<defs>
<path id="g41/TT0" d="M70.0 702.0 L122.0 735.0Q 188.0,648.0  228.0,530.0 T 268.0,288.0 Q 268.0,164.0  228.0,46.0 T 122.0,-159.0  L70.0 -126.0Q 130.0,-42.0  166.0,67.0 T 202.0,288.0 Q 202.0,400.0  166.0,509.0 T 70.0,702.0 Z">
</path>
</defs>
<use x="16433.0" y="0" xlink:href="#g41/TT0"/>
</g>
<text x="266.0" y="490.95" font-size="9.0pt" font-family="Avenir Next for SAS" fill="#626f80" text-anchor="start" opacity="0">
Average Relative Humidity inside (%)</text>
<path d="M474.8 486.65L524.8 486.65Z" stroke="#287fc7" stroke-width="3.0" fill="none">
</path>
<g fill="#626f80" stroke="#626f80" transform="translate(528.8 490.95) scale(0.012 -0.012)">
<use x="0" y="0" xlink:href="#g82/TT0"/>
<use x="599.0" y="0" xlink:href="#g101/TT0"/>
<use x="1171.0" y="0" xlink:href="#g108/TT0"/>
<use x="1423.0" y="0" xlink:href="#g97/TT0"/>
<use x="1957.0" y="0" xlink:href="#g116/TT0"/>
<use x="2274.0" y="0" xlink:href="#g105/TT0"/>
<use x="2524.0" y="0" xlink:href="#g118/TT0"/>
<use x="3012.0" y="0" xlink:href="#g101/TT0"/>
<use x="3834.0" y="0" xlink:href="#g72/TT0"/>
<use x="4552.0" y="0" xlink:href="#g117/TT0"/>
<use x="5133.0" y="0" xlink:href="#g109/TT0"/>
<use x="6016.0" y="0" xlink:href="#g105/TT0"/>
<use x="6266.0" y="0" xlink:href="#g100/TT0"/>
<use x="6903.0" y="0" xlink:href="#g105/TT0"/>
<use x="7153.0" y="0" xlink:href="#g116/TT0"/>
<use x="7470.0" y="0" xlink:href="#g121/TT0"/>
<use x="8208.0" y="0" xlink:href="#g105/TT0"/>
<use x="8458.0" y="0" xlink:href="#g110/TT0"/>
<use x="9039.0" y="0" xlink:href="#g115/TT0"/>
<use x="9483.0" y="0" xlink:href="#g105/TT0"/>
<use x="9733.0" y="0" xlink:href="#g100/TT0"/>
<use x="10370.0" y="0" xlink:href="#g101/TT0"/>
<use x="11192.0" y="0" xlink:href="#g40/TT0"/>
<use x="11492.0" y="0" xlink:href="#g37/TT0"/>
<use x="12325.0" y="0" xlink:href="#g41/TT0"/>
</g>
<text x="528.8" y="490.95" font-size="9.0pt" font-family="Avenir Next for SAS" fill="#626f80" text-anchor="start" opacity="0">
Relative Humidity inside (%)</text>
<rect x="688.3" y="482.15" width="9.0" height="9.0" fill="#d1d1d1" opacity="0.6">
</rect>
<g fill="#626f80" stroke="#626f80" transform="translate(701.3 490.95) scale(0.012 -0.012)">
<defs>
<path id="g66/TT0" d="M305.0 708.0Q 401.0,708.0  467.0,666.0 T 533.0,527.0 Q 533.0,471.0  498.5,429.5 T 408.0,375.0  L408.0 373.0Q 479.0,365.0  523.5,318.0 T 568.0,196.0 Q 568.0,137.0  536.0,93.0 T 444.0,24.5 T 304.0,0  L94.0 0 L94.0 708.0 L305.0 708.0Z M311.0 398.0Q 372.0,398.0  416.5,428.0 T 461.0,522.0 Q 461.0,586.0  414.0,616.0 T 291.0,646.0  L166.0 646.0 L166.0 398.0 L311.0 398.0Z M300.0 62.0Q 385.0,62.0  440.0,96.0 T 495.0,200.0 Q 495.0,269.0  448.0,304.0 T 313.0,339.0  L166.0 339.0 L166.0 62.0 L300.0 62.0Z">
</path>
</defs>
<use x="0" y="0" xlink:href="#g66/TT0"/>
<use x="636.0" y="0" xlink:href="#g97/TT0"/>
<use x="1170.0" y="0" xlink:href="#g110/TT0"/>
<use x="1751.0" y="0" xlink:href="#g100/TT0"/>
<defs>
<path id="g80/TT0" d="M294.0 708.0Q 405.0,708.0  469.0,660.0 T 533.0,519.0 Q 533.0,426.0  468.0,377.5 T 292.0,329.0  L166.0 329.0 L166.0 0 L94.0 0 L94.0 708.0 L294.0 708.0Z M288.0 390.0Q 372.0,390.0  416.5,423.0 T 461.0,519.0 Q 461.0,583.0  416.5,614.5 T 288.0,646.0  L166.0 646.0 L166.0 390.0 L288.0 390.0Z">
</path>
</defs>
<use x="2638.0" y="0" xlink:href="#g80/TT0"/>
<use x="3218.0" y="0" xlink:href="#g108/TT0"/>
<defs>
<path id="g111/TT0" d="M305.0 -12.0Q 234.0,-12.0  177.0,20.0 T 88.0,108.0 T 56.0,234.0 Q 56.0,304.0  88.0,360.0 T 177.0,448.0 T 305.0,480.0 Q 377.0,480.0  434.0,448.0 T 523.0,360.0 T 555.0,234.0 Q 555.0,164.0  523.0,108.0 T 434.0,20.0 T 377.0,-12.0 Z M305.0 423.0Q 252.0,423.0  212.0,398.0 T 150.0,330.0 T 128.0,234.0 Q 128.0,181.0  150.0,138.5 T 212.0,71.0 T 305.0,46.0 Q 358.0,46.0  398.5,71.0 T 461.0,138.5 T 483.0,234.0 Q 483.0,287.0  461.0,330.0 T 398.5,398.0 T 358.0,423.0 Z">
</path>
</defs>
<use x="3470.0" y="0" xlink:href="#g111/TT0"/>
<use x="4081.0" y="0" xlink:href="#g116/TT0"/>
</g>
<text x="701.3" y="490.95" font-size="9.0pt" font-family="Avenir Next for SAS" fill="#626f80" text-anchor="start" opacity="0">
Band Plot</text>
</g>
</g>
</g>
</svg>
