<svg xmlns="http://www.w3.org/2000/svg" xmlns:xlink="http://www.w3.org/1999/xlink" version="1.1" width="1000" height="500" viewBox="0 0 1000 500">
<rect x="0" y="0" width="1000" height="500" fill="#ffffff">
</rect>
<g>
<rect x="0" y="0" rx="5" ry="5" width="1000.0" height="500.0" fill="#ffffff" opacity="0">
</rect>
<rect x="0" y="0" rx="5" ry="5" width="1000.0" height="500.0" fill="#ffffff" opacity="0">
</rect>
<rect x="0" y="0" rx="5" ry="5" width="1000.0" height="500.0" fill="#ffffff" opacity="0">
</rect>
<g transform=" translate(0 10.0)">
<rect x="0" y="-10.0" rx="5" ry="5" width="1000.0" height="510.0" fill="#ffffff" opacity="0">
</rect>
<g transform=" translate(16.0 -16.0)">
<defs>
<clipPath id="ClipPath0">
<rect x="18" y="36" width="953" height="376">
</rect>
</clipPath>
</defs>
<g clip-path="url(#ClipPath0)">
<defs>
<clipPath id="ClipPath1">
<rect x="18" y="38" width="951" height="374">
</rect>
</clipPath>
</defs>
<g clip-path="url(#ClipPath1)">
<g transform="">
<polyline id="Polyline_75" points="24.0,204.83  38.89,236.36  53.78,281.07  68.67,297.03  83.56,298.63  98.44,298.63  113.33,301.82  128.22,295.44  143.11,275.48  158.0,246.34  172.89,228.78  187.78,220.8  202.67,198.84  217.56,230.78  232.44,257.12  247.33,270.69  262.22,265.9  277.11,265.9  292.0,263.51  306.89,271.49  321.78,261.11  336.67,257.92  351.56,244.75  366.44,237.96  381.33,251.93  396.22,263.11  411.11,267.1  426.0,266.7  440.89,268.69  455.78,279.07  470.67,272.69  485.56,265.5  500.44,257.52  515.33,246.34  530.22,233.17 " fill="none" stroke="#287fc7" stroke-width="3.0">
</polyline>
<polyline id="Polyline_75" points="604.67,246.34  605.17,246.34 " fill="none" stroke="#287fc7" stroke-width="3.0">
</polyline>
<polyline id="Polyline_75" points="723.78,246.74  738.67,267.1  753.56,276.68  768.44,287.45  783.33,279.87  798.22,284.26  813.11,277.48  828.0,268.3  842.89,271.49  857.78,272.69  872.67,262.71  887.56,259.12  902.44,251.13 " fill="none" stroke="#287fc7" stroke-width="3.0">
</polyline>
<polyline id="Polyline_75" points="962.0,270.69  962.5,270.69 " fill="none" stroke="#287fc7" stroke-width="3.0">
</polyline>
</g>
<g transform="">
<polyline id="Polyline_204" points="24.0,187.14  38.89,194.85  53.78,207.36  68.67,251.33  83.56,250.53  98.44,248.34  113.33,249.34  128.22,245.54  143.11,235.77  158.0,221.99  172.89,214.61  187.78,211.62  202.67,201.64  217.56,218.6  232.44,232.17  247.33,239.56  262.22,237.16  277.11,235.77  292.0,232.77  306.89,236.36  321.78,228.78  336.67,225.85  351.56,219.47  366.44,212.61  381.33,219.0  396.22,231.37  411.11,227.58  426.0,222.19  440.89,216.41  455.78,219.4  470.67,213.21  485.56,265.5  500.44,257.52  515.33,246.34  530.22,233.17 " fill="none" stroke="#b7b7b7" stroke-width="3.0" stroke-dasharray="4,4" opacity="0.75">
</polyline>
<polyline id="Polyline_204" points="604.67,246.34  605.17,246.34 " fill="none" stroke="#b7b7b7" stroke-width="3.0" stroke-dasharray="4,4" opacity="0.75">
</polyline>
<polyline id="Polyline_204" points="723.78,246.74  738.67,267.1  753.56,276.68  768.44,287.45  783.33,279.87  798.22,284.26  813.11,277.48  828.0,268.3  842.89,271.49  857.78,272.69  872.67,262.71  887.56,259.12  902.44,251.13 " fill="none" stroke="#b7b7b7" stroke-width="3.0" stroke-dasharray="4,4" opacity="0.75">
</polyline>
<polyline id="Polyline_204" points="962.0,270.69  962.5,270.69 " fill="none" stroke="#b7b7b7" stroke-width="3.0" stroke-dasharray="4,4" opacity="0.75">
</polyline>
</g>
<g transform="">
<polygon points="24.0,241.67  38.89,287.4  53.78,352.69  68.67,380.6  83.56,386.57  98.44,390.59  113.33,397.79  128.22,386.66  143.11,348.1  158.0,290.86  172.89,254.69  187.78,237.58  202.67,209.54  217.56,253.03  232.44,302.73  247.33,327.62  262.22,318.45  277.11,321.0  292.0,319.7  306.89,335.71  321.78,320.23  336.67,296.4  351.56,274.13  366.44,284.3  381.33,312.14  396.22,321.13  411.11,339.35  426.0,348.07  440.89,364.3  455.78,388.18  470.67,381.43  470.67,45.0  455.78,50.62  440.89,68.51  426.0,96.32  411.11,115.82  396.22,141.62  381.33,125.86  366.44,140.93  351.56,164.8  336.67,155.3  321.78,137.34  306.89,137.02  292.0,145.84  277.11,150.53  262.22,155.88  247.33,151.5  232.44,161.61  217.56,184.17  202.67,193.74  187.78,185.65  172.89,174.53  158.0,153.13  143.11,123.43  128.22,104.43  113.33,100.88  98.44,106.09  83.56,114.5  68.67,122.07  53.78,62.02  38.89,102.3  24.0,132.6 " fill="#d1d1d1" fill-opacity="0.6">
</polygon>
</g>
</g>
<path d="M18.0 406.0L969.0 406.0" stroke="#2a3037" stroke-dasharray="1,2" fill="none" opacity="0.4">
</path>
<path d="M18.0 326.17L969.0 326.17" stroke="#2a3037" stroke-dasharray="1,2" fill="none" opacity="0.4">
</path>
<path d="M18.0 246.34L969.0 246.34" stroke="#2a3037" stroke-dasharray="1,2" fill="none" opacity="0.4">
</path>
<path d="M18.0 166.51L969.0 166.51" stroke="#2a3037" stroke-dasharray="1,2" fill="none" opacity="0.4">
</path>
<path d="M18.0 86.68L969.0 86.68" stroke="#2a3037" stroke-dasharray="1,2" fill="none" opacity="0.4">
</path>
<path d="M24.0 412.0L24.0 38.0" stroke="#2a3037" stroke-dasharray="1,2" fill="none" opacity="0.4">
</path>
<path d="M202.67 412.0L202.67 38.0" stroke="#2a3037" stroke-dasharray="1,2" fill="none" opacity="0.4">
</path>
<path d="M381.33 412.0L381.33 38.0" stroke="#2a3037" stroke-dasharray="1,2" fill="none" opacity="0.4">
</path>
<path d="M560.0 412.0L560.0 38.0" stroke="#2a3037" stroke-dasharray="1,2" fill="none" opacity="0.4">
</path>
<path d="M738.67 412.0L738.67 38.0" stroke="#2a3037" stroke-dasharray="1,2" fill="none" opacity="0.4">
</path>
<path d="M917.33 412.0L917.33 38.0" stroke="#2a3037" stroke-dasharray="1,2" fill="none" opacity="0.4">
</path>
</g>
<defs>
<clipPath id="ClipPath2">
<rect x="0" y="39" width="18" height="373">
</rect>
</clipPath>
</defs>
<g clip-path="url(#ClipPath2)">
<g fill="#626f80" stroke="#626f80" transform="translate(6.04 409.3) scale(0.012 -0.012)">
<defs>
<path id="g48/TT0" d="M522.0 353.0Q 522.0,195.0  467.0,88.5 T 290.0,-18.0 Q 167.0,-18.0  112.5,88.5 T 58.0,353.0 Q 58.0,512.0  112.5,619.0 T 290.0,726.0 Q 412.0,726.0  467.0,618.5 T 522.0,353.0 Z M131.0 353.0Q 131.0,226.0  167.5,135.0 T 290.0,44.0 Q 375.0,44.0  412.0,135.5 T 449.0,353.0 Q 449.0,480.0  412.0,572.5 T 290.0,665.0 Q 204.0,665.0  167.5,573.0 T 131.0,353.0 Z">
</path>
</defs>
<use x="0" y="0" xlink:href="#g48/TT0"/>
</g>
<text id="Text_462" x="13.0" y="409.3" font-size="9.0pt" font-family="Avenir Next for SAS" fill="#626f80" text-anchor="end" opacity="0">
0</text>
<g fill="#626f80" stroke="#626f80" transform="translate(-0.92 330.47) scale(0.012 -0.012)">
<defs>
<path id="g50/TT0" d="M51.0 0 L51.0 75.0 L341.0 368.0Q 380.0,408.0  403.0,447.0 T 426.0,530.0 Q 426.0,590.0  385.5,627.5 T 286.0,665.0 Q 230.0,665.0  191.0,630.0 T 140.0,539.0  L69.0 553.0Q 84.0,629.0  144.0,677.5 T 286.0,726.0 Q 344.0,726.0  392.5,703.5 T 470.0,637.0 T 499.0,531.0 Q 499.0,469.0  470.0,421.5 T 384.0,317.0  L129.0 64.0 L504.0 64.0 L504.0 0 L51.0 0Z">
</path>
</defs>
<use x="0" y="0" xlink:href="#g50/TT0"/>
<use x="580.0" y="0" xlink:href="#g48/TT0"/>
</g>
<text id="Text_463" x="13.0" y="330.47" font-size="9.0pt" font-family="Avenir Next for SAS" fill="#626f80" text-anchor="end" opacity="0">
20</text>
<g fill="#626f80" stroke="#626f80" transform="translate(-0.92 250.64) scale(0.012 -0.012)">
<defs>
<path id="g52/TT0" d="M436.0 234.0 L540.0 234.0 L540.0 171.0 L436.0 171.0 L436.0 0 L366.0 0 L366.0 171.0 L42.0 171.0 L42.0 241.0 L342.0 708.0 L436.0 708.0 L436.0 234.0Z M366.0 627.0 L364.0 627.0 L117.0 234.0 L366.0 234.0 L366.0 627.0Z">
</path>
</defs>
<use x="0" y="0" xlink:href="#g52/TT0"/>
<use x="580.0" y="0" xlink:href="#g48/TT0"/>
</g>
<text id="Text_464" x="13.0" y="250.64" font-size="9.0pt" font-family="Avenir Next for SAS" fill="#626f80" text-anchor="end" opacity="0">
40</text>
<g fill="#626f80" stroke="#626f80" transform="translate(-0.92 170.82) scale(0.012 -0.012)">
<defs>
<path id="g54/TT0" d="M203.0 397.0Q 218.0,409.0  247.0,416.0 T 304.0,423.0 Q 365.0,423.0  414.5,395.5 T 492.0,318.0 T 520.0,205.0 Q 520.0,140.0  490.5,89.5 T 408.5,10.5 T 290.0,-18.0 Q 224.0,-18.0  171.5,10.5 T 89.5,89.5 T 60.0,205.0 Q 60.0,255.0  77.0,301.5 T 124.0,397.0  L317.0 708.0 L400.0 708.0 L201.0 399.0 L203.0 397.0Z M290.0 43.0Q 336.0,43.0  372.0,64.0 T 428.0,122.0 T 448.0,205.0 Q 448.0,275.0  405.0,320.0 T 290.0,365.0 Q 218.0,365.0  175.0,320.0 T 132.0,205.0 Q 132.0,159.0  152.0,122.0 T 208.0,64.0 T 244.0,43.0 Z">
</path>
</defs>
<use x="0" y="0" xlink:href="#g54/TT0"/>
<use x="580.0" y="0" xlink:href="#g48/TT0"/>
</g>
<text id="Text_465" x="13.0" y="170.82" font-size="9.0pt" font-family="Avenir Next for SAS" fill="#626f80" text-anchor="end" opacity="0">
60</text>
<g fill="#626f80" stroke="#626f80" transform="translate(-0.92 90.99) scale(0.012 -0.012)">
<defs>
<path id="g56/TT0" d="M517.0 186.0Q 517.0,126.0  486.0,79.5 T 403.0,7.5 T 290.0,-18.0 Q 229.0,-18.0  177.0,7.5 T 94.0,79.5 T 63.0,186.0 Q 63.0,256.0  100.5,306.5 T 197.0,375.0  L197.0 377.0Q 150.0,393.0  120.0,437.5 T 90.0,537.0 Q 90.0,593.0  117.0,636.0 T 190.0,702.5 T 290.0,726.0 Q 344.0,726.0  390.0,702.5 T 463.0,636.0 T 490.0,537.0 Q 490.0,482.0  460.0,437.5 T 383.0,377.0  L383.0 375.0Q 442.0,358.0  479.5,307.0 T 517.0,186.0 Z M290.0 406.0Q 345.0,406.0  382.5,442.0 T 420.0,533.0 Q 420.0,590.0  383.0,627.5 T 290.0,665.0 Q 234.0,665.0  197.0,627.5 T 160.0,533.0 Q 160.0,478.0  197.5,442.0 T 290.0,406.0 Z M290.0 43.0Q 359.0,43.0  402.0,86.0 T 445.0,194.0 Q 445.0,258.0  402.0,300.0 T 290.0,342.0 Q 221.0,342.0  178.0,300.0 T 135.0,194.0 Q 135.0,129.0  178.0,86.0 T 290.0,43.0 Z">
</path>
</defs>
<use x="0" y="0" xlink:href="#g56/TT0"/>
<use x="580.0" y="0" xlink:href="#g48/TT0"/>
</g>
<text id="Text_466" x="13.0" y="90.99" font-size="9.0pt" font-family="Avenir Next for SAS" fill="#626f80" text-anchor="end" opacity="0">
80</text>
</g>
<g fill="#2a3037" stroke="#2a3037" transform="translate(0 35.59) scale(0.014 -0.014)">
<defs>
<path id="g82/TT1" d="M324.0 708.0Q 436.0,708.0  510.5,659.0 T 585.0,505.0 Q 585.0,430.0  542.0,380.5 T 423.0,314.0  L612.0 0 L460.0 0 L296.0 300.0 L204.0 300.0 L204.0 0 L78.0 0 L78.0 708.0 L324.0 708.0Z M459.0 506.0Q 459.0,558.0  418.0,580.0 T 318.0,602.0  L204.0 602.0 L204.0 403.0 L307.0 403.0Q 459.0,403.0  459.0,506.0 Z">
</path>
</defs>
<use x="0" y="0" xlink:href="#g82/TT1"/>
<defs>
<path id="g101/TT1" d="M529.0 202.0 L164.0 202.0Q 168.0,152.0  208.0,118.0 T 301.0,84.0 Q 384.0,84.0  428.0,146.0  L508.0 82.0Q 437.0,-14.0  302.0,-14.0 Q 228.0,-14.0  169.5,16.5 T 77.5,104.0 T 44.0,237.0 Q 44.0,313.0  77.0,371.5 T 168.0,462.0 T 298.0,494.0 Q 402.0,494.0  466.0,427.0 T 530.0,234.0 Q 530.0,213.0  529.0,202.0 Z M297.0 404.0Q 244.0,404.0  206.0,371.0 T 164.0,288.0  L410.0 288.0Q 410.0,338.0  381.0,371.0 T 297.0,404.0 Z">
</path>
</defs>
<use x="629.0" y="0" xlink:href="#g101/TT1"/>
<defs>
<path id="g108/TT1" d="M74.0 756.0 L194.0 756.0 L194.0 0 L74.0 0 L74.0 756.0Z">
</path>
</defs>
<use x="1203.0" y="0" xlink:href="#g108/TT1"/>
<defs>
<path id="g97/TT1" d="M367.0 61.0Q 349.0,29.0  308.5,8.5 T 218.0,-12.0 Q 175.0,-12.0  134.0,3.0 T 65.5,51.5 T 38.0,137.0 Q 38.0,233.0  131.0,266.5 T 368.0,300.0  L368.0 312.0Q 368.0,354.0  337.0,377.0 T 258.0,400.0 Q 221.0,400.0  186.0,384.5 T 127.0,345.0  L65.0 418.0Q 105.0,455.0  158.5,474.5 T 268.0,494.0 Q 385.0,494.0  433.5,436.0 T 482.0,292.0  L482.0 0 L370.0 0 L370.0 61.0 L367.0 61.0Z M341.0 219.0Q 158.0,219.0  158.0,139.0 Q 158.0,107.0  182.5,93.0 T 242.0,79.0 Q 303.0,79.0  335.5,111.5 T 368.0,202.0  L368.0 219.0 L341.0 219.0Z">
</path>
</defs>
<use x="1471.0" y="0" xlink:href="#g97/TT1"/>
<defs>
<path id="g116/TT1" d="M3.0 480.0 L87.0 480.0 L87.0 619.0 L205.0 619.0 L205.0 480.0 L325.0 480.0 L325.0 384.0 L205.0 384.0 L205.0 161.0Q 205.0,125.0  218.0,106.0 T 268.0,87.0 Q 299.0,87.0  319.0,97.0  L323.0 3.0Q 289.0,-10.0  243.0,-10.0 Q 155.0,-10.0  121.0,35.5 T 87.0,160.0  L87.0 384.0 L3.0 384.0 L3.0 480.0Z">
</path>
</defs>
<use x="2021.0" y="0" xlink:href="#g116/TT1"/>
<defs>
<path id="g105/TT1" d="M133.0 715.0Q 166.0,715.0  188.5,694.5 T 211.0,643.0 Q 211.0,612.0  188.5,591.5 T 133.0,571.0 Q 101.0,571.0  79.0,592.5 T 57.0,643.0 Q 57.0,672.0  79.0,693.5 T 133.0,715.0 Z M74.0 480.0 L194.0 480.0 L194.0 0 L74.0 0 L74.0 480.0Z">
</path>
</defs>
<use x="2361.0" y="0" xlink:href="#g105/TT1"/>
<defs>
<path id="g118/TT1" d="M0 480.0 L131.0 480.0 L257.0 130.0 L259.0 130.0 L386.0 480.0 L513.0 480.0 L322.0 0 L194.0 0 L0 480.0Z">
</path>
</defs>
<use x="2629.0" y="0" xlink:href="#g118/TT1"/>
<use x="3142.0" y="0" xlink:href="#g101/TT1"/>
<defs>
<path id="g72/TT1" d="M78.0 708.0 L204.0 708.0 L204.0 422.0 L535.0 422.0 L535.0 708.0 L661.0 708.0 L661.0 0 L535.0 0 L535.0 314.0 L204.0 314.0 L204.0 0 L78.0 0 L78.0 708.0Z">
</path>
</defs>
<use x="3966.0" y="0" xlink:href="#g72/TT1"/>
<defs>
<path id="g117/TT1" d="M396.0 0 L396.0 77.0 L394.0 77.0Q 377.0,39.0  336.5,12.5 T 245.0,-14.0 Q 157.0,-14.0  112.5,42.5 T 68.0,180.0  L68.0 480.0 L188.0 480.0 L188.0 214.0Q 188.0,86.0  278.0,86.0 Q 332.0,86.0  361.0,124.5 T 390.0,216.0  L390.0 480.0 L510.0 480.0 L510.0 0 L396.0 0Z">
</path>
</defs>
<use x="4705.0" y="0" xlink:href="#g117/TT1"/>
<defs>
<path id="g109/TT1" d="M822.0 300.0 L822.0 0 L702.0 0 L702.0 266.0Q 702.0,394.0  612.0,394.0 Q 560.0,394.0  533.0,354.5 T 506.0,262.0  L506.0 0 L386.0 0 L386.0 290.0Q 386.0,337.0  363.5,365.5 T 297.0,394.0 Q 246.0,394.0  219.0,355.5 T 192.0,264.0  L192.0 0 L72.0 0 L72.0 480.0 L186.0 480.0 L186.0 403.0 L188.0 403.0Q 205.0,442.0  244.0,468.0 T 337.0,494.0 Q 390.0,494.0  428.0,470.0 T 487.0,403.0 Q 511.0,447.0  551.5,470.5 T 645.0,494.0 Q 733.0,494.0  777.5,437.5 T 822.0,300.0 Z">
</path>
</defs>
<use x="5287.0" y="0" xlink:href="#g109/TT1"/>
<use x="6177.0" y="0" xlink:href="#g105/TT1"/>
<defs>
<path id="g100/TT1" d="M446.0 0 L446.0 72.0 L444.0 72.0Q 420.0,31.0  375.0,8.5 T 279.0,-14.0 Q 208.0,-14.0  154.5,20.5 T 72.0,113.5 T 43.0,242.0 Q 43.0,312.0  73.0,370.0 T 156.0,461.0 T 276.0,494.0 Q 377.0,494.0  437.0,419.0  L440.0 419.0 L440.0 756.0 L560.0 756.0 L560.0 0 L446.0 0Z M303.0 86.0Q 345.0,86.0  377.0,108.5 T 426.5,166.5 T 444.0,240.0 Q 444.0,278.0  426.5,314.5 T 377.0,373.5 T 303.0,396.0 Q 259.0,396.0  227.5,374.0 T 180.5,316.5 T 165.0,242.0 Q 165.0,203.0  180.5,167.0 T 227.5,108.5 T 259.0,86.0 Z">
</path>
</defs>
<use x="6445.0" y="0" xlink:href="#g100/TT1"/>
<use x="7079.0" y="0" xlink:href="#g105/TT1"/>
<use x="7347.0" y="0" xlink:href="#g116/TT1"/>
<defs>
<path id="g121/TT1" d="M133.0 480.0 L267.0 131.0 L269.0 131.0 L388.0 480.0 L513.0 480.0 L286.0 -103.0Q 258.0,-174.0  218.5,-207.0 T 104.0,-240.0 Q 71.0,-240.0  42.0,-233.0  L52.0 -129.0Q 74.0,-136.0  97.0,-136.0 Q 133.0,-136.0  149.0,-119.5 T 182.0,-61.0  L206.0 0 L0 480.0 L133.0 480.0Z">
</path>
</defs>
<use x="7687.0" y="0" xlink:href="#g121/TT1"/>
<use x="8450.0" y="0" xlink:href="#g105/TT1"/>
<defs>
<path id="g110/TT1" d="M186.0 480.0 L186.0 403.0 L188.0 403.0Q 205.0,441.0  245.5,467.5 T 337.0,494.0 Q 425.0,494.0  469.5,437.5 T 514.0,300.0  L514.0 0 L394.0 0 L394.0 266.0Q 394.0,394.0  304.0,394.0 Q 250.0,394.0  221.0,355.5 T 192.0,264.0  L192.0 0 L72.0 0 L72.0 480.0 L186.0 480.0Z">
</path>
</defs>
<use x="8718.0" y="0" xlink:href="#g110/TT1"/>
<defs>
<path id="g115/TT1" d="M230.0 404.0Q 198.0,404.0  175.5,391.0 T 153.0,352.0 Q 153.0,327.0  176.0,315.0 T 257.0,289.0 Q 325.0,273.0  368.5,241.0 T 412.0,146.0 Q 412.0,64.0  355.5,25.0 T 212.0,-14.0 Q 155.0,-14.0  102.0,7.0 T 15.0,65.0  L94.0 139.0Q 114.0,112.0  146.5,95.5 T 217.0,79.0 Q 248.0,79.0  271.0,93.0 T 294.0,136.0 Q 294.0,164.0  269.5,177.5 T 184.0,205.0 Q 119.0,221.0  80.5,250.5 T 42.0,341.0 Q 42.0,416.0  98.0,455.0 T 233.0,494.0 Q 287.0,494.0  336.0,475.0 T 413.0,421.0  L335.0 352.0Q 318.0,374.0  290.0,389.0 T 230.0,404.0 Z">
</path>
</defs>
<use x="9300.0" y="0" xlink:href="#g115/TT1"/>
<use x="9744.0" y="0" xlink:href="#g105/TT1"/>
<use x="10012.0" y="0" xlink:href="#g100/TT1"/>
<use x="10646.0" y="0" xlink:href="#g101/TT1"/>
<defs>
<path id="g40/TT1" d="M182.0 732.0 L266.0 677.0Q 206.0,593.0  172.5,492.0 T 139.0,288.0 Q 139.0,185.0  172.5,84.0 T 266.0,-101.0  L182.0 -156.0Q 112.0,-60.0  74.0,54.0 T 36.0,288.0 Q 36.0,408.0  74.0,522.0 T 182.0,732.0 Z">
</path>
</defs>
<use x="11470.0" y="0" xlink:href="#g40/TT1"/>
<defs>
<path id="g37/TT1" d="M631.0 740.0 L714.0 702.0 L298.0 -32.0 L215.0 6.0 L631.0 740.0Z M226.0 720.0Q 277.0,720.0  319.5,695.0 T 387.0,627.5 T 412.0,534.0 Q 412.0,483.0  387.0,440.5 T 319.5,373.0 T 226.0,348.0 Q 175.0,348.0  132.5,373.0 T 65.0,440.5 T 40.0,534.0 Q 40.0,585.0  65.0,627.5 T 132.5,695.0 T 175.0,720.0 Z M226.0 624.0Q 189.0,624.0  162.5,598.0 T 136.0,534.0 Q 136.0,497.0  162.5,470.5 T 226.0,444.0 Q 264.0,444.0  290.0,470.5 T 316.0,534.0 Q 316.0,572.0  290.0,598.0 T 226.0,624.0 Z M704.0 360.0Q 755.0,360.0  797.5,335.0 T 865.0,267.5 T 890.0,174.0 Q 890.0,123.0  865.0,80.5 T 797.5,13.0 T 704.0,-12.0 Q 653.0,-12.0  610.5,13.0 T 543.0,80.5 T 518.0,174.0 Q 518.0,225.0  543.0,267.5 T 610.5,335.0 T 653.0,360.0 Z M704.0 264.0Q 667.0,264.0  640.5,238.0 T 614.0,174.0 Q 614.0,137.0  640.5,110.5 T 704.0,84.0 Q 742.0,84.0  768.0,110.5 T 794.0,174.0 Q 794.0,212.0  768.0,238.0 T 704.0,264.0 Z">
</path>
</defs>
<use x="11800.0" y="0" xlink:href="#g37/TT1"/>
<defs>
<path id="g41/TT1" d="M148.0 -156.0 L64.0 -101.0Q 124.0,-17.0  157.5,84.0 T 191.0,288.0 Q 191.0,391.0  157.5,492.0 T 64.0,677.0  L148.0 732.0Q 218.0,636.0  256.0,522.0 T 294.0,288.0 Q 294.0,168.0  256.0,54.0 T 148.0,-156.0 Z">
</path>
</defs>
<use x="12730.0" y="0" xlink:href="#g41/TT1"/>
</g>
<text id="Text_467" x="0" y="35.59" font-size="10.5pt" font-family="Avenir Next for SAS" font-weight="bold" fill="#2a3037" text-anchor="start" opacity="0">
Relative Humidity inside (%)</text>
<defs>
<clipPath id="ClipPath3">
<rect x="18" y="412" width="950" height="57">
</rect>
</clipPath>
</defs>
<g clip-path="url(#ClipPath3)">
<g fill="#626f80" stroke="#626f80" transform="translate(20.0 426.65) scale(0.012 -0.012)">
<defs>
<path id="g49/TT0" d="M358.0 0 L286.0 0 L286.0 619.0 L158.0 510.0 L114.0 560.0 L294.0 708.0 L358.0 708.0 L358.0 0Z">
</path>
</defs>
<use x="0" y="0" xlink:href="#g49/TT0"/>
<use x="580.0" y="0" xlink:href="#g50/TT0"/>
<defs>
<path id="g58/TT0" d="M150.0 366.0Q 127.0,366.0  111.5,382.0 T 96.0,420.0 Q 96.0,442.0  111.5,458.0 T 150.0,474.0 Q 173.0,474.0  188.5,458.0 T 204.0,420.0 Q 204.0,398.0  188.5,382.0 T 150.0,366.0 Z M150.0 -6.0Q 127.0,-6.0  111.5,10.0 T 96.0,48.0 Q 96.0,70.0  111.5,86.0 T 150.0,102.0 Q 173.0,102.0  188.5,86.0 T 204.0,48.0 Q 204.0,26.0  188.5,10.0 T 150.0,-6.0 Z">
</path>
</defs>
<use x="1160.0" y="0" xlink:href="#g58/TT0"/>
<use x="1460.0" y="0" xlink:href="#g48/TT0"/>
<use x="2040.0" y="0" xlink:href="#g48/TT0"/>
<use x="2620.0" y="0" xlink:href="#g58/TT0"/>
<use x="2920.0" y="0" xlink:href="#g48/TT0"/>
<use x="3500.0" y="0" xlink:href="#g48/TT0"/>
<defs>
<path id="g65/TT0" d="M89.0 0 L10.0 0 L316.0 708.0 L386.0 708.0 L690.0 0 L610.0 0 L532.0 186.0 L166.0 186.0 L89.0 0Z M193.0 252.0 L505.0 252.0 L349.0 628.0 L193.0 252.0Z">
</path>
</defs>
<use x="4330.0" y="0" xlink:href="#g65/TT0"/>
<defs>
<path id="g77/TT0" d="M444.0 122.0 L445.0 122.0 L682.0 708.0 L792.0 708.0 L792.0 0 L720.0 0 L720.0 615.0 L718.0 615.0 L462.0 0 L424.0 0 L168.0 615.0 L166.0 615.0 L166.0 0 L94.0 0 L94.0 708.0 L204.0 708.0 L444.0 122.0Z">
</path>
</defs>
<use x="5030.0" y="0" xlink:href="#g77/TT0"/>
</g>
<text x="55.0" y="426.65" font-size="9.0pt" font-family="Avenir Next for SAS" fill="#626f80" text-anchor="middle" opacity="0">
12:00:00 AM</text>
<g fill="#626f80" stroke="#626f80" transform="translate(31.0 441.35) scale(0.012 -0.012)">
<use x="0" y="0" xlink:href="#g50/TT0"/>
<use x="580.0" y="0" xlink:href="#g48/TT0"/>
<use x="1160.0" y="0" xlink:href="#g77/TT0"/>
<defs>
<path id="g97/TT0" d="M260.0 423.0Q 220.0,423.0  183.0,408.0 T 121.0,368.0  L83.0 413.0Q 113.0,443.0  161.0,461.5 T 267.0,480.0 Q 347.0,480.0  398.0,436.0 T 449.0,310.0  L449.0 105.0Q 449.0,42.0  457.0,0  L396.0 0Q 389.0,40.0  389.0,76.0  L387.0 76.0Q 355.0,30.0  314.5,9.0 T 217.0,-12.0 Q 178.0,-12.0  141.0,2.5 T 79.5,49.0 T 55.0,130.0 Q 55.0,198.0  99.0,232.0 T 212.5,276.5 T 385.0,287.0  L385.0 302.0Q 385.0,362.0  353.0,392.5 T 260.0,423.0 Z M125.0 133.0Q 125.0,87.0  157.0,65.5 T 235.0,44.0 Q 304.0,44.0  344.5,89.0 T 385.0,199.0  L385.0 234.0 L365.0 234.0Q 259.0,234.0  192.0,213.5 T 125.0,133.0 Z">
</path>
</defs>
<use x="2046.0" y="0" xlink:href="#g97/TT0"/>
<defs>
<path id="g114/TT0" d="M86.0 468.0 L151.0 468.0Q 155.0,418.0  155.0,388.0  L157.0 388.0Q 177.0,429.0  217.5,454.5 T 307.0,480.0 Q 334.0,480.0  352.0,475.0  L343.0 411.0Q 337.0,413.0  322.5,415.0 T 295.0,417.0 Q 236.0,417.0  197.0,372.5 T 158.0,240.0  L158.0 0 L90.0 0 L90.0 365.0Q 90.0,425.0  86.0,468.0 Z">
</path>
</defs>
<use x="2580.0" y="0" xlink:href="#g114/TT0"/>
<use x="2940.0" y="0" xlink:href="#g50/TT0"/>
<defs>
<path id="g53/TT0" d="M180.0 644.0 L175.0 425.0Q 219.0,441.0  273.0,441.0 Q 339.0,441.0  391.5,413.0 T 473.5,334.5 T 503.0,219.0 Q 503.0,151.0  473.5,97.0 T 390.5,12.5 T 268.0,-18.0 Q 194.0,-18.0  140.0,16.0 T 56.0,111.0  L121.0 140.0Q 140.0,96.0  179.0,70.0 T 264.0,44.0 Q 311.0,44.0  349.0,66.0 T 408.5,126.5 T 430.0,212.0 Q 430.0,289.0  380.5,335.5 T 254.0,382.0 Q 180.0,382.0  107.0,343.0  L114.0 708.0 L475.0 708.0 L475.0 644.0 L180.0 644.0Z">
</path>
</defs>
<use x="3520.0" y="0" xlink:href="#g53/TT0"/>
</g>
<text x="55.0" y="441.35" font-size="9.0pt" font-family="Avenir Next for SAS" fill="#626f80" text-anchor="middle" opacity="0">
20Mar25</text>
<g fill="#626f80" stroke="#626f80" transform="translate(167.67 426.65) scale(0.012 -0.012)">
<use x="0" y="0" xlink:href="#g49/TT0"/>
<use x="580.0" y="0" xlink:href="#g50/TT0"/>
<use x="1160.0" y="0" xlink:href="#g58/TT0"/>
<use x="1460.0" y="0" xlink:href="#g48/TT0"/>
<use x="2040.0" y="0" xlink:href="#g48/TT0"/>
<use x="2620.0" y="0" xlink:href="#g58/TT0"/>
<use x="2920.0" y="0" xlink:href="#g48/TT0"/>
<use x="3500.0" y="0" xlink:href="#g48/TT0"/>
<use x="4330.0" y="0" xlink:href="#g65/TT0"/>
<use x="5030.0" y="0" xlink:href="#g77/TT0"/>
</g>
<text x="202.67" y="426.65" font-size="9.0pt" font-family="Avenir Next for SAS" fill="#626f80" text-anchor="middle" opacity="0">
12:00:00 AM</text>
<g fill="#626f80" stroke="#626f80" transform="translate(178.67 441.35) scale(0.012 -0.012)">
<use x="0" y="0" xlink:href="#g50/TT0"/>
<use x="580.0" y="0" xlink:href="#g49/TT0"/>
<use x="1160.0" y="0" xlink:href="#g77/TT0"/>
<use x="2046.0" y="0" xlink:href="#g97/TT0"/>
<use x="2580.0" y="0" xlink:href="#g114/TT0"/>
<use x="2940.0" y="0" xlink:href="#g50/TT0"/>
<use x="3520.0" y="0" xlink:href="#g53/TT0"/>
</g>
<text x="202.67" y="441.35" font-size="9.0pt" font-family="Avenir Next for SAS" fill="#626f80" text-anchor="middle" opacity="0">
21Mar25</text>
<g fill="#626f80" stroke="#626f80" transform="translate(346.33 426.65) scale(0.012 -0.012)">
<use x="0" y="0" xlink:href="#g49/TT0"/>
<use x="580.0" y="0" xlink:href="#g50/TT0"/>
<use x="1160.0" y="0" xlink:href="#g58/TT0"/>
<use x="1460.0" y="0" xlink:href="#g48/TT0"/>
<use x="2040.0" y="0" xlink:href="#g48/TT0"/>
<use x="2620.0" y="0" xlink:href="#g58/TT0"/>
<use x="2920.0" y="0" xlink:href="#g48/TT0"/>
<use x="3500.0" y="0" xlink:href="#g48/TT0"/>
<use x="4330.0" y="0" xlink:href="#g65/TT0"/>
<use x="5030.0" y="0" xlink:href="#g77/TT0"/>
</g>
<text x="381.33" y="426.65" font-size="9.0pt" font-family="Avenir Next for SAS" fill="#626f80" text-anchor="middle" opacity="0">
12:00:00 AM</text>
<g fill="#626f80" stroke="#626f80" transform="translate(357.33 441.35) scale(0.012 -0.012)">
<use x="0" y="0" xlink:href="#g50/TT0"/>
<use x="580.0" y="0" xlink:href="#g50/TT0"/>
<use x="1160.0" y="0" xlink:href="#g77/TT0"/>
<use x="2046.0" y="0" xlink:href="#g97/TT0"/>
<use x="2580.0" y="0" xlink:href="#g114/TT0"/>
<use x="2940.0" y="0" xlink:href="#g50/TT0"/>
<use x="3520.0" y="0" xlink:href="#g53/TT0"/>
</g>
<text x="381.33" y="441.35" font-size="9.0pt" font-family="Avenir Next for SAS" fill="#626f80" text-anchor="middle" opacity="0">
22Mar25</text>
<g fill="#626f80" stroke="#626f80" transform="translate(525.0 426.65) scale(0.012 -0.012)">
<use x="0" y="0" xlink:href="#g49/TT0"/>
<use x="580.0" y="0" xlink:href="#g50/TT0"/>
<use x="1160.0" y="0" xlink:href="#g58/TT0"/>
<use x="1460.0" y="0" xlink:href="#g48/TT0"/>
<use x="2040.0" y="0" xlink:href="#g48/TT0"/>
<use x="2620.0" y="0" xlink:href="#g58/TT0"/>
<use x="2920.0" y="0" xlink:href="#g48/TT0"/>
<use x="3500.0" y="0" xlink:href="#g48/TT0"/>
<use x="4330.0" y="0" xlink:href="#g65/TT0"/>
<use x="5030.0" y="0" xlink:href="#g77/TT0"/>
</g>
<text x="560.0" y="426.65" font-size="9.0pt" font-family="Avenir Next for SAS" fill="#626f80" text-anchor="middle" opacity="0">
12:00:00 AM</text>
<g fill="#626f80" stroke="#626f80" transform="translate(536.0 441.35) scale(0.012 -0.012)">
<use x="0" y="0" xlink:href="#g50/TT0"/>
<defs>
<path id="g51/TT0" d="M245.0 402.0Q 319.0,402.0  364.5,433.5 T 410.0,532.0 Q 410.0,590.0  369.0,627.5 T 270.0,665.0 Q 226.0,665.0  191.0,643.5 T 135.0,582.0  L74.0 614.0Q 106.0,670.0  157.0,698.0 T 274.0,726.0 Q 331.0,726.0  378.0,703.5 T 453.0,638.0 T 481.0,536.0 Q 481.0,475.0  446.5,432.0 T 358.0,374.0  L358.0 372.0Q 421.0,359.0  461.0,312.0 T 501.0,196.0 Q 501.0,131.0  470.0,82.5 T 387.0,8.0 T 273.0,-18.0 Q 196.0,-18.0  137.5,19.5 T 49.0,127.0  L117.0 152.0Q 135.0,102.0  177.0,73.0 T 273.0,44.0 Q 314.0,44.0  350.0,62.5 T 407.5,115.5 T 429.0,196.0 Q 429.0,271.0  376.0,305.5 T 245.0,340.0  L214.0 340.0 L214.0 402.0 L245.0 402.0Z">
</path>
</defs>
<use x="580.0" y="0" xlink:href="#g51/TT0"/>
<use x="1160.0" y="0" xlink:href="#g77/TT0"/>
<use x="2046.0" y="0" xlink:href="#g97/TT0"/>
<use x="2580.0" y="0" xlink:href="#g114/TT0"/>
<use x="2940.0" y="0" xlink:href="#g50/TT0"/>
<use x="3520.0" y="0" xlink:href="#g53/TT0"/>
</g>
<text x="560.0" y="441.35" font-size="9.0pt" font-family="Avenir Next for SAS" fill="#626f80" text-anchor="middle" opacity="0">
23Mar25</text>
<g fill="#626f80" stroke="#626f80" transform="translate(703.67 426.65) scale(0.012 -0.012)">
<use x="0" y="0" xlink:href="#g49/TT0"/>
<use x="580.0" y="0" xlink:href="#g50/TT0"/>
<use x="1160.0" y="0" xlink:href="#g58/TT0"/>
<use x="1460.0" y="0" xlink:href="#g48/TT0"/>
<use x="2040.0" y="0" xlink:href="#g48/TT0"/>
<use x="2620.0" y="0" xlink:href="#g58/TT0"/>
<use x="2920.0" y="0" xlink:href="#g48/TT0"/>
<use x="3500.0" y="0" xlink:href="#g48/TT0"/>
<use x="4330.0" y="0" xlink:href="#g65/TT0"/>
<use x="5030.0" y="0" xlink:href="#g77/TT0"/>
</g>
<text x="738.67" y="426.65" font-size="9.0pt" font-family="Avenir Next for SAS" fill="#626f80" text-anchor="middle" opacity="0">
12:00:00 AM</text>
<g fill="#626f80" stroke="#626f80" transform="translate(714.67 441.35) scale(0.012 -0.012)">
<use x="0" y="0" xlink:href="#g50/TT0"/>
<use x="580.0" y="0" xlink:href="#g52/TT0"/>
<use x="1160.0" y="0" xlink:href="#g77/TT0"/>
<use x="2046.0" y="0" xlink:href="#g97/TT0"/>
<use x="2580.0" y="0" xlink:href="#g114/TT0"/>
<use x="2940.0" y="0" xlink:href="#g50/TT0"/>
<use x="3520.0" y="0" xlink:href="#g53/TT0"/>
</g>
<text x="738.67" y="441.35" font-size="9.0pt" font-family="Avenir Next for SAS" fill="#626f80" text-anchor="middle" opacity="0">
24Mar25</text>
<g fill="#626f80" stroke="#626f80" transform="translate(882.33 426.65) scale(0.012 -0.012)">
<use x="0" y="0" xlink:href="#g49/TT0"/>
<use x="580.0" y="0" xlink:href="#g50/TT0"/>
<use x="1160.0" y="0" xlink:href="#g58/TT0"/>
<use x="1460.0" y="0" xlink:href="#g48/TT0"/>
<use x="2040.0" y="0" xlink:href="#g48/TT0"/>
<use x="2620.0" y="0" xlink:href="#g58/TT0"/>
<use x="2920.0" y="0" xlink:href="#g48/TT0"/>
<use x="3500.0" y="0" xlink:href="#g48/TT0"/>
<use x="4330.0" y="0" xlink:href="#g65/TT0"/>
<use x="5030.0" y="0" xlink:href="#g77/TT0"/>
</g>
<text x="917.33" y="426.65" font-size="9.0pt" font-family="Avenir Next for SAS" fill="#626f80" text-anchor="middle" opacity="0">
12:00:00 AM</text>
<g fill="#626f80" stroke="#626f80" transform="translate(893.33 441.35) scale(0.012 -0.012)">
<use x="0" y="0" xlink:href="#g50/TT0"/>
<use x="580.0" y="0" xlink:href="#g53/TT0"/>
<use x="1160.0" y="0" xlink:href="#g77/TT0"/>
<use x="2046.0" y="0" xlink:href="#g97/TT0"/>
<use x="2580.0" y="0" xlink:href="#g114/TT0"/>
<use x="2940.0" y="0" xlink:href="#g50/TT0"/>
<use x="3520.0" y="0" xlink:href="#g53/TT0"/>
</g>
<text x="917.33" y="441.35" font-size="9.0pt" font-family="Avenir Next for SAS" fill="#626f80" text-anchor="middle" opacity="0">
25Mar25</text>
</g>
<g fill="#2a3037" stroke="#2a3037" transform="translate(462.0 465.44) scale(0.014 -0.014)">
<defs>
<path id="g68/TT1" d="M329.0 708.0Q 430.0,708.0  518.5,673.0 T 663.5,558.5 T 720.0,354.0 Q 720.0,237.0  663.0,157.0 T 516.5,38.5 T 329.0,0  L78.0 0 L78.0 708.0 L329.0 708.0Z M585.0 354.0Q 585.0,492.0  506.0,546.0 T 309.0,600.0  L204.0 600.0 L204.0 110.0 L309.0 110.0Q 424.0,110.0  504.5,166.5 T 585.0,354.0 Z">
</path>
</defs>
<use x="0" y="0" xlink:href="#g68/TT1"/>
<use x="764.0" y="0" xlink:href="#g97/TT1"/>
<use x="1314.0" y="0" xlink:href="#g116/TT1"/>
<use x="1654.0" y="0" xlink:href="#g101/TT1"/>
<use x="2478.0" y="0" xlink:href="#g116/TT1"/>
<use x="2818.0" y="0" xlink:href="#g105/TT1"/>
<use x="3086.0" y="0" xlink:href="#g109/TT1"/>
<use x="3976.0" y="0" xlink:href="#g101/TT1"/>
</g>
<text id="Text_469" x="493.0" y="465.44" font-size="10.5pt" font-family="Avenir Next for SAS" font-weight="bold" fill="#2a3037" text-anchor="middle" opacity="0">
Date time</text>
</g>
</g>
<g transform=" translate(0 10.0)">
<g transform=" translate(16.0 -16.0)">
</g>
</g>
<g transform=" translate(0 10.0)">
<g transform=" translate(16.0 -16.0)">
</g>
</g>
<g transform=" translate(0 10.0)">
<g transform=" translate(16.0 -16.0)">
<rect x="206.0" y="473.3" rx="5" ry="5" width="554.07" height="26.7" fill="#ffffff">
</rect>
<path d="M212.0 486.65L262.0 486.65" stroke="#b7b7b7" stroke-dasharray="4,4" stroke-width="3.0" fill="none" opacity="0.75">
</path>
<g fill="#626f80" stroke="#626f80" transform="translate(266.0 490.95) scale(0.012 -0.012)">
<use x="0" y="0" xlink:href="#g65/TT0"/>
<defs>
<path id="g118/TT0" d="M282.0 0 L207.0 0 L16.0 468.0 L92.0 468.0 L244.0 72.0 L246.0 72.0 L399.0 468.0 L472.0 468.0 L282.0 0Z">
</path>
</defs>
<use x="700.0" y="0" xlink:href="#g118/TT0"/>
<defs>
<path id="g101/TT0" d="M515.0 216.0 L127.0 216.0Q 128.0,169.0  150.5,130.5 T 212.0,69.0 T 298.0,46.0 Q 347.0,46.0  387.0,69.5 T 448.0,127.0  L499.0 87.0Q 421.0,-12.0  298.0,-12.0 Q 229.0,-12.0  174.0,20.0 T 87.5,108.0 T 56.0,234.0 Q 56.0,303.0  87.0,359.5 T 172.0,448.0 T 292.0,480.0 Q 363.0,480.0  413.5,449.5 T 490.0,366.0 T 516.0,248.0 Q 516.0,228.0  515.0,216.0 Z M292.0 423.0Q 248.0,423.0  211.5,402.0 T 153.0,345.5 T 128.0,270.0  L447.0 270.0Q 444.0,338.0  403.5,380.5 T 292.0,423.0 Z">
</path>
</defs>
<use x="1188.0" y="0" xlink:href="#g101/TT0"/>
<use x="1760.0" y="0" xlink:href="#g114/TT0"/>
<use x="2120.0" y="0" xlink:href="#g97/TT0"/>
<defs>
<path id="g103/TT0" d="M294.0 -180.0Q 389.0,-180.0  433.0,-129.0 T 477.0,4.0  L477.0 92.0 L475.0 92.0Q 449.0,50.0  399.5,25.0 T 298.0,0 Q 226.0,0  171.0,30.5 T 86.0,115.5 T 56.0,238.0 Q 56.0,305.0  86.5,360.0 T 172.0,447.5 T 298.0,480.0 Q 351.0,480.0  399.5,455.5 T 475.0,387.0  L477.0 387.0 L477.0 468.0 L545.0 468.0 L545.0 4.0Q 545.0,-56.0  523.0,-110.5 T 444.0,-202.5 T 291.0,-240.0 Q 227.0,-240.0  167.5,-215.0 T 66.0,-146.0  L115.0 -94.0Q 144.0,-131.0  193.0,-155.5 T 294.0,-180.0 Z M305.0 58.0Q 357.0,58.0  398.0,81.0 T 462.0,145.5 T 485.0,240.0 Q 485.0,289.0  461.5,331.0 T 397.0,398.0 T 305.0,423.0 Q 250.0,423.0  210.0,398.0 T 149.0,331.5 T 128.0,240.0 Q 128.0,190.0  149.0,148.5 T 210.0,82.5 T 250.0,58.0 Z">
</path>
</defs>
<use x="2654.0" y="0" xlink:href="#g103/TT0"/>
<use x="3286.0" y="0" xlink:href="#g101/TT0"/>
<defs>
<path id="g82/TT0" d="M94.0 0 L94.0 708.0 L302.0 708.0Q 414.0,708.0  479.0,662.5 T 544.0,519.0 Q 544.0,442.0  493.5,394.0 T 363.0,337.0  L570.0 0 L482.0 0 L286.0 331.0 L166.0 331.0 L166.0 0 L94.0 0Z M291.0 393.0Q 378.0,393.0  425.0,425.0 T 472.0,519.0 Q 472.0,646.0  294.0,646.0  L166.0 646.0 L166.0 393.0 L291.0 393.0Z">
</path>
</defs>
<use x="4108.0" y="0" xlink:href="#g82/TT0"/>
<use x="4707.0" y="0" xlink:href="#g101/TT0"/>
<defs>
<path id="g108/TT0" d="M160.0 0 L92.0 0 L92.0 756.0 L160.0 756.0 L160.0 0Z">
</path>
</defs>
<use x="5279.0" y="0" xlink:href="#g108/TT0"/>
<use x="5531.0" y="0" xlink:href="#g97/TT0"/>
<defs>
<path id="g116/TT0" d="M169.0 411.0 L169.0 138.0Q 169.0,89.0  187.0,70.5 T 239.0,52.0 Q 268.0,52.0  298.0,67.0  L301.0 8.0Q 264.0,-6.0  221.0,-6.0 Q 173.0,-6.0  137.0,22.0 T 101.0,119.0  L101.0 411.0 L4.0 411.0 L4.0 468.0 L101.0 468.0 L101.0 600.0 L169.0 600.0 L169.0 468.0 L301.0 468.0 L301.0 411.0 L169.0 411.0Z">
</path>
</defs>
<use x="6065.0" y="0" xlink:href="#g116/TT0"/>
<defs>
<path id="g105/TT0" d="M125.0 600.0Q 106.0,600.0  91.5,614.0 T 77.0,648.0 Q 77.0,668.0  91.5,682.0 T 125.0,696.0 Q 144.0,696.0  158.5,682.0 T 173.0,648.0 Q 173.0,628.0  158.5,614.0 T 125.0,600.0 Z M159.0 0 L91.0 0 L91.0 468.0 L159.0 468.0 L159.0 0Z">
</path>
</defs>
<use x="6382.0" y="0" xlink:href="#g105/TT0"/>
<use x="6632.0" y="0" xlink:href="#g118/TT0"/>
<use x="7120.0" y="0" xlink:href="#g101/TT0"/>
<defs>
<path id="g72/TT0" d="M94.0 708.0 L166.0 708.0 L166.0 401.0 L552.0 401.0 L552.0 708.0 L624.0 708.0 L624.0 0 L552.0 0 L552.0 335.0 L166.0 335.0 L166.0 0 L94.0 0 L94.0 708.0Z">
</path>
</defs>
<use x="7942.0" y="0" xlink:href="#g72/TT0"/>
<defs>
<path id="g117/TT0" d="M426.0 80.0 L424.0 80.0Q 405.0,40.0  359.5,14.0 T 264.0,-12.0 Q 177.0,-12.0  131.5,40.0 T 86.0,181.0  L86.0 468.0 L154.0 468.0 L154.0 209.0Q 154.0,130.0  182.5,87.5 T 281.0,45.0 Q 319.0,45.0  351.0,65.5 T 403.0,127.0 T 423.0,228.0  L423.0 468.0 L491.0 468.0 L491.0 103.0Q 491.0,43.0  495.0,0  L430.0 0Q 426.0,50.0  426.0,80.0 Z">
</path>
</defs>
<use x="8660.0" y="0" xlink:href="#g117/TT0"/>
<defs>
<path id="g109/TT0" d="M311.0 480.0Q 356.0,480.0  395.0,458.0 T 455.0,381.0 Q 479.0,429.0  521.0,454.5 T 619.0,480.0 Q 706.0,480.0  751.5,428.0 T 797.0,287.0  L797.0 0 L729.0 0 L729.0 259.0Q 729.0,423.0  608.0,423.0 Q 540.0,423.0  507.5,372.5 T 475.0,249.0  L475.0 0 L407.0 0 L407.0 273.0Q 407.0,347.0  382.5,385.0 T 294.0,423.0 Q 260.0,423.0  228.5,402.5 T 177.5,340.5 T 158.0,240.0  L158.0 0 L90.0 0 L90.0 365.0Q 90.0,425.0  86.0,468.0  L151.0 468.0Q 155.0,418.0  155.0,388.0  L157.0 388.0Q 178.0,429.0  219.5,454.5 T 311.0,480.0 Z">
</path>
</defs>
<use x="9241.0" y="0" xlink:href="#g109/TT0"/>
<use x="10124.0" y="0" xlink:href="#g105/TT0"/>
<defs>
<path id="g100/TT0" d="M298.0 -12.0Q 227.0,-12.0  171.5,20.5 T 86.0,109.0 T 56.0,234.0 Q 56.0,303.0  86.0,359.0 T 171.5,447.5 T 298.0,480.0 Q 350.0,480.0  398.0,455.5 T 475.0,387.0  L477.0 387.0 L477.0 756.0 L545.0 756.0 L545.0 0 L477.0 0 L477.0 79.0 L475.0 79.0Q 446.0,36.0  398.0,12.0 T 298.0,-12.0 Z M305.0 46.0Q 357.0,46.0  398.0,70.5 T 462.0,138.0 T 485.0,234.0 Q 485.0,287.0  462.0,330.0 T 398.0,398.0 T 305.0,423.0 Q 250.0,423.0  210.0,398.0 T 149.0,330.0 T 128.0,234.0 Q 128.0,181.0  149.0,138.5 T 210.0,71.0 T 250.0,46.0 Z">
</path>
</defs>
<use x="10374.0" y="0" xlink:href="#g100/TT0"/>
<use x="11011.0" y="0" xlink:href="#g105/TT0"/>
<use x="11261.0" y="0" xlink:href="#g116/TT0"/>
<defs>
<path id="g121/TT0" d="M253.0 73.0 L398.0 468.0 L472.0 468.0 L239.0 -121.0Q 216.0,-180.0  182.5,-210.0 T 92.0,-240.0 Q 61.0,-240.0  31.0,-234.0  L38.0 -172.0Q 62.0,-180.0  88.0,-180.0 Q 121.0,-180.0  141.5,-159.5 T 178.0,-97.0  L216.0 1.0 L16.0 468.0 L92.0 468.0 L251.0 73.0 L253.0 73.0Z">
</path>
</defs>
<use x="11578.0" y="0" xlink:href="#g121/TT0"/>
<use x="12316.0" y="0" xlink:href="#g105/TT0"/>
<defs>
<path id="g110/TT0" d="M155.0 388.0 L157.0 388.0Q 176.0,428.0  221.5,454.0 T 317.0,480.0 Q 404.0,480.0  449.5,428.0 T 495.0,287.0  L495.0 0 L427.0 0 L427.0 259.0Q 427.0,338.0  398.5,380.5 T 300.0,423.0 Q 262.0,423.0  230.0,402.5 T 178.0,341.0 T 158.0,240.0  L158.0 0 L90.0 0 L90.0 365.0Q 90.0,425.0  86.0,468.0  L151.0 468.0Q 155.0,418.0  155.0,388.0 Z">
</path>
</defs>
<use x="12566.0" y="0" xlink:href="#g110/TT0"/>
<defs>
<path id="g115/TT0" d="M224.0 423.0Q 183.0,423.0  154.0,404.5 T 125.0,350.0 Q 125.0,318.0  151.0,300.0 T 237.0,270.0 Q 320.0,253.0  359.5,220.0 T 399.0,133.0 Q 399.0,59.0  347.5,23.5 T 223.0,-12.0 Q 167.0,-12.0  118.0,11.0 T 38.0,79.0  L92.0 119.0Q 111.0,87.0  146.5,66.5 T 222.0,46.0 Q 270.0,46.0  301.0,65.5 T 332.0,128.0 Q 332.0,163.0  299.5,182.0 T 194.0,218.0 Q 136.0,232.0  98.0,258.5 T 60.0,344.0 Q 60.0,411.0  108.5,445.5 T 227.0,480.0 Q 277.0,480.0  323.0,457.5 T 391.0,396.0  L339.0 357.0Q 324.0,387.0  293.0,405.0 T 224.0,423.0 Z">
</path>
</defs>
<use x="13147.0" y="0" xlink:href="#g115/TT0"/>
<use x="13591.0" y="0" xlink:href="#g105/TT0"/>
<use x="13841.0" y="0" xlink:href="#g100/TT0"/>
<use x="14478.0" y="0" xlink:href="#g101/TT0"/>
<defs>
<path id="g40/TT0" d="M230.0 -126.0 L178.0 -159.0Q 112.0,-72.0  72.0,46.0 T 32.0,288.0 Q 32.0,412.0  72.0,530.0 T 178.0,735.0  L230.0 702.0Q 170.0,618.0  134.0,509.0 T 98.0,288.0 Q 98.0,176.0  134.0,67.0 T 230.0,-126.0 Z">
</path>
</defs>
<use x="15300.0" y="0" xlink:href="#g40/TT0"/>
<defs>
<path id="g37/TT0" d="M217.0 -31.0 L165.0 -4.0 L616.0 739.0 L667.0 712.0 L217.0 -31.0Z M214.0 370.0Q 165.0,370.0  125.0,393.5 T 61.5,457.0 T 38.0,545.0 Q 38.0,593.0  61.5,633.0 T 125.0,696.5 T 214.0,720.0 Q 263.0,720.0  303.0,696.5 T 366.5,633.0 T 390.0,545.0 Q 390.0,497.0  366.5,457.0 T 303.0,393.5 T 263.0,370.0 Z M214.0 660.0Q 166.0,660.0  132.0,627.0 T 98.0,545.0 Q 98.0,496.0  132.0,463.0 T 214.0,430.0 Q 262.0,430.0  296.0,463.0 T 330.0,545.0 Q 330.0,594.0  296.0,627.0 T 214.0,660.0 Z M619.0 -12.0Q 570.0,-12.0  530.0,11.5 T 466.5,75.0 T 443.0,163.0 Q 443.0,211.0  466.5,251.0 T 530.0,314.5 T 619.0,338.0 Q 668.0,338.0  708.0,314.5 T 771.5,251.0 T 795.0,163.0 Q 795.0,115.0  771.5,75.0 T 708.0,11.5 T 668.0,-12.0 Z M619.0 278.0Q 571.0,278.0  537.0,245.0 T 503.0,163.0 Q 503.0,114.0  537.0,81.0 T 619.0,48.0 Q 667.0,48.0  701.0,81.0 T 735.0,163.0 Q 735.0,212.0  701.0,245.0 T 619.0,278.0 Z">
</path>
</defs>
<use x="15600.0" y="0" xlink:href="#g37/TT0"/>
<defs>
<path id="g41/TT0" d="M70.0 702.0 L122.0 735.0Q 188.0,648.0  228.0,530.0 T 268.0,288.0 Q 268.0,164.0  228.0,46.0 T 122.0,-159.0  L70.0 -126.0Q 130.0,-42.0  166.0,67.0 T 202.0,288.0 Q 202.0,400.0  166.0,509.0 T 70.0,702.0 Z">
</path>
</defs>
<use x="16433.0" y="0" xlink:href="#g41/TT0"/>
</g>
<text x="266.0" y="490.95" font-size="9.0pt" font-family="Avenir Next for SAS" fill="#626f80" text-anchor="start" opacity="0">
Average Relative Humidity inside (%)</text>
<path d="M474.8 486.65L524.8 486.65Z" stroke="#287fc7" stroke-width="3.0" fill="none">
</path>
<g fill="#626f80" stroke="#626f80" transform="translate(528.8 490.95) scale(0.012 -0.012)">
<use x="0" y="0" xlink:href="#g82/TT0"/>
<use x="599.0" y="0" xlink:href="#g101/TT0"/>
<use x="1171.0" y="0" xlink:href="#g108/TT0"/>
<use x="1423.0" y="0" xlink:href="#g97/TT0"/>
<use x="1957.0" y="0" xlink:href="#g116/TT0"/>
<use x="2274.0" y="0" xlink:href="#g105/TT0"/>
<use x="2524.0" y="0" xlink:href="#g118/TT0"/>
<use x="3012.0" y="0" xlink:href="#g101/TT0"/>
<use x="3834.0" y="0" xlink:href="#g72/TT0"/>
<use x="4552.0" y="0" xlink:href="#g117/TT0"/>
<use x="5133.0" y="0" xlink:href="#g109/TT0"/>
<use x="6016.0" y="0" xlink:href="#g105/TT0"/>
<use x="6266.0" y="0" xlink:href="#g100/TT0"/>
<use x="6903.0" y="0" xlink:href="#g105/TT0"/>
<use x="7153.0" y="0" xlink:href="#g116/TT0"/>
<use x="7470.0" y="0" xlink:href="#g121/TT0"/>
<use x="8208.0" y="0" xlink:href="#g105/TT0"/>
<use x="8458.0" y="0" xlink:href="#g110/TT0"/>
<use x="9039.0" y="0" xlink:href="#g115/TT0"/>
<use x="9483.0" y="0" xlink:href="#g105/TT0"/>
<use x="9733.0" y="0" xlink:href="#g100/TT0"/>
<use x="10370.0" y="0" xlink:href="#g101/TT0"/>
<use x="11192.0" y="0" xlink:href="#g40/TT0"/>
<use x="11492.0" y="0" xlink:href="#g37/TT0"/>
<use x="12325.0" y="0" xlink:href="#g41/TT0"/>
</g>
<text x="528.8" y="490.95" font-size="9.0pt" font-family="Avenir Next for SAS" fill="#626f80" text-anchor="start" opacity="0">
Relative Humidity inside (%)</text>
<rect x="688.3" y="482.15" width="9.0" height="9.0" fill="#d1d1d1" opacity="0.6">
</rect>
<g fill="#626f80" stroke="#626f80" transform="translate(701.3 490.95) scale(0.012 -0.012)">
<defs>
<path id="g66/TT0" d="M305.0 708.0Q 401.0,708.0  467.0,666.0 T 533.0,527.0 Q 533.0,471.0  498.5,429.5 T 408.0,375.0  L408.0 373.0Q 479.0,365.0  523.5,318.0 T 568.0,196.0 Q 568.0,137.0  536.0,93.0 T 444.0,24.5 T 304.0,0  L94.0 0 L94.0 708.0 L305.0 708.0Z M311.0 398.0Q 372.0,398.0  416.5,428.0 T 461.0,522.0 Q 461.0,586.0  414.0,616.0 T 291.0,646.0  L166.0 646.0 L166.0 398.0 L311.0 398.0Z M300.0 62.0Q 385.0,62.0  440.0,96.0 T 495.0,200.0 Q 495.0,269.0  448.0,304.0 T 313.0,339.0  L166.0 339.0 L166.0 62.0 L300.0 62.0Z">
</path>
</defs>
<use x="0" y="0" xlink:href="#g66/TT0"/>
<use x="636.0" y="0" xlink:href="#g97/TT0"/>
<use x="1170.0" y="0" xlink:href="#g110/TT0"/>
<use x="1751.0" y="0" xlink:href="#g100/TT0"/>
<defs>
<path id="g80/TT0" d="M294.0 708.0Q 405.0,708.0  469.0,660.0 T 533.0,519.0 Q 533.0,426.0  468.0,377.5 T 292.0,329.0  L166.0 329.0 L166.0 0 L94.0 0 L94.0 708.0 L294.0 708.0Z M288.0 390.0Q 372.0,390.0  416.5,423.0 T 461.0,519.0 Q 461.0,583.0  416.5,614.5 T 288.0,646.0  L166.0 646.0 L166.0 390.0 L288.0 390.0Z">
</path>
</defs>
<use x="2638.0" y="0" xlink:href="#g80/TT0"/>
<use x="3218.0" y="0" xlink:href="#g108/TT0"/>
<defs>
<path id="g111/TT0" d="M305.0 -12.0Q 234.0,-12.0  177.0,20.0 T 88.0,108.0 T 56.0,234.0 Q 56.0,304.0  88.0,360.0 T 177.0,448.0 T 305.0,480.0 Q 377.0,480.0  434.0,448.0 T 523.0,360.0 T 555.0,234.0 Q 555.0,164.0  523.0,108.0 T 434.0,20.0 T 377.0,-12.0 Z M305.0 423.0Q 252.0,423.0  212.0,398.0 T 150.0,330.0 T 128.0,234.0 Q 128.0,181.0  150.0,138.5 T 212.0,71.0 T 305.0,46.0 Q 358.0,46.0  398.5,71.0 T 461.0,138.5 T 483.0,234.0 Q 483.0,287.0  461.0,330.0 T 398.5,398.0 T 358.0,423.0 Z">
</path>
</defs>
<use x="3470.0" y="0" xlink:href="#g111/TT0"/>
<use x="4081.0" y="0" xlink:href="#g116/TT0"/>
</g>
<text x="701.3" y="490.95" font-size="9.0pt" font-family="Avenir Next for SAS" fill="#626f80" text-anchor="start" opacity="0">
Band Plot</text>
</g>
</g>
</g>
</svg>
