<svg xmlns="http://www.w3.org/2000/svg" xmlns:xlink="http://www.w3.org/1999/xlink" version="1.1" width="1912" height="958" viewBox="0 0 1912 958">
<rect x="0" y="0" width="1912" height="958" fill="#ffffff">
</rect>
<g>
<g transform=" translate(0 -849.0)">
<rect x="0" y="849.27" rx="5" ry="5" width="1912.0" height="108.73" fill="#002060" stroke="#b0b7c2">
</rect>
<g transform=" translate(1.0 -10.0)">
<rect x="0" y="883.29" rx="5" ry="5" width="764.0" height="74.71" fill="#ffffff" opacity="0">
</rect>
<g transform=" translate(16.0 -16.0)">
<g transform="">
<g fill="#ffffff" stroke="#ffffff" transform="translate(0 943.34) scale(0.0289 -0.0289)">
<defs>
<path id="g66/TT0" d="M305.0 708.0Q 401.0,708.0  467.0,666.0 T 533.0,527.0 Q 533.0,471.0  498.5,429.5 T 408.0,375.0  L408.0 373.0Q 479.0,365.0  523.5,318.0 T 568.0,196.0 Q 568.0,137.0  536.0,93.0 T 444.0,24.5 T 304.0,0  L94.0 0 L94.0 708.0 L305.0 708.0Z M311.0 398.0Q 372.0,398.0  416.5,428.0 T 461.0,522.0 Q 461.0,586.0  414.0,616.0 T 291.0,646.0  L166.0 646.0 L166.0 398.0 L311.0 398.0Z M300.0 62.0Q 385.0,62.0  440.0,96.0 T 495.0,200.0 Q 495.0,269.0  448.0,304.0 T 313.0,339.0  L166.0 339.0 L166.0 62.0 L300.0 62.0Z">
</path>
</defs>
<use x="0" y="0" xlink:href="#g66/TT0"/>
<defs>
<path id="g69/TT0" d="M166.0 64.0 L545.0 64.0 L545.0 0 L94.0 0 L94.0 708.0 L533.0 708.0 L533.0 644.0 L166.0 644.0 L166.0 400.0 L509.0 400.0 L509.0 337.0 L166.0 337.0 L166.0 64.0Z">
</path>
</defs>
<use x="636.0" y="0" xlink:href="#g69/TT0"/>
<use x="1228.0" y="0" xlink:href="#g69/TT0"/>
<defs>
<path id="g83/TT0" d="M291.0 665.0Q 254.0,665.0  219.5,650.0 T 162.5,605.0 T 140.0,532.0 Q 140.0,490.0  160.5,464.0 T 210.5,424.5 T 294.0,393.0 Q 365.0,370.0  405.0,350.5 T 474.5,291.5 T 504.0,186.0 Q 504.0,119.0  471.0,73.0 T 385.0,4.5 T 273.0,-18.0 Q 206.0,-18.0  146.5,9.0 T 50.0,87.0  L112.0 133.0Q 137.0,93.0  179.0,68.5 T 274.0,44.0 Q 312.0,44.0  348.5,60.0 T 408.0,107.0 T 431.0,181.0 Q 431.0,227.0  408.0,255.5 T 351.5,299.0 T 258.0,333.0 Q 201.0,351.0  160.5,372.5 T 94.0,432.5 T 68.0,531.0 Q 68.0,596.0  101.5,640.0 T 186.5,705.0 T 294.0,726.0 Q 361.0,726.0  414.0,701.5 T 494.0,640.0  L437.0 594.0Q 414.0,627.0  377.0,646.0 T 291.0,665.0 Z">
</path>
</defs>
<use x="1820.0" y="0" xlink:href="#g83/TT0"/>
<defs>
<path id="g58/TT0" d="M150.0 366.0Q 127.0,366.0  111.5,382.0 T 96.0,420.0 Q 96.0,442.0  111.5,458.0 T 150.0,474.0 Q 173.0,474.0  188.5,458.0 T 204.0,420.0 Q 204.0,398.0  188.5,382.0 T 150.0,366.0 Z M150.0 -6.0Q 127.0,-6.0  111.5,10.0 T 96.0,48.0 Q 96.0,70.0  111.5,86.0 T 150.0,102.0 Q 173.0,102.0  188.5,86.0 T 204.0,48.0 Q 204.0,26.0  188.5,10.0 T 150.0,-6.0 Z">
</path>
</defs>
<use x="2384.0" y="0" xlink:href="#g58/TT0"/>
<defs>
<path id="g65/TT0" d="M89.0 0 L10.0 0 L316.0 708.0 L386.0 708.0 L690.0 0 L610.0 0 L532.0 186.0 L166.0 186.0 L89.0 0Z M193.0 252.0 L505.0 252.0 L349.0 628.0 L193.0 252.0Z">
</path>
</defs>
<use x="2934.0" y="0" xlink:href="#g65/TT0"/>
<defs>
<path id="g80/TT0" d="M294.0 708.0Q 405.0,708.0  469.0,660.0 T 533.0,519.0 Q 533.0,426.0  468.0,377.5 T 292.0,329.0  L166.0 329.0 L166.0 0 L94.0 0 L94.0 708.0 L294.0 708.0Z M288.0 390.0Q 372.0,390.0  416.5,423.0 T 461.0,519.0 Q 461.0,583.0  416.5,614.5 T 288.0,646.0  L166.0 646.0 L166.0 390.0 L288.0 390.0Z">
</path>
</defs>
<use x="3884.0" y="0" xlink:href="#g80/TT0"/>
<use x="4464.0" y="0" xlink:href="#g83/TT0"/>
<defs>
<path id="g68/TT0" d="M329.0 708.0Q 421.0,708.0  507.0,667.5 T 647.0,546.5 T 701.0,354.0 Q 701.0,242.0  647.0,161.5 T 507.0,40.5 T 329.0,0  L94.0 0 L94.0 708.0 L329.0 708.0Z M309.0 64.0Q 411.0,64.0  482.5,105.0 T 589.5,212.0 T 625.0,354.0 Q 625.0,430.0  589.5,496.0 T 482.5,603.0 T 309.0,644.0  L166.0 644.0 L166.0 64.0 L309.0 64.0Z">
</path>
</defs>
<use x="5028.0" y="0" xlink:href="#g68/TT0"/>
<defs>
<path id="g73/TT0" d="M166.0 0 L94.0 0 L94.0 708.0 L166.0 708.0 L166.0 0Z">
</path>
</defs>
<use x="6035.0" y="0" xlink:href="#g73/TT0"/>
<defs>
<path id="g110/TT0" d="M155.0 388.0 L157.0 388.0Q 176.0,428.0  221.5,454.0 T 317.0,480.0 Q 404.0,480.0  449.5,428.0 T 495.0,287.0  L495.0 0 L427.0 0 L427.0 259.0Q 427.0,338.0  398.5,380.5 T 300.0,423.0 Q 262.0,423.0  230.0,402.5 T 178.0,341.0 T 158.0,240.0  L158.0 0 L90.0 0 L90.0 365.0Q 90.0,425.0  86.0,468.0  L151.0 468.0Q 155.0,418.0  155.0,388.0 Z">
</path>
</defs>
<use x="6295.0" y="0" xlink:href="#g110/TT0"/>
<defs>
<path id="g105/TT0" d="M125.0 600.0Q 106.0,600.0  91.5,614.0 T 77.0,648.0 Q 77.0,668.0  91.5,682.0 T 125.0,696.0 Q 144.0,696.0  158.5,682.0 T 173.0,648.0 Q 173.0,628.0  158.5,614.0 T 125.0,600.0 Z M159.0 0 L91.0 0 L91.0 468.0 L159.0 468.0 L159.0 0Z">
</path>
</defs>
<use x="6876.0" y="0" xlink:href="#g105/TT0"/>
<defs>
<path id="g116/TT0" d="M169.0 411.0 L169.0 138.0Q 169.0,89.0  187.0,70.5 T 239.0,52.0 Q 268.0,52.0  298.0,67.0  L301.0 8.0Q 264.0,-6.0  221.0,-6.0 Q 173.0,-6.0  137.0,22.0 T 101.0,119.0  L101.0 411.0 L4.0 411.0 L4.0 468.0 L101.0 468.0 L101.0 600.0 L169.0 600.0 L169.0 468.0 L301.0 468.0 L301.0 411.0 L169.0 411.0Z">
</path>
</defs>
<use x="7126.0" y="0" xlink:href="#g116/TT0"/>
<use x="7443.0" y="0" xlink:href="#g105/TT0"/>
<defs>
<path id="g97/TT0" d="M260.0 423.0Q 220.0,423.0  183.0,408.0 T 121.0,368.0  L83.0 413.0Q 113.0,443.0  161.0,461.5 T 267.0,480.0 Q 347.0,480.0  398.0,436.0 T 449.0,310.0  L449.0 105.0Q 449.0,42.0  457.0,0  L396.0 0Q 389.0,40.0  389.0,76.0  L387.0 76.0Q 355.0,30.0  314.5,9.0 T 217.0,-12.0 Q 178.0,-12.0  141.0,2.5 T 79.5,49.0 T 55.0,130.0 Q 55.0,198.0  99.0,232.0 T 212.5,276.5 T 385.0,287.0  L385.0 302.0Q 385.0,362.0  353.0,392.5 T 260.0,423.0 Z M125.0 133.0Q 125.0,87.0  157.0,65.5 T 235.0,44.0 Q 304.0,44.0  344.5,89.0 T 385.0,199.0  L385.0 234.0 L365.0 234.0Q 259.0,234.0  192.0,213.5 T 125.0,133.0 Z">
</path>
</defs>
<use x="7693.0" y="0" xlink:href="#g97/TT0"/>
<use x="8227.0" y="0" xlink:href="#g116/TT0"/>
<use x="8544.0" y="0" xlink:href="#g105/TT0"/>
<defs>
<path id="g118/TT0" d="M282.0 0 L207.0 0 L16.0 468.0 L92.0 468.0 L244.0 72.0 L246.0 72.0 L399.0 468.0 L472.0 468.0 L282.0 0Z">
</path>
</defs>
<use x="8794.0" y="0" xlink:href="#g118/TT0"/>
<defs>
<path id="g101/TT0" d="M515.0 216.0 L127.0 216.0Q 128.0,169.0  150.5,130.5 T 212.0,69.0 T 298.0,46.0 Q 347.0,46.0  387.0,69.5 T 448.0,127.0  L499.0 87.0Q 421.0,-12.0  298.0,-12.0 Q 229.0,-12.0  174.0,20.0 T 87.5,108.0 T 56.0,234.0 Q 56.0,303.0  87.0,359.5 T 172.0,448.0 T 292.0,480.0 Q 363.0,480.0  413.5,449.5 T 490.0,366.0 T 516.0,248.0 Q 516.0,228.0  515.0,216.0 Z M292.0 423.0Q 248.0,423.0  211.5,402.0 T 153.0,345.5 T 128.0,270.0  L447.0 270.0Q 444.0,338.0  403.5,380.5 T 292.0,423.0 Z">
</path>
</defs>
<use x="9282.0" y="0" xlink:href="#g101/TT0"/>
</g>
<text x="0" y="943.34" font-size="21.7pt" font-family="Avenir Next for SAS" fill="#ffffff" opacity="0">
BEES: A PSD Initiative</text>
</g>
</g>
</g>
<g transform=" translate(1514.0 -1.0)">
<rect x="0" y="851.27" rx="5" ry="5" width="382.0" height="106.73" fill="#ffffff" opacity="0">
</rect>
<g transform=" translate(16.0 -69.0)">
<g transform="">
<g fill="#ffffff" stroke="#ffffff" transform="translate(0 953.5) scale(0.0177 -0.0177)">
<defs>
<path id="g67/TT0" d="M425.0 -18.0Q 319.0,-18.0  235.0,30.0 T 103.5,163.0 T 56.0,354.0 Q 56.0,460.0  104.0,545.0 T 236.5,678.0 T 425.0,726.0 Q 503.0,726.0  571.5,695.5 T 677.0,614.0  L617.0 570.0Q 592.0,608.0  540.5,635.5 T 426.0,663.0 Q 337.0,663.0  270.5,621.0 T 168.0,508.0 T 132.0,354.0 Q 132.0,271.0  168.0,200.0 T 271.0,87.0 T 426.0,45.0 Q 490.0,45.0  544.5,71.0 T 634.0,150.0  L690.0 114.0Q 652.0,56.0  583.5,19.0 T 425.0,-18.0 Z">
</path>
</defs>
<use x="0" y="0" xlink:href="#g67/TT0"/>
<defs>
<path id="g117/TT0" d="M426.0 80.0 L424.0 80.0Q 405.0,40.0  359.5,14.0 T 264.0,-12.0 Q 177.0,-12.0  131.5,40.0 T 86.0,181.0  L86.0 468.0 L154.0 468.0 L154.0 209.0Q 154.0,130.0  182.5,87.5 T 281.0,45.0 Q 319.0,45.0  351.0,65.5 T 403.0,127.0 T 423.0,228.0  L423.0 468.0 L491.0 468.0 L491.0 103.0Q 491.0,43.0  495.0,0  L430.0 0Q 426.0,50.0  426.0,80.0 Z">
</path>
</defs>
<use x="720.0" y="0" xlink:href="#g117/TT0"/>
<defs>
<path id="g114/TT0" d="M86.0 468.0 L151.0 468.0Q 155.0,418.0  155.0,388.0  L157.0 388.0Q 177.0,429.0  217.5,454.5 T 307.0,480.0 Q 334.0,480.0  352.0,475.0  L343.0 411.0Q 337.0,413.0  322.5,415.0 T 295.0,417.0 Q 236.0,417.0  197.0,372.5 T 158.0,240.0  L158.0 0 L90.0 0 L90.0 365.0Q 90.0,425.0  86.0,468.0 Z">
</path>
</defs>
<use x="1301.0" y="0" xlink:href="#g114/TT0"/>
<use x="1661.0" y="0" xlink:href="#g114/TT0"/>
<use x="2021.0" y="0" xlink:href="#g101/TT0"/>
<use x="2593.0" y="0" xlink:href="#g110/TT0"/>
<use x="3174.0" y="0" xlink:href="#g116/TT0"/>
<defs>
<path id="g84/TT0" d="M321.0 0 L249.0 0 L249.0 644.0 L12.0 644.0 L12.0 708.0 L558.0 708.0 L558.0 644.0 L321.0 644.0 L321.0 0Z">
</path>
</defs>
<use x="3741.0" y="0" xlink:href="#g84/TT0"/>
<use x="4311.0" y="0" xlink:href="#g105/TT0"/>
<defs>
<path id="g109/TT0" d="M311.0 480.0Q 356.0,480.0  395.0,458.0 T 455.0,381.0 Q 479.0,429.0  521.0,454.5 T 619.0,480.0 Q 706.0,480.0  751.5,428.0 T 797.0,287.0  L797.0 0 L729.0 0 L729.0 259.0Q 729.0,423.0  608.0,423.0 Q 540.0,423.0  507.5,372.5 T 475.0,249.0  L475.0 0 L407.0 0 L407.0 273.0Q 407.0,347.0  382.5,385.0 T 294.0,423.0 Q 260.0,423.0  228.5,402.5 T 177.5,340.5 T 158.0,240.0  L158.0 0 L90.0 0 L90.0 365.0Q 90.0,425.0  86.0,468.0  L151.0 468.0Q 155.0,418.0  155.0,388.0  L157.0 388.0Q 178.0,429.0  219.5,454.5 T 311.0,480.0 Z">
</path>
</defs>
<use x="4561.0" y="0" xlink:href="#g109/TT0"/>
<use x="5444.0" y="0" xlink:href="#g101/TT0"/>
</g>
<text x="0" y="953.5" font-size="13.3pt" font-family="Avenir Next for SAS" fill="#ffffff" opacity="0">
Current Time</text>
</g>
</g>
<g transform=" translate(16.0 -16.0)">
<rect x="1.0" y="905.99" width="347.0" height="51.01" fill="#ced0d3" stroke="#ffffff">
</rect>
<g fill="#ffffff" stroke="#ffffff" transform="translate(72.5 936.51) scale(0.014 -0.014)">
<defs>
<path id="g70/TT0" d="M166.0 0 L94.0 0 L94.0 708.0 L521.0 708.0 L521.0 644.0 L166.0 644.0 L166.0 398.0 L496.0 398.0 L496.0 335.0 L166.0 335.0 L166.0 0Z">
</path>
</defs>
<use x="0" y="0" xlink:href="#g70/TT0"/>
<use x="562.0" y="0" xlink:href="#g101/TT0"/>
<defs>
<path id="g98/TT0" d="M160.0 0 L92.0 0 L92.0 756.0 L160.0 756.0 L160.0 387.0 L162.0 387.0Q 191.0,431.0  239.0,455.5 T 339.0,480.0 Q 410.0,480.0  465.5,447.5 T 551.0,359.0 T 581.0,234.0 Q 581.0,165.0  551.0,109.0 T 465.5,20.5 T 339.0,-12.0 Q 287.0,-12.0  239.0,12.0 T 162.0,79.0  L160.0 79.0 L160.0 0Z M332.0 423.0Q 280.0,423.0  239.0,398.0 T 175.0,330.0 T 152.0,234.0 Q 152.0,181.0  175.0,138.0 T 239.0,70.5 T 332.0,46.0 Q 387.0,46.0  427.0,71.0 T 488.0,138.5 T 509.0,234.0 Q 509.0,287.0  488.0,330.0 T 427.0,398.0 T 387.0,423.0 Z">
</path>
</defs>
<use x="1134.0" y="0" xlink:href="#g98/TT0"/>
<use x="1771.0" y="0" xlink:href="#g114/TT0"/>
<use x="2131.0" y="0" xlink:href="#g117/TT0"/>
<use x="2712.0" y="0" xlink:href="#g97/TT0"/>
<use x="3246.0" y="0" xlink:href="#g114/TT0"/>
<defs>
<path id="g121/TT0" d="M253.0 73.0 L398.0 468.0 L472.0 468.0 L239.0 -121.0Q 216.0,-180.0  182.5,-210.0 T 92.0,-240.0 Q 61.0,-240.0  31.0,-234.0  L38.0 -172.0Q 62.0,-180.0  88.0,-180.0 Q 121.0,-180.0  141.5,-159.5 T 178.0,-97.0  L216.0 1.0 L16.0 468.0 L92.0 468.0 L251.0 73.0 L253.0 73.0Z">
</path>
</defs>
<use x="3606.0" y="0" xlink:href="#g121/TT0"/>
<defs>
<path id="g50/TT0" d="M51.0 0 L51.0 75.0 L341.0 368.0Q 380.0,408.0  403.0,447.0 T 426.0,530.0 Q 426.0,590.0  385.5,627.5 T 286.0,665.0 Q 230.0,665.0  191.0,630.0 T 140.0,539.0  L69.0 553.0Q 84.0,629.0  144.0,677.5 T 286.0,726.0 Q 344.0,726.0  392.5,703.5 T 470.0,637.0 T 499.0,531.0 Q 499.0,469.0  470.0,421.5 T 384.0,317.0  L129.0 64.0 L504.0 64.0 L504.0 0 L51.0 0Z">
</path>
</defs>
<use x="4344.0" y="0" xlink:href="#g50/TT0"/>
<defs>
<path id="g48/TT0" d="M522.0 353.0Q 522.0,195.0  467.0,88.5 T 290.0,-18.0 Q 167.0,-18.0  112.5,88.5 T 58.0,353.0 Q 58.0,512.0  112.5,619.0 T 290.0,726.0 Q 412.0,726.0  467.0,618.5 T 522.0,353.0 Z M131.0 353.0Q 131.0,226.0  167.5,135.0 T 290.0,44.0 Q 375.0,44.0  412.0,135.5 T 449.0,353.0 Q 449.0,480.0  412.0,572.5 T 290.0,665.0 Q 204.0,665.0  167.5,573.0 T 131.0,353.0 Z">
</path>
</defs>
<use x="4924.0" y="0" xlink:href="#g48/TT0"/>
<defs>
<path id="g44/TT0" d="M102.0 -140.0 L45.0 -140.0 L112.0 95.0 L183.0 95.0 L102.0 -140.0Z">
</path>
</defs>
<use x="5504.0" y="0" xlink:href="#g44/TT0"/>
<use x="6014.0" y="0" xlink:href="#g50/TT0"/>
<use x="6594.0" y="0" xlink:href="#g48/TT0"/>
<use x="7174.0" y="0" xlink:href="#g50/TT0"/>
<defs>
<path id="g53/TT0" d="M180.0 644.0 L175.0 425.0Q 219.0,441.0  273.0,441.0 Q 339.0,441.0  391.5,413.0 T 473.5,334.5 T 503.0,219.0 Q 503.0,151.0  473.5,97.0 T 390.5,12.5 T 268.0,-18.0 Q 194.0,-18.0  140.0,16.0 T 56.0,111.0  L121.0 140.0Q 140.0,96.0  179.0,70.0 T 264.0,44.0 Q 311.0,44.0  349.0,66.0 T 408.5,126.5 T 430.0,212.0 Q 430.0,289.0  380.5,335.5 T 254.0,382.0 Q 180.0,382.0  107.0,343.0  L114.0 708.0 L475.0 708.0 L475.0 644.0 L180.0 644.0Z">
</path>
</defs>
<use x="7754.0" y="0" xlink:href="#g53/TT0"/>
<use x="8334.0" y="0" xlink:href="#g44/TT0"/>
<defs>
<path id="g49/TT0" d="M358.0 0 L286.0 0 L286.0 619.0 L158.0 510.0 L114.0 560.0 L294.0 708.0 L358.0 708.0 L358.0 0Z">
</path>
</defs>
<use x="8844.0" y="0" xlink:href="#g49/TT0"/>
<use x="9424.0" y="0" xlink:href="#g48/TT0"/>
<use x="10004.0" y="0" xlink:href="#g58/TT0"/>
<use x="10304.0" y="0" xlink:href="#g53/TT0"/>
<defs>
<path id="g51/TT0" d="M245.0 402.0Q 319.0,402.0  364.5,433.5 T 410.0,532.0 Q 410.0,590.0  369.0,627.5 T 270.0,665.0 Q 226.0,665.0  191.0,643.5 T 135.0,582.0  L74.0 614.0Q 106.0,670.0  157.0,698.0 T 274.0,726.0 Q 331.0,726.0  378.0,703.5 T 453.0,638.0 T 481.0,536.0 Q 481.0,475.0  446.5,432.0 T 358.0,374.0  L358.0 372.0Q 421.0,359.0  461.0,312.0 T 501.0,196.0 Q 501.0,131.0  470.0,82.5 T 387.0,8.0 T 273.0,-18.0 Q 196.0,-18.0  137.5,19.5 T 49.0,127.0  L117.0 152.0Q 135.0,102.0  177.0,73.0 T 273.0,44.0 Q 314.0,44.0  350.0,62.5 T 407.5,115.5 T 429.0,196.0 Q 429.0,271.0  376.0,305.5 T 245.0,340.0  L214.0 340.0 L214.0 402.0 L245.0 402.0Z">
</path>
</defs>
<use x="10884.0" y="0" xlink:href="#g51/TT0"/>
<use x="11464.0" y="0" xlink:href="#g58/TT0"/>
<defs>
<path id="g52/TT0" d="M436.0 234.0 L540.0 234.0 L540.0 171.0 L436.0 171.0 L436.0 0 L366.0 0 L366.0 171.0 L42.0 171.0 L42.0 241.0 L342.0 708.0 L436.0 708.0 L436.0 234.0Z M366.0 627.0 L364.0 627.0 L117.0 234.0 L366.0 234.0 L366.0 627.0Z">
</path>
</defs>
<use x="11764.0" y="0" xlink:href="#g52/TT0"/>
<use x="12344.0" y="0" xlink:href="#g51/TT0"/>
<use x="13174.0" y="0" xlink:href="#g80/TT0"/>
<defs>
<path id="g77/TT0" d="M444.0 122.0 L445.0 122.0 L682.0 708.0 L792.0 708.0 L792.0 0 L720.0 0 L720.0 615.0 L718.0 615.0 L462.0 0 L424.0 0 L168.0 615.0 L166.0 615.0 L166.0 0 L94.0 0 L94.0 708.0 L204.0 708.0 L444.0 122.0Z">
</path>
</defs>
<use x="13754.0" y="0" xlink:href="#g77/TT0"/>
</g>
<text x="174.5" y="936.51" font-size="10.5pt" font-family="Avenir Next for SAS" fill="#ffffff" text-anchor="middle" opacity="0">
February 20, 2025, 10:53:43 PM</text>
</g>
</g>
<g transform=" translate(383.0 -4.0)">
<rect x="0" y="865.88" rx="5" ry="5" width="1131.68" height="92.12" fill="#ffffff" opacity="0">
</rect>
<g transform=" translate(16.0 -16.0)">
<g fill="#ffffff" stroke="#ffffff" transform="translate(8.0 951.48) scale(0.016 -0.016)">
<use x="0" y="0" xlink:href="#g70/TT0"/>
<use x="562.0" y="0" xlink:href="#g101/TT0"/>
<use x="1134.0" y="0" xlink:href="#g98/TT0"/>
<use x="2021.0" y="0" xlink:href="#g49/TT0"/>
<defs>
<path id="g55/TT0" d="M498.0 642.0 L213.0 0 L132.0 0 L425.0 644.0 L78.0 644.0 L78.0 708.0 L498.0 708.0 L498.0 642.0Z">
</path>
</defs>
<use x="2601.0" y="0" xlink:href="#g55/TT0"/>
<use x="3181.0" y="0" xlink:href="#g44/TT0"/>
<use x="3691.0" y="0" xlink:href="#g50/TT0"/>
<use x="4271.0" y="0" xlink:href="#g48/TT0"/>
<use x="4851.0" y="0" xlink:href="#g50/TT0"/>
<use x="5431.0" y="0" xlink:href="#g53/TT0"/>
<use x="6011.0" y="0" xlink:href="#g44/TT0"/>
<use x="6521.0" y="0" xlink:href="#g49/TT0"/>
<use x="7101.0" y="0" xlink:href="#g50/TT0"/>
<use x="7681.0" y="0" xlink:href="#g58/TT0"/>
<use x="7981.0" y="0" xlink:href="#g48/TT0"/>
<use x="8561.0" y="0" xlink:href="#g48/TT0"/>
<use x="9141.0" y="0" xlink:href="#g58/TT0"/>
<use x="9441.0" y="0" xlink:href="#g48/TT0"/>
<use x="10021.0" y="0" xlink:href="#g48/TT0"/>
<use x="10851.0" y="0" xlink:href="#g65/TT0"/>
<use x="11551.0" y="0" xlink:href="#g77/TT0"/>
</g>
<text x="8.0" y="951.48" font-size="12.0pt" font-family="Avenir Next for SAS" fill="#ffffff" text-anchor="start" opacity="0">
Feb 17, 2025, 12:00:00 AM</text>
<g fill="#ffffff" stroke="#ffffff" transform="translate(894.6 951.48) scale(0.016 -0.016)">
<use x="0" y="0" xlink:href="#g70/TT0"/>
<use x="562.0" y="0" xlink:href="#g101/TT0"/>
<use x="1134.0" y="0" xlink:href="#g98/TT0"/>
<use x="2021.0" y="0" xlink:href="#g50/TT0"/>
<use x="2601.0" y="0" xlink:href="#g48/TT0"/>
<use x="3181.0" y="0" xlink:href="#g44/TT0"/>
<use x="3691.0" y="0" xlink:href="#g50/TT0"/>
<use x="4271.0" y="0" xlink:href="#g48/TT0"/>
<use x="4851.0" y="0" xlink:href="#g50/TT0"/>
<use x="5431.0" y="0" xlink:href="#g53/TT0"/>
<use x="6011.0" y="0" xlink:href="#g44/TT0"/>
<use x="6521.0" y="0" xlink:href="#g48/TT0"/>
<defs>
<path id="g56/TT0" d="M517.0 186.0Q 517.0,126.0  486.0,79.5 T 403.0,7.5 T 290.0,-18.0 Q 229.0,-18.0  177.0,7.5 T 94.0,79.5 T 63.0,186.0 Q 63.0,256.0  100.5,306.5 T 197.0,375.0  L197.0 377.0Q 150.0,393.0  120.0,437.5 T 90.0,537.0 Q 90.0,593.0  117.0,636.0 T 190.0,702.5 T 290.0,726.0 Q 344.0,726.0  390.0,702.5 T 463.0,636.0 T 490.0,537.0 Q 490.0,482.0  460.0,437.5 T 383.0,377.0  L383.0 375.0Q 442.0,358.0  479.5,307.0 T 517.0,186.0 Z M290.0 406.0Q 345.0,406.0  382.5,442.0 T 420.0,533.0 Q 420.0,590.0  383.0,627.5 T 290.0,665.0 Q 234.0,665.0  197.0,627.5 T 160.0,533.0 Q 160.0,478.0  197.5,442.0 T 290.0,406.0 Z M290.0 43.0Q 359.0,43.0  402.0,86.0 T 445.0,194.0 Q 445.0,258.0  402.0,300.0 T 290.0,342.0 Q 221.0,342.0  178.0,300.0 T 135.0,194.0 Q 135.0,129.0  178.0,86.0 T 290.0,43.0 Z">
</path>
</defs>
<use x="7101.0" y="0" xlink:href="#g56/TT0"/>
<use x="7681.0" y="0" xlink:href="#g58/TT0"/>
<use x="7981.0" y="0" xlink:href="#g48/TT0"/>
<use x="8561.0" y="0" xlink:href="#g48/TT0"/>
<use x="9141.0" y="0" xlink:href="#g58/TT0"/>
<use x="9441.0" y="0" xlink:href="#g48/TT0"/>
<use x="10021.0" y="0" xlink:href="#g48/TT0"/>
<use x="10851.0" y="0" xlink:href="#g80/TT0"/>
<use x="11431.0" y="0" xlink:href="#g77/TT0"/>
</g>
<text x="1091.68" y="951.48" font-size="12.0pt" font-family="Avenir Next for SAS" fill="#ffffff" text-anchor="end" opacity="0">
Feb 20, 2025, 08:00:00 PM</text>
<g fill="#ffffff" stroke="#ffffff" transform="translate(340.84 915.88) scale(0.016 -0.016)">
<use x="0" y="0" xlink:href="#g70/TT0"/>
<use x="562.0" y="0" xlink:href="#g101/TT0"/>
<use x="1134.0" y="0" xlink:href="#g98/TT0"/>
<use x="2021.0" y="0" xlink:href="#g49/TT0"/>
<use x="2601.0" y="0" xlink:href="#g55/TT0"/>
<use x="3181.0" y="0" xlink:href="#g44/TT0"/>
<use x="3691.0" y="0" xlink:href="#g50/TT0"/>
<use x="4271.0" y="0" xlink:href="#g48/TT0"/>
<use x="4851.0" y="0" xlink:href="#g50/TT0"/>
<use x="5431.0" y="0" xlink:href="#g53/TT0"/>
<use x="6011.0" y="0" xlink:href="#g44/TT0"/>
<use x="6521.0" y="0" xlink:href="#g49/TT0"/>
<use x="7101.0" y="0" xlink:href="#g50/TT0"/>
<use x="7681.0" y="0" xlink:href="#g58/TT0"/>
<use x="7981.0" y="0" xlink:href="#g48/TT0"/>
<use x="8561.0" y="0" xlink:href="#g48/TT0"/>
<use x="9141.0" y="0" xlink:href="#g58/TT0"/>
<use x="9441.0" y="0" xlink:href="#g48/TT0"/>
<use x="10021.0" y="0" xlink:href="#g48/TT0"/>
<use x="10851.0" y="0" xlink:href="#g65/TT0"/>
<use x="11551.0" y="0" xlink:href="#g77/TT0"/>
<use x="12687.0" y="0" xlink:href="#g116/TT0"/>
<defs>
<path id="g111/TT0" d="M305.0 -12.0Q 234.0,-12.0  177.0,20.0 T 88.0,108.0 T 56.0,234.0 Q 56.0,304.0  88.0,360.0 T 177.0,448.0 T 305.0,480.0 Q 377.0,480.0  434.0,448.0 T 523.0,360.0 T 555.0,234.0 Q 555.0,164.0  523.0,108.0 T 434.0,20.0 T 377.0,-12.0 Z M305.0 423.0Q 252.0,423.0  212.0,398.0 T 150.0,330.0 T 128.0,234.0 Q 128.0,181.0  150.0,138.5 T 212.0,71.0 T 305.0,46.0 Q 358.0,46.0  398.5,71.0 T 461.0,138.5 T 483.0,234.0 Q 483.0,287.0  461.0,330.0 T 398.5,398.0 T 358.0,423.0 Z">
</path>
</defs>
<use x="13004.0" y="0" xlink:href="#g111/TT0"/>
<use x="13865.0" y="0" xlink:href="#g70/TT0"/>
<use x="14427.0" y="0" xlink:href="#g101/TT0"/>
<use x="14999.0" y="0" xlink:href="#g98/TT0"/>
<use x="15886.0" y="0" xlink:href="#g50/TT0"/>
<use x="16466.0" y="0" xlink:href="#g48/TT0"/>
<use x="17046.0" y="0" xlink:href="#g44/TT0"/>
<use x="17556.0" y="0" xlink:href="#g50/TT0"/>
<use x="18136.0" y="0" xlink:href="#g48/TT0"/>
<use x="18716.0" y="0" xlink:href="#g50/TT0"/>
<use x="19296.0" y="0" xlink:href="#g53/TT0"/>
<use x="19876.0" y="0" xlink:href="#g44/TT0"/>
<use x="20386.0" y="0" xlink:href="#g48/TT0"/>
<use x="20966.0" y="0" xlink:href="#g56/TT0"/>
<use x="21546.0" y="0" xlink:href="#g58/TT0"/>
<use x="21846.0" y="0" xlink:href="#g48/TT0"/>
<use x="22426.0" y="0" xlink:href="#g48/TT0"/>
<use x="23006.0" y="0" xlink:href="#g58/TT0"/>
<use x="23306.0" y="0" xlink:href="#g48/TT0"/>
<use x="23886.0" y="0" xlink:href="#g48/TT0"/>
<use x="24716.0" y="0" xlink:href="#g80/TT0"/>
<use x="25296.0" y="0" xlink:href="#g77/TT0"/>
</g>
<text x="549.84" y="915.88" font-size="12.0pt" font-family="Avenir Next for SAS" fill="#ffffff" text-anchor="middle" opacity="0">
Feb 17, 2025, 12:00:00 AM to Feb 20, 2025, 08:00:00 PM</text>
<rect x="8.0" y="927.94" width="1083.68" height="4.0" fill="#90b0d9" stroke="#ffffff">
</rect>
<polygon points="16.0,929.94  16.0,929.66  15.98,929.38  15.96,929.1  15.92,928.83  15.88,928.55  15.83,928.28  15.76,928.0  15.69,927.73  15.61,927.47  15.52,927.2  15.42,926.94  15.31,926.69  15.19,926.43  15.06,926.18  14.93,925.94  14.78,925.7  14.63,925.47  14.47,925.24  14.3,925.01  14.13,924.8  13.95,924.59  13.75,924.38  13.56,924.18  13.35,923.99  13.14,923.81  12.93,923.64  12.7,923.47  12.47,923.31  12.24,923.15  12.0,923.01  11.76,922.88  11.51,922.75  11.25,922.63  11.0,922.52  10.74,922.42  10.47,922.33  10.21,922.25  9.94,922.18  9.66,922.11  9.39,922.06  9.11,922.02  8.84,921.98  8.56,921.96  8.28,921.94  8.0,921.94  7.72,921.94  7.44,921.96  7.16,921.98  6.89,922.02  6.61,922.06  6.34,922.11  6.06,922.18  5.79,922.25  5.53,922.33  5.26,922.42  5.0,922.52  4.75,922.63  4.49,922.75  4.24,922.88  4.0,923.01  3.76,923.15  3.53,923.31  3.3,923.47  3.07,923.64  2.86,923.81  2.65,923.99  2.44,924.18  2.25,924.38  2.05,924.59  1.87,924.8  1.7,925.01  1.53,925.24  1.37,925.47  1.22,925.7  1.07,925.94  0.94,926.18  0.81,926.43  0.69,926.69  0.58,926.94  0.48,927.2  0.39,927.47  0.31,927.73  0.24,928.0  0.17,928.28  0.12,928.55  0.08,928.83  0.04,929.1  0.02,929.38  0.0,929.66  0,929.94  0.0,930.22  0.02,930.5  0.04,930.78  0.08,931.05  0.12,931.33  0.17,931.6  0.24,931.87  0.31,932.14  0.39,932.41  0.48,932.68  0.58,932.94  0.69,933.19  0.81,933.45  0.94,933.7  1.07,933.94  1.22,934.18  1.37,934.41  1.53,934.64  1.7,934.86  1.87,935.08  2.05,935.29  2.25,935.5  2.44,935.69  2.65,935.88  2.86,936.07  3.07,936.24  3.3,936.41  3.53,936.57  3.76,936.72  4.0,936.87  4.24,937.0  4.49,937.13  4.75,937.25  5.0,937.36  5.26,937.46  5.53,937.55  5.79,937.63  6.06,937.7  6.34,937.76  6.61,937.82  6.89,937.86  7.16,937.9  7.44,937.92  7.72,937.93  8.0,937.94  8.28,937.93  8.56,937.92  8.84,937.9  9.11,937.86  9.39,937.82  9.66,937.76  9.94,937.7  10.21,937.63  10.47,937.55  10.74,937.46  11.0,937.36  11.25,937.25  11.51,937.13  11.76,937.0  12.0,936.87  12.24,936.72  12.47,936.57  12.7,936.41  12.93,936.24  13.14,936.07  13.35,935.88  13.56,935.69  13.75,935.5  13.95,935.29  14.13,935.08  14.3,934.86  14.47,934.64  14.63,934.41  14.78,934.18  14.93,933.94  15.06,933.7  15.19,933.45  15.31,933.19  15.42,932.94  15.52,932.68  15.61,932.41  15.69,932.14  15.76,931.87  15.83,931.6  15.88,931.33  15.92,931.05  15.96,930.78  15.98,930.5  16.0,930.22  16.0,929.94 " fill="#bfbfbf" stroke="#ffffff">
</polygon>
<polygon points="11.0,929.94  11.0,929.83  10.99,929.73  10.98,929.63  10.97,929.52  10.95,929.42  10.93,929.32  10.91,929.21  10.88,929.11  10.85,929.01  10.82,928.91  10.78,928.82  10.74,928.72  10.7,928.62  10.65,928.53  10.6,928.44  10.54,928.35  10.49,928.26  10.43,928.18  10.36,928.09  10.3,928.01  10.23,927.93  10.16,927.86  10.08,927.78  10.01,927.71  9.93,927.64  9.85,927.58  9.76,927.51  9.68,927.45  9.59,927.4  9.5,927.34  9.41,927.29  9.32,927.24  9.22,927.2  9.12,927.16  9.03,927.12  8.93,927.09  8.83,927.06  8.73,927.03  8.62,927.0  8.52,926.98  8.42,926.97  8.31,926.96  8.21,926.95  8.1,926.94  8.0,926.94  7.9,926.94  7.79,926.95  7.69,926.96  7.58,926.97  7.48,926.98  7.38,927.0  7.27,927.03  7.17,927.06  7.07,927.09  6.97,927.12  6.88,927.16  6.78,927.2  6.68,927.24  6.59,927.29  6.5,927.34  6.41,927.4  6.32,927.45  6.24,927.51  6.15,927.58  6.07,927.64  5.99,927.71  5.92,927.78  5.84,927.86  5.77,927.93  5.7,928.01  5.64,928.09  5.57,928.18  5.51,928.26  5.46,928.35  5.4,928.44  5.35,928.53  5.3,928.62  5.26,928.72  5.22,928.82  5.18,928.91  5.15,929.01  5.12,929.11  5.09,929.21  5.07,929.32  5.05,929.42  5.03,929.52  5.02,929.63  5.01,929.73  5.0,929.83  5.0,929.94  5.0,930.04  5.01,930.15  5.02,930.25  5.03,930.36  5.05,930.46  5.07,930.56  5.09,930.67  5.12,930.77  5.15,930.87  5.18,930.97  5.22,931.06  5.26,931.16  5.3,931.25  5.35,931.35  5.4,931.44  5.46,931.53  5.51,931.62  5.57,931.7  5.64,931.79  5.7,931.87  5.77,931.95  5.84,932.02  5.92,932.1  5.99,932.17  6.07,932.24  6.15,932.3  6.24,932.37  6.32,932.43  6.41,932.48  6.5,932.54  6.59,932.59  6.68,932.64  6.78,932.68  6.88,932.72  6.97,932.76  7.07,932.79  7.17,932.82  7.27,932.85  7.38,932.87  7.48,932.89  7.58,932.91  7.69,932.92  7.79,932.93  7.9,932.94  8.0,932.94  8.1,932.94  8.21,932.93  8.31,932.92  8.42,932.91  8.52,932.89  8.62,932.87  8.73,932.85  8.83,932.82  8.93,932.79  9.03,932.76  9.12,932.72  9.22,932.68  9.32,932.64  9.41,932.59  9.5,932.54  9.59,932.48  9.68,932.43  9.76,932.37  9.85,932.3  9.93,932.24  10.01,932.17  10.08,932.1  10.16,932.02  10.23,931.95  10.3,931.87  10.36,931.79  10.43,931.7  10.49,931.62  10.54,931.53  10.6,931.44  10.65,931.35  10.7,931.25  10.74,931.16  10.78,931.06  10.82,930.97  10.85,930.87  10.88,930.77  10.91,930.67  10.93,930.56  10.95,930.46  10.97,930.36  10.98,930.25  10.99,930.15  11.0,930.04  11.0,929.94 " fill="#90b0d9">
</polygon>
<polygon points="1099.68,929.94  1099.67,929.66  1099.66,929.38  1099.63,929.1  1099.6,928.83  1099.55,928.55  1099.5,928.28  1099.44,928.0  1099.37,927.73  1099.28,927.47  1099.19,927.2  1099.09,926.94  1098.98,926.69  1098.87,926.43  1098.74,926.18  1098.6,925.94  1098.46,925.7  1098.31,925.47  1098.15,925.24  1097.98,925.01  1097.8,924.8  1097.62,924.59  1097.43,924.38  1097.23,924.18  1097.03,923.99  1096.82,923.81  1096.6,923.64  1096.38,923.47  1096.15,923.31  1095.91,923.15  1095.68,923.01  1095.43,922.88  1095.18,922.75  1094.93,922.63  1094.67,922.52  1094.41,922.42  1094.15,922.33  1093.88,922.25  1093.61,922.18  1093.34,922.11  1093.06,922.06  1092.79,922.02  1092.51,921.98  1092.23,921.96  1091.95,921.94  1091.68,921.94  1091.4,921.94  1091.12,921.96  1090.84,921.98  1090.56,922.02  1090.29,922.06  1090.01,922.11  1089.74,922.18  1089.47,922.25  1089.2,922.33  1088.94,922.42  1088.68,922.52  1088.42,922.63  1088.17,922.75  1087.92,922.88  1087.68,923.01  1087.44,923.15  1087.2,923.31  1086.97,923.47  1086.75,923.64  1086.53,923.81  1086.32,923.99  1086.12,924.18  1085.92,924.38  1085.73,924.59  1085.55,924.8  1085.37,925.01  1085.2,925.24  1085.04,925.47  1084.89,925.7  1084.75,925.94  1084.61,926.18  1084.48,926.43  1084.37,926.69  1084.26,926.94  1084.16,927.2  1084.07,927.47  1083.98,927.73  1083.91,928.0  1083.85,928.28  1083.8,928.55  1083.75,928.83  1083.72,929.1  1083.69,929.38  1083.68,929.66  1083.68,929.94  1083.68,930.22  1083.69,930.5  1083.72,930.78  1083.75,931.05  1083.8,931.33  1083.85,931.6  1083.91,931.87  1083.98,932.14  1084.07,932.41  1084.16,932.68  1084.26,932.94  1084.37,933.19  1084.48,933.45  1084.61,933.7  1084.75,933.94  1084.89,934.18  1085.04,934.41  1085.2,934.64  1085.37,934.86  1085.55,935.08  1085.73,935.29  1085.92,935.5  1086.12,935.69  1086.32,935.88  1086.53,936.07  1086.75,936.24  1086.97,936.41  1087.2,936.57  1087.44,936.72  1087.68,936.87  1087.92,937.0  1088.17,937.13  1088.42,937.25  1088.68,937.36  1088.94,937.46  1089.2,937.55  1089.47,937.63  1089.74,937.7  1090.01,937.76  1090.29,937.82  1090.56,937.86  1090.84,937.9  1091.12,937.92  1091.4,937.93  1091.68,937.94  1091.95,937.93  1092.23,937.92  1092.51,937.9  1092.79,937.86  1093.06,937.82  1093.34,937.76  1093.61,937.7  1093.88,937.63  1094.15,937.55  1094.41,937.46  1094.67,937.36  1094.93,937.25  1095.18,937.13  1095.43,937.0  1095.68,936.87  1095.91,936.72  1096.15,936.57  1096.38,936.41  1096.6,936.24  1096.82,936.07  1097.03,935.88  1097.23,935.69  1097.43,935.5  1097.62,935.29  1097.8,935.08  1097.98,934.86  1098.15,934.64  1098.31,934.41  1098.46,934.18  1098.6,933.94  1098.74,933.7  1098.87,933.45  1098.98,933.19  1099.09,932.94  1099.19,932.68  1099.28,932.41  1099.37,932.14  1099.44,931.87  1099.5,931.6  1099.55,931.33  1099.6,931.05  1099.63,930.78  1099.66,930.5  1099.67,930.22  1099.68,929.94 " fill="#bfbfbf" stroke="#ffffff">
</polygon>
<polygon points="1094.68,929.94  1094.67,929.83  1094.67,929.73  1094.66,929.63  1094.65,929.52  1094.63,929.42  1094.61,929.32  1094.59,929.21  1094.56,929.11  1094.53,929.01  1094.49,928.91  1094.46,928.82  1094.42,928.72  1094.37,928.62  1094.32,928.53  1094.27,928.44  1094.22,928.35  1094.16,928.26  1094.1,928.18  1094.04,928.09  1093.97,928.01  1093.9,927.93  1093.83,927.86  1093.76,927.78  1093.68,927.71  1093.6,927.64  1093.52,927.58  1093.44,927.51  1093.35,927.45  1093.26,927.4  1093.18,927.34  1093.08,927.29  1092.99,927.24  1092.9,927.2  1092.8,927.16  1092.7,927.12  1092.6,927.09  1092.5,927.06  1092.4,927.03  1092.3,927.0  1092.2,926.98  1092.09,926.97  1091.99,926.96  1091.88,926.95  1091.78,926.94  1091.68,926.94  1091.57,926.94  1091.47,926.95  1091.36,926.96  1091.26,926.97  1091.15,926.98  1091.05,927.0  1090.95,927.03  1090.85,927.06  1090.75,927.09  1090.65,927.12  1090.55,927.16  1090.45,927.2  1090.36,927.24  1090.27,927.29  1090.18,927.34  1090.09,927.4  1090.0,927.45  1089.91,927.51  1089.83,927.58  1089.75,927.64  1089.67,927.71  1089.59,927.78  1089.52,927.86  1089.45,927.93  1089.38,928.01  1089.31,928.09  1089.25,928.18  1089.19,928.26  1089.13,928.35  1089.08,928.44  1089.03,928.53  1088.98,928.62  1088.93,928.72  1088.89,928.82  1088.86,928.91  1088.82,929.01  1088.79,929.11  1088.76,929.21  1088.74,929.32  1088.72,929.42  1088.7,929.52  1088.69,929.63  1088.68,929.73  1088.68,929.83  1088.68,929.94  1088.68,930.04  1088.68,930.15  1088.69,930.25  1088.7,930.36  1088.72,930.46  1088.74,930.56  1088.76,930.67  1088.79,930.77  1088.82,930.87  1088.86,930.97  1088.89,931.06  1088.93,931.16  1088.98,931.25  1089.03,931.35  1089.08,931.44  1089.13,931.53  1089.19,931.62  1089.25,931.7  1089.31,931.79  1089.38,931.87  1089.45,931.95  1089.52,932.02  1089.59,932.1  1089.67,932.17  1089.75,932.24  1089.83,932.3  1089.91,932.37  1090.0,932.43  1090.09,932.48  1090.18,932.54  1090.27,932.59  1090.36,932.64  1090.45,932.68  1090.55,932.72  1090.65,932.76  1090.75,932.79  1090.85,932.82  1090.95,932.85  1091.05,932.87  1091.15,932.89  1091.26,932.91  1091.36,932.92  1091.47,932.93  1091.57,932.94  1091.68,932.94  1091.78,932.94  1091.88,932.93  1091.99,932.92  1092.09,932.91  1092.2,932.89  1092.3,932.87  1092.4,932.85  1092.5,932.82  1092.6,932.79  1092.7,932.76  1092.8,932.72  1092.9,932.68  1092.99,932.64  1093.08,932.59  1093.18,932.54  1093.26,932.48  1093.35,932.43  1093.44,932.37  1093.52,932.3  1093.6,932.24  1093.68,932.17  1093.76,932.1  1093.83,932.02  1093.9,931.95  1093.97,931.87  1094.04,931.79  1094.1,931.7  1094.16,931.62  1094.22,931.53  1094.27,931.44  1094.32,931.35  1094.37,931.25  1094.42,931.16  1094.46,931.06  1094.49,930.97  1094.53,930.87  1094.56,930.77  1094.59,930.67  1094.61,930.56  1094.63,930.46  1094.65,930.36  1094.66,930.25  1094.67,930.15  1094.67,930.04  1094.68,929.94 " fill="#90b0d9">
</polygon>
<path d="M8.0 939.94L8.0 931.94Z" stroke="#ffffff" fill="none">
</path>
<path d="M1091.68 939.94L1091.68 931.94Z" stroke="#ffffff" fill="none">
</path>
</g>
</g>
</g>
<g transform=" translate(0 -823.0)">
<rect x="0" y="932.13" rx="5" ry="5" width="1912.0" height="25.87" fill="#b0b7c2" stroke="#b0b7c2">
</rect>
</g>
<rect x="0" y="134.6" rx="5" ry="5" width="1912.0" height="823.4" fill="#ffffff" opacity="0">
</rect>
<rect x="0" y="134.6" rx="5" ry="5" width="239.0" height="823.4" fill="#ffffff" stroke="#33a3ff" fill-opacity="0">
</rect>
<g transform=" translate(1.0 -1.0)">
<rect x="0" y="136.6" rx="5" ry="5" width="237.0" height="821.4" fill="#ffffff" opacity="0">
</rect>
<g transform=" translate(16.0 -16.0)">
<g transform="">
<g fill="#2a3037" stroke="#2a3037" transform="translate(0 196.65) scale(0.0289 -0.0289)">
<defs>
<path id="g72/TT0" d="M94.0 708.0 L166.0 708.0 L166.0 401.0 L552.0 401.0 L552.0 708.0 L624.0 708.0 L624.0 0 L552.0 0 L552.0 335.0 L166.0 335.0 L166.0 0 L94.0 0 L94.0 708.0Z">
</path>
</defs>
<use x="0" y="0" xlink:href="#g72/TT0"/>
<use x="718.0" y="0" xlink:href="#g105/TT0"/>
<use x="968.0" y="0" xlink:href="#g118/TT0"/>
<use x="1456.0" y="0" xlink:href="#g101/TT0"/>
</g>
<text x="0" y="196.65" font-size="21.7pt" font-family="Avenir Next for SAS" fill="#2a3037" opacity="0">
Hive</text>
</g>
</g>
</g>
<g transform=" translate(1.0 -493.0)">
<rect x="0" y="711.58" rx="5" ry="5" width="237.0" height="246.42" fill="#ffffff" opacity="0">
</rect>
<g transform=" translate(16.0 -16.0)">
<rect x="1.0" y="744.58" width="203.0" height="212.42" fill="#ced0d3" stroke="#2a3037">
</rect>
<g fill="#3c444f" stroke="#3c444f" transform="translate(25.5 855.81) scale(0.014 -0.014)">
<use x="0" y="0" xlink:href="#g77/TT0"/>
<use x="886.0" y="0" xlink:href="#g97/TT0"/>
<defs>
<path id="g115/TT0" d="M224.0 423.0Q 183.0,423.0  154.0,404.5 T 125.0,350.0 Q 125.0,318.0  151.0,300.0 T 237.0,270.0 Q 320.0,253.0  359.5,220.0 T 399.0,133.0 Q 399.0,59.0  347.5,23.5 T 223.0,-12.0 Q 167.0,-12.0  118.0,11.0 T 38.0,79.0  L92.0 119.0Q 111.0,87.0  146.5,66.5 T 222.0,46.0 Q 270.0,46.0  301.0,65.5 T 332.0,128.0 Q 332.0,163.0  299.5,182.0 T 194.0,218.0 Q 136.0,232.0  98.0,258.5 T 60.0,344.0 Q 60.0,411.0  108.5,445.5 T 227.0,480.0 Q 277.0,480.0  323.0,457.5 T 391.0,396.0  L339.0 357.0Q 324.0,387.0  293.0,405.0 T 224.0,423.0 Z">
</path>
</defs>
<use x="1420.0" y="0" xlink:href="#g115/TT0"/>
<defs>
<path id="g99/TT0" d="M307.0 423.0Q 254.0,423.0  213.0,398.5 T 150.0,330.5 T 128.0,234.0 Q 128.0,181.0  150.0,138.0 T 212.5,70.5 T 306.0,46.0 Q 387.0,46.0  433.0,107.0  L484.0 69.0Q 418.0,-12.0  306.0,-12.0 Q 232.0,-12.0  175.0,20.0 T 87.0,108.0 T 56.0,234.0 Q 56.0,304.0  87.0,360.0 T 175.0,448.0 T 306.0,480.0 Q 356.0,480.0  403.5,459.0 T 480.0,399.0  L427.0 361.0Q 410.0,388.0  377.5,405.5 T 307.0,423.0 Z">
</path>
</defs>
<use x="1864.0" y="0" xlink:href="#g99/TT0"/>
<defs>
<path id="g104/TT0" d="M319.0 480.0Q 406.0,480.0  451.5,428.0 T 497.0,287.0  L497.0 0 L429.0 0 L429.0 259.0Q 429.0,338.0  400.5,380.5 T 302.0,423.0 Q 264.0,423.0  232.0,402.5 T 180.0,341.0 T 160.0,240.0  L160.0 0 L92.0 0 L92.0 756.0 L160.0 756.0 L160.0 391.0 L162.0 391.0Q 180.0,431.0  224.5,455.5 T 319.0,480.0 Z">
</path>
</defs>
<use x="2364.0" y="0" xlink:href="#g104/TT0"/>
<use x="2947.0" y="0" xlink:href="#g97/TT0"/>
<defs>
<path id="g79/TT0" d="M425.0 -18.0Q 321.0,-18.0  236.5,30.0 T 104.0,163.0 T 56.0,354.0 Q 56.0,460.0  104.0,545.0 T 236.5,678.0 T 425.0,726.0 Q 529.0,726.0  613.5,678.0 T 746.0,545.0 T 794.0,354.0 Q 794.0,248.0  746.0,163.0 T 613.5,30.0 T 529.0,-18.0 Z M425.0 663.0Q 337.0,663.0  270.5,621.0 T 168.0,508.0 T 132.0,354.0 Q 132.0,271.0  168.0,200.5 T 270.5,88.0 T 425.0,46.0 Q 513.0,46.0  579.5,88.0 T 682.0,200.5 T 718.0,354.0 Q 718.0,437.0  682.0,508.0 T 579.5,621.0 T 513.0,663.0 Z">
</path>
</defs>
<use x="3731.0" y="0" xlink:href="#g79/TT0"/>
<use x="4581.0" y="0" xlink:href="#g117/TT0"/>
<defs>
<path id="g100/TT0" d="M298.0 -12.0Q 227.0,-12.0  171.5,20.5 T 86.0,109.0 T 56.0,234.0 Q 56.0,303.0  86.0,359.0 T 171.5,447.5 T 298.0,480.0 Q 350.0,480.0  398.0,455.5 T 475.0,387.0  L477.0 387.0 L477.0 756.0 L545.0 756.0 L545.0 0 L477.0 0 L477.0 79.0 L475.0 79.0Q 446.0,36.0  398.0,12.0 T 298.0,-12.0 Z M305.0 46.0Q 357.0,46.0  398.0,70.5 T 462.0,138.0 T 485.0,234.0 Q 485.0,287.0  462.0,330.0 T 398.0,398.0 T 305.0,423.0 Q 250.0,423.0  210.0,398.0 T 149.0,330.0 T 128.0,234.0 Q 128.0,181.0  149.0,138.5 T 210.0,71.0 T 250.0,46.0 Z">
</path>
</defs>
<use x="5162.0" y="0" xlink:href="#g100/TT0"/>
<defs>
<path id="g45/TT0" d="M272.0 214.0 L48.0 214.0 L48.0 271.0 L272.0 271.0 L272.0 214.0Z">
</path>
</defs>
<use x="5799.0" y="0" xlink:href="#g45/TT0"/>
<defs>
<path id="g76/TT0" d="M166.0 64.0 L496.0 64.0 L496.0 0 L94.0 0 L94.0 708.0 L166.0 708.0 L166.0 64.0Z">
</path>
</defs>
<use x="6119.0" y="0" xlink:href="#g76/TT0"/>
<use x="6629.0" y="0" xlink:href="#g111/TT0"/>
<use x="7240.0" y="0" xlink:href="#g111/TT0"/>
<use x="7851.0" y="0" xlink:href="#g115/TT0"/>
<use x="8295.0" y="0" xlink:href="#g100/TT0"/>
<use x="8932.0" y="0" xlink:href="#g114/TT0"/>
<use x="9292.0" y="0" xlink:href="#g101/TT0"/>
<use x="9864.0" y="0" xlink:href="#g99/TT0"/>
<use x="10364.0" y="0" xlink:href="#g104/TT0"/>
<use x="10947.0" y="0" xlink:href="#g116/TT0"/>
</g>
<text x="103.5" y="855.81" font-size="10.5pt" font-family="Avenir Next for SAS" fill="#3c444f" text-anchor="middle" opacity="0">
Mascha Oud-Loosdrecht</text>
</g>
</g>
<g transform=" translate(1.0 -1.0)">
<rect x="0" y="711.58" rx="5" ry="5" width="237.0" height="246.42" fill="#ffffff" opacity="0">
</rect>
<g transform=" translate(16.0 -16.0)">
<defs>
<clipPath id="ClipPath0">
<rect x="0" y="741" width="208" height="217">
</rect>
</clipPath>
</defs>
<g clip-path="url(#ClipPath0)">
<defs>
<clipPath id="ClipPath1">
<rect x="0" y="742" width="207" height="216">
</rect>
</clipPath>
</defs>
<g clip-path="url(#ClipPath1)">
<g transform="">
<g fill="#2a3037" stroke="#2a3037" transform="translate(23.65 814.38) scale(0.014 -0.014)">
<defs>
<path id="g76/TT1" d="M78.0 708.0 L204.0 708.0 L204.0 112.0 L505.0 112.0 L505.0 0 L78.0 0 L78.0 708.0Z">
</path>
</defs>
<use x="0" y="0" xlink:href="#g76/TT1"/>
<defs>
<path id="g97/TT1" d="M367.0 61.0Q 349.0,29.0  308.5,8.5 T 218.0,-12.0 Q 175.0,-12.0  134.0,3.0 T 65.5,51.5 T 38.0,137.0 Q 38.0,233.0  131.0,266.5 T 368.0,300.0  L368.0 312.0Q 368.0,354.0  337.0,377.0 T 258.0,400.0 Q 221.0,400.0  186.0,384.5 T 127.0,345.0  L65.0 418.0Q 105.0,455.0  158.5,474.5 T 268.0,494.0 Q 385.0,494.0  433.5,436.0 T 482.0,292.0  L482.0 0 L370.0 0 L370.0 61.0 L367.0 61.0Z M341.0 219.0Q 158.0,219.0  158.0,139.0 Q 158.0,107.0  182.5,93.0 T 242.0,79.0 Q 303.0,79.0  335.5,111.5 T 368.0,202.0  L368.0 219.0 L341.0 219.0Z">
</path>
</defs>
<use x="511.0" y="0" xlink:href="#g97/TT1"/>
<defs>
<path id="g115/TT1" d="M230.0 404.0Q 198.0,404.0  175.5,391.0 T 153.0,352.0 Q 153.0,327.0  176.0,315.0 T 257.0,289.0 Q 325.0,273.0  368.5,241.0 T 412.0,146.0 Q 412.0,64.0  355.5,25.0 T 212.0,-14.0 Q 155.0,-14.0  102.0,7.0 T 15.0,65.0  L94.0 139.0Q 114.0,112.0  146.5,95.5 T 217.0,79.0 Q 248.0,79.0  271.0,93.0 T 294.0,136.0 Q 294.0,164.0  269.5,177.5 T 184.0,205.0 Q 119.0,221.0  80.5,250.5 T 42.0,341.0 Q 42.0,416.0  98.0,455.0 T 233.0,494.0 Q 287.0,494.0  336.0,475.0 T 413.0,421.0  L335.0 352.0Q 318.0,374.0  290.0,389.0 T 230.0,404.0 Z">
</path>
</defs>
<use x="1061.0" y="0" xlink:href="#g115/TT1"/>
<defs>
<path id="g116/TT1" d="M3.0 480.0 L87.0 480.0 L87.0 619.0 L205.0 619.0 L205.0 480.0 L325.0 480.0 L325.0 384.0 L205.0 384.0 L205.0 161.0Q 205.0,125.0  218.0,106.0 T 268.0,87.0 Q 299.0,87.0  319.0,97.0  L323.0 3.0Q 289.0,-10.0  243.0,-10.0 Q 155.0,-10.0  121.0,35.5 T 87.0,160.0  L87.0 384.0 L3.0 384.0 L3.0 480.0Z">
</path>
</defs>
<use x="1505.0" y="0" xlink:href="#g116/TT1"/>
<defs>
<path id="g83/TT1" d="M309.0 621.0Q 260.0,621.0  222.0,596.5 T 184.0,524.0 Q 184.0,493.0  200.0,473.5 T 243.0,442.0 T 319.0,415.0 Q 380.0,396.0  422.5,375.0 T 495.5,313.0 T 526.0,208.0 Q 526.0,135.0  491.5,84.0 T 398.5,7.5 T 268.0,-18.0 Q 197.0,-18.0  131.5,8.5 T 25.0,83.0  L115.0 167.0Q 141.0,132.0  184.0,110.5 T 270.0,89.0 Q 321.0,89.0  359.5,115.0 T 398.0,194.0 Q 398.0,229.0  377.5,251.0 T 326.0,285.5 T 235.0,317.0 Q 182.0,333.0  144.0,355.0 T 81.0,416.5 T 56.0,518.0 Q 56.0,587.0  93.0,633.5 T 189.0,703.0 T 315.0,726.0 Q 371.0,726.0  426.5,706.5 T 521.0,650.0  L439.0 560.0Q 419.0,587.0  382.5,604.0 T 309.0,621.0 Z">
</path>
</defs>
<use x="2095.0" y="0" xlink:href="#g83/TT1"/>
<defs>
<path id="g101/TT1" d="M529.0 202.0 L164.0 202.0Q 168.0,152.0  208.0,118.0 T 301.0,84.0 Q 384.0,84.0  428.0,146.0  L508.0 82.0Q 437.0,-14.0  302.0,-14.0 Q 228.0,-14.0  169.5,16.5 T 77.5,104.0 T 44.0,237.0 Q 44.0,313.0  77.0,371.5 T 168.0,462.0 T 298.0,494.0 Q 402.0,494.0  466.0,427.0 T 530.0,234.0 Q 530.0,213.0  529.0,202.0 Z M297.0 404.0Q 244.0,404.0  206.0,371.0 T 164.0,288.0  L410.0 288.0Q 410.0,338.0  381.0,371.0 T 297.0,404.0 Z">
</path>
</defs>
<use x="2669.0" y="0" xlink:href="#g101/TT1"/>
<defs>
<path id="g110/TT1" d="M186.0 480.0 L186.0 403.0 L188.0 403.0Q 205.0,441.0  245.5,467.5 T 337.0,494.0 Q 425.0,494.0  469.5,437.5 T 514.0,300.0  L514.0 0 L394.0 0 L394.0 266.0Q 394.0,394.0  304.0,394.0 Q 250.0,394.0  221.0,355.5 T 192.0,264.0  L192.0 0 L72.0 0 L72.0 480.0 L186.0 480.0Z">
</path>
</defs>
<use x="3243.0" y="0" xlink:href="#g110/TT1"/>
<defs>
<path id="g100/TT1" d="M446.0 0 L446.0 72.0 L444.0 72.0Q 420.0,31.0  375.0,8.5 T 279.0,-14.0 Q 208.0,-14.0  154.5,20.5 T 72.0,113.5 T 43.0,242.0 Q 43.0,312.0  73.0,370.0 T 156.0,461.0 T 276.0,494.0 Q 377.0,494.0  437.0,419.0  L440.0 419.0 L440.0 756.0 L560.0 756.0 L560.0 0 L446.0 0Z M303.0 86.0Q 345.0,86.0  377.0,108.5 T 426.5,166.5 T 444.0,240.0 Q 444.0,278.0  426.5,314.5 T 377.0,373.5 T 303.0,396.0 Q 259.0,396.0  227.5,374.0 T 180.5,316.5 T 165.0,242.0 Q 165.0,203.0  180.5,167.0 T 227.5,108.5 T 259.0,86.0 Z">
</path>
</defs>
<use x="3825.0" y="0" xlink:href="#g100/TT1"/>
<defs>
<path id="g40/TT1" d="M182.0 732.0 L266.0 677.0Q 206.0,593.0  172.5,492.0 T 139.0,288.0 Q 139.0,185.0  172.5,84.0 T 266.0,-101.0  L182.0 -156.0Q 112.0,-60.0  74.0,54.0 T 36.0,288.0 Q 36.0,408.0  74.0,522.0 T 182.0,732.0 Z">
</path>
</defs>
<use x="4709.0" y="0" xlink:href="#g40/TT1"/>
<defs>
<path id="g109/TT1" d="M822.0 300.0 L822.0 0 L702.0 0 L702.0 266.0Q 702.0,394.0  612.0,394.0 Q 560.0,394.0  533.0,354.5 T 506.0,262.0  L506.0 0 L386.0 0 L386.0 290.0Q 386.0,337.0  363.5,365.5 T 297.0,394.0 Q 246.0,394.0  219.0,355.5 T 192.0,264.0  L192.0 0 L72.0 0 L72.0 480.0 L186.0 480.0 L186.0 403.0 L188.0 403.0Q 205.0,442.0  244.0,468.0 T 337.0,494.0 Q 390.0,494.0  428.0,470.0 T 487.0,403.0 Q 511.0,447.0  551.5,470.5 T 645.0,494.0 Q 733.0,494.0  777.5,437.5 T 822.0,300.0 Z">
</path>
</defs>
<use x="5039.0" y="0" xlink:href="#g109/TT1"/>
<defs>
<path id="g105/TT1" d="M133.0 715.0Q 166.0,715.0  188.5,694.5 T 211.0,643.0 Q 211.0,612.0  188.5,591.5 T 133.0,571.0 Q 101.0,571.0  79.0,592.5 T 57.0,643.0 Q 57.0,672.0  79.0,693.5 T 133.0,715.0 Z M74.0 480.0 L194.0 480.0 L194.0 0 L74.0 0 L74.0 480.0Z">
</path>
</defs>
<use x="5929.0" y="0" xlink:href="#g105/TT1"/>
<use x="6197.0" y="0" xlink:href="#g110/TT1"/>
<defs>
<path id="g41/TT1" d="M148.0 -156.0 L64.0 -101.0Q 124.0,-17.0  157.5,84.0 T 191.0,288.0 Q 191.0,391.0  157.5,492.0 T 64.0,677.0  L148.0 732.0Q 218.0,636.0  256.0,522.0 T 294.0,288.0 Q 294.0,168.0  256.0,54.0 T 148.0,-156.0 Z">
</path>
</defs>
<use x="6779.0" y="0" xlink:href="#g41/TT1"/>
</g>
<text x="23.65" y="814.38" font-size="10.5pt" font-family="Avenir Next for SAS" font-weight="bold" fill="#2a3037" text-anchor="start" opacity="0">
Last Send (min)</text>
<g fill="#43d09d" stroke="#43d09d" transform="translate(23.65 856.76) scale(0.04 -0.04)">
<defs>
<path id="g50/TT1" d="M342.0 378.0Q 378.0,413.0  396.0,445.5 T 414.0,517.0 Q 414.0,566.0  382.0,596.0 T 301.0,626.0 Q 251.0,626.0  219.5,592.5 T 181.0,505.0  L64.0 523.0Q 71.0,581.0  103.0,627.5 T 187.0,700.0 T 303.0,726.0 Q 366.0,726.0  420.0,702.0 T 506.5,631.0 T 539.0,519.0 Q 539.0,456.0  509.5,406.5 T 425.0,305.0  L221.0 110.0 L540.0 110.0 L540.0 0 L69.0 0 L69.0 110.0 L342.0 378.0Z">
</path>
</defs>
<use x="0" y="0" xlink:href="#g50/TT1"/>
<defs>
<path id="g46/TT1" d="M130.0 148.0Q 163.0,148.0  186.5,126.0 T 210.0,72.0 Q 210.0,40.0  186.5,17.0 T 130.0,-6.0 Q 98.0,-6.0  74.0,16.0 T 50.0,70.0 Q 50.0,102.0  73.5,125.0 T 130.0,148.0 Z">
</path>
</defs>
<use x="610.0" y="0" xlink:href="#g46/TT1"/>
<defs>
<path id="g57/TT1" d="M350.0 263.0 L349.0 264.0Q 335.0,258.0  314.0,254.5 T 273.0,251.0 Q 211.0,251.0  159.5,281.0 T 77.5,363.0 T 47.0,478.0 Q 47.0,551.0  81.0,607.5 T 174.0,695.0 T 305.0,726.0 Q 378.0,726.0  437.0,694.0 T 530.0,606.5 T 564.0,483.0 Q 564.0,426.0  546.5,380.5 T 491.0,274.0  L314.0 0 L168.0 0 L350.0 263.0Z M306.0 626.0Q 245.0,626.0  207.5,586.5 T 170.0,484.0 Q 170.0,424.0  207.0,385.0 T 304.0,346.0 Q 365.0,346.0  403.5,385.0 T 442.0,486.0 Q 442.0,523.0  425.0,555.0 T 377.0,606.5 T 346.0,626.0 Z">
</path>
</defs>
<use x="870.0" y="0" xlink:href="#g57/TT1"/>
</g>
<text x="23.65" y="856.76" font-size="30.0pt" font-family="Avenir Next for SAS" font-weight="bold" fill="#43d09d" text-anchor="start" opacity="0">
2.9</text>
<g fill="#2a3037" stroke="#2a3037" transform="translate(23.65 880.51) scale(0.014 -0.014)">
<defs>
<path id="g72/TT1" d="M78.0 708.0 L204.0 708.0 L204.0 422.0 L535.0 422.0 L535.0 708.0 L661.0 708.0 L661.0 0 L535.0 0 L535.0 314.0 L204.0 314.0 L204.0 0 L78.0 0 L78.0 708.0Z">
</path>
</defs>
<use x="0" y="0" xlink:href="#g72/TT1"/>
<use x="739.0" y="0" xlink:href="#g105/TT1"/>
<defs>
<path id="g118/TT1" d="M0 480.0 L131.0 480.0 L257.0 130.0 L259.0 130.0 L386.0 480.0 L513.0 480.0 L322.0 0 L194.0 0 L0 480.0Z">
</path>
</defs>
<use x="1007.0" y="0" xlink:href="#g118/TT1"/>
<use x="1520.0" y="0" xlink:href="#g101/TT1"/>
<use x="2094.0" y="0" xlink:href="#g115/TT1"/>
</g>
<text x="23.65" y="880.51" font-size="10.5pt" font-family="Avenir Next for SAS" font-weight="bold" fill="#2a3037" text-anchor="start" opacity="0">
Hives</text>
<g fill="#2a3037" stroke="#2a3037" transform="translate(59.18 880.51) scale(0.014 -0.014)">
<defs>
<path id="g58/TT1" d="M150.0 486.0Q 183.0,486.0  206.5,464.0 T 230.0,410.0 Q 230.0,378.0  206.5,355.0 T 150.0,332.0 Q 118.0,332.0  94.0,354.0 T 70.0,408.0 Q 70.0,440.0  93.5,463.0 T 150.0,486.0 Z M150.0 148.0Q 183.0,148.0  206.5,126.0 T 230.0,72.0 Q 230.0,40.0  206.5,17.0 T 150.0,-6.0 Q 118.0,-6.0  94.0,16.0 T 70.0,70.0 Q 70.0,102.0  93.5,125.0 T 150.0,148.0 Z">
</path>
</defs>
<use x="0" y="0" xlink:href="#g58/TT1"/>
</g>
<text x="59.18" y="880.51" font-size="10.5pt" font-family="Avenir Next for SAS" font-weight="bold" fill="#2a3037" text-anchor="start" opacity="0">
:</text>
<g fill="#626f80" stroke="#626f80" transform="translate(23.65 897.66) scale(0.014 -0.014)">
<use x="0" y="0" xlink:href="#g77/TT0"/>
<use x="886.0" y="0" xlink:href="#g97/TT0"/>
<use x="1420.0" y="0" xlink:href="#g115/TT0"/>
<use x="1864.0" y="0" xlink:href="#g99/TT0"/>
<use x="2364.0" y="0" xlink:href="#g104/TT0"/>
<use x="2947.0" y="0" xlink:href="#g97/TT0"/>
<use x="3731.0" y="0" xlink:href="#g79/TT0"/>
<use x="4581.0" y="0" xlink:href="#g117/TT0"/>
<use x="5162.0" y="0" xlink:href="#g100/TT0"/>
<use x="5799.0" y="0" xlink:href="#g45/TT0"/>
<use x="6119.0" y="0" xlink:href="#g76/TT0"/>
<use x="6629.0" y="0" xlink:href="#g111/TT0"/>
<use x="7240.0" y="0" xlink:href="#g111/TT0"/>
<use x="7851.0" y="0" xlink:href="#g115/TT0"/>
<use x="8295.0" y="0" xlink:href="#g100/TT0"/>
<use x="8932.0" y="0" xlink:href="#g114/TT0"/>
<use x="9292.0" y="0" xlink:href="#g101/TT0"/>
<use x="9864.0" y="0" xlink:href="#g99/TT0"/>
<use x="10364.0" y="0" xlink:href="#g104/TT0"/>
<use x="10947.0" y="0" xlink:href="#g116/TT0"/>
</g>
<text x="23.65" y="897.66" font-size="10.5pt" font-family="Avenir Next for SAS" fill="#626f80" text-anchor="start" opacity="0">
Mascha Oud-Loosdrecht</text>
</g>
</g>
</g>
</g>
</g>
<g transform=" translate(239.0 0)">
<rect x="0" y="134.6" rx="5" ry="5" width="1673.0" height="823.4" fill="#ffffff" opacity="0">
</rect>
<rect x="0" y="134.6" rx="5" ry="5" width="1673.0" height="823.4" fill="#ffffff" opacity="0">
</rect>
<rect x="0" y="134.6" rx="5" ry="5" width="1673.0" height="823.4" fill="#ffffff" opacity="0">
</rect>
<g transform=" translate(85.0 -202.0)">
<rect x="0" y="419.58" rx="5" ry="5" width="863.1" height="538.42" fill="#ffffff" opacity="0">
</rect>
<g transform=" translate(16.0 -500.0)">
<g transform="">
<g fill="#2a3037" stroke="#2a3037" transform="translate(0 953.5) scale(0.0177 -0.0177)">
<use x="0" y="0" xlink:href="#g65/TT0"/>
<use x="700.0" y="0" xlink:href="#g105/TT0"/>
<use x="950.0" y="0" xlink:href="#g114/TT0"/>
<use x="1560.0" y="0" xlink:href="#g80/TT0"/>
<use x="2140.0" y="0" xlink:href="#g114/TT0"/>
<use x="2500.0" y="0" xlink:href="#g101/TT0"/>
<use x="3072.0" y="0" xlink:href="#g115/TT0"/>
<use x="3516.0" y="0" xlink:href="#g115/TT0"/>
<use x="3960.0" y="0" xlink:href="#g117/TT0"/>
<use x="4541.0" y="0" xlink:href="#g114/TT0"/>
<use x="4901.0" y="0" xlink:href="#g101/TT0"/>
<use x="5723.0" y="0" xlink:href="#g98/TT0"/>
<use x="6360.0" y="0" xlink:href="#g121/TT0"/>
<use x="7098.0" y="0" xlink:href="#g68/TT0"/>
<use x="7855.0" y="0" xlink:href="#g97/TT0"/>
<use x="8389.0" y="0" xlink:href="#g116/TT0"/>
<use x="8706.0" y="0" xlink:href="#g101/TT0"/>
<use x="9528.0" y="0" xlink:href="#g116/TT0"/>
<use x="9845.0" y="0" xlink:href="#g105/TT0"/>
<use x="10095.0" y="0" xlink:href="#g109/TT0"/>
<use x="10978.0" y="0" xlink:href="#g101/TT0"/>
</g>
<text x="0" y="953.5" font-size="13.3pt" font-family="Avenir Next for SAS" fill="#2a3037" opacity="0">
Air Pressure by Date time</text>
</g>
</g>
<g transform=" translate(16.0 -16.0)">
<defs>
<clipPath id="ClipPath2">
<rect x="46" y="488" width="788" height="428">
</rect>
</clipPath>
</defs>
<g clip-path="url(#ClipPath2)">
<defs>
<clipPath id="ClipPath3">
<rect x="46" y="490" width="786" height="426">
</rect>
</clipPath>
</defs>
<g clip-path="url(#ClipPath3)">
<polyline id="Polyline_15" points="52.0,587.1  68.8,587.92  85.61,587.87  102.41,583.19  119.22,567.58  136.02,565.95  152.83,607.28  169.63,646.79  186.43,629.35  203.24,577.56  220.04,552.79  236.85,557.51  253.65,555.25  270.46,558.04  287.26,561.95  304.07,522.01  320.87,497.0  337.67,502.49  354.48,557.51  371.28,599.77  388.09,596.73  404.89,601.74  421.7,593.22  438.5,626.94  455.3,643.56  472.11,681.77  488.91,702.68  505.72,715.93  522.52,726.29  539.33,745.32  556.13,787.62  572.93,812.92  589.74,816.72  606.54,806.27  623.35,814.31  640.15,824.29  656.96,822.55  673.76,862.21  690.57,881.0  707.37,873.48  724.17,871.41  740.98,875.89  757.78,887.45  774.59,883.65  791.39,880.71  808.2,888.22  825.0,852.14 " fill="none" stroke="#287fc7" stroke-width="3.0">
</polyline>
</g>
<path d="M46.0 910.0L832.0 910.0" stroke="#2a3037" stroke-dasharray="1,2" fill="none" opacity="0.4">
</path>
<path d="M46.0 813.64L832.0 813.64" stroke="#2a3037" stroke-dasharray="1,2" fill="none" opacity="0.4">
</path>
<path d="M46.0 717.28L832.0 717.28" stroke="#2a3037" stroke-dasharray="1,2" fill="none" opacity="0.4">
</path>
<path d="M46.0 620.92L832.0 620.92" stroke="#2a3037" stroke-dasharray="1,2" fill="none" opacity="0.4">
</path>
<path d="M46.0 524.56L832.0 524.56" stroke="#2a3037" stroke-dasharray="1,2" fill="none" opacity="0.4">
</path>
<path d="M52.0 916.0L52.0 490.0" stroke="#2a3037" stroke-dasharray="1,2" fill="none" opacity="0.4">
</path>
<path d="M455.3 916.0L455.3 490.0" stroke="#2a3037" stroke-dasharray="1,2" fill="none" opacity="0.4">
</path>
</g>
<defs>
<clipPath id="ClipPath4">
<rect x="0" y="491" width="46" height="425">
</rect>
</clipPath>
</defs>
<g clip-path="url(#ClipPath4)">
<g fill="#626f80" stroke="#626f80" transform="translate(-0.76 913.3) scale(0.012 -0.012)">
<use x="0" y="0" xlink:href="#g49/TT0"/>
<use x="580.0" y="0" xlink:href="#g48/TT0"/>
<use x="1160.0" y="0" xlink:href="#g50/TT0"/>
<use x="1740.0" y="0" xlink:href="#g48/TT0"/>
<use x="2320.0" y="0" xlink:href="#g48/TT0"/>
<use x="2900.0" y="0" xlink:href="#g48/TT0"/>
</g>
<text id="Text_64" x="41.0" y="913.3" font-size="9.0pt" font-family="Avenir Next for SAS" fill="#626f80" text-anchor="end" opacity="0">
102000</text>
<g fill="#626f80" stroke="#626f80" transform="translate(-0.76 817.94) scale(0.012 -0.012)">
<use x="0" y="0" xlink:href="#g49/TT0"/>
<use x="580.0" y="0" xlink:href="#g48/TT0"/>
<use x="1160.0" y="0" xlink:href="#g50/TT0"/>
<use x="1740.0" y="0" xlink:href="#g50/TT0"/>
<use x="2320.0" y="0" xlink:href="#g48/TT0"/>
<use x="2900.0" y="0" xlink:href="#g48/TT0"/>
</g>
<text id="Text_65" x="41.0" y="817.94" font-size="9.0pt" font-family="Avenir Next for SAS" fill="#626f80" text-anchor="end" opacity="0">
102200</text>
<g fill="#626f80" stroke="#626f80" transform="translate(-0.76 721.58) scale(0.012 -0.012)">
<use x="0" y="0" xlink:href="#g49/TT0"/>
<use x="580.0" y="0" xlink:href="#g48/TT0"/>
<use x="1160.0" y="0" xlink:href="#g50/TT0"/>
<use x="1740.0" y="0" xlink:href="#g52/TT0"/>
<use x="2320.0" y="0" xlink:href="#g48/TT0"/>
<use x="2900.0" y="0" xlink:href="#g48/TT0"/>
</g>
<text id="Text_66" x="41.0" y="721.58" font-size="9.0pt" font-family="Avenir Next for SAS" fill="#626f80" text-anchor="end" opacity="0">
102400</text>
<g fill="#626f80" stroke="#626f80" transform="translate(-0.76 625.22) scale(0.012 -0.012)">
<use x="0" y="0" xlink:href="#g49/TT0"/>
<use x="580.0" y="0" xlink:href="#g48/TT0"/>
<use x="1160.0" y="0" xlink:href="#g50/TT0"/>
<defs>
<path id="g54/TT0" d="M203.0 397.0Q 218.0,409.0  247.0,416.0 T 304.0,423.0 Q 365.0,423.0  414.5,395.5 T 492.0,318.0 T 520.0,205.0 Q 520.0,140.0  490.5,89.5 T 408.5,10.5 T 290.0,-18.0 Q 224.0,-18.0  171.5,10.5 T 89.5,89.5 T 60.0,205.0 Q 60.0,255.0  77.0,301.5 T 124.0,397.0  L317.0 708.0 L400.0 708.0 L201.0 399.0 L203.0 397.0Z M290.0 43.0Q 336.0,43.0  372.0,64.0 T 428.0,122.0 T 448.0,205.0 Q 448.0,275.0  405.0,320.0 T 290.0,365.0 Q 218.0,365.0  175.0,320.0 T 132.0,205.0 Q 132.0,159.0  152.0,122.0 T 208.0,64.0 T 244.0,43.0 Z">
</path>
</defs>
<use x="1740.0" y="0" xlink:href="#g54/TT0"/>
<use x="2320.0" y="0" xlink:href="#g48/TT0"/>
<use x="2900.0" y="0" xlink:href="#g48/TT0"/>
</g>
<text id="Text_67" x="41.0" y="625.22" font-size="9.0pt" font-family="Avenir Next for SAS" fill="#626f80" text-anchor="end" opacity="0">
102600</text>
<g fill="#626f80" stroke="#626f80" transform="translate(-0.76 528.86) scale(0.012 -0.012)">
<use x="0" y="0" xlink:href="#g49/TT0"/>
<use x="580.0" y="0" xlink:href="#g48/TT0"/>
<use x="1160.0" y="0" xlink:href="#g50/TT0"/>
<use x="1740.0" y="0" xlink:href="#g56/TT0"/>
<use x="2320.0" y="0" xlink:href="#g48/TT0"/>
<use x="2900.0" y="0" xlink:href="#g48/TT0"/>
</g>
<text id="Text_68" x="41.0" y="528.86" font-size="9.0pt" font-family="Avenir Next for SAS" fill="#626f80" text-anchor="end" opacity="0">
102800</text>
</g>
<g fill="#2a3037" stroke="#2a3037" transform="translate(0 486.89) scale(0.014 -0.014)">
<defs>
<path id="g65/TT1" d="M300.0 708.0 L409.0 708.0 L714.0 0 L570.0 0 L504.0 162.0 L197.0 162.0 L133.0 0 L-8.0 0 L300.0 708.0Z M460.0 270.0 L351.0 558.0 L240.0 270.0 L460.0 270.0Z">
</path>
</defs>
<use x="0" y="0" xlink:href="#g65/TT1"/>
<use x="706.0" y="0" xlink:href="#g105/TT1"/>
<defs>
<path id="g114/TT1" d="M187.0 480.0 L187.0 400.0 L189.0 400.0Q 209.0,443.0  246.0,468.5 T 329.0,494.0 Q 346.0,494.0  358.0,491.0  L358.0 381.0Q 338.0,386.0  321.0,386.0 Q 272.0,386.0  243.0,363.0 T 203.0,310.5 T 192.0,257.0  L192.0 0 L72.0 0 L72.0 480.0 L187.0 480.0Z">
</path>
</defs>
<use x="974.0" y="0" xlink:href="#g114/TT1"/>
<defs>
<path id="g80/TT1" d="M309.0 708.0Q 576.0,708.0  576.0,503.0 Q 576.0,393.0  500.0,343.0 T 301.0,293.0  L204.0 293.0 L204.0 0 L78.0 0 L78.0 708.0 L309.0 708.0Z M449.0 503.0Q 449.0,560.0  407.5,581.0 T 296.0,602.0  L204.0 602.0 L204.0 399.0 L292.0 399.0Q 363.0,399.0  406.0,422.0 T 449.0,503.0 Z">
</path>
</defs>
<use x="1588.0" y="0" xlink:href="#g80/TT1"/>
<use x="2198.0" y="0" xlink:href="#g114/TT1"/>
<use x="2562.0" y="0" xlink:href="#g101/TT1"/>
<use x="3136.0" y="0" xlink:href="#g115/TT1"/>
<use x="3580.0" y="0" xlink:href="#g115/TT1"/>
<defs>
<path id="g117/TT1" d="M396.0 0 L396.0 77.0 L394.0 77.0Q 377.0,39.0  336.5,12.5 T 245.0,-14.0 Q 157.0,-14.0  112.5,42.5 T 68.0,180.0  L68.0 480.0 L188.0 480.0 L188.0 214.0Q 188.0,86.0  278.0,86.0 Q 332.0,86.0  361.0,124.5 T 390.0,216.0  L390.0 480.0 L510.0 480.0 L510.0 0 L396.0 0Z">
</path>
</defs>
<use x="4024.0" y="0" xlink:href="#g117/TT1"/>
<use x="4606.0" y="0" xlink:href="#g114/TT1"/>
<use x="4970.0" y="0" xlink:href="#g101/TT1"/>
</g>
<text id="Text_69" x="0" y="486.89" font-size="10.5pt" font-family="Avenir Next for SAS" font-weight="bold" fill="#2a3037" text-anchor="start" opacity="0">
Air Pressure</text>
<defs>
<clipPath id="ClipPath5">
<rect x="46" y="916" width="785" height="42">
</rect>
</clipPath>
</defs>
<g clip-path="url(#ClipPath5)">
<g fill="#626f80" stroke="#626f80" transform="translate(49.0 930.65) scale(0.012 -0.012)">
<use x="0" y="0" xlink:href="#g70/TT0"/>
<use x="562.0" y="0" xlink:href="#g101/TT0"/>
<use x="1134.0" y="0" xlink:href="#g98/TT0"/>
<use x="2021.0" y="0" xlink:href="#g49/TT0"/>
<use x="2601.0" y="0" xlink:href="#g55/TT0"/>
<use x="3181.0" y="0" xlink:href="#g44/TT0"/>
<use x="3691.0" y="0" xlink:href="#g50/TT0"/>
<use x="4271.0" y="0" xlink:href="#g48/TT0"/>
<use x="4851.0" y="0" xlink:href="#g50/TT0"/>
<use x="5431.0" y="0" xlink:href="#g53/TT0"/>
<use x="6011.0" y="0" xlink:href="#g44/TT0"/>
<use x="6521.0" y="0" xlink:href="#g49/TT0"/>
<use x="7101.0" y="0" xlink:href="#g50/TT0"/>
<use x="7681.0" y="0" xlink:href="#g58/TT0"/>
<use x="7981.0" y="0" xlink:href="#g48/TT0"/>
<use x="8561.0" y="0" xlink:href="#g48/TT0"/>
<use x="9141.0" y="0" xlink:href="#g58/TT0"/>
<use x="9441.0" y="0" xlink:href="#g48/TT0"/>
<use x="10021.0" y="0" xlink:href="#g48/TT0"/>
<use x="10851.0" y="0" xlink:href="#g65/TT0"/>
<use x="11551.0" y="0" xlink:href="#g77/TT0"/>
</g>
<text id="Text_71" x="123.0" y="930.65" font-size="9.0pt" font-family="Avenir Next for SAS" fill="#626f80" text-anchor="middle" opacity="0">
Feb 17, 2025, 12:00:00 AM</text>
<g fill="#626f80" stroke="#626f80" transform="translate(381.3 930.65) scale(0.012 -0.012)">
<use x="0" y="0" xlink:href="#g70/TT0"/>
<use x="562.0" y="0" xlink:href="#g101/TT0"/>
<use x="1134.0" y="0" xlink:href="#g98/TT0"/>
<use x="2021.0" y="0" xlink:href="#g49/TT0"/>
<defs>
<path id="g57/TT0" d="M379.0 311.0Q 364.0,299.0  335.0,292.0 T 278.0,285.0 Q 217.0,285.0  167.5,312.5 T 90.0,390.0 T 62.0,503.0 Q 62.0,568.0  91.5,618.5 T 173.5,697.5 T 292.0,726.0 Q 358.0,726.0  410.5,697.5 T 492.5,618.5 T 522.0,503.0 Q 522.0,453.0  505.0,406.5 T 458.0,311.0  L265.0 0 L182.0 0 L381.0 309.0 L379.0 311.0Z M292.0 665.0Q 246.0,665.0  210.0,644.0 T 154.0,586.0 T 134.0,503.0 Q 134.0,433.0  177.0,388.0 T 292.0,343.0 Q 364.0,343.0  407.0,388.0 T 450.0,503.0 Q 450.0,549.0  430.0,586.0 T 374.0,644.0 T 338.0,665.0 Z">
</path>
</defs>
<use x="2601.0" y="0" xlink:href="#g57/TT0"/>
<use x="3181.0" y="0" xlink:href="#g44/TT0"/>
<use x="3691.0" y="0" xlink:href="#g50/TT0"/>
<use x="4271.0" y="0" xlink:href="#g48/TT0"/>
<use x="4851.0" y="0" xlink:href="#g50/TT0"/>
<use x="5431.0" y="0" xlink:href="#g53/TT0"/>
<use x="6011.0" y="0" xlink:href="#g44/TT0"/>
<use x="6521.0" y="0" xlink:href="#g49/TT0"/>
<use x="7101.0" y="0" xlink:href="#g50/TT0"/>
<use x="7681.0" y="0" xlink:href="#g58/TT0"/>
<use x="7981.0" y="0" xlink:href="#g48/TT0"/>
<use x="8561.0" y="0" xlink:href="#g48/TT0"/>
<use x="9141.0" y="0" xlink:href="#g58/TT0"/>
<use x="9441.0" y="0" xlink:href="#g48/TT0"/>
<use x="10021.0" y="0" xlink:href="#g48/TT0"/>
<use x="10851.0" y="0" xlink:href="#g65/TT0"/>
<use x="11551.0" y="0" xlink:href="#g77/TT0"/>
</g>
<text id="Text_72" x="455.3" y="930.65" font-size="9.0pt" font-family="Avenir Next for SAS" fill="#626f80" text-anchor="middle" opacity="0">
Feb 19, 2025, 12:00:00 AM</text>
</g>
<g fill="#2a3037" stroke="#2a3037" transform="translate(407.5 954.44) scale(0.014 -0.014)">
<defs>
<path id="g68/TT1" d="M329.0 708.0Q 430.0,708.0  518.5,673.0 T 663.5,558.5 T 720.0,354.0 Q 720.0,237.0  663.0,157.0 T 516.5,38.5 T 329.0,0  L78.0 0 L78.0 708.0 L329.0 708.0Z M585.0 354.0Q 585.0,492.0  506.0,546.0 T 309.0,600.0  L204.0 600.0 L204.0 110.0 L309.0 110.0Q 424.0,110.0  504.5,166.5 T 585.0,354.0 Z">
</path>
</defs>
<use x="0" y="0" xlink:href="#g68/TT1"/>
<use x="764.0" y="0" xlink:href="#g97/TT1"/>
<use x="1314.0" y="0" xlink:href="#g116/TT1"/>
<use x="1654.0" y="0" xlink:href="#g101/TT1"/>
<use x="2478.0" y="0" xlink:href="#g116/TT1"/>
<use x="2818.0" y="0" xlink:href="#g105/TT1"/>
<use x="3086.0" y="0" xlink:href="#g109/TT1"/>
<use x="3976.0" y="0" xlink:href="#g101/TT1"/>
</g>
<text id="Text_73" x="438.5" y="954.44" font-size="10.5pt" font-family="Avenir Next for SAS" font-weight="bold" fill="#2a3037" text-anchor="middle" opacity="0">
Date time</text>
</g>
</g>
<g transform=" translate(1003.0 0)">
<rect x="0" y="216.94" rx="5" ry="5" width="609.64" height="741.06" fill="#ffffff" opacity="0">
</rect>
<g transform=" translate(16.0 -16.0)">
<g transform="">
<g fill="#2a3037" stroke="#2a3037" transform="translate(0 276.99) scale(0.0289 -0.0289)">
<use x="0" y="0" xlink:href="#g65/TT0"/>
<use x="700.0" y="0" xlink:href="#g105/TT0"/>
<use x="950.0" y="0" xlink:href="#g114/TT0"/>
<use x="1560.0" y="0" xlink:href="#g80/TT0"/>
<use x="2140.0" y="0" xlink:href="#g114/TT0"/>
<use x="2500.0" y="0" xlink:href="#g101/TT0"/>
<use x="3072.0" y="0" xlink:href="#g115/TT0"/>
<use x="3516.0" y="0" xlink:href="#g115/TT0"/>
<use x="3960.0" y="0" xlink:href="#g117/TT0"/>
<use x="4541.0" y="0" xlink:href="#g114/TT0"/>
<use x="4901.0" y="0" xlink:href="#g101/TT0"/>
</g>
<text x="0" y="276.99" font-size="21.7pt" font-family="Avenir Next for SAS" fill="#2a3037" opacity="0">
Air Pressure</text>
<g fill="#2a3037" stroke="#2a3037" transform="translate(0 320.18) scale(0.021 -0.021)">
<use x="0" y="0" xlink:href="#g65/TT0"/>
<use x="700.0" y="0" xlink:href="#g105/TT0"/>
<use x="950.0" y="0" xlink:href="#g114/TT0"/>
<defs>
<path id="g112/TT0" d="M90.0 -240.0 L90.0 468.0 L158.0 468.0 L158.0 387.0 L161.0 387.0Q 189.0,431.0  237.0,455.5 T 337.0,480.0 Q 408.0,480.0  463.5,447.5 T 549.0,359.0 T 579.0,234.0 Q 579.0,165.0  549.0,109.0 T 463.5,20.5 T 337.0,-12.0 Q 286.0,-12.0  238.0,12.0 T 161.0,79.0  L158.0 79.0 L158.0 -240.0 L90.0 -240.0Z M330.0 423.0Q 278.0,423.0  237.0,398.0 T 173.0,330.0 T 150.0,234.0 Q 150.0,181.0  173.0,138.0 T 237.0,70.5 T 330.0,46.0 Q 385.0,46.0  425.0,71.0 T 486.0,138.5 T 507.0,234.0 Q 507.0,287.0  486.0,330.0 T 425.0,398.0 T 385.0,423.0 Z">
</path>
</defs>
<use x="1560.0" y="0" xlink:href="#g112/TT0"/>
<use x="2195.0" y="0" xlink:href="#g114/TT0"/>
<use x="2555.0" y="0" xlink:href="#g101/TT0"/>
<use x="3127.0" y="0" xlink:href="#g115/TT0"/>
<use x="3571.0" y="0" xlink:href="#g115/TT0"/>
<use x="4015.0" y="0" xlink:href="#g117/TT0"/>
<use x="4596.0" y="0" xlink:href="#g114/TT0"/>
<use x="4956.0" y="0" xlink:href="#g101/TT0"/>
<use x="5778.0" y="0" xlink:href="#g112/TT0"/>
<defs>
<path id="g108/TT0" d="M160.0 0 L92.0 0 L92.0 756.0 L160.0 756.0 L160.0 0Z">
</path>
</defs>
<use x="6413.0" y="0" xlink:href="#g108/TT0"/>
<use x="6665.0" y="0" xlink:href="#g97/TT0"/>
<use x="7199.0" y="0" xlink:href="#g121/TT0"/>
<use x="7687.0" y="0" xlink:href="#g115/TT0"/>
<use x="8381.0" y="0" xlink:href="#g97/TT0"/>
<use x="8915.0" y="0" xlink:href="#g110/TT0"/>
<use x="9746.0" y="0" xlink:href="#g105/TT0"/>
<use x="9996.0" y="0" xlink:href="#g109/TT0"/>
<use x="10879.0" y="0" xlink:href="#g112/TT0"/>
<use x="11514.0" y="0" xlink:href="#g111/TT0"/>
<use x="12125.0" y="0" xlink:href="#g114/TT0"/>
<use x="12485.0" y="0" xlink:href="#g116/TT0"/>
<use x="12802.0" y="0" xlink:href="#g97/TT0"/>
<use x="13336.0" y="0" xlink:href="#g110/TT0"/>
<use x="13917.0" y="0" xlink:href="#g116/TT0"/>
<use x="14484.0" y="0" xlink:href="#g114/TT0"/>
<use x="14844.0" y="0" xlink:href="#g111/TT0"/>
<use x="15455.0" y="0" xlink:href="#g108/TT0"/>
<use x="15707.0" y="0" xlink:href="#g101/TT0"/>
<use x="16529.0" y="0" xlink:href="#g105/TT0"/>
<use x="16779.0" y="0" xlink:href="#g110/TT0"/>
<use x="17610.0" y="0" xlink:href="#g98/TT0"/>
<use x="18247.0" y="0" xlink:href="#g101/TT0"/>
<use x="18819.0" y="0" xlink:href="#g101/TT0"/>
<use x="19641.0" y="0" xlink:href="#g98/TT0"/>
<use x="20278.0" y="0" xlink:href="#g101/TT0"/>
<use x="20850.0" y="0" xlink:href="#g104/TT0"/>
<use x="21433.0" y="0" xlink:href="#g97/TT0"/>
<use x="21967.0" y="0" xlink:href="#g118/TT0"/>
<use x="22455.0" y="0" xlink:href="#g105/TT0"/>
<use x="22705.0" y="0" xlink:href="#g111/TT0"/>
<use x="23316.0" y="0" xlink:href="#g114/TT0"/>
<use x="23926.0" y="0" xlink:href="#g97/TT0"/>
<use x="24460.0" y="0" xlink:href="#g110/TT0"/>
<use x="25041.0" y="0" xlink:href="#g100/TT0"/>
</g>
<text x="0" y="320.18" font-size="15.8pt" font-family="Avenir Next for SAS" fill="#2a3037" opacity="0">
Air pressure plays an important role in bee behavior and</text>
<g fill="#2a3037" stroke="#2a3037" transform="translate(0 345.92) scale(0.021 -0.021)">
<defs>
<path id="g102/TT0" d="M178.0 411.0 L178.0 0 L110.0 0 L110.0 411.0 L12.0 411.0 L12.0 468.0 L110.0 468.0 L110.0 596.0Q 110.0,677.0  150.0,722.5 T 269.0,768.0 Q 301.0,768.0  325.0,761.0  L313.0 701.0Q 289.0,708.0  266.0,708.0 Q 215.0,708.0  196.5,677.0 T 178.0,588.0  L178.0 468.0 L288.0 468.0 L288.0 411.0 L178.0 411.0Z">
</path>
</defs>
<use x="0" y="0" xlink:href="#g102/TT0"/>
<use x="295.0" y="0" xlink:href="#g111/TT0"/>
<use x="906.0" y="0" xlink:href="#g114/TT0"/>
<use x="1266.0" y="0" xlink:href="#g97/TT0"/>
<defs>
<path id="g103/TT0" d="M294.0 -180.0Q 389.0,-180.0  433.0,-129.0 T 477.0,4.0  L477.0 92.0 L475.0 92.0Q 449.0,50.0  399.5,25.0 T 298.0,0 Q 226.0,0  171.0,30.5 T 86.0,115.5 T 56.0,238.0 Q 56.0,305.0  86.5,360.0 T 172.0,447.5 T 298.0,480.0 Q 351.0,480.0  399.5,455.5 T 475.0,387.0  L477.0 387.0 L477.0 468.0 L545.0 468.0 L545.0 4.0Q 545.0,-56.0  523.0,-110.5 T 444.0,-202.5 T 291.0,-240.0 Q 227.0,-240.0  167.5,-215.0 T 66.0,-146.0  L115.0 -94.0Q 144.0,-131.0  193.0,-155.5 T 294.0,-180.0 Z M305.0 58.0Q 357.0,58.0  398.0,81.0 T 462.0,145.5 T 485.0,240.0 Q 485.0,289.0  461.5,331.0 T 397.0,398.0 T 305.0,423.0 Q 250.0,423.0  210.0,398.0 T 149.0,331.5 T 128.0,240.0 Q 128.0,190.0  149.0,148.5 T 210.0,82.5 T 250.0,58.0 Z">
</path>
</defs>
<use x="1800.0" y="0" xlink:href="#g103/TT0"/>
<use x="2432.0" y="0" xlink:href="#g105/TT0"/>
<use x="2682.0" y="0" xlink:href="#g110/TT0"/>
<use x="3263.0" y="0" xlink:href="#g103/TT0"/>
<use x="4145.0" y="0" xlink:href="#g101/TT0"/>
<use x="4717.0" y="0" xlink:href="#g102/TT0"/>
<use x="5012.0" y="0" xlink:href="#g102/TT0"/>
<use x="5307.0" y="0" xlink:href="#g105/TT0"/>
<use x="5557.0" y="0" xlink:href="#g99/TT0"/>
<use x="6057.0" y="0" xlink:href="#g105/TT0"/>
<use x="6307.0" y="0" xlink:href="#g101/TT0"/>
<use x="6879.0" y="0" xlink:href="#g110/TT0"/>
<use x="7460.0" y="0" xlink:href="#g99/TT0"/>
<use x="7960.0" y="0" xlink:href="#g121/TT0"/>
<defs>
<path id="g46/TT0" d="M130.0 -6.0Q 107.0,-6.0  91.5,10.0 T 76.0,48.0 Q 76.0,70.0  91.5,86.0 T 130.0,102.0 Q 153.0,102.0  168.5,86.0 T 184.0,48.0 Q 184.0,26.0  168.5,10.0 T 130.0,-6.0 Z">
</path>
</defs>
<use x="8448.0" y="0" xlink:href="#g46/TT0"/>
<use x="8958.0" y="0" xlink:href="#g66/TT0"/>
<use x="9594.0" y="0" xlink:href="#g101/TT0"/>
<use x="10166.0" y="0" xlink:href="#g101/TT0"/>
<use x="10738.0" y="0" xlink:href="#g115/TT0"/>
<use x="11432.0" y="0" xlink:href="#g97/TT0"/>
<use x="11966.0" y="0" xlink:href="#g114/TT0"/>
<use x="12326.0" y="0" xlink:href="#g101/TT0"/>
<use x="13148.0" y="0" xlink:href="#g104/TT0"/>
<use x="13731.0" y="0" xlink:href="#g105/TT0"/>
<use x="13981.0" y="0" xlink:href="#g103/TT0"/>
<use x="14613.0" y="0" xlink:href="#g104/TT0"/>
<use x="15196.0" y="0" xlink:href="#g108/TT0"/>
<use x="15448.0" y="0" xlink:href="#g121/TT0"/>
<use x="16186.0" y="0" xlink:href="#g115/TT0"/>
<use x="16630.0" y="0" xlink:href="#g101/TT0"/>
<use x="17202.0" y="0" xlink:href="#g110/TT0"/>
<use x="17783.0" y="0" xlink:href="#g115/TT0"/>
<use x="18227.0" y="0" xlink:href="#g105/TT0"/>
<use x="18477.0" y="0" xlink:href="#g116/TT0"/>
<use x="18794.0" y="0" xlink:href="#g105/TT0"/>
<use x="19044.0" y="0" xlink:href="#g118/TT0"/>
<use x="19532.0" y="0" xlink:href="#g101/TT0"/>
<use x="20354.0" y="0" xlink:href="#g116/TT0"/>
<use x="20671.0" y="0" xlink:href="#g111/TT0"/>
<use x="21532.0" y="0" xlink:href="#g99/TT0"/>
<use x="22032.0" y="0" xlink:href="#g104/TT0"/>
<use x="22615.0" y="0" xlink:href="#g97/TT0"/>
<use x="23149.0" y="0" xlink:href="#g110/TT0"/>
<use x="23730.0" y="0" xlink:href="#g103/TT0"/>
<use x="24362.0" y="0" xlink:href="#g101/TT0"/>
<use x="24934.0" y="0" xlink:href="#g115/TT0"/>
<use x="25628.0" y="0" xlink:href="#g105/TT0"/>
<use x="25878.0" y="0" xlink:href="#g110/TT0"/>
</g>
<text x="0" y="345.92" font-size="15.8pt" font-family="Avenir Next for SAS" fill="#2a3037" opacity="0">
foraging efficiency. Bees are highly sensitive to changes in</text>
<g fill="#2a3037" stroke="#2a3037" transform="translate(0 371.66) scale(0.021 -0.021)">
<use x="0" y="0" xlink:href="#g97/TT0"/>
<use x="534.0" y="0" xlink:href="#g116/TT0"/>
<use x="851.0" y="0" xlink:href="#g109/TT0"/>
<use x="1734.0" y="0" xlink:href="#g111/TT0"/>
<use x="2345.0" y="0" xlink:href="#g115/TT0"/>
<use x="2789.0" y="0" xlink:href="#g112/TT0"/>
<use x="3424.0" y="0" xlink:href="#g104/TT0"/>
<use x="4007.0" y="0" xlink:href="#g101/TT0"/>
<use x="4579.0" y="0" xlink:href="#g114/TT0"/>
<use x="4939.0" y="0" xlink:href="#g105/TT0"/>
<use x="5189.0" y="0" xlink:href="#g99/TT0"/>
<use x="5939.0" y="0" xlink:href="#g112/TT0"/>
<use x="6574.0" y="0" xlink:href="#g114/TT0"/>
<use x="6934.0" y="0" xlink:href="#g101/TT0"/>
<use x="7506.0" y="0" xlink:href="#g115/TT0"/>
<use x="7950.0" y="0" xlink:href="#g115/TT0"/>
<use x="8394.0" y="0" xlink:href="#g117/TT0"/>
<use x="8975.0" y="0" xlink:href="#g114/TT0"/>
<use x="9335.0" y="0" xlink:href="#g101/TT0"/>
<use x="9907.0" y="0" xlink:href="#g44/TT0"/>
<use x="10417.0" y="0" xlink:href="#g111/TT0"/>
<use x="11028.0" y="0" xlink:href="#g102/TT0"/>
<use x="11323.0" y="0" xlink:href="#g116/TT0"/>
<use x="11640.0" y="0" xlink:href="#g101/TT0"/>
<use x="12212.0" y="0" xlink:href="#g110/TT0"/>
<use x="13043.0" y="0" xlink:href="#g114/TT0"/>
<use x="13403.0" y="0" xlink:href="#g101/TT0"/>
<use x="13975.0" y="0" xlink:href="#g100/TT0"/>
<use x="14612.0" y="0" xlink:href="#g117/TT0"/>
<use x="15193.0" y="0" xlink:href="#g99/TT0"/>
<use x="15693.0" y="0" xlink:href="#g105/TT0"/>
<use x="15943.0" y="0" xlink:href="#g110/TT0"/>
<use x="16524.0" y="0" xlink:href="#g103/TT0"/>
<use x="17406.0" y="0" xlink:href="#g116/TT0"/>
<use x="17723.0" y="0" xlink:href="#g104/TT0"/>
<use x="18306.0" y="0" xlink:href="#g101/TT0"/>
<use x="18878.0" y="0" xlink:href="#g105/TT0"/>
<use x="19128.0" y="0" xlink:href="#g114/TT0"/>
<use x="19738.0" y="0" xlink:href="#g97/TT0"/>
<use x="20272.0" y="0" xlink:href="#g99/TT0"/>
<use x="20772.0" y="0" xlink:href="#g116/TT0"/>
<use x="21089.0" y="0" xlink:href="#g105/TT0"/>
<use x="21339.0" y="0" xlink:href="#g118/TT0"/>
<use x="21827.0" y="0" xlink:href="#g105/TT0"/>
<use x="22077.0" y="0" xlink:href="#g116/TT0"/>
<use x="22394.0" y="0" xlink:href="#g121/TT0"/>
<use x="23132.0" y="0" xlink:href="#g98/TT0"/>
<use x="23769.0" y="0" xlink:href="#g101/TT0"/>
<use x="24341.0" y="0" xlink:href="#g102/TT0"/>
<use x="24636.0" y="0" xlink:href="#g111/TT0"/>
<use x="25247.0" y="0" xlink:href="#g114/TT0"/>
<use x="25607.0" y="0" xlink:href="#g101/TT0"/>
</g>
<text x="0" y="371.66" font-size="15.8pt" font-family="Avenir Next for SAS" fill="#2a3037" opacity="0">
atmospheric pressure, often reducing their activity before</text>
<g fill="#2a3037" stroke="#2a3037" transform="translate(0 397.41) scale(0.021 -0.021)">
<use x="0" y="0" xlink:href="#g115/TT0"/>
<use x="444.0" y="0" xlink:href="#g116/TT0"/>
<use x="761.0" y="0" xlink:href="#g111/TT0"/>
<use x="1372.0" y="0" xlink:href="#g114/TT0"/>
<use x="1732.0" y="0" xlink:href="#g109/TT0"/>
<use x="2615.0" y="0" xlink:href="#g115/TT0"/>
<use x="3309.0" y="0" xlink:href="#g111/TT0"/>
<use x="3920.0" y="0" xlink:href="#g114/TT0"/>
<use x="4530.0" y="0" xlink:href="#g112/TT0"/>
<use x="5165.0" y="0" xlink:href="#g101/TT0"/>
<use x="5737.0" y="0" xlink:href="#g114/TT0"/>
<use x="6097.0" y="0" xlink:href="#g105/TT0"/>
<use x="6347.0" y="0" xlink:href="#g111/TT0"/>
<use x="6958.0" y="0" xlink:href="#g100/TT0"/>
<use x="7595.0" y="0" xlink:href="#g115/TT0"/>
<use x="8289.0" y="0" xlink:href="#g111/TT0"/>
<use x="8900.0" y="0" xlink:href="#g102/TT0"/>
<use x="9445.0" y="0" xlink:href="#g108/TT0"/>
<use x="9697.0" y="0" xlink:href="#g111/TT0"/>
<defs>
<path id="g119/TT0" d="M99.0 468.0 L212.0 88.0 L214.0 88.0 L340.0 468.0 L406.0 468.0 L534.0 88.0 L536.0 88.0 L648.0 468.0 L720.0 468.0 L572.0 0 L498.0 0 L373.0 379.0 L371.0 379.0 L248.0 0 L174.0 0 L26.0 468.0 L99.0 468.0Z">
</path>
</defs>
<use x="10308.0" y="0" xlink:href="#g119/TT0"/>
<use x="11304.0" y="0" xlink:href="#g112/TT0"/>
<use x="11939.0" y="0" xlink:href="#g114/TT0"/>
<use x="12299.0" y="0" xlink:href="#g101/TT0"/>
<use x="12871.0" y="0" xlink:href="#g115/TT0"/>
<use x="13315.0" y="0" xlink:href="#g115/TT0"/>
<use x="13759.0" y="0" xlink:href="#g117/TT0"/>
<use x="14340.0" y="0" xlink:href="#g114/TT0"/>
<use x="14700.0" y="0" xlink:href="#g101/TT0"/>
<use x="15272.0" y="0" xlink:href="#g46/TT0"/>
<use x="15782.0" y="0" xlink:href="#g65/TT0"/>
<use x="16732.0" y="0" xlink:href="#g115/TT0"/>
<use x="17176.0" y="0" xlink:href="#g117/TT0"/>
<use x="17757.0" y="0" xlink:href="#g100/TT0"/>
<use x="18394.0" y="0" xlink:href="#g100/TT0"/>
<use x="19031.0" y="0" xlink:href="#g101/TT0"/>
<use x="19603.0" y="0" xlink:href="#g110/TT0"/>
<use x="20434.0" y="0" xlink:href="#g100/TT0"/>
<use x="21071.0" y="0" xlink:href="#g114/TT0"/>
<use x="21431.0" y="0" xlink:href="#g111/TT0"/>
<use x="22042.0" y="0" xlink:href="#g112/TT0"/>
<use x="22927.0" y="0" xlink:href="#g105/TT0"/>
<use x="23177.0" y="0" xlink:href="#g110/TT0"/>
</g>
<text x="0" y="397.41" font-size="15.8pt" font-family="Avenir Next for SAS" fill="#2a3037" opacity="0">
storms or periods of low pressure. A sudden drop in</text>
<g fill="#2a3037" stroke="#2a3037" transform="translate(0 423.15) scale(0.021 -0.021)">
<use x="0" y="0" xlink:href="#g112/TT0"/>
<use x="635.0" y="0" xlink:href="#g114/TT0"/>
<use x="995.0" y="0" xlink:href="#g101/TT0"/>
<use x="1567.0" y="0" xlink:href="#g115/TT0"/>
<use x="2011.0" y="0" xlink:href="#g115/TT0"/>
<use x="2455.0" y="0" xlink:href="#g117/TT0"/>
<use x="3036.0" y="0" xlink:href="#g114/TT0"/>
<use x="3396.0" y="0" xlink:href="#g101/TT0"/>
<use x="4218.0" y="0" xlink:href="#g115/TT0"/>
<use x="4662.0" y="0" xlink:href="#g105/TT0"/>
<use x="4912.0" y="0" xlink:href="#g103/TT0"/>
<use x="5544.0" y="0" xlink:href="#g110/TT0"/>
<use x="6125.0" y="0" xlink:href="#g97/TT0"/>
<use x="6659.0" y="0" xlink:href="#g108/TT0"/>
<use x="6911.0" y="0" xlink:href="#g115/TT0"/>
<use x="7605.0" y="0" xlink:href="#g105/TT0"/>
<use x="7855.0" y="0" xlink:href="#g110/TT0"/>
<use x="8436.0" y="0" xlink:href="#g99/TT0"/>
<use x="8936.0" y="0" xlink:href="#g111/TT0"/>
<use x="9547.0" y="0" xlink:href="#g109/TT0"/>
<use x="10430.0" y="0" xlink:href="#g105/TT0"/>
<use x="10680.0" y="0" xlink:href="#g110/TT0"/>
<use x="11261.0" y="0" xlink:href="#g103/TT0"/>
<use x="12143.0" y="0" xlink:href="#g98/TT0"/>
<use x="12780.0" y="0" xlink:href="#g97/TT0"/>
<use x="13314.0" y="0" xlink:href="#g100/TT0"/>
<use x="14201.0" y="0" xlink:href="#g119/TT0"/>
<use x="14947.0" y="0" xlink:href="#g101/TT0"/>
<use x="15519.0" y="0" xlink:href="#g97/TT0"/>
<use x="16053.0" y="0" xlink:href="#g116/TT0"/>
<use x="16370.0" y="0" xlink:href="#g104/TT0"/>
<use x="16953.0" y="0" xlink:href="#g101/TT0"/>
<use x="17525.0" y="0" xlink:href="#g114/TT0"/>
<use x="17885.0" y="0" xlink:href="#g44/TT0"/>
<use x="18395.0" y="0" xlink:href="#g112/TT0"/>
<use x="19030.0" y="0" xlink:href="#g114/TT0"/>
<use x="19390.0" y="0" xlink:href="#g111/TT0"/>
<use x="20001.0" y="0" xlink:href="#g109/TT0"/>
<use x="20884.0" y="0" xlink:href="#g112/TT0"/>
<use x="21519.0" y="0" xlink:href="#g116/TT0"/>
<use x="21836.0" y="0" xlink:href="#g105/TT0"/>
<use x="22086.0" y="0" xlink:href="#g110/TT0"/>
<use x="22667.0" y="0" xlink:href="#g103/TT0"/>
<use x="23549.0" y="0" xlink:href="#g98/TT0"/>
<use x="24186.0" y="0" xlink:href="#g101/TT0"/>
<use x="24758.0" y="0" xlink:href="#g101/TT0"/>
<use x="25330.0" y="0" xlink:href="#g115/TT0"/>
<use x="26024.0" y="0" xlink:href="#g116/TT0"/>
<use x="26341.0" y="0" xlink:href="#g111/TT0"/>
</g>
<text x="0" y="423.15" font-size="15.8pt" font-family="Avenir Next for SAS" fill="#2a3037" opacity="0">
pressure signals incoming bad weather, prompting bees to</text>
<g fill="#2a3037" stroke="#2a3037" transform="translate(0 448.89) scale(0.021 -0.021)">
<use x="0" y="0" xlink:href="#g115/TT0"/>
<use x="444.0" y="0" xlink:href="#g116/TT0"/>
<use x="761.0" y="0" xlink:href="#g97/TT0"/>
<use x="1295.0" y="0" xlink:href="#g121/TT0"/>
<use x="2033.0" y="0" xlink:href="#g99/TT0"/>
<use x="2533.0" y="0" xlink:href="#g108/TT0"/>
<use x="2785.0" y="0" xlink:href="#g111/TT0"/>
<use x="3396.0" y="0" xlink:href="#g115/TT0"/>
<use x="3840.0" y="0" xlink:href="#g101/TT0"/>
<use x="4662.0" y="0" xlink:href="#g116/TT0"/>
<use x="4979.0" y="0" xlink:href="#g111/TT0"/>
<use x="5840.0" y="0" xlink:href="#g116/TT0"/>
<use x="6157.0" y="0" xlink:href="#g104/TT0"/>
<use x="6740.0" y="0" xlink:href="#g101/TT0"/>
<use x="7562.0" y="0" xlink:href="#g104/TT0"/>
<use x="8145.0" y="0" xlink:href="#g105/TT0"/>
<use x="8395.0" y="0" xlink:href="#g118/TT0"/>
<use x="8883.0" y="0" xlink:href="#g101/TT0"/>
<use x="9705.0" y="0" xlink:href="#g97/TT0"/>
<use x="10239.0" y="0" xlink:href="#g110/TT0"/>
<use x="10820.0" y="0" xlink:href="#g100/TT0"/>
<use x="11707.0" y="0" xlink:href="#g97/TT0"/>
<use x="12241.0" y="0" xlink:href="#g118/TT0"/>
<use x="12729.0" y="0" xlink:href="#g111/TT0"/>
<use x="13340.0" y="0" xlink:href="#g105/TT0"/>
<use x="13590.0" y="0" xlink:href="#g100/TT0"/>
<use x="14477.0" y="0" xlink:href="#g103/TT0"/>
<use x="15109.0" y="0" xlink:href="#g101/TT0"/>
<use x="15681.0" y="0" xlink:href="#g116/TT0"/>
<use x="15998.0" y="0" xlink:href="#g116/TT0"/>
<use x="16315.0" y="0" xlink:href="#g105/TT0"/>
<use x="16565.0" y="0" xlink:href="#g110/TT0"/>
<use x="17146.0" y="0" xlink:href="#g103/TT0"/>
<use x="18028.0" y="0" xlink:href="#g99/TT0"/>
<use x="18528.0" y="0" xlink:href="#g97/TT0"/>
<use x="19062.0" y="0" xlink:href="#g117/TT0"/>
<use x="19643.0" y="0" xlink:href="#g103/TT0"/>
<use x="20275.0" y="0" xlink:href="#g104/TT0"/>
<use x="20858.0" y="0" xlink:href="#g116/TT0"/>
<use x="21425.0" y="0" xlink:href="#g105/TT0"/>
<use x="21675.0" y="0" xlink:href="#g110/TT0"/>
<use x="22506.0" y="0" xlink:href="#g114/TT0"/>
<use x="22866.0" y="0" xlink:href="#g97/TT0"/>
<use x="23400.0" y="0" xlink:href="#g105/TT0"/>
<use x="23650.0" y="0" xlink:href="#g110/TT0"/>
<use x="24481.0" y="0" xlink:href="#g111/TT0"/>
<use x="25092.0" y="0" xlink:href="#g114/TT0"/>
</g>
<text x="0" y="448.89" font-size="15.8pt" font-family="Avenir Next for SAS" fill="#2a3037" opacity="0">
stay close to the hive and avoid getting caught in rain or</text>
<g fill="#2a3037" stroke="#2a3037" transform="translate(0 474.63) scale(0.021 -0.021)">
<use x="0" y="0" xlink:href="#g115/TT0"/>
<use x="444.0" y="0" xlink:href="#g116/TT0"/>
<use x="761.0" y="0" xlink:href="#g114/TT0"/>
<use x="1121.0" y="0" xlink:href="#g111/TT0"/>
<use x="1732.0" y="0" xlink:href="#g110/TT0"/>
<use x="2313.0" y="0" xlink:href="#g103/TT0"/>
<use x="3195.0" y="0" xlink:href="#g119/TT0"/>
<use x="3941.0" y="0" xlink:href="#g105/TT0"/>
<use x="4191.0" y="0" xlink:href="#g110/TT0"/>
<use x="4772.0" y="0" xlink:href="#g100/TT0"/>
<use x="5409.0" y="0" xlink:href="#g115/TT0"/>
<use x="5853.0" y="0" xlink:href="#g46/TT0"/>
<use x="6363.0" y="0" xlink:href="#g72/TT0"/>
<use x="7081.0" y="0" xlink:href="#g105/TT0"/>
<use x="7331.0" y="0" xlink:href="#g103/TT0"/>
<use x="7963.0" y="0" xlink:href="#g104/TT0"/>
<use x="8796.0" y="0" xlink:href="#g97/TT0"/>
<use x="9330.0" y="0" xlink:href="#g110/TT0"/>
<use x="9911.0" y="0" xlink:href="#g100/TT0"/>
<use x="10798.0" y="0" xlink:href="#g115/TT0"/>
<use x="11242.0" y="0" xlink:href="#g116/TT0"/>
<use x="11559.0" y="0" xlink:href="#g97/TT0"/>
<use x="12093.0" y="0" xlink:href="#g98/TT0"/>
<use x="12730.0" y="0" xlink:href="#g108/TT0"/>
<use x="12982.0" y="0" xlink:href="#g101/TT0"/>
<use x="13804.0" y="0" xlink:href="#g112/TT0"/>
<use x="14439.0" y="0" xlink:href="#g114/TT0"/>
<use x="14799.0" y="0" xlink:href="#g101/TT0"/>
<use x="15371.0" y="0" xlink:href="#g115/TT0"/>
<use x="15815.0" y="0" xlink:href="#g115/TT0"/>
<use x="16259.0" y="0" xlink:href="#g117/TT0"/>
<use x="16840.0" y="0" xlink:href="#g114/TT0"/>
<use x="17200.0" y="0" xlink:href="#g101/TT0"/>
<use x="17772.0" y="0" xlink:href="#g44/TT0"/>
<use x="18282.0" y="0" xlink:href="#g111/TT0"/>
<use x="18893.0" y="0" xlink:href="#g110/TT0"/>
<use x="19724.0" y="0" xlink:href="#g116/TT0"/>
<use x="20041.0" y="0" xlink:href="#g104/TT0"/>
<use x="20624.0" y="0" xlink:href="#g101/TT0"/>
<use x="21446.0" y="0" xlink:href="#g111/TT0"/>
<use x="22057.0" y="0" xlink:href="#g116/TT0"/>
<use x="22374.0" y="0" xlink:href="#g104/TT0"/>
<use x="22957.0" y="0" xlink:href="#g101/TT0"/>
<use x="23529.0" y="0" xlink:href="#g114/TT0"/>
<use x="24139.0" y="0" xlink:href="#g104/TT0"/>
<use x="24722.0" y="0" xlink:href="#g97/TT0"/>
<use x="25256.0" y="0" xlink:href="#g110/TT0"/>
<use x="25837.0" y="0" xlink:href="#g100/TT0"/>
<use x="26474.0" y="0" xlink:href="#g44/TT0"/>
</g>
<text x="0" y="474.63" font-size="15.8pt" font-family="Avenir Next for SAS" fill="#2a3037" opacity="0">
strong winds. High and stable pressure, on the other hand,</text>
<g fill="#2a3037" stroke="#2a3037" transform="translate(0 500.37) scale(0.021 -0.021)">
<use x="0" y="0" xlink:href="#g101/TT0"/>
<use x="572.0" y="0" xlink:href="#g110/TT0"/>
<use x="1153.0" y="0" xlink:href="#g99/TT0"/>
<use x="1653.0" y="0" xlink:href="#g111/TT0"/>
<use x="2264.0" y="0" xlink:href="#g117/TT0"/>
<use x="2845.0" y="0" xlink:href="#g114/TT0"/>
<use x="3205.0" y="0" xlink:href="#g97/TT0"/>
<use x="3739.0" y="0" xlink:href="#g103/TT0"/>
<use x="4371.0" y="0" xlink:href="#g101/TT0"/>
<use x="4943.0" y="0" xlink:href="#g115/TT0"/>
<use x="5637.0" y="0" xlink:href="#g97/TT0"/>
<use x="6171.0" y="0" xlink:href="#g99/TT0"/>
<use x="6671.0" y="0" xlink:href="#g116/TT0"/>
<use x="6988.0" y="0" xlink:href="#g105/TT0"/>
<use x="7238.0" y="0" xlink:href="#g118/TT0"/>
<use x="7726.0" y="0" xlink:href="#g101/TT0"/>
<use x="8548.0" y="0" xlink:href="#g102/TT0"/>
<use x="8843.0" y="0" xlink:href="#g111/TT0"/>
<use x="9454.0" y="0" xlink:href="#g114/TT0"/>
<use x="9814.0" y="0" xlink:href="#g97/TT0"/>
<use x="10348.0" y="0" xlink:href="#g103/TT0"/>
<use x="10980.0" y="0" xlink:href="#g105/TT0"/>
<use x="11230.0" y="0" xlink:href="#g110/TT0"/>
<use x="11811.0" y="0" xlink:href="#g103/TT0"/>
<use x="12443.0" y="0" xlink:href="#g44/TT0"/>
<use x="12953.0" y="0" xlink:href="#g97/TT0"/>
<use x="13487.0" y="0" xlink:href="#g115/TT0"/>
<use x="14181.0" y="0" xlink:href="#g105/TT0"/>
<use x="14431.0" y="0" xlink:href="#g116/TT0"/>
<use x="14998.0" y="0" xlink:href="#g117/TT0"/>
<use x="15579.0" y="0" xlink:href="#g115/TT0"/>
<use x="16023.0" y="0" xlink:href="#g117/TT0"/>
<use x="16604.0" y="0" xlink:href="#g97/TT0"/>
<use x="17138.0" y="0" xlink:href="#g108/TT0"/>
<use x="17390.0" y="0" xlink:href="#g108/TT0"/>
<use x="17642.0" y="0" xlink:href="#g121/TT0"/>
<use x="18380.0" y="0" xlink:href="#g98/TT0"/>
<use x="19017.0" y="0" xlink:href="#g114/TT0"/>
<use x="19377.0" y="0" xlink:href="#g105/TT0"/>
<use x="19627.0" y="0" xlink:href="#g110/TT0"/>
<use x="20208.0" y="0" xlink:href="#g103/TT0"/>
<use x="20840.0" y="0" xlink:href="#g115/TT0"/>
<use x="21534.0" y="0" xlink:href="#g99/TT0"/>
<use x="22034.0" y="0" xlink:href="#g108/TT0"/>
<use x="22286.0" y="0" xlink:href="#g101/TT0"/>
<use x="22858.0" y="0" xlink:href="#g97/TT0"/>
<use x="23392.0" y="0" xlink:href="#g114/TT0"/>
<use x="24002.0" y="0" xlink:href="#g97/TT0"/>
<use x="24536.0" y="0" xlink:href="#g110/TT0"/>
<use x="25117.0" y="0" xlink:href="#g100/TT0"/>
</g>
<text x="0" y="500.37" font-size="15.8pt" font-family="Avenir Next for SAS" fill="#2a3037" opacity="0">
encourages active foraging, as it usually brings clear and</text>
<g fill="#2a3037" stroke="#2a3037" transform="translate(0 526.11) scale(0.021 -0.021)">
<use x="0" y="0" xlink:href="#g99/TT0"/>
<use x="500.0" y="0" xlink:href="#g97/TT0"/>
<use x="1034.0" y="0" xlink:href="#g108/TT0"/>
<use x="1286.0" y="0" xlink:href="#g109/TT0"/>
<use x="2419.0" y="0" xlink:href="#g99/TT0"/>
<use x="2919.0" y="0" xlink:href="#g111/TT0"/>
<use x="3530.0" y="0" xlink:href="#g110/TT0"/>
<use x="4111.0" y="0" xlink:href="#g100/TT0"/>
<use x="4748.0" y="0" xlink:href="#g105/TT0"/>
<use x="4998.0" y="0" xlink:href="#g116/TT0"/>
<use x="5315.0" y="0" xlink:href="#g105/TT0"/>
<use x="5565.0" y="0" xlink:href="#g111/TT0"/>
<use x="6176.0" y="0" xlink:href="#g110/TT0"/>
<use x="6757.0" y="0" xlink:href="#g115/TT0"/>
<use x="7201.0" y="0" xlink:href="#g46/TT0"/>
<use x="7711.0" y="0" xlink:href="#g65/TT0"/>
<use x="8411.0" y="0" xlink:href="#g100/TT0"/>
<use x="9048.0" y="0" xlink:href="#g100/TT0"/>
<use x="9685.0" y="0" xlink:href="#g105/TT0"/>
<use x="9935.0" y="0" xlink:href="#g116/TT0"/>
<use x="10252.0" y="0" xlink:href="#g105/TT0"/>
<use x="10502.0" y="0" xlink:href="#g111/TT0"/>
<use x="11113.0" y="0" xlink:href="#g110/TT0"/>
<use x="11694.0" y="0" xlink:href="#g97/TT0"/>
<use x="12228.0" y="0" xlink:href="#g108/TT0"/>
<use x="12480.0" y="0" xlink:href="#g108/TT0"/>
<use x="12732.0" y="0" xlink:href="#g121/TT0"/>
<use x="13220.0" y="0" xlink:href="#g44/TT0"/>
<use x="13730.0" y="0" xlink:href="#g115/TT0"/>
<use x="14174.0" y="0" xlink:href="#g105/TT0"/>
<use x="14424.0" y="0" xlink:href="#g110/TT0"/>
<use x="15005.0" y="0" xlink:href="#g99/TT0"/>
<use x="15505.0" y="0" xlink:href="#g101/TT0"/>
<use x="16327.0" y="0" xlink:href="#g97/TT0"/>
<use x="16861.0" y="0" xlink:href="#g105/TT0"/>
<use x="17111.0" y="0" xlink:href="#g114/TT0"/>
<use x="17721.0" y="0" xlink:href="#g112/TT0"/>
<use x="18356.0" y="0" xlink:href="#g114/TT0"/>
<use x="18716.0" y="0" xlink:href="#g101/TT0"/>
<use x="19288.0" y="0" xlink:href="#g115/TT0"/>
<use x="19732.0" y="0" xlink:href="#g115/TT0"/>
<use x="20176.0" y="0" xlink:href="#g117/TT0"/>
<use x="20757.0" y="0" xlink:href="#g114/TT0"/>
<use x="21117.0" y="0" xlink:href="#g101/TT0"/>
<use x="21939.0" y="0" xlink:href="#g100/TT0"/>
<use x="22576.0" y="0" xlink:href="#g101/TT0"/>
<use x="23148.0" y="0" xlink:href="#g99/TT0"/>
<use x="23648.0" y="0" xlink:href="#g114/TT0"/>
<use x="24008.0" y="0" xlink:href="#g101/TT0"/>
<use x="24580.0" y="0" xlink:href="#g97/TT0"/>
<use x="25114.0" y="0" xlink:href="#g115/TT0"/>
<use x="25558.0" y="0" xlink:href="#g101/TT0"/>
<use x="26130.0" y="0" xlink:href="#g115/TT0"/>
</g>
<text x="0" y="526.11" font-size="15.8pt" font-family="Avenir Next for SAS" fill="#2a3037" opacity="0">
calm conditions. Additionally, since air pressure decreases</text>
<g fill="#2a3037" stroke="#2a3037" transform="translate(0 551.85) scale(0.021 -0.021)">
<use x="0" y="0" xlink:href="#g119/TT0"/>
<use x="746.0" y="0" xlink:href="#g105/TT0"/>
<use x="996.0" y="0" xlink:href="#g116/TT0"/>
<use x="1313.0" y="0" xlink:href="#g104/TT0"/>
<use x="2146.0" y="0" xlink:href="#g97/TT0"/>
<use x="2680.0" y="0" xlink:href="#g108/TT0"/>
<use x="2932.0" y="0" xlink:href="#g116/TT0"/>
<use x="3249.0" y="0" xlink:href="#g105/TT0"/>
<use x="3499.0" y="0" xlink:href="#g116/TT0"/>
<use x="3816.0" y="0" xlink:href="#g117/TT0"/>
<use x="4397.0" y="0" xlink:href="#g100/TT0"/>
<use x="5034.0" y="0" xlink:href="#g101/TT0"/>
<use x="5606.0" y="0" xlink:href="#g44/TT0"/>
<use x="6116.0" y="0" xlink:href="#g109/TT0"/>
<use x="6999.0" y="0" xlink:href="#g101/TT0"/>
<use x="7571.0" y="0" xlink:href="#g97/TT0"/>
<use x="8105.0" y="0" xlink:href="#g115/TT0"/>
<use x="8549.0" y="0" xlink:href="#g117/TT0"/>
<use x="9130.0" y="0" xlink:href="#g114/TT0"/>
<use x="9490.0" y="0" xlink:href="#g105/TT0"/>
<use x="9740.0" y="0" xlink:href="#g110/TT0"/>
<use x="10321.0" y="0" xlink:href="#g103/TT0"/>
<use x="11203.0" y="0" xlink:href="#g105/TT0"/>
<use x="11453.0" y="0" xlink:href="#g116/TT0"/>
<use x="12020.0" y="0" xlink:href="#g97/TT0"/>
<use x="12554.0" y="0" xlink:href="#g108/TT0"/>
<use x="12806.0" y="0" xlink:href="#g108/TT0"/>
<use x="13058.0" y="0" xlink:href="#g111/TT0"/>
<use x="13669.0" y="0" xlink:href="#g119/TT0"/>
<use x="14415.0" y="0" xlink:href="#g115/TT0"/>
<use x="15109.0" y="0" xlink:href="#g117/TT0"/>
<use x="15690.0" y="0" xlink:href="#g115/TT0"/>
<use x="16384.0" y="0" xlink:href="#g116/TT0"/>
<use x="16701.0" y="0" xlink:href="#g111/TT0"/>
<use x="17562.0" y="0" xlink:href="#g101/TT0"/>
<use x="18134.0" y="0" xlink:href="#g115/TT0"/>
<use x="18578.0" y="0" xlink:href="#g116/TT0"/>
<use x="18895.0" y="0" xlink:href="#g105/TT0"/>
<use x="19145.0" y="0" xlink:href="#g109/TT0"/>
<use x="20028.0" y="0" xlink:href="#g97/TT0"/>
<use x="20562.0" y="0" xlink:href="#g116/TT0"/>
<use x="20879.0" y="0" xlink:href="#g101/TT0"/>
<use x="21701.0" y="0" xlink:href="#g116/TT0"/>
<use x="22018.0" y="0" xlink:href="#g104/TT0"/>
<use x="22601.0" y="0" xlink:href="#g101/TT0"/>
<use x="23423.0" y="0" xlink:href="#g104/TT0"/>
<use x="24006.0" y="0" xlink:href="#g101/TT0"/>
<use x="24578.0" y="0" xlink:href="#g105/TT0"/>
<use x="24828.0" y="0" xlink:href="#g103/TT0"/>
<use x="25460.0" y="0" xlink:href="#g104/TT0"/>
<use x="26043.0" y="0" xlink:href="#g116/TT0"/>
<use x="26610.0" y="0" xlink:href="#g97/TT0"/>
<use x="27144.0" y="0" xlink:href="#g116/TT0"/>
</g>
<text x="0" y="551.85" font-size="15.8pt" font-family="Avenir Next for SAS" fill="#2a3037" opacity="0">
with altitude, measuring it allows us to estimate the height at</text>
<g fill="#2a3037" stroke="#2a3037" transform="translate(0 577.6) scale(0.021 -0.021)">
<use x="0" y="0" xlink:href="#g119/TT0"/>
<use x="746.0" y="0" xlink:href="#g104/TT0"/>
<use x="1329.0" y="0" xlink:href="#g105/TT0"/>
<use x="1579.0" y="0" xlink:href="#g99/TT0"/>
<use x="2079.0" y="0" xlink:href="#g104/TT0"/>
<use x="2912.0" y="0" xlink:href="#g116/TT0"/>
<use x="3229.0" y="0" xlink:href="#g104/TT0"/>
<use x="3812.0" y="0" xlink:href="#g101/TT0"/>
<use x="4634.0" y="0" xlink:href="#g98/TT0"/>
<use x="5271.0" y="0" xlink:href="#g101/TT0"/>
<use x="5843.0" y="0" xlink:href="#g101/TT0"/>
<use x="6415.0" y="0" xlink:href="#g104/TT0"/>
<use x="6998.0" y="0" xlink:href="#g105/TT0"/>
<use x="7248.0" y="0" xlink:href="#g118/TT0"/>
<use x="7736.0" y="0" xlink:href="#g101/TT0"/>
<use x="8558.0" y="0" xlink:href="#g105/TT0"/>
<use x="8808.0" y="0" xlink:href="#g115/TT0"/>
<use x="9502.0" y="0" xlink:href="#g112/TT0"/>
<use x="10137.0" y="0" xlink:href="#g108/TT0"/>
<use x="10389.0" y="0" xlink:href="#g97/TT0"/>
<use x="10923.0" y="0" xlink:href="#g99/TT0"/>
<use x="11423.0" y="0" xlink:href="#g101/TT0"/>
<use x="11995.0" y="0" xlink:href="#g100/TT0"/>
<use x="12632.0" y="0" xlink:href="#g44/TT0"/>
<use x="13142.0" y="0" xlink:href="#g119/TT0"/>
<use x="13888.0" y="0" xlink:href="#g104/TT0"/>
<use x="14471.0" y="0" xlink:href="#g105/TT0"/>
<use x="14721.0" y="0" xlink:href="#g99/TT0"/>
<use x="15221.0" y="0" xlink:href="#g104/TT0"/>
<use x="16054.0" y="0" xlink:href="#g99/TT0"/>
<use x="16554.0" y="0" xlink:href="#g97/TT0"/>
<use x="17088.0" y="0" xlink:href="#g110/TT0"/>
<use x="17919.0" y="0" xlink:href="#g98/TT0"/>
<use x="18556.0" y="0" xlink:href="#g101/TT0"/>
<use x="19378.0" y="0" xlink:href="#g117/TT0"/>
<use x="19959.0" y="0" xlink:href="#g115/TT0"/>
<use x="20403.0" y="0" xlink:href="#g101/TT0"/>
<use x="20975.0" y="0" xlink:href="#g102/TT0"/>
<use x="21270.0" y="0" xlink:href="#g117/TT0"/>
<use x="21851.0" y="0" xlink:href="#g108/TT0"/>
<use x="22353.0" y="0" xlink:href="#g105/TT0"/>
<use x="22603.0" y="0" xlink:href="#g110/TT0"/>
</g>
<text x="0" y="577.6" font-size="15.8pt" font-family="Avenir Next for SAS" fill="#2a3037" opacity="0">
which the beehive is placed, which can be useful in</text>
<g fill="#2a3037" stroke="#2a3037" transform="translate(0 603.34) scale(0.021 -0.021)">
<use x="0" y="0" xlink:href="#g109/TT0"/>
<use x="883.0" y="0" xlink:href="#g111/TT0"/>
<use x="1494.0" y="0" xlink:href="#g110/TT0"/>
<use x="2075.0" y="0" xlink:href="#g105/TT0"/>
<use x="2325.0" y="0" xlink:href="#g116/TT0"/>
<use x="2642.0" y="0" xlink:href="#g111/TT0"/>
<use x="3253.0" y="0" xlink:href="#g114/TT0"/>
<use x="3613.0" y="0" xlink:href="#g105/TT0"/>
<use x="3863.0" y="0" xlink:href="#g110/TT0"/>
<use x="4444.0" y="0" xlink:href="#g103/TT0"/>
<use x="5326.0" y="0" xlink:href="#g101/TT0"/>
<use x="5898.0" y="0" xlink:href="#g110/TT0"/>
<use x="6479.0" y="0" xlink:href="#g118/TT0"/>
<use x="6967.0" y="0" xlink:href="#g105/TT0"/>
<use x="7217.0" y="0" xlink:href="#g114/TT0"/>
<use x="7577.0" y="0" xlink:href="#g111/TT0"/>
<use x="8188.0" y="0" xlink:href="#g110/TT0"/>
<use x="8769.0" y="0" xlink:href="#g109/TT0"/>
<use x="9652.0" y="0" xlink:href="#g101/TT0"/>
<use x="10224.0" y="0" xlink:href="#g110/TT0"/>
<use x="10805.0" y="0" xlink:href="#g116/TT0"/>
<use x="11122.0" y="0" xlink:href="#g97/TT0"/>
<use x="11656.0" y="0" xlink:href="#g108/TT0"/>
<use x="12158.0" y="0" xlink:href="#g99/TT0"/>
<use x="12658.0" y="0" xlink:href="#g111/TT0"/>
<use x="13269.0" y="0" xlink:href="#g110/TT0"/>
<use x="13850.0" y="0" xlink:href="#g100/TT0"/>
<use x="14487.0" y="0" xlink:href="#g105/TT0"/>
<use x="14737.0" y="0" xlink:href="#g116/TT0"/>
<use x="15054.0" y="0" xlink:href="#g105/TT0"/>
<use x="15304.0" y="0" xlink:href="#g111/TT0"/>
<use x="15915.0" y="0" xlink:href="#g110/TT0"/>
<use x="16496.0" y="0" xlink:href="#g115/TT0"/>
<use x="16940.0" y="0" xlink:href="#g46/TT0"/>
</g>
<text x="0" y="603.34" font-size="15.8pt" font-family="Avenir Next for SAS" fill="#2a3037" opacity="0">
monitoring environmental conditions.</text>
</g>
</g>
</g>
</g>
<g transform=" translate(0 -849.0)">
<g transform=" translate(1.0 -10.0)">
<g transform=" translate(16.0 -16.0)">
</g>
</g>
<g transform=" translate(1514.0 -1.0)">
<g transform=" translate(16.0 -16.0)">
</g>
</g>
<g transform=" translate(383.0 -4.0)">
<g transform=" translate(16.0 -16.0)">
</g>
</g>
</g>
<g transform=" translate(1.0 -1.0)">
<g transform=" translate(16.0 -16.0)">
</g>
</g>
<g transform=" translate(1.0 -493.0)">
<g transform=" translate(16.0 -16.0)">
</g>
</g>
<g transform=" translate(1.0 -1.0)">
<g transform=" translate(16.0 -16.0)">
</g>
</g>
<g transform=" translate(239.0 0)">
<g transform=" translate(85.0 -202.0)">
<g transform=" translate(16.0 -16.0)">
</g>
</g>
<g transform=" translate(1003.0 0)">
<g transform=" translate(16.0 -16.0)">
</g>
</g>
</g>
<g transform=" translate(0 -849.0)">
<g transform=" translate(1.0 -10.0)">
<g transform=" translate(16.0 -16.0)">
</g>
</g>
<g transform=" translate(1514.0 -1.0)">
<g transform=" translate(16.0 -16.0)">
</g>
</g>
<g transform=" translate(383.0 -4.0)">
<g transform=" translate(16.0 -16.0)">
</g>
</g>
</g>
<g transform=" translate(1.0 -1.0)">
<g transform=" translate(16.0 -16.0)">
</g>
</g>
<g transform=" translate(1.0 -493.0)">
<g transform=" translate(16.0 -16.0)">
</g>
</g>
<g transform=" translate(1.0 -1.0)">
<g transform=" translate(16.0 -16.0)">
</g>
</g>
<g transform=" translate(239.0 0)">
<g transform=" translate(85.0 -202.0)">
<g transform=" translate(16.0 -16.0)">
</g>
</g>
<g transform=" translate(1003.0 0)">
<g transform=" translate(16.0 -16.0)">
</g>
</g>
</g>
<g transform=" translate(0 -849.0)">
<g transform=" translate(1.0 -10.0)">
<g transform=" translate(16.0 -16.0)">
</g>
</g>
<g transform=" translate(1514.0 -1.0)">
<g transform=" translate(16.0 -16.0)">
</g>
</g>
<g transform=" translate(383.0 -4.0)">
<g transform=" translate(16.0 -16.0)">
</g>
</g>
</g>
<g transform=" translate(1.0 -1.0)">
<g transform=" translate(16.0 -16.0)">
</g>
</g>
<g transform=" translate(1.0 -493.0)">
<g transform=" translate(16.0 -16.0)">
</g>
</g>
<g transform=" translate(1.0 -1.0)">
<g transform=" translate(16.0 -16.0)">
</g>
</g>
<g transform=" translate(239.0 0)">
<g transform=" translate(85.0 -202.0)">
<g transform=" translate(16.0 -16.0)">
</g>
</g>
<g transform=" translate(1003.0 0)">
<g transform=" translate(16.0 -16.0)">
</g>
</g>
</g>
</g>
</svg>
